<svg width="400" height="300" viewBox="0 0 400 300" fill="none" xmlns="http://www.w3.org/2000/svg">
<rect y="126" width="400" height="130" rx="21" fill="#27CF87"/>
<circle cx="347" cy="126" r="45" fill="#27CF87"/>
<circle cx="226" cy="81" r="26" fill="#27CF87"/>
<circle cx="103" cy="107" r="64" fill="#27CF87"/>
<path d="M24.3417 109.336C21.1737 109.336 18.2617 108.6 15.6057 107.128C12.9817 105.656 10.8857 103.608 9.31769 100.984C7.78169 98.328 7.01369 95.352 7.01369 92.056C7.01369 88.76 7.78169 85.8 9.31769 83.176C10.8857 80.552 12.9817 78.504 15.6057 77.032C18.2617 75.56 21.1737 74.824 24.3417 74.824C27.5097 74.824 30.4057 75.56 33.0297 77.032C35.6857 78.504 37.7657 80.552 39.2697 83.176C40.8057 85.8 41.5737 88.76 41.5737 92.056C41.5737 95.352 40.8057 98.328 39.2697 100.984C37.7337 103.608 35.6537 105.656 33.0297 107.128C30.4057 108.6 27.5097 109.336 24.3417 109.336ZM24.3417 101.848C27.0297 101.848 29.1737 100.952 30.7737 99.16C32.4057 97.368 33.2217 95 33.2217 92.056C33.2217 89.08 32.4057 86.712 30.7737 84.952C29.1737 83.16 27.0297 82.264 24.3417 82.264C21.6217 82.264 19.4457 83.144 17.8137 84.904C16.2137 86.664 15.4137 89.048 15.4137 92.056C15.4137 95.032 16.2137 97.416 17.8137 99.208C19.4457 100.968 21.6217 101.848 24.3417 101.848ZM54.3481 86.008C55.1481 84.76 56.2521 83.752 57.6601 82.984C59.0681 82.216 60.7161 81.832 62.6041 81.832C64.8121 81.832 66.8121 82.392 68.6041 83.512C70.3961 84.632 71.8041 86.232 72.8281 88.312C73.8841 90.392 74.4121 92.808 74.4121 95.56C74.4121 98.312 73.8841 100.744 72.8281 102.856C71.8041 104.936 70.3961 106.552 68.6041 107.704C66.8121 108.824 64.8121 109.384 62.6041 109.384C60.7481 109.384 59.1001 109 57.6601 108.232C56.2521 107.464 55.1481 106.472 54.3481 105.256V121.768H46.1401V82.216H54.3481V86.008ZM66.0601 95.56C66.0601 93.512 65.4841 91.912 64.3321 90.76C63.2121 89.576 61.8201 88.984 60.1561 88.984C58.5241 88.984 57.1321 89.576 55.9801 90.76C54.8601 91.944 54.3001 93.56 54.3001 95.608C54.3001 97.656 54.8601 99.272 55.9801 100.456C57.1321 101.64 58.5241 102.232 60.1561 102.232C61.7881 102.232 63.1801 101.64 64.3321 100.456C65.4841 99.24 66.0601 97.608 66.0601 95.56ZM93.6462 102.04V109H89.4702C86.4942 109 84.1742 108.28 82.5102 106.84C80.8462 105.368 80.0142 102.984 80.0142 99.688V89.032H76.7502V82.216H80.0142V75.688H88.2222V82.216H93.5982V89.032H88.2222V99.784C88.2222 100.584 88.4142 101.16 88.7982 101.512C89.1822 101.864 89.8222 102.04 90.7182 102.04H93.6462ZM102.346 79.432C100.906 79.432 99.7222 79.016 98.7942 78.184C97.8982 77.32 97.4502 76.264 97.4502 75.016C97.4502 73.736 97.8982 72.68 98.7942 71.848C99.7222 70.984 100.906 70.552 102.346 70.552C103.754 70.552 104.906 70.984 105.802 71.848C106.73 72.68 107.194 73.736 107.194 75.016C107.194 76.264 106.73 77.32 105.802 78.184C104.906 79.016 103.754 79.432 102.346 79.432ZM106.426 82.216V109H98.2182V82.216H106.426ZM146.55 81.928C149.878 81.928 152.518 82.936 154.47 84.952C156.454 86.968 157.446 89.768 157.446 93.352V109H149.286V94.456C149.286 92.728 148.822 91.4 147.894 90.472C146.998 89.512 145.75 89.032 144.15 89.032C142.55 89.032 141.286 89.512 140.358 90.472C139.462 91.4 139.014 92.728 139.014 94.456V109H130.854V94.456C130.854 92.728 130.39 91.4 129.462 90.472C128.566 89.512 127.318 89.032 125.718 89.032C124.118 89.032 122.854 89.512 121.926 90.472C121.03 91.4 120.582 92.728 120.582 94.456V109H112.374V82.216H120.582V85.576C121.414 84.456 122.502 83.576 123.846 82.936C125.19 82.264 126.71 81.928 128.406 81.928C130.422 81.928 132.214 82.36 133.782 83.224C135.382 84.088 136.63 85.32 137.526 86.92C138.454 85.448 139.718 84.248 141.318 83.32C142.918 82.392 144.662 81.928 146.55 81.928ZM167.315 79.432C165.875 79.432 164.691 79.016 163.763 78.184C162.867 77.32 162.419 76.264 162.419 75.016C162.419 73.736 162.867 72.68 163.763 71.848C164.691 70.984 165.875 70.552 167.315 70.552C168.723 70.552 169.875 70.984 170.771 71.848C171.699 72.68 172.163 73.736 172.163 75.016C172.163 76.264 171.699 77.32 170.771 78.184C169.875 79.016 168.723 79.432 167.315 79.432ZM171.395 82.216V109H163.187V82.216H171.395ZM185.023 102.232H196.639V109H175.855V102.472L186.991 88.984H175.951V82.216H196.399V88.744L185.023 102.232ZM226.404 95.176C226.404 95.944 226.356 96.744 226.26 97.576H207.684C207.812 99.24 208.34 100.52 209.268 101.416C210.228 102.28 211.396 102.712 212.772 102.712C214.82 102.712 216.244 101.848 217.044 100.12H225.78C225.332 101.88 224.516 103.464 223.332 104.872C222.18 106.28 220.724 107.384 218.964 108.184C217.204 108.984 215.236 109.384 213.06 109.384C210.436 109.384 208.1 108.824 206.052 107.704C204.004 106.584 202.404 104.984 201.252 102.904C200.1 100.824 199.524 98.392 199.524 95.608C199.524 92.824 200.084 90.392 201.204 88.312C202.356 86.232 203.956 84.632 206.004 83.512C208.052 82.392 210.404 81.832 213.06 81.832C215.652 81.832 217.956 82.376 219.972 83.464C221.988 84.552 223.556 86.104 224.676 88.12C225.828 90.136 226.404 92.488 226.404 95.176ZM218.004 93.016C218.004 91.608 217.524 90.488 216.564 89.656C215.604 88.824 214.404 88.408 212.964 88.408C211.588 88.408 210.42 88.808 209.46 89.608C208.532 90.408 207.956 91.544 207.732 93.016H218.004ZM269.802 75.304L258.138 97.864V109H249.93V97.864L238.266 75.304H247.578L254.106 89.416L260.586 75.304H269.802ZM285.301 109.384C282.677 109.384 280.309 108.824 278.197 107.704C276.117 106.584 274.469 104.984 273.253 102.904C272.069 100.824 271.477 98.392 271.477 95.608C271.477 92.856 272.085 90.44 273.301 88.36C274.517 86.248 276.181 84.632 278.293 83.512C280.405 82.392 282.773 81.832 285.397 81.832C288.021 81.832 290.389 82.392 292.501 83.512C294.613 84.632 296.277 86.248 297.493 88.36C298.709 90.44 299.317 92.856 299.317 95.608C299.317 98.36 298.693 100.792 297.445 102.904C296.229 104.984 294.549 106.584 292.405 107.704C290.293 108.824 287.925 109.384 285.301 109.384ZM285.301 102.28C286.869 102.28 288.197 101.704 289.285 100.552C290.405 99.4 290.965 97.752 290.965 95.608C290.965 93.464 290.421 91.816 289.333 90.664C288.277 89.512 286.965 88.936 285.397 88.936C283.797 88.936 282.469 89.512 281.413 90.664C280.357 91.784 279.829 93.432 279.829 95.608C279.829 97.752 280.341 99.4 281.365 100.552C282.421 101.704 283.733 102.28 285.301 102.28ZM330.119 82.216V109H321.911V105.352C321.079 106.536 319.943 107.496 318.503 108.232C317.095 108.936 315.527 109.288 313.799 109.288C311.751 109.288 309.943 108.84 308.375 107.944C306.807 107.016 305.591 105.688 304.727 103.96C303.863 102.232 303.431 100.2 303.431 97.864V82.216H311.591V96.76C311.591 98.552 312.055 99.944 312.983 100.936C313.911 101.928 315.159 102.424 316.727 102.424C318.327 102.424 319.591 101.928 320.519 100.936C321.447 99.944 321.911 98.552 321.911 96.76V82.216H330.119ZM344.223 86.68C345.183 85.208 346.383 84.056 347.823 83.224C349.263 82.36 350.863 81.928 352.623 81.928V90.616H350.367C348.319 90.616 346.783 91.064 345.759 91.96C344.735 92.824 344.223 94.36 344.223 96.568V109H336.015V82.216H344.223V86.68ZM127.524 121.304L118.74 155H108.804L103.428 132.824L97.8597 155H87.9237L79.3797 121.304H88.1637L93.0117 145.832L99.0117 121.304H108.036L113.796 145.832L118.692 121.304H127.524ZM156.888 141.176C156.888 141.944 156.84 142.744 156.744 143.576H138.168C138.296 145.24 138.824 146.52 139.752 147.416C140.712 148.28 141.88 148.712 143.256 148.712C145.304 148.712 146.728 147.848 147.528 146.12H156.264C155.816 147.88 155 149.464 153.816 150.872C152.664 152.28 151.208 153.384 149.448 154.184C147.688 154.984 145.72 155.384 143.544 155.384C140.92 155.384 138.584 154.824 136.536 153.704C134.488 152.584 132.888 150.984 131.736 148.904C130.584 146.824 130.008 144.392 130.008 141.608C130.008 138.824 130.568 136.392 131.688 134.312C132.84 132.232 134.44 130.632 136.488 129.512C138.536 128.392 140.888 127.832 143.544 127.832C146.136 127.832 148.44 128.376 150.456 129.464C152.472 130.552 154.04 132.104 155.16 134.12C156.312 136.136 156.888 138.488 156.888 141.176ZM148.488 139.016C148.488 137.608 148.008 136.488 147.048 135.656C146.088 134.824 144.888 134.408 143.448 134.408C142.072 134.408 140.904 134.808 139.944 135.608C139.016 136.408 138.44 137.544 138.216 139.016H148.488ZM169.426 132.008C170.194 130.76 171.298 129.752 172.738 128.984C174.178 128.216 175.826 127.832 177.682 127.832C179.89 127.832 181.89 128.392 183.682 129.512C185.474 130.632 186.882 132.232 187.906 134.312C188.962 136.392 189.49 138.808 189.49 141.56C189.49 144.312 188.962 146.744 187.906 148.856C186.882 150.936 185.474 152.552 183.682 153.704C181.89 154.824 179.89 155.384 177.682 155.384C175.794 155.384 174.146 155.016 172.738 154.28C171.33 153.512 170.226 152.504 169.426 151.256V155H161.218V119.48H169.426V132.008ZM181.138 141.56C181.138 139.512 180.562 137.912 179.41 136.76C178.29 135.576 176.898 134.984 175.234 134.984C173.602 134.984 172.21 135.576 171.058 136.76C169.938 137.944 169.378 139.56 169.378 141.608C169.378 143.656 169.938 145.272 171.058 146.456C172.21 147.64 173.602 148.232 175.234 148.232C176.866 148.232 178.258 147.64 179.41 146.456C180.562 145.24 181.138 143.608 181.138 141.56ZM204.692 155.384C202.356 155.384 200.276 154.984 198.452 154.184C196.628 153.384 195.188 152.296 194.132 150.92C193.076 149.512 192.484 147.944 192.356 146.216H200.468C200.564 147.144 200.996 147.896 201.764 148.472C202.532 149.048 203.476 149.336 204.596 149.336C205.62 149.336 206.404 149.144 206.948 148.76C207.524 148.344 207.812 147.816 207.812 147.176C207.812 146.408 207.412 145.848 206.612 145.496C205.812 145.112 204.516 144.696 202.724 144.248C200.804 143.8 199.204 143.336 197.924 142.856C196.644 142.344 195.54 141.56 194.612 140.504C193.684 139.416 193.22 137.96 193.22 136.136C193.22 134.6 193.636 133.208 194.468 131.96C195.332 130.68 196.58 129.672 198.212 128.936C199.876 128.2 201.844 127.832 204.116 127.832C207.476 127.832 210.116 128.664 212.036 130.328C213.988 131.992 215.108 134.2 215.396 136.952H207.812C207.684 136.024 207.268 135.288 206.564 134.744C205.892 134.2 204.996 133.928 203.876 133.928C202.916 133.928 202.18 134.12 201.668 134.504C201.156 134.856 200.9 135.352 200.9 135.992C200.9 136.76 201.3 137.336 202.1 137.72C202.932 138.104 204.212 138.488 205.94 138.872C207.924 139.384 209.54 139.896 210.788 140.408C212.036 140.888 213.124 141.688 214.052 142.808C215.012 143.896 215.508 145.368 215.54 147.224C215.54 148.792 215.092 150.2 214.196 151.448C213.332 152.664 212.068 153.624 210.404 154.328C208.772 155.032 206.868 155.384 204.692 155.384ZM224.69 125.432C223.25 125.432 222.066 125.016 221.138 124.184C220.242 123.32 219.794 122.264 219.794 121.016C219.794 119.736 220.242 118.68 221.138 117.848C222.066 116.984 223.25 116.552 224.69 116.552C226.098 116.552 227.25 116.984 228.146 117.848C229.074 118.68 229.538 119.736 229.538 121.016C229.538 122.264 229.074 123.32 228.146 124.184C227.25 125.016 226.098 125.432 224.69 125.432ZM228.77 128.216V155H220.562V128.216H228.77ZM249.646 148.04V155H245.47C242.494 155 240.174 154.28 238.51 152.84C236.846 151.368 236.014 148.984 236.014 145.688V135.032H232.75V128.216H236.014V121.688H244.222V128.216H249.598V135.032H244.222V145.784C244.222 146.584 244.414 147.16 244.798 147.512C245.182 147.864 245.822 148.04 246.718 148.04H249.646ZM279.466 141.176C279.466 141.944 279.418 142.744 279.322 143.576H260.746C260.874 145.24 261.402 146.52 262.33 147.416C263.29 148.28 264.458 148.712 265.834 148.712C267.882 148.712 269.306 147.848 270.106 146.12H278.842C278.394 147.88 277.578 149.464 276.394 150.872C275.242 152.28 273.786 153.384 272.026 154.184C270.266 154.984 268.298 155.384 266.122 155.384C263.498 155.384 261.162 154.824 259.114 153.704C257.066 152.584 255.466 150.984 254.314 148.904C253.162 146.824 252.586 144.392 252.586 141.608C252.586 138.824 253.146 136.392 254.266 134.312C255.418 132.232 257.018 130.632 259.066 129.512C261.114 128.392 263.466 127.832 266.122 127.832C268.714 127.832 271.018 128.376 273.034 129.464C275.05 130.552 276.618 132.104 277.738 134.12C278.89 136.136 279.466 138.488 279.466 141.176ZM271.066 139.016C271.066 137.608 270.586 136.488 269.626 135.656C268.666 134.824 267.466 134.408 266.026 134.408C264.65 134.408 263.482 134.808 262.522 135.608C261.594 136.408 261.018 137.544 260.794 139.016H271.066Z" fill="#121212"/>
<path d="M15.6057 107.128L14.6272 108.872L14.6362 108.877L15.6057 107.128ZM9.31769 100.984L7.58636 101.985L7.59352 101.998L7.60086 102.01L9.31769 100.984ZM9.31769 83.176L7.60086 82.1501L7.59622 82.1578L7.59166 82.1656L9.31769 83.176ZM15.6057 77.032L14.6362 75.2827L14.6272 75.2877L15.6057 77.032ZM33.0297 77.032L32.0512 78.7763L32.0602 78.7813L33.0297 77.032ZM39.2697 83.176L37.5345 84.1706L37.539 84.1785L37.5437 84.1864L39.2697 83.176ZM39.2697 100.984L40.9957 101.994L41.001 101.985L39.2697 100.984ZM33.0297 107.128L34.0082 108.872L34.0082 108.872L33.0297 107.128ZM30.7737 99.16L29.295 97.8133L29.2884 97.8206L29.2818 97.828L30.7737 99.16ZM30.7737 84.952L29.2818 86.284L29.2944 86.2981L29.3072 86.3119L30.7737 84.952ZM17.8137 84.904L16.3472 83.5441L16.3404 83.5514L16.3338 83.5587L17.8137 84.904ZM17.8137 99.208L16.3218 100.54L16.3344 100.554L16.3472 100.568L17.8137 99.208ZM24.3417 107.336C21.4976 107.336 18.9215 106.679 16.5752 105.379L14.6362 108.877C17.6019 110.521 20.8497 111.336 24.3417 111.336V107.336ZM16.5842 105.384C14.2699 104.085 12.4264 102.287 11.0345 99.9581L7.60086 102.01C9.34501 104.929 11.6935 107.227 14.6272 108.872L16.5842 105.384ZM11.049 99.9827C9.70206 97.6536 9.01369 95.0274 9.01369 92.056H5.01369C5.01369 95.6766 5.86132 99.0024 7.58636 101.985L11.049 99.9827ZM9.01369 92.056C9.01369 89.0843 9.70208 86.4783 11.0437 84.1864L7.59166 82.1656C5.8613 85.1217 5.01369 88.4357 5.01369 92.056H9.01369ZM11.0345 84.2019C12.4264 81.8727 14.2699 80.0746 16.5842 78.7763L14.6272 75.2877C11.6935 76.9334 9.34501 79.2313 7.60086 82.1501L11.0345 84.2019ZM16.5752 78.7813C18.9215 77.481 21.4976 76.824 24.3417 76.824V72.824C20.8497 72.824 17.6019 73.639 14.6362 75.2827L16.5752 78.7813ZM24.3417 76.824C27.1858 76.824 29.7421 77.4809 32.0512 78.7763L34.0082 75.2877C31.0693 73.6391 27.8336 72.824 24.3417 72.824V76.824ZM32.0602 78.7813C34.3982 80.0771 36.2128 81.8647 37.5345 84.1706L41.0049 82.1814C39.3185 79.2393 36.9732 76.9309 33.9992 75.2827L32.0602 78.7813ZM37.5437 84.1864C38.8853 86.4783 39.5737 89.0843 39.5737 92.056H43.5737C43.5737 88.4357 42.7261 85.1217 40.9957 82.1656L37.5437 84.1864ZM39.5737 92.056C39.5737 95.0274 38.8853 97.6536 37.5384 99.9827L41.001 101.985C42.7261 99.0024 43.5737 95.6766 43.5737 92.056H39.5737ZM37.5437 99.9736C36.1852 102.294 34.3618 104.088 32.0512 105.384L34.0082 108.872C36.9456 107.224 39.2822 104.922 40.9957 101.994L37.5437 99.9736ZM32.0512 105.384C29.7421 106.679 27.1858 107.336 24.3417 107.336V111.336C27.8336 111.336 31.0693 110.521 34.0082 108.872L32.0512 105.384ZM24.3417 103.848C27.524 103.848 30.2386 102.762 32.2656 100.492L29.2818 97.828C28.1088 99.1418 26.5354 99.848 24.3417 99.848V103.848ZM32.2524 100.507C34.2885 98.2709 35.2217 95.3857 35.2217 92.056H31.2217C31.2217 94.6143 30.5229 96.4651 29.295 97.8133L32.2524 100.507ZM35.2217 92.056C35.2217 88.7023 34.2925 85.8054 32.2402 83.5921L29.3072 86.3119C30.5189 87.6186 31.2217 89.4577 31.2217 92.056H35.2217ZM32.2656 83.62C30.2386 81.3498 27.524 80.264 24.3417 80.264V84.264C26.5354 84.264 28.1088 84.9702 29.2818 86.284L32.2656 83.62ZM24.3417 80.264C21.1468 80.264 18.4099 81.3196 16.3472 83.5441L19.2802 86.2639C20.4815 84.9684 22.0965 84.264 24.3417 84.264V80.264ZM16.3338 83.5587C14.3174 85.7767 13.4137 88.687 13.4137 92.056H17.4137C17.4137 89.409 18.11 87.5513 19.2936 86.2493L16.3338 83.5587ZM13.4137 92.056C13.4137 95.4011 14.3214 98.2996 16.3218 100.54L19.3056 97.876C18.106 96.5324 17.4137 94.6629 17.4137 92.056H13.4137ZM16.3472 100.568C18.4099 102.792 21.1468 103.848 24.3417 103.848V99.848C22.0965 99.848 20.4815 99.1436 19.2802 97.8481L16.3472 100.568ZM54.3481 86.008H52.3481V92.834L56.0318 87.0873L54.3481 86.008ZM57.6601 82.984L56.7024 81.2282L56.7024 81.2282L57.6601 82.984ZM68.6041 83.512L67.5441 85.208L67.5441 85.208L68.6041 83.512ZM72.8281 88.312L71.0337 89.1954L71.0392 89.2064L71.0447 89.2174L72.8281 88.312ZM72.8281 102.856L71.0392 101.962L71.0337 101.973L72.8281 102.856ZM68.6041 107.704L69.6641 109.4L69.6749 109.393L69.6856 109.386L68.6041 107.704ZM57.6601 108.232L56.7024 109.988L56.7106 109.992L56.7189 109.997L57.6601 108.232ZM54.3481 105.256L56.0189 104.157L52.3481 98.5771V105.256H54.3481ZM54.3481 121.768V123.768H56.3481V121.768H54.3481ZM46.1401 121.768H44.1401V123.768H46.1401V121.768ZM46.1401 82.216V80.216H44.1401V82.216H46.1401ZM54.3481 82.216H56.3481V80.216H54.3481V82.216ZM64.3321 90.76L62.8791 92.1344L62.8982 92.1546L62.9178 92.1742L64.3321 90.76ZM55.9801 90.76L54.5466 89.3653L54.5368 89.3754L54.5271 89.3856L55.9801 90.76ZM55.9801 100.456L54.5271 101.83L54.5368 101.841L54.5466 101.851L55.9801 100.456ZM64.3321 100.456L65.7655 101.851L65.7748 101.841L65.784 101.831L64.3321 100.456ZM56.0318 87.0873C56.6358 86.1451 57.4799 85.3604 58.6178 84.7398L56.7024 81.2282C55.0242 82.1436 53.6603 83.3749 52.6643 84.9287L56.0318 87.0873ZM58.6178 84.7398C59.6839 84.1583 60.9913 83.832 62.6041 83.832V79.832C60.4408 79.832 58.4522 80.2737 56.7024 81.2282L58.6178 84.7398ZM62.6041 83.832C64.4549 83.832 66.0846 84.2958 67.5441 85.208L69.6641 81.816C67.5396 80.4882 65.1693 79.832 62.6041 79.832V83.832ZM67.5441 85.208C68.9902 86.1118 70.1576 87.4158 71.0337 89.1954L74.6224 87.4286C73.4505 85.0482 71.802 83.1522 69.6641 81.816L67.5441 85.208ZM71.0447 89.2174C71.9348 90.9706 72.4121 93.0663 72.4121 95.56H76.4121C76.4121 92.5497 75.8333 89.8134 74.6114 87.4066L71.0447 89.2174ZM72.4121 95.56C72.4121 98.0528 71.9351 100.17 71.0392 101.962L74.6169 103.75C75.833 101.318 76.4121 98.5712 76.4121 95.56H72.4121ZM71.0337 101.973C70.1556 103.756 68.982 105.083 67.5225 106.022L69.6856 109.386C71.8102 108.021 73.4525 106.116 74.6224 103.739L71.0337 101.973ZM67.5441 106.008C66.0846 106.92 64.4549 107.384 62.6041 107.384V111.384C65.1693 111.384 67.5396 110.728 69.6641 109.4L67.5441 106.008ZM62.6041 107.384C61.0308 107.384 59.7139 107.061 58.6012 106.467L56.7189 109.997C58.4862 110.939 60.4653 111.384 62.6041 111.384V107.384ZM58.6178 106.476C57.4678 105.849 56.6208 105.072 56.0189 104.157L52.6772 106.355C53.6753 107.872 55.0363 109.079 56.7024 109.988L58.6178 106.476ZM52.3481 105.256V121.768H56.3481V105.256H52.3481ZM54.3481 119.768H46.1401V123.768H54.3481V119.768ZM48.1401 121.768V82.216H44.1401V121.768H48.1401ZM46.1401 84.216H54.3481V80.216H46.1401V84.216ZM52.3481 82.216V86.008H56.3481V82.216H52.3481ZM68.0601 95.56C68.0601 93.1253 67.3641 90.9636 65.7463 89.3458L62.9178 92.1742C63.6041 92.8604 64.0601 93.8987 64.0601 95.56H68.0601ZM65.785 89.3856C64.2784 87.7929 62.3567 86.984 60.1561 86.984V90.984C61.2834 90.984 62.1458 91.3591 62.8791 92.1344L65.785 89.3856ZM60.1561 86.984C57.9767 86.984 56.0699 87.7996 54.5466 89.3653L57.4135 92.1547C58.1942 91.3524 59.0714 90.984 60.1561 90.984V86.984ZM54.5271 89.3856C52.9717 91.0299 52.3001 93.1859 52.3001 95.608H56.3001C56.3001 93.9341 56.7484 92.8581 57.433 92.1344L54.5271 89.3856ZM52.3001 95.608C52.3001 98.0301 52.9717 100.186 54.5271 101.83L57.433 99.0816C56.7484 98.3579 56.3001 97.2819 56.3001 95.608H52.3001ZM54.5466 101.851C56.0699 103.416 57.9767 104.232 60.1561 104.232V100.232C59.0714 100.232 58.1942 99.8636 57.4135 99.0613L54.5466 101.851ZM60.1561 104.232C62.3354 104.232 64.2422 103.416 65.7655 101.851L62.8986 99.0613C62.1179 99.8636 61.2407 100.232 60.1561 100.232V104.232ZM65.784 101.831C67.3627 100.165 68.0601 97.9995 68.0601 95.56H64.0601C64.0601 97.2165 63.6054 98.315 62.8802 99.0805L65.784 101.831ZM93.6462 102.04H95.6462V100.04H93.6462V102.04ZM93.6462 109V111H95.6462V109H93.6462ZM82.5102 106.84L81.185 108.338L81.1932 108.345L81.2014 108.352L82.5102 106.84ZM80.0142 89.032H82.0142V87.032H80.0142V89.032ZM76.7502 89.032H74.7502V91.032H76.7502V89.032ZM76.7502 82.216V80.216H74.7502V82.216H76.7502ZM80.0142 82.216V84.216H82.0142V82.216H80.0142ZM80.0142 75.688V73.688H78.0142V75.688H80.0142ZM88.2222 75.688H90.2222V73.688H88.2222V75.688ZM88.2222 82.216H86.2222V84.216H88.2222V82.216ZM93.5982 82.216H95.5982V80.216H93.5982V82.216ZM93.5982 89.032V91.032H95.5982V89.032H93.5982ZM88.2222 89.032V87.032H86.2222V89.032H88.2222ZM88.7982 101.512L87.4467 102.986L87.4467 102.986L88.7982 101.512ZM91.6462 102.04V109H95.6462V102.04H91.6462ZM93.6462 107H89.4702V111H93.6462V107ZM89.4702 107C86.8044 107 85.0085 106.357 83.8189 105.328L81.2014 108.352C83.3399 110.203 86.184 111 89.4702 111V107ZM83.8353 105.342C82.7733 104.403 82.0142 102.691 82.0142 99.688H78.0142C78.0142 103.277 78.9191 106.333 81.185 108.338L83.8353 105.342ZM82.0142 99.688V89.032H78.0142V99.688H82.0142ZM80.0142 87.032H76.7502V91.032H80.0142V87.032ZM78.7502 89.032V82.216H74.7502V89.032H78.7502ZM76.7502 84.216H80.0142V80.216H76.7502V84.216ZM82.0142 82.216V75.688H78.0142V82.216H82.0142ZM80.0142 77.688H88.2222V73.688H80.0142V77.688ZM86.2222 75.688V82.216H90.2222V75.688H86.2222ZM88.2222 84.216H93.5982V80.216H88.2222V84.216ZM91.5982 82.216V89.032H95.5982V82.216H91.5982ZM93.5982 87.032H88.2222V91.032H93.5982V87.032ZM86.2222 89.032V99.784H90.2222V89.032H86.2222ZM86.2222 99.784C86.2222 100.847 86.4717 102.093 87.4467 102.986L90.1496 100.038C90.1946 100.079 90.2259 100.12 90.2455 100.151C90.2643 100.182 90.2676 100.196 90.2636 100.184C90.2532 100.153 90.2222 100.033 90.2222 99.784H86.2222ZM87.4467 102.986C88.3871 103.848 89.6536 104.04 90.7182 104.04V100.04C90.3913 100.04 90.1955 100.007 90.0965 99.9796C90.0008 99.9533 90.0525 99.9487 90.1496 100.038L87.4467 102.986ZM90.7182 104.04H93.6462V100.04H90.7182V104.04ZM98.7942 78.184L97.4059 79.6237L97.4321 79.6489L97.4591 79.6731L98.7942 78.184ZM98.7942 71.848L100.155 73.3136L100.157 73.3118L98.7942 71.848ZM105.802 71.848L104.414 73.2877L104.44 73.3129L104.467 73.3371L105.802 71.848ZM105.802 78.184L107.163 79.6496L107.165 79.6478L105.802 78.184ZM106.426 82.216H108.426V80.216H106.426V82.216ZM106.426 109V111H108.426V109H106.426ZM98.2182 109H96.2182V111H98.2182V109ZM98.2182 82.216V80.216H96.2182V82.216H98.2182ZM102.346 77.432C101.317 77.432 100.634 77.1473 100.129 76.6949L97.4591 79.6731C98.8105 80.8847 100.495 81.432 102.346 81.432V77.432ZM100.182 76.7443C99.6785 76.2584 99.4502 75.7226 99.4502 75.016H95.4502C95.4502 76.8054 96.1178 78.3816 97.4059 79.6237L100.182 76.7443ZM99.4502 75.016C99.4502 74.2628 99.6877 73.7476 100.155 73.3136L97.4333 70.3824C96.1087 71.6124 95.4502 73.2092 95.4502 75.016H99.4502ZM100.157 73.3118C100.664 72.8397 101.338 72.552 102.346 72.552V68.552C100.474 68.552 98.7802 69.1283 97.4314 70.3842L100.157 73.3118ZM102.346 72.552C103.31 72.552 103.941 72.8312 104.414 73.2877L107.19 70.4083C105.872 69.1368 104.198 68.552 102.346 68.552V72.552ZM104.467 73.3371C104.959 73.7783 105.194 74.2868 105.194 75.016H109.194C109.194 73.1852 108.501 71.5817 107.137 70.3589L104.467 73.3371ZM105.194 75.016C105.194 75.6988 104.968 76.2277 104.439 76.7202L107.165 79.6478C108.492 78.4123 109.194 76.8292 109.194 75.016H105.194ZM104.441 76.7184C103.971 77.1549 103.331 77.432 102.346 77.432V81.432C104.177 81.432 105.841 80.8771 107.163 79.6496L104.441 76.7184ZM104.426 82.216V109H108.426V82.216H104.426ZM106.426 107H98.2182V111H106.426V107ZM100.218 109V82.216H96.2182V109H100.218ZM98.2182 84.216H106.426V80.216H98.2182V84.216ZM154.47 84.952L153.034 86.3432L153.039 86.3491L153.045 86.3549L154.47 84.952ZM157.446 109V111H159.446V109H157.446ZM149.286 109H147.286V111H149.286V109ZM147.894 90.472L146.432 91.8366L146.456 91.8618L146.48 91.8862L147.894 90.472ZM140.358 90.472L138.92 89.082L138.92 89.0828L140.358 90.472ZM139.014 109V111H141.014V109H139.014ZM130.854 109H128.854V111H130.854V109ZM129.462 90.472L128 91.8366L128.024 91.8618L128.048 91.8862L129.462 90.472ZM121.926 90.472L120.488 89.082L120.488 89.0828L121.926 90.472ZM120.582 109V111H122.582V109H120.582ZM112.374 109H110.374V111H112.374V109ZM112.374 82.216V80.216H110.374V82.216H112.374ZM120.582 82.216H122.582V80.216H120.582V82.216ZM120.582 85.576H118.582V91.6222L122.188 86.7686L120.582 85.576ZM123.846 82.936L124.706 84.7417L124.724 84.7335L124.741 84.7249L123.846 82.936ZM133.782 83.224L132.817 84.9757L132.825 84.9798L132.832 84.9838L133.782 83.224ZM137.526 86.92L135.781 87.8972L137.425 90.8316L139.218 87.9866L137.526 86.92ZM146.55 83.928C149.446 83.928 151.528 84.7881 153.034 86.3432L155.907 83.5608C153.509 81.0839 150.311 79.928 146.55 79.928V83.928ZM153.045 86.3549C154.569 87.9036 155.446 90.1458 155.446 93.352H159.446C159.446 89.3902 158.34 86.0324 155.896 83.5491L153.045 86.3549ZM155.446 93.352V109H159.446V93.352H155.446ZM157.446 107H149.286V111H157.446V107ZM151.286 109V94.456H147.286V109H151.286ZM151.286 94.456C151.286 92.3719 150.719 90.4684 149.309 89.0578L146.48 91.8862C146.926 92.3316 147.286 93.0841 147.286 94.456H151.286ZM149.357 89.1074C148.002 87.6557 146.174 87.032 144.15 87.032V91.032C145.326 91.032 145.995 91.3683 146.432 91.8366L149.357 89.1074ZM144.15 87.032C142.124 87.032 140.299 87.6561 138.92 89.082L141.796 91.862C142.274 91.3679 142.977 91.032 144.15 91.032V87.032ZM138.92 89.0828C137.555 90.496 137.014 92.3903 137.014 94.456H141.014C141.014 93.0657 141.37 92.304 141.797 91.8612L138.92 89.0828ZM137.014 94.456V109H141.014V94.456H137.014ZM139.014 107H130.854V111H139.014V107ZM132.854 109V94.456H128.854V109H132.854ZM132.854 94.456C132.854 92.3719 132.287 90.4684 130.877 89.0578L128.048 91.8862C128.494 92.3316 128.854 93.0841 128.854 94.456H132.854ZM130.925 89.1074C129.57 87.6557 127.742 87.032 125.718 87.032V91.032C126.894 91.032 127.563 91.3683 128 91.8366L130.925 89.1074ZM125.718 87.032C123.692 87.032 121.867 87.6561 120.488 89.082L123.364 91.862C123.842 91.3679 124.545 91.032 125.718 91.032V87.032ZM120.488 89.0828C119.123 90.496 118.582 92.3903 118.582 94.456H122.582C122.582 93.0657 122.938 92.304 123.365 91.8612L120.488 89.0828ZM118.582 94.456V109H122.582V94.456H118.582ZM120.582 107H112.374V111H120.582V107ZM114.374 109V82.216H110.374V109H114.374ZM112.374 84.216H120.582V80.216H112.374V84.216ZM118.582 82.216V85.576H122.582V82.216H118.582ZM122.188 86.7686C122.812 85.9283 123.637 85.251 124.706 84.7417L122.987 81.1303C121.368 81.901 120.017 82.9837 118.977 84.3833L122.188 86.7686ZM124.741 84.7249C125.773 84.2087 126.981 83.928 128.406 83.928V79.928C126.44 79.928 124.608 80.3193 122.952 81.1471L124.741 84.7249ZM128.406 83.928C130.128 83.928 131.581 84.2942 132.817 84.9757L134.748 81.4723C132.848 80.4258 130.717 79.928 128.406 79.928V83.928ZM132.832 84.9838C134.095 85.666 135.069 86.6252 135.781 87.8972L139.271 85.9428C138.192 84.0148 136.669 82.51 134.733 81.4642L132.832 84.9838ZM139.218 87.9866C139.963 86.8053 140.983 85.8263 142.322 85.0501L140.315 81.5899C138.453 82.6697 136.946 84.0907 135.835 85.8534L139.218 87.9866ZM142.322 85.0501C143.61 84.3027 145.007 83.928 146.55 83.928V79.928C144.318 79.928 142.226 80.4813 140.315 81.5899L142.322 85.0501ZM163.763 78.184L162.375 79.6237L162.401 79.6489L162.428 79.6731L163.763 78.184ZM163.763 71.848L165.124 73.3136L165.126 73.3118L163.763 71.848ZM170.771 71.848L169.383 73.2877L169.409 73.3129L169.436 73.3371L170.771 71.848ZM170.771 78.184L172.132 79.6496L172.134 79.6478L170.771 78.184ZM171.395 82.216H173.395V80.216H171.395V82.216ZM171.395 109V111H173.395V109H171.395ZM163.187 109H161.187V111H163.187V109ZM163.187 82.216V80.216H161.187V82.216H163.187ZM167.315 77.432C166.286 77.432 165.603 77.1473 165.098 76.6949L162.428 79.6731C163.779 80.8847 165.464 81.432 167.315 81.432V77.432ZM165.151 76.7443C164.647 76.2584 164.419 75.7226 164.419 75.016H160.419C160.419 76.8054 161.087 78.3816 162.375 79.6237L165.151 76.7443ZM164.419 75.016C164.419 74.2628 164.656 73.7476 165.124 73.3136L162.402 70.3824C161.077 71.6124 160.419 73.2092 160.419 75.016H164.419ZM165.126 73.3118C165.633 72.8397 166.307 72.552 167.315 72.552V68.552C165.443 68.552 163.749 69.1283 162.4 70.3842L165.126 73.3118ZM167.315 72.552C168.279 72.552 168.909 72.8312 169.383 73.2877L172.159 70.4083C170.841 69.1368 169.167 68.552 167.315 68.552V72.552ZM169.436 73.3371C169.928 73.7783 170.163 74.2868 170.163 75.016H174.163C174.163 73.1852 173.47 71.5817 172.106 70.3589L169.436 73.3371ZM170.163 75.016C170.163 75.6988 169.937 76.2277 169.408 76.7202L172.134 79.6478C173.461 78.4123 174.163 76.8292 174.163 75.016H170.163ZM169.41 76.7184C168.94 77.1549 168.3 77.432 167.315 77.432V81.432C169.146 81.432 170.81 80.8771 172.132 79.6496L169.41 76.7184ZM169.395 82.216V109H173.395V82.216H169.395ZM171.395 107H163.187V111H171.395V107ZM165.187 109V82.216H161.187V109H165.187ZM163.187 84.216H171.395V80.216H163.187V84.216ZM185.023 102.232L183.494 100.943L180.72 104.232H185.023V102.232ZM196.639 102.232H198.639V100.232H196.639V102.232ZM196.639 109V111H198.639V109H196.639ZM175.855 109H173.855V111H175.855V109ZM175.855 102.472L174.313 101.199L173.855 101.753V102.472H175.855ZM186.991 88.984L188.533 90.2573L191.236 86.984H186.991V88.984ZM175.951 88.984H173.951V90.984H175.951V88.984ZM175.951 82.216V80.216H173.951V82.216H175.951ZM196.399 82.216H198.399V80.216H196.399V82.216ZM196.399 88.744L197.928 90.0334L198.399 89.4748V88.744H196.399ZM185.023 104.232H196.639V100.232H185.023V104.232ZM194.639 102.232V109H198.639V102.232H194.639ZM196.639 107H175.855V111H196.639V107ZM177.855 109V102.472H173.855V109H177.855ZM177.397 103.745L188.533 90.2573L185.449 87.7107L174.313 101.199L177.397 103.745ZM186.991 86.984H175.951V90.984H186.991V86.984ZM177.951 88.984V82.216H173.951V88.984H177.951ZM175.951 84.216H196.399V80.216H175.951V84.216ZM194.399 82.216V88.744H198.399V82.216H194.399ZM194.87 87.4546L183.494 100.943L186.552 103.521L197.928 90.0334L194.87 87.4546ZM226.26 97.576V99.576H228.042L228.247 97.8052L226.26 97.576ZM207.684 97.576V95.576H205.524L205.69 97.7294L207.684 97.576ZM209.268 101.416L207.878 102.855L207.904 102.879L207.93 102.903L209.268 101.416ZM217.044 100.12V98.12H215.766L215.229 99.2798L217.044 100.12ZM225.78 100.12L227.718 100.613L228.353 98.12H225.78V100.12ZM223.332 104.872L221.801 103.585L221.792 103.595L221.784 103.606L223.332 104.872ZM218.964 108.184L219.791 110.005L218.964 108.184ZM206.052 107.704L205.092 109.459L205.092 109.459L206.052 107.704ZM201.252 102.904L203.001 101.935L203.001 101.935L201.252 102.904ZM201.204 88.312L199.454 87.343L199.448 87.3534L199.443 87.3638L201.204 88.312ZM206.004 83.512L206.963 85.2667L206.963 85.2667L206.004 83.512ZM219.972 83.464L219.022 85.224L219.022 85.224L219.972 83.464ZM224.676 88.12L222.927 89.0913L222.933 89.1018L222.939 89.1123L224.676 88.12ZM218.004 93.016V95.016H220.004V93.016H218.004ZM216.564 89.656L217.874 88.1446L217.874 88.1446L216.564 89.656ZM209.46 89.608L208.179 88.0716L208.166 88.0823L208.154 88.0932L209.46 89.608ZM207.732 93.016L205.754 92.7151L205.404 95.016H207.732V93.016ZM224.404 95.176C224.404 95.8609 224.361 96.5841 224.273 97.3468L228.247 97.8052C228.351 96.9039 228.404 96.0271 228.404 95.176H224.404ZM226.26 95.576H207.684V99.576H226.26V95.576ZM205.69 97.7294C205.844 99.7344 206.505 101.529 207.878 102.855L210.657 99.9772C210.174 99.5113 209.78 98.7456 209.678 97.4226L205.69 97.7294ZM207.93 102.903C209.282 104.12 210.937 104.712 212.772 104.712V100.712C211.855 100.712 211.173 100.44 210.606 99.9294L207.93 102.903ZM212.772 104.712C214.078 104.712 215.324 104.435 216.413 103.774C217.512 103.107 218.316 102.132 218.859 100.96L215.229 99.2798C214.971 99.8363 214.663 100.157 214.338 100.354C214.004 100.557 213.514 100.712 212.772 100.712V104.712ZM217.044 102.12H225.78V98.12H217.044V102.12ZM223.841 99.6266C223.469 101.091 222.794 102.404 221.801 103.585L224.862 106.159C226.238 104.524 227.195 102.669 227.718 100.613L223.841 99.6266ZM221.784 103.606C220.838 104.761 219.635 105.682 218.136 106.363L219.791 110.005C221.813 109.086 223.521 107.799 224.88 106.138L221.784 103.606ZM218.136 106.363C216.667 107.031 214.986 107.384 213.06 107.384V111.384C215.485 111.384 217.741 110.937 219.791 110.005L218.136 106.363ZM213.06 107.384C210.729 107.384 208.73 106.889 207.011 105.949L205.092 109.459C207.469 110.759 210.143 111.384 213.06 111.384V107.384ZM207.011 105.949C205.302 105.015 203.973 103.69 203.001 101.935L199.502 103.873C200.834 106.278 202.705 108.153 205.092 109.459L207.011 105.949ZM203.001 101.935C202.04 100.199 201.524 98.1112 201.524 95.608H197.524C197.524 98.6728 198.16 101.449 199.502 103.873L203.001 101.935ZM201.524 95.608C201.524 93.0959 202.027 91.0008 202.965 89.2602L199.443 87.3638C198.14 89.7832 197.524 92.5521 197.524 95.608H201.524ZM202.953 89.281C203.925 87.5259 205.254 86.2014 206.963 85.2667L205.044 81.7573C202.657 83.0626 200.786 84.9381 199.454 87.343L202.953 89.281ZM206.963 85.2667C208.679 84.3287 210.692 83.832 213.06 83.832V79.832C210.115 79.832 207.425 80.4553 205.044 81.7573L206.963 85.2667ZM213.06 83.832C215.364 83.832 217.334 84.3133 219.022 85.224L220.922 81.704C218.577 80.4387 215.939 79.832 213.06 79.832V83.832ZM219.022 85.224C220.699 86.1294 221.991 87.4066 222.927 89.0913L226.424 87.1487C225.12 84.8014 223.276 82.9746 220.922 81.704L219.022 85.224ZM222.939 89.1123C223.893 90.7813 224.404 92.7806 224.404 95.176H228.404C228.404 92.1954 227.762 89.4907 226.412 87.1277L222.939 89.1123ZM220.004 93.016C220.004 91.0985 219.323 89.4004 217.874 88.1446L215.254 91.1674C215.725 91.5756 216.004 92.1175 216.004 93.016H220.004ZM217.874 88.1446C216.501 86.9553 214.816 86.408 212.964 86.408V90.408C213.991 90.408 214.706 90.6927 215.254 91.1674L217.874 88.1446ZM212.964 86.408C211.17 86.408 209.536 86.9412 208.179 88.0716L210.74 91.1444C211.304 90.6748 212.005 90.408 212.964 90.408V86.408ZM208.154 88.0932C206.791 89.2682 206.034 90.8771 205.754 92.7151L209.709 93.3169C209.877 92.2108 210.273 91.5478 210.766 91.1228L208.154 88.0932ZM207.732 95.016H218.004V91.016H207.732V95.016ZM269.802 75.304L271.578 76.2225L273.087 73.304H269.802V75.304ZM258.138 97.864L256.361 96.9455L256.138 97.3776V97.864H258.138ZM258.138 109V111H260.138V109H258.138ZM249.93 109H247.93V111H249.93V109ZM249.93 97.864H251.93V97.3776L251.706 96.9455L249.93 97.864ZM238.266 75.304V73.304H234.98L236.489 76.2225L238.266 75.304ZM247.578 75.304L249.393 74.4643L248.856 73.304H247.578V75.304ZM254.106 89.416L252.29 90.2557L254.112 94.1942L255.923 90.2506L254.106 89.416ZM260.586 75.304V73.304H259.303L258.768 74.4694L260.586 75.304ZM268.025 74.3855L256.361 96.9455L259.914 98.7825L271.578 76.2225L268.025 74.3855ZM256.138 97.864V109H260.138V97.864H256.138ZM258.138 107H249.93V111H258.138V107ZM251.93 109V97.864H247.93V109H251.93ZM251.706 96.9455L240.042 74.3855L236.489 76.2225L248.153 98.7825L251.706 96.9455ZM238.266 77.304H247.578V73.304H238.266V77.304ZM245.762 76.1437L252.29 90.2557L255.921 88.5763L249.393 74.4643L245.762 76.1437ZM255.923 90.2506L262.403 76.1386L258.768 74.4694L252.288 88.5814L255.923 90.2506ZM260.586 77.304H269.802V73.304H260.586V77.304ZM278.197 107.704L277.249 109.465L277.26 109.471L278.197 107.704ZM273.253 102.904L271.515 103.893L271.52 103.903L271.526 103.913L273.253 102.904ZM273.301 88.36L275.027 89.3694L275.034 89.3579L273.301 88.36ZM278.293 83.512L279.23 85.2789L279.23 85.2789L278.293 83.512ZM292.501 83.512L291.564 85.2789L291.564 85.2789L292.501 83.512ZM297.493 88.36L295.76 89.358L295.766 89.3694L297.493 88.36ZM297.445 102.904L295.723 101.887L295.718 101.895L297.445 102.904ZM292.405 107.704L291.479 105.931L291.468 105.937L292.405 107.704ZM289.285 100.552L287.851 99.1578L287.841 99.1682L287.831 99.1788L289.285 100.552ZM289.333 90.664L287.859 92.0154L287.869 92.0264L287.879 92.0372L289.333 90.664ZM281.413 90.664L282.868 92.036L282.878 92.0258L282.887 92.0154L281.413 90.664ZM281.365 100.552L279.87 101.881L279.88 101.892L279.891 101.903L281.365 100.552ZM285.301 107.384C282.971 107.384 280.93 106.889 279.134 105.937L277.26 109.471C279.688 110.759 282.383 111.384 285.301 111.384V107.384ZM279.145 105.943C277.395 105.001 276.014 103.664 274.979 101.895L271.526 103.913C272.924 106.304 274.838 108.167 277.249 109.465L279.145 105.943ZM274.991 101.915C274.005 100.182 273.477 98.1022 273.477 95.608H269.477C269.477 98.6818 270.133 101.466 271.515 103.893L274.991 101.915ZM273.477 95.608C273.477 93.1594 274.015 91.1017 275.027 89.3694L271.574 87.3506C270.155 89.7783 269.477 92.5526 269.477 95.608H273.477ZM275.034 89.3579C276.066 87.5654 277.457 86.219 279.23 85.2789L277.356 81.7451C274.905 83.045 272.967 84.9306 271.568 87.3621L275.034 89.3579ZM279.23 85.2789C281.026 84.3265 283.067 83.832 285.397 83.832V79.832C282.479 79.832 279.784 80.4575 277.356 81.7451L279.23 85.2789ZM285.397 83.832C287.727 83.832 289.768 84.3265 291.564 85.2789L293.438 81.7451C291.01 80.4575 288.315 79.832 285.397 79.832V83.832ZM291.564 85.2789C293.337 86.219 294.727 87.5654 295.76 89.3579L299.226 87.3621C297.826 84.9306 295.889 83.045 293.438 81.7451L291.564 85.2789ZM295.766 89.3694C296.779 91.1017 297.317 93.1594 297.317 95.608H301.317C301.317 92.5526 300.639 89.7783 299.219 87.3506L295.766 89.3694ZM297.317 95.608C297.317 98.0467 296.767 100.119 295.723 101.887L299.167 103.921C300.618 101.465 301.317 98.6733 301.317 95.608H297.317ZM295.718 101.895C294.693 103.649 293.291 104.985 291.479 105.931L293.331 109.477C295.807 108.183 297.765 106.319 299.171 103.913L295.718 101.895ZM291.468 105.937C289.672 106.889 287.631 107.384 285.301 107.384V111.384C288.219 111.384 290.914 110.759 293.342 109.471L291.468 105.937ZM285.301 104.28C287.426 104.28 289.278 103.472 290.739 101.925L287.831 99.1788C287.116 99.9355 286.312 100.28 285.301 100.28V104.28ZM290.719 101.946C292.31 100.31 292.965 98.0936 292.965 95.608H288.965C288.965 97.4104 288.5 98.4904 287.851 99.1578L290.719 101.946ZM292.965 95.608C292.965 93.137 292.334 90.9289 290.787 89.2908L287.879 92.0372C288.508 92.7031 288.965 93.791 288.965 95.608H292.965ZM290.807 89.3125C289.371 87.7457 287.523 86.936 285.397 86.936V90.936C286.406 90.936 287.183 91.2783 287.859 92.0154L290.807 89.3125ZM285.397 86.936C283.251 86.936 281.383 87.7362 279.939 89.3125L282.887 92.0154C283.554 91.2878 284.342 90.936 285.397 90.936V86.936ZM279.958 89.292C278.43 90.9127 277.829 93.1334 277.829 95.608H281.829C281.829 93.7306 282.284 92.6553 282.868 92.036L279.958 89.292ZM277.829 95.608C277.829 98.0503 278.413 100.241 279.87 101.881L282.86 99.2233C282.269 98.5589 281.829 97.4537 281.829 95.608H277.829ZM279.891 101.903C281.327 103.47 283.174 104.28 285.301 104.28V100.28C284.291 100.28 283.515 99.9377 282.839 99.2006L279.891 101.903ZM330.119 82.216H332.119V80.216H330.119V82.216ZM330.119 109V111H332.119V109H330.119ZM321.911 109H319.911V111H321.911V109ZM321.911 105.352H323.911V99.0273L320.275 104.202L321.911 105.352ZM318.503 108.232L319.398 110.021L319.406 110.017L319.414 110.013L318.503 108.232ZM308.375 107.944L307.357 109.665L307.37 109.673L307.383 109.68L308.375 107.944ZM304.727 103.96L302.938 104.854L304.727 103.96ZM303.431 82.216V80.216H301.431V82.216H303.431ZM311.591 82.216H313.591V80.216H311.591V82.216ZM312.983 100.936L311.523 102.302L311.523 102.302L312.983 100.936ZM321.911 82.216V80.216H319.911V82.216H321.911ZM328.119 82.216V109H332.119V82.216H328.119ZM330.119 107H321.911V111H330.119V107ZM323.911 109V105.352H319.911V109H323.911ZM320.275 104.202C319.651 105.09 318.778 105.846 317.593 106.451L319.414 110.013C321.109 109.146 322.507 107.982 323.548 106.502L320.275 104.202ZM317.609 106.443C316.505 106.995 315.248 107.288 313.799 107.288V111.288C315.807 111.288 317.686 110.877 319.398 110.021L317.609 106.443ZM313.799 107.288C312.052 107.288 310.595 106.909 309.368 106.208L307.383 109.68C309.292 110.771 311.451 111.288 313.799 111.288V107.288ZM309.394 106.223C308.177 105.503 307.219 104.471 306.516 103.066L302.938 104.854C303.964 106.905 305.437 108.529 307.357 109.665L309.394 106.223ZM306.516 103.066C305.817 101.667 305.431 99.9536 305.431 97.864H301.431C301.431 100.446 301.91 102.797 302.938 104.854L306.516 103.066ZM305.431 97.864V82.216H301.431V97.864H305.431ZM303.431 84.216H311.591V80.216H303.431V84.216ZM309.591 82.216V96.76H313.591V82.216H309.591ZM309.591 96.76C309.591 98.8931 310.149 100.834 311.523 102.302L314.444 99.5697C313.961 99.054 313.591 98.2109 313.591 96.76H309.591ZM311.523 102.302C312.888 103.762 314.699 104.424 316.727 104.424V100.424C315.619 100.424 314.934 100.094 314.444 99.5697L311.523 102.302ZM316.727 104.424C318.774 104.424 320.606 103.771 321.98 102.302L319.059 99.5697C318.576 100.085 317.881 100.424 316.727 100.424V104.424ZM321.98 102.302C323.353 100.834 323.911 98.8931 323.911 96.76H319.911C319.911 98.2109 319.541 99.054 319.059 99.5697L321.98 102.302ZM323.911 96.76V82.216H319.911V96.76H323.911ZM321.911 84.216H330.119V80.216H321.911V84.216ZM344.223 86.68H342.223V93.4079L345.898 87.7725L344.223 86.68ZM347.823 83.224L348.824 84.9557L348.838 84.9475L348.852 84.939L347.823 83.224ZM352.623 81.928H354.623V79.928H352.623V81.928ZM352.623 90.616V92.616H354.623V90.616H352.623ZM345.759 91.96L347.049 93.4886L347.063 93.477L347.076 93.4652L345.759 91.96ZM344.223 109V111H346.223V109H344.223ZM336.015 109H334.015V111H336.015V109ZM336.015 82.216V80.216H334.015V82.216H336.015ZM344.223 82.216H346.223V80.216H344.223V82.216ZM345.898 87.7725C346.697 86.5483 347.671 85.6217 348.824 84.9557L346.823 81.4923C345.095 82.4903 343.669 83.8677 342.548 85.5875L345.898 87.7725ZM348.852 84.939C349.966 84.2706 351.207 83.928 352.623 83.928V79.928C350.519 79.928 348.56 80.4494 346.794 81.509L348.852 84.939ZM350.623 81.928V90.616H354.623V81.928H350.623ZM352.623 88.616H350.367V92.616H352.623V88.616ZM350.367 88.616C348.072 88.616 345.976 89.1124 344.442 90.4548L347.076 93.4652C347.59 93.0156 348.567 92.616 350.367 92.616V88.616ZM344.469 90.4314C342.772 91.8635 342.223 94.1434 342.223 96.568H346.223C346.223 94.5766 346.698 93.7845 347.049 93.4886L344.469 90.4314ZM342.223 96.568V109H346.223V96.568H342.223ZM344.223 107H336.015V111H344.223V107ZM338.015 109V82.216H334.015V109H338.015ZM336.015 84.216H344.223V80.216H336.015V84.216ZM342.223 82.216V86.68H346.223V82.216H342.223ZM127.524 121.304L129.459 121.809L130.112 119.304H127.524V121.304ZM118.74 155V157H120.285L120.675 155.505L118.74 155ZM108.804 155L106.86 155.471L107.231 157H108.804V155ZM103.428 132.824L105.371 132.353L101.488 132.337L103.428 132.824ZM97.8597 155V157H99.4196L99.7995 155.487L97.8597 155ZM87.9237 155L85.985 155.492L86.3675 157H87.9237V155ZM79.3797 121.304V119.304H76.8093L77.441 121.796L79.3797 121.304ZM88.1637 121.304L90.1257 120.916L89.8071 119.304H88.1637V121.304ZM93.0117 145.832L91.0496 146.22L94.9544 146.307L93.0117 145.832ZM99.0117 121.304V119.304H97.442L97.069 120.829L99.0117 121.304ZM108.036 121.304L109.983 120.847L109.62 119.304H108.036V121.304ZM113.796 145.832L111.849 146.289L115.757 146.223L113.796 145.832ZM118.692 121.304V119.304H117.051L116.73 120.913L118.692 121.304ZM125.588 120.799L116.804 154.495L120.675 155.505L129.459 121.809L125.588 120.799ZM118.74 153H108.804V157H118.74V153ZM110.747 154.529L105.371 132.353L101.484 133.295L106.86 155.471L110.747 154.529ZM101.488 132.337L95.9199 154.513L99.7995 155.487L105.367 133.311L101.488 132.337ZM97.8597 153H87.9237V157H97.8597V153ZM89.8623 154.508L81.3183 120.812L77.441 121.796L85.985 155.492L89.8623 154.508ZM79.3797 123.304H88.1637V119.304H79.3797V123.304ZM86.2016 121.692L91.0496 146.22L94.9737 145.444L90.1257 120.916L86.2016 121.692ZM94.9544 146.307L100.954 121.779L97.069 120.829L91.069 145.357L94.9544 146.307ZM99.0117 123.304H108.036V119.304H99.0117V123.304ZM106.089 121.761L111.849 146.289L115.743 145.375L109.983 120.847L106.089 121.761ZM115.757 146.223L120.653 121.695L116.73 120.913L111.834 145.441L115.757 146.223ZM118.692 123.304H127.524V119.304H118.692V123.304ZM156.744 143.576V145.576H158.527L158.731 143.805L156.744 143.576ZM138.168 143.576V141.576H136.008L136.174 143.729L138.168 143.576ZM139.752 147.416L138.363 148.855L138.388 148.879L138.414 148.903L139.752 147.416ZM147.528 146.12V144.12H146.25L145.713 145.28L147.528 146.12ZM156.264 146.12L158.202 146.613L158.837 144.12H156.264V146.12ZM153.816 150.872L152.285 149.585L152.277 149.595L152.268 149.606L153.816 150.872ZM149.448 154.184L150.276 156.005L149.448 154.184ZM136.536 153.704L135.576 155.459L135.576 155.459L136.536 153.704ZM131.736 148.904L133.486 147.935L133.486 147.935L131.736 148.904ZM131.688 134.312L129.938 133.343L129.933 133.353L129.927 133.364L131.688 134.312ZM136.488 129.512L137.448 131.267L137.448 131.267L136.488 129.512ZM150.456 129.464L149.506 131.224L149.506 131.224L150.456 129.464ZM155.16 134.12L153.412 135.091L153.418 135.102L153.424 135.112L155.16 134.12ZM148.488 139.016V141.016H150.488V139.016H148.488ZM147.048 135.656L148.358 134.145L148.358 134.145L147.048 135.656ZM139.944 135.608L138.664 134.072L138.651 134.082L138.638 134.093L139.944 135.608ZM138.216 139.016L136.239 138.715L135.889 141.016H138.216V139.016ZM154.888 141.176C154.888 141.861 154.845 142.584 154.757 143.347L158.731 143.805C158.835 142.904 158.888 142.027 158.888 141.176H154.888ZM156.744 141.576H138.168V145.576H156.744V141.576ZM136.174 143.729C136.328 145.734 136.989 147.529 138.363 148.855L141.141 145.977C140.659 145.511 140.264 144.746 140.162 143.423L136.174 143.729ZM138.414 148.903C139.767 150.12 141.421 150.712 143.256 150.712V146.712C142.339 146.712 141.657 146.44 141.09 145.929L138.414 148.903ZM143.256 150.712C144.562 150.712 145.808 150.435 146.898 149.774C147.996 149.107 148.801 148.132 149.343 146.96L145.713 145.28C145.455 145.836 145.148 146.157 144.823 146.354C144.488 146.557 143.998 146.712 143.256 146.712V150.712ZM147.528 148.12H156.264V144.12H147.528V148.12ZM154.326 145.627C153.953 147.091 153.278 148.404 152.285 149.585L155.347 152.159C156.722 150.524 157.679 148.669 158.202 146.613L154.326 145.627ZM152.268 149.606C151.323 150.761 150.119 151.682 148.62 152.363L150.276 156.005C152.297 155.086 154.005 153.799 155.364 152.138L152.268 149.606ZM148.62 152.363C147.151 153.031 145.47 153.384 143.544 153.384V157.384C145.97 157.384 148.225 156.937 150.276 156.005L148.62 152.363ZM143.544 153.384C141.213 153.384 139.214 152.889 137.496 151.949L135.576 155.459C137.954 156.759 140.627 157.384 143.544 157.384V153.384ZM137.496 151.949C135.787 151.015 134.458 149.69 133.486 147.935L129.986 149.873C131.318 152.278 133.19 154.153 135.576 155.459L137.496 151.949ZM133.486 147.935C132.524 146.199 132.008 144.111 132.008 141.608H128.008C128.008 144.673 128.644 147.449 129.986 149.873L133.486 147.935ZM132.008 141.608C132.008 139.096 132.512 137.001 133.449 135.26L129.927 133.364C128.624 135.783 128.008 138.552 128.008 141.608H132.008ZM133.438 135.281C134.41 133.526 135.739 132.201 137.448 131.267L135.528 127.757C133.142 129.063 131.27 130.938 129.938 133.343L133.438 135.281ZM137.448 131.267C139.163 130.329 141.177 129.832 143.544 129.832V125.832C140.599 125.832 137.909 126.455 135.528 127.757L137.448 131.267ZM143.544 129.832C145.849 129.832 147.819 130.313 149.506 131.224L151.406 127.704C149.062 126.439 146.424 125.832 143.544 125.832V129.832ZM149.506 131.224C151.184 132.129 152.476 133.407 153.412 135.091L156.908 133.149C155.604 130.801 153.76 128.975 151.406 127.704L149.506 131.224ZM153.424 135.112C154.377 136.781 154.888 138.781 154.888 141.176H158.888C158.888 138.195 158.247 135.491 156.897 133.128L153.424 135.112ZM150.488 139.016C150.488 137.099 149.807 135.4 148.358 134.145L145.738 137.167C146.209 137.576 146.488 138.117 146.488 139.016H150.488ZM148.358 134.145C146.986 132.955 145.301 132.408 143.448 132.408V136.408C144.475 136.408 145.19 136.693 145.738 137.167L148.358 134.145ZM143.448 132.408C141.655 132.408 140.02 132.941 138.664 134.072L141.224 137.144C141.788 136.675 142.489 136.408 143.448 136.408V132.408ZM138.638 134.093C137.275 135.268 136.519 136.877 136.239 138.715L140.193 139.317C140.362 138.211 140.757 137.548 141.25 137.123L138.638 134.093ZM138.216 141.016H148.488V137.016H138.216V141.016ZM169.426 132.008H167.426V139.074L171.13 133.056L169.426 132.008ZM172.738 128.984L171.797 127.219L171.797 127.219L172.738 128.984ZM183.682 129.512L182.622 131.208L182.622 131.208L183.682 129.512ZM187.906 134.312L186.112 135.195L186.117 135.206L186.123 135.217L187.906 134.312ZM187.906 148.856L186.117 147.962L186.112 147.973L187.906 148.856ZM183.682 153.704L184.742 155.4L184.753 155.393L184.764 155.386L183.682 153.704ZM172.738 154.28L171.78 156.036L171.796 156.044L171.812 156.052L172.738 154.28ZM169.426 151.256L171.11 150.177L167.426 144.43V151.256H169.426ZM169.426 155V157H171.426V155H169.426ZM161.218 155H159.218V157H161.218V155ZM161.218 119.48V117.48H159.218V119.48H161.218ZM169.426 119.48H171.426V117.48H169.426V119.48ZM179.41 136.76L177.957 138.134L177.976 138.155L177.996 138.174L179.41 136.76ZM171.058 136.76L169.625 135.365L169.615 135.375L169.605 135.386L171.058 136.76ZM171.058 146.456L169.605 147.83L169.615 147.841L169.625 147.851L171.058 146.456ZM179.41 146.456L180.844 147.851L180.853 147.841L180.862 147.831L179.41 146.456ZM171.13 133.056C171.691 132.144 172.516 131.369 173.679 130.749L171.797 127.219C170.08 128.135 168.697 129.376 167.723 130.96L171.13 133.056ZM173.679 130.749C174.792 130.155 176.109 129.832 177.682 129.832V125.832C175.543 125.832 173.564 126.277 171.797 127.219L173.679 130.749ZM177.682 129.832C179.533 129.832 181.163 130.296 182.622 131.208L184.742 127.816C182.618 126.488 180.247 125.832 177.682 125.832V129.832ZM182.622 131.208C184.068 132.112 185.236 133.416 186.112 135.195L189.701 133.429C188.529 131.048 186.88 129.152 184.742 127.816L182.622 131.208ZM186.123 135.217C187.013 136.971 187.49 139.066 187.49 141.56H191.49C191.49 138.55 190.911 135.813 189.69 133.407L186.123 135.217ZM187.49 141.56C187.49 144.053 187.013 146.17 186.117 147.962L189.695 149.75C190.911 147.318 191.49 144.571 191.49 141.56H187.49ZM186.112 147.973C185.234 149.756 184.06 151.083 182.601 152.022L184.764 155.386C186.888 154.021 188.531 152.116 189.701 149.739L186.112 147.973ZM182.622 152.008C181.163 152.92 179.533 153.384 177.682 153.384V157.384C180.247 157.384 182.618 156.728 184.742 155.4L182.622 152.008ZM177.682 153.384C176.056 153.384 174.738 153.068 173.665 152.508L171.812 156.052C173.555 156.964 175.532 157.384 177.682 157.384V153.384ZM173.696 152.524C172.558 151.904 171.714 151.119 171.11 150.177L167.742 152.335C168.738 153.889 170.102 155.12 171.78 156.036L173.696 152.524ZM167.426 151.256V155H171.426V151.256H167.426ZM169.426 153H161.218V157H169.426V153ZM163.218 155V119.48H159.218V155H163.218ZM161.218 121.48H169.426V117.48H161.218V121.48ZM167.426 119.48V132.008H171.426V119.48H167.426ZM183.138 141.56C183.138 139.125 182.442 136.964 180.824 135.346L177.996 138.174C178.682 138.86 179.138 139.899 179.138 141.56H183.138ZM180.863 135.386C179.356 133.793 177.435 132.984 175.234 132.984V136.984C176.362 136.984 177.224 137.359 177.957 138.134L180.863 135.386ZM175.234 132.984C173.055 132.984 171.148 133.8 169.625 135.365L172.492 138.155C173.272 137.352 174.15 136.984 175.234 136.984V132.984ZM169.605 135.386C168.05 137.03 167.378 139.186 167.378 141.608H171.378C171.378 139.934 171.827 138.858 172.511 138.134L169.605 135.386ZM167.378 141.608C167.378 144.03 168.05 146.186 169.605 147.83L172.511 145.082C171.827 144.358 171.378 143.282 171.378 141.608H167.378ZM169.625 147.851C171.148 149.416 173.055 150.232 175.234 150.232V146.232C174.15 146.232 173.272 145.864 172.492 145.061L169.625 147.851ZM175.234 150.232C177.414 150.232 179.32 149.416 180.844 147.851L177.977 145.061C177.196 145.864 176.319 146.232 175.234 146.232V150.232ZM180.862 147.831C182.441 146.165 183.138 144 183.138 141.56H179.138C179.138 143.216 178.684 144.315 177.958 145.081L180.862 147.831ZM198.452 154.184L199.256 152.352L199.256 152.352L198.452 154.184ZM194.132 150.92L192.532 152.12L192.539 152.129L192.546 152.138L194.132 150.92ZM192.356 146.216V144.216H190.203L190.362 146.364L192.356 146.216ZM200.468 146.216L202.458 146.01L202.272 144.216H200.468V146.216ZM201.764 148.472L202.964 146.872L202.964 146.872L201.764 148.472ZM206.948 148.76L208.102 150.394L208.111 150.388L208.119 150.381L206.948 148.76ZM206.612 145.496L205.747 147.299L205.777 147.313L205.807 147.327L206.612 145.496ZM202.724 144.248L203.209 142.308L203.194 142.304L203.179 142.3L202.724 144.248ZM197.924 142.856L197.182 144.713L197.202 144.721L197.222 144.729L197.924 142.856ZM194.612 140.504L193.091 141.802L193.1 141.813L193.11 141.824L194.612 140.504ZM194.468 131.96L192.811 130.841L192.804 130.851L194.468 131.96ZM198.212 128.936L197.403 127.107L197.397 127.11L197.39 127.113L198.212 128.936ZM212.036 130.328L210.726 131.839L210.733 131.845L210.739 131.85L212.036 130.328ZM215.396 136.952V138.952H217.617L217.385 136.744L215.396 136.952ZM207.812 136.952L205.831 137.225L206.069 138.952H207.812V136.952ZM206.564 134.744L205.306 136.298L205.324 136.313L205.341 136.327L206.564 134.744ZM201.668 134.504L202.801 136.152L202.835 136.129L202.868 136.104L201.668 134.504ZM202.1 137.72L201.235 139.523L201.248 139.53L201.262 139.536L202.1 137.72ZM205.94 138.872L206.44 136.935L206.407 136.927L206.374 136.92L205.94 138.872ZM210.788 140.408L210.029 142.258L210.05 142.267L210.07 142.275L210.788 140.408ZM214.052 142.808L212.512 144.084L212.532 144.108L212.553 144.131L214.052 142.808ZM215.54 147.224H217.54V147.207L217.54 147.19L215.54 147.224ZM214.196 151.448L212.572 150.282L212.566 150.29L214.196 151.448ZM210.404 154.328L209.625 152.486L209.612 152.492L210.404 154.328ZM204.692 153.384C202.586 153.384 200.786 153.024 199.256 152.352L197.649 156.016C199.766 156.944 202.127 157.384 204.692 157.384V153.384ZM199.256 152.352C197.694 151.668 196.541 150.774 195.719 149.702L192.546 152.138C193.836 153.818 195.563 155.1 197.649 156.016L199.256 152.352ZM195.732 149.72C194.902 148.613 194.45 147.409 194.351 146.068L190.362 146.364C190.518 148.479 191.251 150.411 192.532 152.12L195.732 149.72ZM192.356 148.216H200.468V144.216H192.356V148.216ZM198.479 146.422C198.634 147.922 199.365 149.173 200.564 150.072L202.964 146.872C202.628 146.619 202.494 146.366 202.458 146.01L198.479 146.422ZM200.564 150.072C201.734 150.949 203.118 151.336 204.596 151.336V147.336C203.834 147.336 203.331 147.147 202.964 146.872L200.564 150.072ZM204.596 151.336C205.826 151.336 207.083 151.113 208.102 150.394L205.795 147.126C205.726 147.175 205.415 147.336 204.596 147.336V151.336ZM208.119 150.381C209.149 149.637 209.812 148.536 209.812 147.176H205.812C205.812 147.185 205.811 147.177 205.816 147.156C205.819 147.146 205.822 147.136 205.827 147.125C205.831 147.113 205.836 147.103 205.841 147.094C205.851 147.076 205.857 147.07 205.851 147.077C205.844 147.084 205.823 147.106 205.777 147.139L208.119 150.381ZM209.812 147.176C209.812 146.426 209.61 145.676 209.14 145.018C208.681 144.376 208.059 143.948 207.418 143.665L205.807 147.327C205.965 147.396 205.943 147.424 205.885 147.342C205.857 147.303 205.835 147.258 205.822 147.216C205.81 147.176 205.812 147.159 205.812 147.176H209.812ZM207.478 143.693C206.485 143.216 205.024 142.761 203.209 142.308L202.239 146.188C204.009 146.631 205.14 147.008 205.747 147.299L207.478 143.693ZM203.179 142.3C201.31 141.864 199.799 141.423 198.627 140.983L197.222 144.729C198.61 145.249 200.299 145.736 202.27 146.196L203.179 142.3ZM198.667 140.999C197.685 140.606 196.839 140.008 196.115 139.184L193.11 141.824C194.241 143.112 195.604 144.082 197.182 144.713L198.667 140.999ZM196.134 139.206C195.592 138.571 195.22 137.619 195.22 136.136H191.22C191.22 138.301 191.777 140.261 193.091 141.802L196.134 139.206ZM195.22 136.136C195.22 134.985 195.525 133.981 196.132 133.069L192.804 130.851C191.748 132.435 191.22 134.215 191.22 136.136H195.22ZM196.126 133.079C196.751 132.153 197.686 131.367 199.035 130.759L197.39 127.113C195.475 127.977 193.914 129.207 192.811 130.841L196.126 133.079ZM199.021 130.765C200.375 130.166 202.056 129.832 204.116 129.832V125.832C201.633 125.832 199.377 126.234 197.403 127.107L199.021 130.765ZM204.116 129.832C207.153 129.832 209.274 130.58 210.726 131.839L213.346 128.817C210.959 126.748 207.8 125.832 204.116 125.832V129.832ZM210.739 131.85C212.268 133.153 213.168 134.875 213.407 137.16L217.385 136.744C217.049 133.525 215.709 130.831 213.334 128.806L210.739 131.85ZM215.396 134.952H207.812V138.952H215.396V134.952ZM209.794 136.679C209.598 135.262 208.929 134.044 207.787 133.161L205.341 136.327C205.607 136.532 205.77 136.786 205.831 137.225L209.794 136.679ZM207.823 133.19C206.701 132.281 205.317 131.928 203.876 131.928V135.928C204.675 135.928 205.084 136.119 205.306 136.298L207.823 133.19ZM203.876 131.928C202.689 131.928 201.461 132.159 200.468 132.904L202.868 136.104C202.899 136.081 203.143 135.928 203.876 135.928V131.928ZM200.535 132.856C199.461 133.594 198.9 134.717 198.9 135.992H202.9C202.9 135.965 202.903 135.963 202.899 135.979C202.896 135.995 202.887 136.024 202.87 136.057C202.852 136.091 202.832 136.118 202.815 136.138C202.798 136.156 202.79 136.16 202.801 136.152L200.535 132.856ZM198.9 135.992C198.9 136.743 199.103 137.486 199.558 138.141C200.001 138.779 200.604 139.22 201.235 139.523L202.966 135.917C202.882 135.877 202.84 135.846 202.825 135.834C202.811 135.823 202.823 135.83 202.843 135.859C202.853 135.873 202.863 135.89 202.872 135.908C202.881 135.927 202.887 135.945 202.892 135.961C202.902 135.995 202.9 136.009 202.9 135.992H198.9ZM201.262 139.536C202.293 140.012 203.743 140.432 205.506 140.824L206.374 136.92C204.682 136.544 203.571 136.196 202.938 135.904L201.262 139.536ZM205.441 140.809C207.377 141.308 208.897 141.794 210.029 142.258L211.547 138.558C210.184 137.998 208.472 137.46 206.44 136.935L205.441 140.809ZM210.07 142.275C210.971 142.621 211.783 143.204 212.512 144.084L215.592 141.532C214.465 140.172 213.102 139.155 211.506 138.541L210.07 142.275ZM212.553 144.131C213.118 144.773 213.514 145.742 213.541 147.258L217.54 147.19C217.502 144.994 216.906 143.019 215.552 141.485L212.553 144.131ZM213.54 147.224C213.54 148.383 213.218 149.381 212.572 150.282L215.821 152.614C216.966 151.019 217.54 149.201 217.54 147.224H213.54ZM212.566 150.29C211.958 151.145 211.02 151.896 209.625 152.486L211.184 156.17C213.117 155.352 214.706 154.183 215.827 152.606L212.566 150.29ZM209.612 152.492C208.28 153.066 206.655 153.384 204.692 153.384V157.384C207.081 157.384 209.265 156.998 211.196 156.164L209.612 152.492ZM221.138 124.184L219.75 125.624L219.776 125.649L219.803 125.673L221.138 124.184ZM221.138 117.848L222.499 119.314L222.501 119.312L221.138 117.848ZM228.146 117.848L226.758 119.288L226.784 119.313L226.811 119.337L228.146 117.848ZM228.146 124.184L229.507 125.65L229.509 125.648L228.146 124.184ZM228.77 128.216H230.77V126.216H228.77V128.216ZM228.77 155V157H230.77V155H228.77ZM220.562 155H218.562V157H220.562V155ZM220.562 128.216V126.216H218.562V128.216H220.562ZM224.69 123.432C223.661 123.432 222.978 123.147 222.473 122.695L219.803 125.673C221.154 126.885 222.839 127.432 224.69 127.432V123.432ZM222.526 122.744C222.022 122.258 221.794 121.723 221.794 121.016H217.794C217.794 122.805 218.462 124.382 219.75 125.624L222.526 122.744ZM221.794 121.016C221.794 120.263 222.031 119.748 222.499 119.314L219.777 116.382C218.452 117.612 217.794 119.209 217.794 121.016H221.794ZM222.501 119.312C223.008 118.84 223.682 118.552 224.69 118.552V114.552C222.818 114.552 221.124 115.128 219.775 116.384L222.501 119.312ZM224.69 118.552C225.654 118.552 226.284 118.831 226.758 119.288L229.534 116.408C228.216 115.137 226.542 114.552 224.69 114.552V118.552ZM226.811 119.337C227.303 119.778 227.538 120.287 227.538 121.016H231.538C231.538 119.185 230.845 117.582 229.481 116.359L226.811 119.337ZM227.538 121.016C227.538 121.699 227.312 122.228 226.783 122.72L229.509 125.648C230.836 124.412 231.538 122.829 231.538 121.016H227.538ZM226.785 122.718C226.315 123.155 225.675 123.432 224.69 123.432V127.432C226.521 127.432 228.185 126.877 229.507 125.65L226.785 122.718ZM226.77 128.216V155H230.77V128.216H226.77ZM228.77 153H220.562V157H228.77V153ZM222.562 155V128.216H218.562V155H222.562ZM220.562 130.216H228.77V126.216H220.562V130.216ZM249.646 148.04H251.646V146.04H249.646V148.04ZM249.646 155V157H251.646V155H249.646ZM238.51 152.84L237.185 154.338L237.193 154.345L237.201 154.352L238.51 152.84ZM236.014 135.032H238.014V133.032H236.014V135.032ZM232.75 135.032H230.75V137.032H232.75V135.032ZM232.75 128.216V126.216H230.75V128.216H232.75ZM236.014 128.216V130.216H238.014V128.216H236.014ZM236.014 121.688V119.688H234.014V121.688H236.014ZM244.222 121.688H246.222V119.688H244.222V121.688ZM244.222 128.216H242.222V130.216H244.222V128.216ZM249.598 128.216H251.598V126.216H249.598V128.216ZM249.598 135.032V137.032H251.598V135.032H249.598ZM244.222 135.032V133.032H242.222V135.032H244.222ZM244.798 147.512L243.447 148.986L243.447 148.986L244.798 147.512ZM247.646 148.04V155H251.646V148.04H247.646ZM249.646 153H245.47V157H249.646V153ZM245.47 153C242.804 153 241.009 152.357 239.819 151.328L237.201 154.352C239.34 156.203 242.184 157 245.47 157V153ZM239.835 151.342C238.773 150.403 238.014 148.691 238.014 145.688H234.014C234.014 149.277 234.919 152.333 237.185 154.338L239.835 151.342ZM238.014 145.688V135.032H234.014V145.688H238.014ZM236.014 133.032H232.75V137.032H236.014V133.032ZM234.75 135.032V128.216H230.75V135.032H234.75ZM232.75 130.216H236.014V126.216H232.75V130.216ZM238.014 128.216V121.688H234.014V128.216H238.014ZM236.014 123.688H244.222V119.688H236.014V123.688ZM242.222 121.688V128.216H246.222V121.688H242.222ZM244.222 130.216H249.598V126.216H244.222V130.216ZM247.598 128.216V135.032H251.598V128.216H247.598ZM249.598 133.032H244.222V137.032H249.598V133.032ZM242.222 135.032V145.784H246.222V135.032H242.222ZM242.222 145.784C242.222 146.847 242.472 148.093 243.447 148.986L246.15 146.038C246.195 146.079 246.226 146.12 246.245 146.151C246.264 146.182 246.268 146.196 246.264 146.184C246.253 146.153 246.222 146.033 246.222 145.784H242.222ZM243.447 148.986C244.387 149.848 245.654 150.04 246.718 150.04V146.04C246.391 146.04 246.195 146.007 246.097 145.98C246.001 145.953 246.053 145.949 246.15 146.038L243.447 148.986ZM246.718 150.04H249.646V146.04H246.718V150.04ZM279.322 143.576V145.576H281.105L281.309 143.805L279.322 143.576ZM260.746 143.576V141.576H258.586L258.752 143.729L260.746 143.576ZM262.33 147.416L260.941 148.855L260.966 148.879L260.992 148.903L262.33 147.416ZM270.106 146.12V144.12H268.828L268.291 145.28L270.106 146.12ZM278.842 146.12L280.78 146.613L281.415 144.12H278.842V146.12ZM276.394 150.872L274.863 149.585L274.855 149.595L274.846 149.606L276.394 150.872ZM272.026 154.184L272.854 156.005L272.026 154.184ZM259.114 153.704L258.155 155.459L258.155 155.459L259.114 153.704ZM254.314 148.904L256.064 147.935L256.064 147.935L254.314 148.904ZM254.266 134.312L252.517 133.343L252.511 133.353L252.505 133.364L254.266 134.312ZM259.066 129.512L260.026 131.267L260.026 131.267L259.066 129.512ZM273.034 129.464L272.084 131.224L272.084 131.224L273.034 129.464ZM277.738 134.12L275.99 135.091L275.996 135.102L276.002 135.112L277.738 134.12ZM271.066 139.016V141.016H273.066V139.016H271.066ZM269.626 135.656L270.936 134.145L270.936 134.145L269.626 135.656ZM262.522 135.608L261.242 134.072L261.229 134.082L261.216 134.093L262.522 135.608ZM260.794 139.016L258.817 138.715L258.467 141.016H260.794V139.016ZM277.466 141.176C277.466 141.861 277.423 142.584 277.335 143.347L281.309 143.805C281.413 142.904 281.466 142.027 281.466 141.176H277.466ZM279.322 141.576H260.746V145.576H279.322V141.576ZM258.752 143.729C258.906 145.734 259.567 147.529 260.941 148.855L263.719 145.977C263.237 145.511 262.842 144.746 262.74 143.423L258.752 143.729ZM260.992 148.903C262.345 150.12 263.999 150.712 265.834 150.712V146.712C264.917 146.712 264.235 146.44 263.668 145.929L260.992 148.903ZM265.834 150.712C267.14 150.712 268.386 150.435 269.476 149.774C270.574 149.107 271.379 148.132 271.921 146.96L268.291 145.28C268.034 145.836 267.726 146.157 267.401 146.354C267.066 146.557 266.576 146.712 265.834 146.712V150.712ZM270.106 148.12H278.842V144.12H270.106V148.12ZM276.904 145.627C276.531 147.091 275.856 148.404 274.863 149.585L277.925 152.159C279.3 150.524 280.257 148.669 280.78 146.613L276.904 145.627ZM274.846 149.606C273.901 150.761 272.697 151.682 271.199 152.363L272.854 156.005C274.875 155.086 276.584 153.799 277.942 152.138L274.846 149.606ZM271.199 152.363C269.729 153.031 268.049 153.384 266.122 153.384V157.384C268.548 157.384 270.803 156.937 272.854 156.005L271.199 152.363ZM266.122 153.384C263.791 153.384 261.793 152.889 260.074 151.949L258.155 155.459C260.532 156.759 263.205 157.384 266.122 157.384V153.384ZM260.074 151.949C258.365 151.015 257.036 149.69 256.064 147.935L252.565 149.873C253.897 152.278 255.768 154.153 258.155 155.459L260.074 151.949ZM256.064 147.935C255.102 146.199 254.586 144.111 254.586 141.608H250.586C250.586 144.673 251.222 147.449 252.565 149.873L256.064 147.935ZM254.586 141.608C254.586 139.096 255.09 137.001 256.027 135.26L252.505 133.364C251.203 135.783 250.586 138.552 250.586 141.608H254.586ZM256.016 135.281C256.988 133.526 258.317 132.201 260.026 131.267L258.107 127.757C255.72 129.063 253.849 130.938 252.517 133.343L256.016 135.281ZM260.026 131.267C261.741 130.329 263.755 129.832 266.122 129.832V125.832C263.178 125.832 260.487 126.455 258.107 127.757L260.026 131.267ZM266.122 129.832C268.427 129.832 270.397 130.313 272.084 131.224L273.984 127.704C271.64 126.439 269.002 125.832 266.122 125.832V129.832ZM272.084 131.224C273.762 132.129 275.054 133.407 275.99 135.091L279.487 133.149C278.182 130.801 276.338 128.975 273.984 127.704L272.084 131.224ZM276.002 135.112C276.955 136.781 277.466 138.781 277.466 141.176H281.466C281.466 138.195 280.825 135.491 279.475 133.128L276.002 135.112ZM273.066 139.016C273.066 137.099 272.385 135.4 270.936 134.145L268.316 137.167C268.787 137.576 269.066 138.117 269.066 139.016H273.066ZM270.936 134.145C269.564 132.955 267.879 132.408 266.026 132.408V136.408C267.054 136.408 267.769 136.693 268.316 137.167L270.936 134.145ZM266.026 132.408C264.233 132.408 262.598 132.941 261.242 134.072L263.803 137.144C264.366 136.675 265.067 136.408 266.026 136.408V132.408ZM261.216 134.093C259.853 135.268 259.097 136.877 258.817 138.715L262.771 139.317C262.94 138.211 263.335 137.548 263.828 137.123L261.216 134.093ZM260.794 141.016H271.066V137.016H260.794V141.016Z" fill="#27CF87"/>
</svg>
