<svg width="1440" height="1024" viewBox="0 0 1440 1024" fill="none" xmlns="http://www.w3.org/2000/svg">


<g id="Vector 14" opacity="1">
<path d="M323 145C340.6 276.2 94.3333 307.667 -31 307L-57 1L91 -45C161 -36.3333 305.4 13.8 323 145Z" fill="#333333"/>
<path d="M335 893C202.91 655.237 -71 729 -49 893L-21 1093V1125L163 1167C244.333 1115.67 465 1127 335 893Z" fill="#333333"/>
<path d="M651 395C499 471.8 579 51 587 -79H1543C1546.33 29.6667 1548.2 235 1529 187C1505 127 1333 215 1275 297C1217 379 1043.49 545.424 917 395C843 307 803 318.2 651 395Z" fill="#333333"/>
<path d="M991 843C850.2 838.2 907 1021 953 1113L1591 995L1477 701C1437.67 716.333 1347.4 733 1301 677C1243 607 1139 691 1123 747C1107 803 1167 849 991 843Z" fill="#333333"/>
</g>
<defs>
<clipPath id="clip0">
<rect width="1440" height="1024" fill="white"/>
</clipPath>
</defs>
</svg>
