<?xml version="1.0" standalone="no"?>
<!DOCTYPE svg PUBLIC "-//W3C//DTD SVG 1.1//EN" "http://www.w3.org/Graphics/SVG/1.1/DTD/svg11.dtd" >
<svg>
<metadata>
Created by FontForge 20090914 at Fri Aug 13 22:48:29 2021
 By www-data
Copyright 2021 Lipighor. All Rights Reserved.
</metadata>
<defs>
<font id="LiShamimCholontikaUnicode" horiz-adv-x="0" >
  <font-face 
    font-family="Li Shamim Cholontika Unicode"
    font-weight="400"
    font-stretch="normal"
    units-per-em="1000"
    panose-1="2 0 6 0 0 0 0 0 0 0"
    ascent="800"
    descent="-200"
    x-height="503"
    cap-height="644"
    bbox="-661.998 -393.998 1462 1069"
    underline-thickness="40"
    underline-position="-80"
    unicode-range="U+0020-U+FDFA"
  />
<missing-glyph horiz-adv-x="587" 
d="M389 421h-60l-152 -53v-309h212v136h-76v-66h-56v194l56 19v-86h76v66l59 20v-196l15 -87h65v362h-63l-76 -25v25zM453 491v-43h75v117h-261l-208 -61v-445h84v389l92 29zM587 0h-587v624h587v-624z" />
    <glyph glyph-name="anji_beng" unicode="&#x9ed;&#x983;&#x983;" horiz-adv-x="604" 
d="M325 218c-7.33301 -0.666992 -15.001 -0.999023 -23.001 -0.999023c-36 0 -70 5.33301 -102 16s-59.833 25.334 -83.5 44.001s-42.334 40.5 -56.001 65.5s-20.5 51.833 -20.5 80.5s7 55.5 21 80.5s32.833 46.833 56.5 65.5s51.334 33.334 83.001 44.001s65.5 16 101.5 16
c35.333 0 69 -5.33301 101 -16s60 -25.334 84 -44.001s43 -40.5 57 -65.5s21 -51.833 21 -80.5v-10c0 -4 -0.333008 -7 -1 -9v-320c0 -17.333 15.667 -26 47 -26v-105h-23c-14.667 0 -30.5 2 -47.5 6s-32.833 11.167 -47.5 21.5s-27.334 24.166 -38.001 41.499
s-17 39.333 -19 66v335c0 13.333 -5.16699 25.833 -15.5 37.5s-21 21.667 -32 30s-24 15 -39 20s-30.833 7.5 -47.5 7.5c-16 0 -31.167 -2.33301 -45.5 -7s-27.166 -11.334 -38.499 -20.001s-20.333 -18.667 -27 -30s-10 -24 -10 -38c0 -13.333 3.33301 -25.833 10 -37.5
s15.5 -21.667 26.5 -30s23.833 -15 38.5 -20s30 -7.5 46 -7.5c16.667 0 32.5 2.5 47.5 7.5s28.167 11.833 39.5 20.5c2.66699 2 5.33398 4.33301 8.00098 7z" />
    <glyph glyph-name="glyph112" unicode="&#x3c;&#x3c;" horiz-adv-x="410" 
d="M320 507c-45.333 -24 -92.332 -36 -140.999 -36c-44.667 0 -91 9.66699 -139 29l77 177c10.667 -36 22.167 -65 34.5 -87s26.5 -39 42.5 -51s34.167 -20.167 54.5 -24.5s44.166 -6.83301 71.499 -7.5zM420.001 622l-0.000976562 -87.001h-20
c-13.333 -1.33301 -26 -2.33301 -38 -3s-23.667 -1 -35 -1c-56.667 0 -100.5 15.167 -131.5 45.5s-46.5 73.833 -46.5 130.5c0 21.333 4.66699 40.5 14 57.5s21.5 31.5 36.5 43.5s32.167 21.167 51.5 27.5s39 9.5 59 9.5c30.667 0 56.834 -8.16699 78.501 -24.5
s32.5 -41.166 32.5 -74.499c0 -22.667 -8.66699 -42.667 -26 -60s-39.333 -26 -66 -26c-23.333 0 -41.5 5 -54.5 15s-19.5 26 -19.5 48c0 15.333 3 33 9 53c-30.667 -12.667 -46 -32 -46 -58c0 -32 13 -56 39 -72s63 -24 111 -24h52z" />
    <glyph glyph-name="glyph113" unicode="&#x3e;&#x3e;" horiz-adv-x="410" 
d="M90 507c26.667 0.666992 50.166 3.33301 70.499 8s38.5 13 54.5 25s30.333 29 43 51s24.334 50.667 35.001 86l77 -177c-24 -10 -47.667 -17.333 -71 -22s-46 -7 -68 -7c-49.333 0 -96.333 12 -141 36zM-10.001 621.999h52.001c48 0 85 8.16699 111 24.5s39 40.5 39 72.5
c0 25.333 -15.333 44.333 -46 57c6 -20 9 -37.667 9 -53c0 -22 -6.5 -38 -19.5 -48s-31.5 -15 -55.5 -15c-12.667 0 -24.5 2.33301 -35.5 7s-20.667 10.834 -29 18.501s-14.833 16.667 -19.5 27s-7 21.166 -7 32.499c0 16.667 3 31.334 9 44.001s14.167 23.167 24.5 31.5
s22.166 14.5 35.499 18.5s27 6 41 6c20 0 39.833 -3.16699 59.5 -9.5s37 -15.5 52 -27.5s27.167 -26.5 36.5 -43.5s14 -35.833 14 -56.5c0 -25.333 -3.83301 -48.833 -11.5 -70.5s-19 -40.334 -34 -56.001s-33.667 -28 -56 -37s-47.833 -13.5 -76.5 -13.5
c-11.333 0 -23 0.333008 -35 1s-24.667 1.66699 -38 3h-20v87z" />
    <glyph glyph-name="signavagraha_beng" unicode="&#x9b9;&#x983;&#x983;" horiz-adv-x="561" 
d="M-10 622h313v-87h-313v87zM508 -46l-476.002 121l-33 140h1c2.66699 0 4.33398 -0.333008 5.00098 -1l16 -3c8.66699 -2 19.167 -4.16699 31.5 -6.5s25.166 -4.5 38.499 -6.5s26.5 -3.5 39.5 -4.5s24.5 -1.5 34.5 -1.5c9.33301 0 14.333 0.333008 15 1h3
c1.33301 0.666992 3.66602 1 6.99902 1s7.33301 0.333008 12 1h1c14.667 1.33301 33 4.16602 55 8.49902s43.333 11.5 64 21.5s38.5 23.5 53.5 40.5s22.833 38.833 23.5 65.5c-0.666992 11.333 -4.33398 20.666 -11.001 27.999s-14.667 13 -24 17s-19.666 6.66699 -30.999 8
s-22 2 -32 2c-4.66699 0 -9.16699 -0.166992 -13.5 -0.5s-8.16602 -0.5 -11.499 -0.5l-14 -2c16.667 -12.667 25 -28.334 25 -47.001c0 -10 -2.33301 -21 -7 -33s-11.667 -23.167 -21 -33.5s-21.166 -19 -35.499 -26s-30.833 -10.5 -49.5 -10.5c-16.667 0 -33 2.66699 -49 8
s-30.5 13.5 -43.5 24.5s-23.5 24.667 -31.5 41s-12 35.5 -12 57.5c0 25.333 6.5 47.833 19.5 67.5s30.333 36.334 52 50.001s46.834 24 75.501 31s59 10.5 91 10.5c34 0 66.833 -4.16699 98.5 -12.5s60 -21.166 85 -38.499s45 -39.5 60 -66.5s22.5 -59.5 22.5 -97.5
c0 -25.333 -4.66699 -48.166 -14 -68.499s-21.5 -38.333 -36.5 -54s-32.167 -29 -51.5 -40s-39 -19.833 -59 -26.5l178 -43z" />
    <glyph glyph-name="isshar_beng" unicode="&#x988;&#x983;&#x983;" horiz-adv-x="562" 
d="M220 502c-17.333 0 -31.666 5.83301 -42.999 17.5s-17 25.5 -17 41.5c0 16.667 5.66699 31 17 43s25.666 18 42.999 18c16.667 0 30.667 -6 42 -18s17 -26.333 17 -43c0 -16 -5.66699 -29.833 -17 -41.5s-25.333 -17.5 -42 -17.5zM206 379
c-23.333 0 -45 4.50195 -65 13.502s-37.5 21.167 -52.5 36.5s-26.833 33.166 -35.5 53.499s-13 42.166 -13 65.499v6h94c4.66699 -50.667 28.667 -76 72 -76c62 0 142.333 66.333 241 199h102c-136 -198.667 -250.333 -298 -343 -298z" />
    <glyph glyph-name="sallallahoualayhewasallam_arab.isol" unicode="&#x9b8;&#x9be;&#x983;&#x983;" horiz-adv-x="1499" arabic-form="isolated" 
d="M936 -112c-13.333 0 -23.8359 5.16797 -31.5029 15.501s-11.5 22.833 -11.5 37.5c0 13.333 4.33301 25.666 13 36.999s23.667 17 45 17c8.66699 0 16.167 -2 22.5 -6s12.166 -8.66699 17.499 -14c6.66699 10 16.334 15 29.001 15c4 0 10 -1.66699 18 -5v64
c-2 8 -8.33301 13 -19 15c-4 0 -7.66699 -1.66699 -11 -5l4 -6l-29 -20l-5 10c-3.33301 6.66699 -7.66602 13 -12.999 19s-15 10 -29 12c-14 0 -21 -8 -21 -24v-2c6 6.66699 13.333 10 22 10c9.33301 0 16.5 -3.33301 21.5 -10s7.5 -13 7.5 -19
c0 -8.66699 -3.83301 -16.334 -11.5 -23.001s-17.167 -10 -28.5 -10c-14 0 -25.333 5.5 -34 16.5s-13 24.5 -13 40.5c0 14.667 4.83301 28 14.5 40s25.834 18 48.501 18c8.66699 0 16.667 -2 24 -6s14 -9 20 -15c8 10.667 18 16 30 16c7.33301 0 14.666 -2 21.999 -6v15
h-181v-217h-44v217h-46v-171h-45v31l-40 28c-6.66699 -12.667 -14.5 -22.667 -23.5 -30s-16.833 -12.666 -23.5 -15.999l-10 -5l-39 32c12 7.33301 22 13.833 30 19.5s14.5 11.5 19.5 17.5s8.5 12.333 10.5 19s3 14.667 3 24c0 18.667 -8 35.667 -24 51h-91v-214h-44v214
h-47v-171h-42v4c-6 8 -11.667 13.667 -17 17c0 8.66699 -2.83301 15.834 -8.5 21.501s-12.834 8.5 -21.501 8.5c-10.667 0 -19 -4.33301 -25 -13h-3c-3.33301 0 -6.66602 -0.166992 -9.99902 -0.5s-6.66602 -0.833008 -9.99902 -1.5l-8 -1l-20 29l39 38
c3.33301 3.33301 5 6.66602 5 9.99902c-2 12 -7.5 22.333 -16.5 31s-17.167 15.667 -24.5 21l-10 7h-10v27h229v218h-39v-171h-44v5l-37 26c-14.667 -20.667 -40 -31 -76 -31c-19.333 0 -35.166 3.16699 -47.499 9.5s-22 13.666 -29 21.999s-12 17.166 -15 26.499
s-4.83301 17 -5.5 23l-1 70h44l1 -64c0 -3.33301 0.833008 -7.66602 2.5 -12.999s4.5 -10.5 8.5 -15.5s9.5 -9.33301 16.5 -13s15.5 -5.5 25.5 -5.5c29.333 0 44 8.33301 44 25v5c-5.33301 -6 -12.333 -9 -21 -9s-17.834 3.5 -27.501 10.5s-14.5 17.833 -14.5 32.5
c0 11.333 4.16699 22 12.5 32s22.166 15 41.499 15h12c14 -2 25.167 -9.83301 33.5 -23.5s12.5 -28.834 12.5 -45.501v-8l20 -15v112h-367v27h450v294h-38v-171h-45v31l-40 28c-7.33301 -12.667 -15.333 -22.667 -24 -30s-16.667 -12.666 -24 -15.999l-10 -5l-38 32
c12 7.33301 22 13.833 30 19.5s14.5 11.5 19.5 17.5s8.5 12.333 10.5 19s3 14.667 3 24c0 18.667 -8 35.667 -24 51h-270v27h1418v-27h-282v-171h-44v171h-32v-217h-44v43c-3.33301 6 -8.66602 9 -15.999 9c-4.66699 0 -8.33398 -1 -11.001 -3l4 -6l-27 -19l-5 9
c-3.33301 5.33301 -7.5 11.5 -12.5 18.5s-13.5 10.5 -25.5 10.5c-13.333 0 -20 -7 -20 -21v-3c6 6.66699 13 10 21 10c8.66699 0 15.167 -3.16699 19.5 -9.5s6.5 -12.166 6.5 -17.499c0 -7.33301 -3 -14.333 -9 -21s-13.667 -10 -23 -10h-4l-13 1
c-9.33301 3.33301 -16.833 9.83301 -22.5 19.5s-8.5 20.5 -8.5 32.5c0 13.333 4.5 25.5 13.5 36.5s24.167 16.5 45.5 16.5c8 0 15.333 -1.83301 22 -5.5s12.667 -8.16699 18 -13.5c6.66699 10 16 15 28 15c4 0 10.333 -1.66699 19 -5v64c-3.33301 10 -9.66602 15 -18.999 15
c-2.66699 0 -6.66699 -1.66699 -12 -5l4 -6l-29 -20l-5 10c-3.33301 6 -7.66602 12.167 -12.999 18.5s-15 10.5 -29 12.5c-6 0 -11 -2 -15 -6s-6 -9.66699 -6 -17v-3c6.66699 6.66699 14.334 10 23.001 10s15.5 -3.33301 20.5 -10s7.5 -13 7.5 -19
c0 -8.66699 -3.66699 -16.334 -11 -23.001s-16.666 -10 -27.999 -10c-14.667 0 -26.334 5.33301 -35.001 16s-13 24.334 -13 41.001c0 14.667 4.83301 28 14.5 40s25.834 18 48.501 18c9.33301 0 17.666 -2 24.999 -6s13.666 -9 18.999 -15c8 10.667 18.333 16 31 16
c6.66699 0 14 -2 22 -6v15h-199v-290h172v4c0 6 -2 11.167 -6 15.5s-10 6.5 -18 6.5c-5.33301 0 -11.5 -0.833008 -18.5 -2.5s-14.333 -3.66699 -22 -6s-15.167 -4.33301 -22.5 -6s-13.666 -2.5 -18.999 -2.5c-14.667 0 -25.334 1 -32.001 3l-8 44
c13.333 -4.66699 27 -7 41 -7c18 0 34.333 2.16699 49 6.5s27.334 6.5 38.001 6.5c20.667 0 36 -5 46 -15s15 -23.667 15 -41v-6h32l-9 17l5 10c2.66699 4.66699 6.5 10.5 11.5 17.5s11.333 13.667 19 20s16.5 11.833 26.5 16.5s21.667 7 35 7c12 0 23.5 -2.16699 34.5 -6.5
s21.333 -10 31 -17s18.667 -14.667 27 -23l23.5 -24.5l-6 -7l-15 9c-10.667 6 -23.667 12.5 -39 19.5s-31.666 10.5 -48.999 10.5h-7c-6 -0.666992 -12 -2.5 -18 -5.5s-11.5 -6.5 -16.5 -10.5s-9 -7.83301 -12 -11.5s-4.5 -6.5 -4.5 -8.5l8 -13h309v-28h-303v-221h307v-27
h-91v-170h-45c0 25.333 -3.83301 43.166 -11.5 53.499s-17.5 16.833 -29.5 19.5c2.66699 -4.66699 4 -10.334 4 -17.001c0 -11.333 -4.83301 -21.166 -14.5 -29.499s-20.834 -12.5 -33.501 -12.5c-14.667 0 -26.5 5 -35.5 15s-13.5 21 -13.5 33c0 12.667 5 23.667 15 33
s22.667 16 38 20c0 10 -3 20 -9 30s-17 18.333 -33 25h-48v-214h-44v214h-28v-217h-45v43c-2.66699 6.66699 -7.66699 10 -15 10c-4.66699 0 -8.33398 -1.33301 -11.001 -4l4 -6l-27 -19l-5 9c-3.33301 6 -7.33301 12 -12 18s-13.667 9.66699 -27 11
c-12.667 0 -19 -7.33301 -19 -22v-2c6 6.66699 13 10 21 10s14.333 -3.16699 19 -9.5s7 -12.166 7 -17.499c0 -8 -3.5 -15.167 -10.5 -21.5s-15.833 -9.5 -26.5 -9.5zM1111 142.001v221h-254v-221h254zM812.997 387.001l-0.00390625 294h-36v-217h-45v43
c-3.33301 6 -8.66602 9 -15.999 9c-4 0 -7.33301 -1 -10 -3l4 -6l-27 -19l-5 9c-3.33301 5.33301 -7.5 11.5 -12.5 18.5s-13.5 10.5 -25.5 10.5c-13.333 0 -20 -7.33301 -20 -22v-2c6 6.66699 13 10 21 10s14.333 -3.16699 19 -9.5s7 -12.5 7 -18.5
c0 -7.33301 -3.16699 -14.166 -9.5 -20.499s-14.166 -9.5 -23.499 -9.5h-4l-13 1c-9.33301 3.33301 -16.833 9.83301 -22.5 19.5s-8.5 20.5 -8.5 32.5c0 13.333 4.5 25.5 13.5 36.5s24.167 16.5 45.5 16.5c8 0 15.333 -1.83301 22 -5.5s12.667 -8.16699 18 -13.5
c6.66699 10 16.334 15 29.001 15c3.33301 0 9.33301 -1.66699 18 -5v64c-3.33301 10 -9.66602 15 -18.999 15c-4 0 -7.66699 -1.66699 -11 -5l4 -6l-29 -20l-6 10c-3.33301 6 -7.5 12.167 -12.5 18.5s-14.5 10.5 -28.5 12.5c-14 0 -21 -8 -21 -24v-2
c6 6.66699 13.333 10 22 10c9.33301 0 16.5 -3.33301 21.5 -10s7.5 -13 7.5 -19c0 -8.66699 -3.83301 -16.334 -11.5 -23.001s-17.167 -10 -28.5 -10c-14 0 -25.333 5.5 -34 16.5s-13 24.5 -13 40.5c0 14.667 4.83301 28 14.5 40s25.834 18 48.501 18
c8.66699 0 16.667 -2 24 -6s14 -9 20 -15c8 10.667 18 16 30 16c7.33301 0 14.666 -2 21.999 -6v15h-198v-294h279zM812.993 142.001v218.001h-39v-171h-45v96c-3.33301 10 -9.66602 15 -18.999 15c-4.66699 0 -8.33398 -1.33301 -11.001 -4l4 -6l-29 -20l-6 10
c-3.33301 6.66699 -7.5 13 -12.5 19s-14.5 10 -28.5 12c-14.667 0 -22 -8 -22 -24l1 -2c6 6.66699 13.333 10 22 10c9.33301 0 16.5 -3.33301 21.5 -10s7.5 -13 7.5 -19c0 -8.66699 -3.83301 -16.334 -11.5 -23.001s-17.167 -10 -28.5 -10c-14 0 -25.333 5.5 -34 16.5
s-13 24.5 -13 40.5c0 14.667 4.83301 28 14.5 40s25.834 18 48.501 18c8.66699 0 16.667 -2 24 -6s13.666 -9 18.999 -15c8.66699 10.667 19 16 31 16c8 0 15.333 -2.33301 22 -7v24h-195v-218h279zM1444.99 454.002l-173.001 44.002l-11 45l6 -1
c18.667 -4 35.334 -6 50.001 -6c9.33301 0.666992 18.666 3 27.999 7s17.833 8.66699 25.5 14s14 11.666 19 18.999s7.5 15 7.5 23c0 5.33301 -1.16699 10.666 -3.5 15.999s-8.16602 9.66602 -17.499 12.999c-4.66699 0 -11.334 -3.33301 -20.001 -10l-35 -25l-7 11l-13 20
c-5.33301 8 -14.666 12 -27.999 12c-14.667 0 -22 -8 -22 -24v-1c6.66699 6.66699 14.334 10 23.001 10c9.33301 0 16.5 -3.5 21.5 -10.5s7.5 -13.5 7.5 -19.5c0 -8.66699 -3.83301 -16.667 -11.5 -24s-17.5 -11 -29.5 -11c-12.667 0 -24.334 5.83301 -35.001 17.5
s-16 26.167 -16 43.5c0 14.667 5.16699 28.167 15.5 40.5s27.833 18.5 52.5 18.5c19.333 -2 35 -11 47 -27c4.66699 6.66699 11.667 12.334 21 17.001s19 7 29 7c20.667 0 36.667 -7.66699 48 -23s17 -31 17 -47v-5l-1 -20c-6.66699 -28.667 -29 -49.667 -67 -63l89 -21z
M165.992 -56.9961c-20 0 -37.833 3.8291 -53.5 11.4961s-28.834 18 -39.501 31s-18.834 27.833 -24.501 44.5s-8.5 34.334 -8.5 53.001l1 22h42v-8c0 -26 3.33301 -46.667 10 -62s14.834 -27 24.501 -35s19.5 -13 29.5 -15s18.667 -3 26 -3c6.66699 0 13 1.5 19 4.5
s9 10.5 9 22.5c-1.33301 -2.66699 -4.33301 -5 -9 -7s-10 -3 -16 -3c-6.66699 0 -13.5 2.5 -20.5 7.5s-10.5 12.167 -10.5 21.5c0 8 2.66699 13.5 8 16.5s11.166 6 17.499 9s12.166 6.83301 17.499 11.5s8 12.334 8 23.001c0 6.66699 -2 10.834 -6 12.501
s-7.66699 2.5 -11 2.5c5.33301 -3.33301 8 -8.33301 8 -15s-3.16699 -13.5 -9.5 -20.5s-15.833 -10.5 -28.5 -10.5c-9.33301 0 -18.166 2.83301 -26.499 8.5s-12.5 14.834 -12.5 27.501l2 12c2.66699 12 9.83398 21.167 21.501 27.5s24.834 9.5 39.501 9.5
c16 0 31 -4.5 45 -13.5s21 -23.5 21 -43.5c0 -18.667 -6.66699 -33.667 -20 -45c13.333 -13.333 20 -28 20 -44c0 -13.333 -5.83301 -25.5 -17.5 -36.5s-30.167 -16.5 -55.5 -16.5zM1071.99 171l-172.003 38.999l-10 49l19 -3c8.66699 -2.66699 20.667 -4 36 -4
c1.33301 0 5.83301 0.333008 13.5 1s16 2.5 25 5.5s17 7.33301 24 13s10.5 13.834 10.5 24.501c-1.33301 12 -12 18 -32 18h-12c5.33301 -4 8 -9.33301 8 -16s-3.16699 -13.834 -9.5 -21.501s-15.166 -11.5 -26.499 -11.5c-10.667 0 -20.667 3.5 -30 10.5s-14 17.5 -14 31.5
l1 9c2.66699 14 11.334 24.667 26.001 32s31.334 11 50.001 11c10 0 20.167 -1.33301 30.5 -4s19.5 -6.66699 27.5 -12s14.5 -12.166 19.5 -20.499s7.5 -18.5 7.5 -30.5c-3.33301 -37.333 -23 -59.333 -59 -66l84 -20zM1362.99 170.999l-172.001 42.999l-11 45l20 -3
c8.66699 -2.66699 20.667 -4 36 -4c1.33301 0 5.83301 0.333008 13.5 1s16 2.5 25 5.5s17 7.33301 24 13s10.5 13.834 10.5 24.501c-1.33301 12 -12 18 -32 18h-12c5.33301 -4 8 -9.33301 8 -16s-3.16699 -13.834 -9.5 -21.501s-15.166 -11.5 -26.499 -11.5
c-10 0 -19.833 3.5 -29.5 10.5s-14.5 17.5 -14.5 31.5l1 9c2.66699 14 11.334 24.667 26.001 32s31.334 11 50.001 11c10 0 20.167 -1.33301 30.5 -4s19.666 -6.66699 27.999 -12s15 -12.166 20 -20.499s7.5 -18.5 7.5 -30.5c-2.66699 -32.667 -20.334 -53.667 -53.001 -63
l77 -19zM400.988 3.99805l-21.002 110.998h-38c4.66699 -5.33301 8.83398 -11.166 12.501 -17.499s6.5 -11.833 8.5 -16.5l5 -10c0.666992 -1.33301 1.33398 -3.33301 2.00098 -6s1 -5.66699 1 -9c0 -5.33301 -1.66699 -10.666 -5 -15.999l-17 -20h4
c19.333 0 35.333 -5.33301 48 -16zM406.986 594.996v86h-42c10 -19.333 15 -38 15 -56v-11zM1325.99 42.9961v72h-50c11.333 -15.333 17 -32.333 17 -51v-3c12 -3.33301 23 -9.33301 33 -18zM721.986 28.9961v85.999h-41c10 -19.333 15 -37.666 15 -54.999l-1 -11z
M353.986 -55.0049c-5.33301 0 -10 2 -14 6s-6 8.66699 -6 14s2 9.83301 6 13.5s8.66699 5.5 14 5.5c12.667 0 19 -6.33301 19 -19c0 -5.33301 -1.83301 -10 -5.5 -14s-8.16699 -6 -13.5 -6z" />
    <glyph glyph-name="zophola_bn" unicode="&#x9cd;&#x9af;" horiz-adv-x="264" 
d="M83 -126l-12 164.999c23.333 12 35 33.667 35 65c0 30.667 -14.667 79.667 -44 147c-22 48 -33 90.333 -33 127c0 31.333 5 59.833 15 85.5s18 49.5 24 71.5h-78v87h284v-87h-61c-18 -54 -27 -104.333 -27 -151c0 -21.333 2 -42.333 6 -63s17.667 -58 41 -112
c20.667 -48.667 31 -92.667 31 -132c0 -4 -0.666992 -17.833 -2 -41.5s-8.33301 -46.5 -21 -68.5s-27.5 -39.667 -44.5 -53s-35.5 -23.166 -55.5 -29.499s-39.333 -9.83301 -58 -10.5z" />
    <glyph glyph-name=".notdef" horiz-adv-x="587" 
d="M389 421h-60l-152 -53v-309h212v136h-76v-66h-56v194l56 19v-86h76v66l59 20v-196l15 -87h65v362h-63l-76 -25v25zM453 491v-43h75v117h-261l-208 -61v-445h84v389l92 29zM587 0h-587v624h587v-624z" />
    <glyph glyph-name="NULL" 
 />
    <glyph glyph-name="NULL" 
 />
    <glyph glyph-name="space" unicode=" " horiz-adv-x="320" 
 />
    <glyph glyph-name="space" unicode="&#xa0;" horiz-adv-x="320" 
 />
    <glyph glyph-name="exclam" unicode="!" horiz-adv-x="316" 
d="M107 183v445l126 -32v-446zM245 42c0 -21.333 -7.33301 -39.333 -22 -54s-32.334 -22 -53.001 -22c-21.333 0 -39.333 7.33301 -54 22s-22 32.667 -22 54c0 20.667 7.33301 38.334 22 53.001s32.667 22 54 22c20.667 0 38.334 -7.33301 53.001 -22s22 -32.334 22 -53.001
z" />
    <glyph glyph-name="quotedbl" unicode="&#x22;" horiz-adv-x="496" 
d="M78 705c12.667 6.66699 26.334 10.001 41.001 10.001c12 0 24.167 -2.66699 36.5 -8s23.666 -12.833 33.999 -22.5s18.833 -21 25.5 -34s10 -26.833 10 -41.5c0 -48 -36.333 -101 -109 -159c-50 102 -75 166.667 -75 194c0 13.333 3.66699 25.166 11 35.499
s16 18.833 26 25.5zM292 705.001c12.667 6.66699 26.334 10.001 41.001 10.001c12 0 24.167 -2.66699 36.5 -8s23.666 -12.833 33.999 -22.5s18.833 -21 25.5 -34s10 -26.833 10 -41.5c0 -48 -36.333 -101 -109 -159c-50 102 -75 166.667 -75 194
c0 13.333 3.66699 25.166 11 35.499s16 18.833 26 25.5z" />
    <glyph glyph-name="numbersign" unicode="#" horiz-adv-x="674" 
d="M101 74l16 67h-93l32 126h91l20 80h-92l32 126h90l26 105l118 -32l-18 -73h96l26 105l118 -32l-18 -73h96l-33 -126h-93l-19 -80h94l-33 -126h-91l-24 -100l-119 33l16 67h-95l-24 -100zM274 267h95l20 80h-96z" />
    <glyph glyph-name="dollar" unicode="$" horiz-adv-x="535" 
d="M500 181c0 -26.667 -5.33496 -50.666 -16.002 -71.999s-24.167 -39.666 -40.5 -54.999s-34 -27.5 -53 -36.5s-36.5 -14.5 -52.5 -16.5v-102h-143v94c-2 0 -7.83301 0.5 -17.5 1.5s-22 3 -37 6s-31.833 7.33301 -50.5 13s-38 13.167 -58 22.5v162
c50 -22 88.333 -36.833 115 -44.5s42.667 -12.167 48 -13.5v107c-21.333 6 -41.333 14.5 -60 25.5s-35.167 24.333 -49.5 40s-25.666 33.667 -33.999 54s-12.5 43.166 -12.5 68.499c0 20 3.33301 38.5 10 55.5s15.5 32.167 26.5 45.5s23.5 25 37.5 35s28.667 18 44 24
c24.667 9.33301 37.334 14 38.001 14v81h143v-77c5.33301 0 21.333 -3.5 48 -10.5s65 -19.833 115 -38.5l-55 -138c-65.333 26 -101.333 39 -108 39v-101c24 -8 46 -17.333 66 -28s37 -23.334 51 -38.001s25 -31.667 33 -51s12 -41.333 12 -66zM199.998 437.001
c0 4 2 8.16699 6 12.5s6 6.83301 6 7.5c0 1.33301 -1.66699 2 -5 2c-6.66699 0 -10.667 -0.333008 -12 -1v-44c8 -4 13 -6 15 -6l1 1c0 1.33301 -1.83301 5 -5.5 11s-5.5 11.667 -5.5 17zM337.998 200.001l-5 1c-0.666992 0.666992 -1.66699 1 -3 1l-2 -1
c0 -1.33301 2 -4.33301 6 -9l4 -5v13z" />
    <glyph glyph-name="percent" unicode="%" horiz-adv-x="748" 
d="M197 655c21.333 0 41.333 -4 60 -12s35 -19 49 -33s25 -30.333 33 -49s12 -38.667 12 -60s-4 -41.333 -12 -60s-19 -35 -33 -49s-30.333 -25.167 -49 -33.5s-38.667 -12.5 -60 -12.5s-41.333 4.16699 -60 12.5s-35 19.5 -49 33.5s-25.167 30.333 -33.5 49
s-12.5 38.667 -12.5 60s4.16699 41.333 12.5 60s19.5 35 33.5 49s30.333 25 49 33s38.667 12 60 12zM197 454c12.667 0 23.5 4.5 32.5 13.5s13.5 20.167 13.5 33.5c0 12.667 -4.5 23.5 -13.5 32.5s-19.833 13.5 -32.5 13.5c-13.333 0 -24.5 -4.5 -33.5 -13.5
s-13.5 -19.833 -13.5 -32.5c0 -13.333 4.5 -24.5 13.5 -33.5s20.167 -13.5 33.5 -13.5zM553 286c20.667 0 40.5 -4.16602 59.5 -12.499s35.5 -19.5 49.5 -33.5s25.167 -30.333 33.5 -49s12.5 -38.334 12.5 -59.001s-4 -40.334 -12 -59.001s-19 -35.167 -33 -49.5
s-30.5 -25.666 -49.5 -33.999s-39.167 -12.5 -60.5 -12.5s-41.333 4.16699 -60 12.5s-35 19.5 -49 33.5s-25.167 30.333 -33.5 49s-12.5 38.667 -12.5 60s4.16699 41.333 12.5 60s19.5 35 33.5 49s30.333 25 49 33s38.667 12 60 12zM553 85.001
c12.667 0 23.667 4.66699 33 14s14 20.333 14 33s-4.66699 23.5 -14 32.5s-20.333 13.5 -33 13.5s-23.5 -4.5 -32.5 -13.5s-13.5 -19.833 -13.5 -32.5s4.5 -23.667 13.5 -33s19.833 -14 32.5 -14zM260 -37.999l356 617l-131 76l-356 -617z" />
    <glyph glyph-name="ampersand" unicode="&#x26;" horiz-adv-x="650" 
d="M664 11h-203l-40 38c-45.333 -31.333 -101.666 -47 -168.999 -47c-70.667 0 -126 16.333 -166 49s-60 77.334 -60 134.001c0 30 4.66699 56.333 14 79s26.666 44.334 51.999 65.001l19.5 16c5 4 8.16699 6.33301 9.5 7c-11.333 12.667 -21.833 30.167 -31.5 52.5
s-14.5 47.5 -14.5 75.5c0 22.667 4.5 43.334 13.5 62.001s21.667 34.667 38 48s36 23.666 59 30.999s48.5 11 76.5 11c26.667 0 51 -3.33301 73 -10s41 -16.334 57 -29.001s28.333 -27.834 37 -45.501s13 -37.5 13 -59.5c0 -36 -10.167 -68.167 -30.5 -96.5
s-44.5 -50.5 -72.5 -66.5l76 -76c0 1.33301 4.5 12 13.5 32s17.5 45 25.5 75h164c-14 -52 -29.667 -95.5 -47 -130.5s-33.333 -61.5 -48 -79.5zM190 197c0 -17.333 6.33301 -31 19 -41s30 -15 52 -15c28 0 47.667 3 59 9l-102 101c-4.66699 -4 -10.5 -11 -17.5 -21
s-10.5 -21 -10.5 -33zM293 475c0 17.333 -10.667 26 -32 26c-24.667 0 -37 -10 -37 -30c0 -18 7.33301 -35.333 22 -52c12 6.66699 22.833 15 32.5 25s14.5 20.333 14.5 31z" />
    <glyph glyph-name="quotesingle" unicode="'" horiz-adv-x="264" 
d="M78 705c12.667 6.66699 26.334 10.001 41.001 10.001c12 0 24.167 -2.66699 36.5 -8s23.666 -12.833 33.999 -22.5s18.833 -21 25.5 -34s10 -26.833 10 -41.5c0 -48 -36.333 -101 -109 -159c-50 102 -75 166.667 -75 194c0 13.333 3.66699 25.166 11 35.499
s16 18.833 26 25.5z" />
    <glyph glyph-name="parenleft" unicode="(" horiz-adv-x="380" 
d="M354 -87l18 -15l-52 -74l-21 16c-168.667 122 -253 282 -253 480c0 192 86 345.667 258 461l25 16l40 -80l-17 -13c-52 -40 -90.667 -90.167 -116 -150.5s-38 -134.833 -38 -223.5c0 -54.667 2.66699 -102.5 8 -143.5s14 -77.667 26 -110s28 -61.5 48 -87.5
s44.667 -51.333 74 -76z" />
    <glyph glyph-name="parenright" unicode=")" horiz-adv-x="380" 
d="M26 -87c29.333 24.667 54 50 74 76s36 55.167 48 87.5s20.667 69 26 110s8 88.833 8 143.5c0 88.667 -12.667 163.167 -38 223.5s-64 110.5 -116 150.5l-17 13l40 80l25 -16c172 -115.333 258 -269 258 -461c0 -198 -84.333 -358 -253 -480l-21 -16l-52 74z" />
    <glyph glyph-name="asterisk" unicode="*" horiz-adv-x="584" 
d="M419 88l-60 70v-124l-110 30v117l-105 -97l-52 104l68 64h-120l28 115h112l-94 109l101 55l62 -73v127l110 -29v-118l105 97l51 -105l-67 -63h120l-29 -115h-113l94 -109z" />
    <glyph glyph-name="plus" unicode="+" horiz-adv-x="555" 
d="M218 109v143h-176l32 126h144v176l126 -32v-144h176l-33 -126h-143v-176z" />
    <glyph glyph-name="comma" unicode="," horiz-adv-x="260" 
d="M136 -140l-88 37.0029l39.5 45.5c9.66699 11.667 16.834 21.167 21.501 28.5s7.5 13.666 8.5 18.999s1.5 11 1.5 17c-10.667 0.666992 -21.334 4 -32.001 10s-20.5 13.667 -29.5 23s-16.333 20.166 -22 32.499s-8.5 25.5 -8.5 39.5c0 20 6.83301 38.333 20.5 55
s33.167 25 58.5 25c18 0 34 -4.66699 48 -14s25.833 -21 35.5 -35s17 -29.333 22 -46s7.5 -32.334 7.5 -47.001c0 -26 -5.33301 -54.167 -16 -84.5s-33 -65.5 -67 -105.5z" />
    <glyph glyph-name="hyphenminus" unicode="-" horiz-adv-x="474" 
d="M408 252h-366l32 126h367z" />
    <glyph glyph-name="period" unicode="." horiz-adv-x="223" 
d="M193 76c0 -21.333 -7.33301 -39.333 -22 -54s-32.334 -22 -53.001 -22c-21.333 -0 -39.333 7.33301 -54 22s-22 32.667 -22 54c0 20.667 7.33301 38.334 22 53.001s32.667 22 54 22c20.667 0 38.334 -7.33301 53.001 -22s22 -32.334 22 -53.001z" />
    <glyph glyph-name="slash" unicode="/" horiz-adv-x="458" 
d="M27 -12l265 716l143 -76l-265 -716z" />
    <glyph glyph-name="zero" unicode="0" horiz-adv-x="522" 
d="M490 324c0 -112 -18.001 -194.833 -54.001 -248.5s-93.333 -80.5 -172 -80.5c-150 0 -225 109.667 -225 329c0 112 17.833 195 53.5 249s92.834 81 171.501 81c150.667 0 226 -110 226 -330zM191.999 324c0 -38 1.66602 -69.1699 4.99902 -93.5029s8 -43.833 14 -58.5
s13.5 -24.834 22.5 -30.501s19.167 -8.5 30.5 -8.5s21.5 2.83301 30.5 8.5s16.5 15.834 22.5 30.501s10.667 34.334 14 59.001s5 55.667 5 93c0 36.667 -1.66699 67.334 -5 92.001s-8 44.334 -14 59.001s-13.5 25 -22.5 31s-19.167 9 -30.5 9s-21.333 -2.66699 -30 -8
s-16.167 -15.166 -22.5 -29.499s-11.166 -33.833 -14.499 -58.5s-5 -56.334 -5 -95.001z" />
    <glyph glyph-name="one" unicode="1" horiz-adv-x="358" 
d="M175 446l-83 -67l-84 106l201 159h118v-641h-152v443z" />
    <glyph glyph-name="two" unicode="2" horiz-adv-x="510" 
d="M243 145l234.001 0.000976562v-142h-450v113l157 159l65 71c16 17.333 28 32 36 44s13.167 22.833 15.5 32.5s3.5 21.5 3.5 35.5c0 36 -19.333 54 -58 54c-9.33301 0 -18 -0.333008 -26 -1s-16.833 -3.16699 -26.5 -7.5s-21.5 -11.166 -35.5 -20.499
s-31.667 -22.333 -53 -39l-87 107c24.667 21.333 47.167 38.666 67.5 51.999s39.5 23.666 57.5 30.999s35.5 12.333 52.5 15s35.167 4 54.5 4c30 0 57.667 -4.33301 83 -13s47.166 -21 65.499 -37s32.833 -35.5 43.5 -58.5s16 -48.833 16 -77.5
c0 -24 -2.83301 -46.167 -8.5 -66.5s-15 -41 -28 -62s-29.833 -43 -50.5 -66s-46 -48.833 -76 -77.5z" />
    <glyph glyph-name="three" unicode="3" horiz-adv-x="515" 
d="M407 343c25.333 -14 45.335 -33.1631 60.002 -57.4961s22 -52.833 22 -85.5c0 -66.667 -22.5 -117.5 -67.5 -152.5s-107.833 -52.5 -188.5 -52.5c-58 0 -122 13.667 -192 41v152c73.333 -37.333 135.666 -56 186.999 -56c38 0 64.667 5.5 80 16.5s23 29.5 23 55.5
c0 19.333 -8.5 34.166 -25.5 44.499s-49.167 15.5 -96.5 15.5h-80v137h81c72 0 108 22 108 66c0 15.333 -4.83301 27.166 -14.5 35.499s-26.5 12.5 -50.5 12.5c-10 0 -19.167 -0.333008 -27.5 -1s-17.5 -2.83398 -27.5 -6.50098s-21.833 -9.33398 -35.5 -17.001
s-31.167 -18.5 -52.5 -32.5l-79 112c73.333 55.333 148.666 83 225.999 83c32 0 61.167 -3.83301 87.5 -11.5s49 -19 68 -34s33.667 -33.167 44 -54.5s15.5 -45.333 15.5 -72c0 -28.667 -5.83301 -55 -17.5 -79s-27.5 -43.667 -47.5 -59z" />
    <glyph glyph-name="four" unicode="4" horiz-adv-x="558" 
d="M302 399l-90 -132h90v132zM530 129h-77v-126h-151v126h-263v112l277 404h137v-378h77v-138z" />
    <glyph glyph-name="five" unicode="5" horiz-adv-x="502" 
d="M209 423c12.667 2 28.6699 3.00098 48.0029 3.00098c33.333 0 63.5 -4.66699 90.5 -14s50.167 -22.833 69.5 -40.5s34.166 -39 44.499 -64s15.5 -53.167 15.5 -84.5c0 -72.667 -22.333 -128.834 -67 -168.501s-106.334 -59.5 -185.001 -59.5
c-70.667 0 -131.334 14.333 -182.001 43v154c25.333 -14 46.833 -25 64.5 -33s33.167 -13.833 46.5 -17.5s25.333 -6 36 -7s21.667 -1.5 33 -1.5c65.333 0 98 26.667 98 80c0 50 -34 75 -102 75c-10.667 0 -24.5 -1.16699 -41.5 -3.5s-35.5 -5.83301 -55.5 -10.5l-69 39
l27 331h356v-143h-220z" />
    <glyph glyph-name="six" unicode="6" horiz-adv-x="510" 
d="M269 132c22 0 39 7 51 21s18 37 18 69c0 26 -5.16699 45.333 -15.5 58s-27.5 19 -51.5 19s-43.167 -7 -57.5 -21s-21.5 -28.333 -21.5 -43c0 -32 7.33301 -57.167 22 -75.5s33 -27.5 55 -27.5zM194 408l5.99805 3.00195c26.667 14.667 58 22 94 22
c30.667 0 58.167 -5 82.5 -15s44.833 -24.333 61.5 -43s29.334 -40.834 38.001 -66.501s13 -54.167 13 -85.5c0 -35.333 -5.16699 -67 -15.5 -95s-25 -51.833 -44 -71.5s-42 -34.834 -69 -45.501s-56.833 -16 -89.5 -16c-72.667 0 -129.667 25 -171 75s-62 120.333 -62 211
c0 246.667 101.667 370 305 370c8 0 15.333 -0.166992 22 -0.5s13.834 -0.833008 21.501 -1.5s16.167 -1.66699 25.5 -3l34 -5v-148c-40 15.333 -72.667 23 -98 23c-46 0 -81.333 -9.5 -106 -28.5s-40.667 -45.5 -48 -79.5z" />
    <glyph glyph-name="seven" unicode="7" horiz-adv-x="536" 
d="M90 3l228 498h-283v142h458v-101l-237 -539h-166z" />
    <glyph glyph-name="eight" unicode="8" horiz-adv-x="513" 
d="M248 651c30.667 0 58.833 -3.83203 84.5 -11.499s47.667 -18.834 66 -33.501s32.5 -32.5 42.5 -53.5s15 -44.5 15 -70.5c0 -72.667 -23 -120.334 -69 -143.001c6 -3.33301 13.833 -9.66602 23.5 -18.999s19.167 -21 28.5 -35s17.5 -29.833 24.5 -47.5
s10.5 -35.834 10.5 -54.501c0 -29.333 -5.5 -55.5 -16.5 -78.5s-26.333 -42.667 -46 -59s-43.334 -28.833 -71.001 -37.5s-58.167 -13 -91.5 -13c-70.667 0 -126 15.833 -166 47.5s-60 77.834 -60 138.501c0 18.667 3.16699 36.834 9.5 54.501s13.833 33.667 22.5 48
s17.5 26.333 26.5 36s16.5 16.167 22.5 19.5c-4 2.66699 -9.5 8.33398 -16.5 17.001s-14 19.5 -21 32.5s-13 27.667 -18 44s-7.5 33.166 -7.5 50.499c0 26.667 5.33301 50.5 16 71.5s25.334 38.667 44.001 53s40.5 25.166 65.5 32.499s52.167 11 81.5 11zM170.999 183.001
c0 -17.333 6.16699 -31.001 18.5 -41.001s31.833 -15 58.5 -15s46.167 5.16699 58.5 15.5s18.5 24.5 18.5 42.5c0 28 -28.667 54.667 -86 80c-45.333 -21.333 -68 -48.666 -68 -81.999zM246.999 519c-19.333 0 -33.832 -3.83203 -43.499 -11.499s-14.5 -17.5 -14.5 -29.5
c3.33301 -18.667 9.16602 -32.334 17.499 -41.001s22.833 -17.334 43.5 -26.001c19.333 8.66699 33.5 18.334 42.5 29.001s13.5 22.667 13.5 36c0 28.667 -19.667 43 -59 43z" />
    <glyph glyph-name="nine" unicode="9" horiz-adv-x="528" 
d="M258 515c-46.667 0 -70.002 -30.667 -70.002 -92c0 -50.667 22 -76 66 -76c24.667 0 44.5 6.83301 59.5 20.5s22.5 28.167 22.5 43.5c0 14.667 -2.16699 28.5 -6.5 41.5s-10.166 24 -17.499 33s-15.666 16.167 -24.999 21.5s-19 8 -29 8zM331.998 236l-8.99902 -4.00098
c-24.667 -12.667 -55 -19 -91 -19c-30 0 -57.167 5 -81.5 15s-44.833 24.167 -61.5 42.5s-29.5 40.333 -38.5 66s-13.5 54.5 -13.5 86.5c0 34 5.16699 65 15.5 93s25 52 44 72s42.167 35.5 69.5 46.5s57.666 16.5 90.999 16.5c72.667 0 129.334 -24.667 170.001 -74
s61 -119.666 61 -210.999c0 -247.333 -101.333 -371 -304 -371c-7.33301 0 -14.333 0.166992 -21 0.5s-13.834 0.833008 -21.501 1.5s-16.667 1.66699 -27 3s-22.5 3 -36.5 5v145c46.667 -14 80.334 -21 101.001 -21c44 0 78.167 9.33301 102.5 28s41.166 45 50.499 79z" />
    <glyph glyph-name="colon" unicode=":" horiz-adv-x="258" 
d="M209 169c0 -21.333 -7.33301 -39.333 -22 -54s-32.334 -22 -53.001 -22c-21.333 0 -39.333 7.33301 -54 22s-22 32.667 -22 54c0 20.667 7.33301 38.334 22 53.001s32.667 22 54 22c20.667 0 38.334 -7.33301 53.001 -22s22 -32.334 22 -53.001zM209 445
c0 -21.333 -7.33301 -39.333 -22 -54s-32.334 -22 -53.001 -22c-21.333 0 -39.333 7.33301 -54 22s-22 32.667 -22 54c0 20.667 7.33301 38.334 22 53.001s32.667 22 54 22c20.667 0 38.334 -7.33301 53.001 -22s22 -32.334 22 -53.001z" />
    <glyph glyph-name="semicolon" unicode=";" horiz-adv-x="258" 
d="M210 445c0 -21.333 -7.33301 -39.333 -22 -54s-32.667 -22 -54 -22c-20.667 0 -38.334 7.33301 -53.001 22s-22 32.667 -22 54c0 20.667 7.33301 38.334 22 53.001s32.334 22 53.001 22c21.333 0 39.333 -7.33301 54 -22s22 -32.334 22 -53.001zM145 -11l-74.998 30.9971
l33 38.5c8 9.66699 14 17.667 18 24s6.5 11.5 7.5 15.5s1.5 8 1.5 12v4c-8.66699 0.666992 -17.5 3.33398 -26.5 8.00098s-17.333 11 -25 19s-13.834 17.333 -18.501 28s-7 22.334 -7 35.001c0 16.667 5.83301 32.167 17.5 46.5s28.167 21.5 49.5 21.5
c14.667 0 28 -3.83301 40 -11.5s22.167 -17.334 30.5 -29.001s14.666 -24.667 18.999 -39s6.5 -28.166 6.5 -41.499c0 -22 -4.5 -46.167 -13.5 -72.5s-28.167 -56.166 -57.5 -89.499z" />
    <glyph glyph-name="less" unicode="&#x3c;" horiz-adv-x="425" 
d="M40 367l354 160v-140l-209 -90l209 -91v-139l-354 158v142z" />
    <glyph glyph-name="equal" unicode="=" horiz-adv-x="482" 
d="M412 137h-366l32 126h367zM408 330h-366l32 126h367z" />
    <glyph glyph-name="greater" unicode="&#x3e;" horiz-adv-x="432" 
d="M40 67v139l209 91l-209 90v140l354 -160v-142z" />
    <glyph glyph-name="question" unicode="?" horiz-adv-x="516" 
d="M284 42c0 20.667 -7.33301 38.334 -22 53.001s-32.334 22 -53.001 22c-21.333 0 -39.333 -7.33301 -54 -22s-22 -32.334 -22 -53.001c0 -21.333 7.33301 -39.333 22 -54s32.667 -22 54 -22c20.667 0 38.334 7.33301 53.001 22s22 32.667 22 54zM133 188
c14 64.667 55.3359 119.335 124.003 164.002c23.333 15.333 43.166 30.833 59.499 46.5s25.166 35.167 26.499 58.5c0 19.333 -4.5 34.333 -13.5 45s-19.167 18.334 -30.5 23.001l-15 3c13.333 -19.333 20 -40 20 -62c0 -14.667 -2.66699 -28.5 -8 -41.5
s-12.833 -24.333 -22.5 -34s-20.834 -17.334 -33.501 -23.001s-26.334 -8.5 -41.001 -8.5s-28.334 2.83301 -41.001 8.5s-23.834 13.334 -33.501 23.001s-17.167 21 -22.5 34s-8 26.833 -8 41.5c0 37.333 7.33301 67.166 22 89.499s32.334 39.5 53.001 51.5
s41.834 19.833 63.501 23.5s39.167 5.5 52.5 5.5c30 0 55.333 -4 76 -12s37.834 -18.167 51.501 -30.5s24.167 -26 31.5 -41s12.833 -29.5 16.5 -43.5s5.83398 -26.5 6.50098 -37.5s1 -18.833 1 -23.5c0 -21.333 -2.33301 -39.5 -7 -54.5s-11.334 -28.333 -20.001 -40
s-19.5 -22.334 -32.5 -32.001s-27.833 -19.834 -44.5 -30.501l-5 -3c-50.667 -28.667 -76 -68.667 -76 -120v-18z" />
    <glyph glyph-name="at" unicode="@" horiz-adv-x="902" 
d="M437 -49c-10.667 0 -25.3281 0.169922 -43.9951 0.50293s-39.167 2.16602 -61.5 5.49902s-46 8.83301 -71 16.5s-49.5 18.667 -73.5 33s-46.5 32.833 -67.5 55.5s-38.833 50.667 -53.5 84c-17.333 44.667 -26 88.667 -26 132c0 8.66699 1 22.5 3 41.5s6.5 40.667 13.5 65
s17.333 50.166 31 77.499s32.167 53.5 55.5 78.5s52.166 47.667 86.499 68s75.833 35.833 124.5 46.5c13.333 3.33301 26.833 5.5 40.5 6.5s28.167 1.5 43.5 1.5c62.667 0 134.334 -13.667 215.001 -41c75.333 -30 129 -68.333 161 -115s48 -98 48 -154
c0 -29.333 -4.66699 -59.333 -14 -90s-22.5 -58.834 -39.5 -84.501s-37.5 -46.667 -61.5 -63s-50.667 -24.5 -80 -24.5c-16.667 0 -33.334 3 -50.001 9l-343 81l-23 96l51 -8c12 -2 23 -3.66699 33 -5s19 -2 27 -2h5l25 2c86.667 6.66699 131.667 38 135 94
c-1.33301 14 -8.5 23.667 -21.5 29s-26.5 8 -40.5 8l-33 -2c12 -9.33301 18 -20.333 18 -33c0 -8 -1.66699 -16 -5 -24s-8.33301 -15.5 -15 -22.5s-14.834 -12.667 -24.501 -17s-20.834 -6.5 -33.501 -6.5c-11.333 0 -22.666 1.83301 -33.999 5.5
s-21.5 9.33398 -30.5 17.001s-16.167 17.167 -21.5 28.5s-8 24.666 -8 39.999c0 17.333 4.33301 32.666 13 45.999s20.5 24.666 35.5 33.999s32.667 16.5 53 21.5s42.166 7.5 65.499 7.5c3.33301 0 10.166 -0.333008 20.499 -1s22.166 -2.5 35.499 -5.5
s27.333 -7.5 42 -13.5s28 -14.5 40 -25.5s22 -24.667 30 -41s12 -36.166 12 -59.499v-11c-6 -56.667 -40.667 -96.667 -104 -120l105 -23l14 2c8 0.666992 18.333 3.33398 31 8.00098s25 12.334 37 23.001s22.333 25.167 31 43.5s13 41.5 13 69.5c0 32 -8 61.333 -24 88
s-37.833 49.667 -65.5 69s-59.667 34.333 -96 45s-74.833 16 -115.5 16c-27.333 0 -58 -4.16699 -92 -12.5s-66 -23.333 -96 -45s-55.167 -51 -75.5 -88s-30.5 -84.5 -30.5 -142.5c0 -32.667 6.16699 -62.5 18.5 -89.5s30 -50.333 53 -70s51 -34.834 84 -45.501
s70.167 -16 111.5 -16c32 0 66.667 3 104 9l19 -95l-59 -6c-4 -0.666992 -8 -1.16699 -12 -1.5s-8.33301 -0.5 -13 -0.5h-26z" />
    <glyph glyph-name="A" unicode="A" horiz-adv-x="672" 
d="M344 430l-42 -124h85l-41 118zM489 3l-58 161h-177l-56 -161h-164l238 644h144l238 -644h-165z" />
    <glyph glyph-name="B" unicode="B" horiz-adv-x="547" 
d="M192 404h62c32.667 0 54.5 3.83301 65.5 11.5s16.5 21.5 16.5 41.5c0 16 -6 28 -18 36s-36.667 12 -74 12h-52v-101zM192 267v-124h71c32.667 0 55.667 4.83301 69 14.5s20 26.167 20 49.5c0 40 -31.333 60 -94 60h-66zM445 344c44.667 -26 67 -74.001 67 -144.001
c0 -31.333 -5.5 -59.166 -16.5 -83.499s-26.833 -44.833 -47.5 -61.5s-45.5 -29.5 -74.5 -38.5s-61.5 -13.5 -97.5 -13.5h-237v641h200c86.667 0 151 -13.667 193 -41s63 -72 63 -134c0 -26 -4.33301 -49.333 -13 -70s-21 -39 -37 -55z" />
    <glyph glyph-name="C" unicode="C" horiz-adv-x="565" 
d="M337 511c-46 0 -81.498 -16.168 -106.498 -48.501s-37.5 -78.833 -37.5 -139.5c0 -124 48 -186 144 -186c12 0 22.833 0.333008 32.5 1s20.5 2.16699 32.5 4.5s26.333 5.83301 43 10.5s38 11 64 19v-140c-51.333 -24.667 -112.666 -37 -183.999 -37
c-96 0 -168.5 28.167 -217.5 84.5s-73.5 137.833 -73.5 244.5c0 48.667 7 93.167 21 133.5s34.167 75 60.5 104s58.166 51.5 95.499 67.5s79.333 24 126 24c64.667 0 132 -18 202 -54l-57 -133c-18.667 8.66699 -34.667 15.834 -48 21.501s-25.333 10.167 -36 13.5
s-20.834 5.83301 -30.501 7.5s-19.834 2.5 -30.501 2.5z" />
    <glyph glyph-name="D" unicode="D" horiz-adv-x="601" 
d="M567 329c0 -107.333 -28.002 -188.5 -84.002 -243.5s-140.667 -82.5 -254 -82.5h-190v641h207c50 0 94.833 -7 134.5 -21s73.334 -34.5 101.001 -61.5s48.834 -60 63.501 -99s22 -83.5 22 -133.5zM406.998 326c0 119.333 -54.333 179 -163 179h-52v-362h37
c118.667 0 178 61 178 183z" />
    <glyph glyph-name="E" unicode="E" horiz-adv-x="467" 
d="M424 3h-385v641h385v-140h-232v-99h217v-139h-217v-122h232v-141z" />
    <glyph glyph-name="F" unicode="F" horiz-adv-x="455" 
d="M193 3h-154v641h386v-140h-232v-121h216v-142h-216v-238z" />
    <glyph glyph-name="G" unicode="G" horiz-adv-x="611" 
d="M300 378l271.996 -0.00195312v-344c-26 -8 -48.833 -14.5 -68.5 -19.5s-38.167 -9 -55.5 -12s-34.666 -5 -51.999 -6s-36.666 -1.5 -57.999 -1.5c-98 0 -172.833 28.167 -224.5 84.5s-77.5 137.833 -77.5 244.5c0 51.333 7.66699 97.333 23 138
s37.166 75.167 65.499 103.5s62.833 50 103.5 65s86.667 22.5 138 22.5c57.333 0 127.666 -16 210.999 -48l-58 -137c-58 28.667 -109.667 43 -155 43c-52.667 0 -94.167 -16.167 -124.5 -48.5s-45.5 -78.833 -45.5 -139.5c0 -66.667 13.333 -114.667 40 -144
s66 -44 118 -44c6.66699 0 13.834 0.333008 21.501 1s14.834 1.33398 21.501 2.00098s12.334 1.33398 17.001 2.00098s7.33398 1 8.00098 1v95h-120v142z" />
    <glyph glyph-name="H" unicode="H" horiz-adv-x="596" 
d="M554 3h-155v262h-205v-262h-155v641h155v-237h205v237h155v-641z" />
    <glyph glyph-name="I" unicode="I" horiz-adv-x="355" 
d="M327 3h-293v106l70 23v383l-70 24v105h293v-105l-69 -24v-383l69 -23v-106z" />
    <glyph glyph-name="J" unicode="J" horiz-adv-x="234" 
d="M1 -159c-19.333 0 -50.999 5.66797 -94.999 17.001v144c43.333 -13.333 72.666 -20 87.999 -20c31.333 0 47 23 47 69v593h154v-590c0 -68.667 -16.667 -121.334 -50 -158.001s-81.333 -55 -144 -55z" />
    <glyph glyph-name="K" unicode="K" horiz-adv-x="601" 
d="M565 3h-182l-172 249l-19 -16v-233h-154v641h154v-222c-14.667 -16.667 -22 -26 -22 -28l210 250h186l-243 -287z" />
    <glyph glyph-name="L" unicode="L" horiz-adv-x="482" 
d="M39 3v641h153v-499h245v-142h-398z" />
    <glyph glyph-name="M" unicode="M" horiz-adv-x="742" 
d="M542 335l-119 -332h-125l-112 325v-325h-146v641h184l141 -402l144 402h185v-641h-152v332z" />
    <glyph glyph-name="N" unicode="N" horiz-adv-x="625" 
d="M435 262v9c-0.666992 3.33301 -1 7.33301 -1 12v361h147v-641h-164l-231 379v-379h-147v641h162z" />
    <glyph glyph-name="O" unicode="O" horiz-adv-x="673" 
d="M634 324c0 -51.333 -6.5 -97.168 -19.5 -137.501s-32.333 -74.833 -58 -103.5s-57.167 -50.5 -94.5 -65.5s-80 -22.5 -128 -22.5c-98 0 -172.5 28.333 -223.5 85s-76.5 138.334 -76.5 245.001s25.667 188.167 77 244.5s126.333 84.5 225 84.5
c98 0 172.167 -28.5 222.5 -85.5s75.5 -138.5 75.5 -244.5zM195 323.998c0 -124.667 46.333 -187 139 -187c94 0 141 62.333 141 187c0 125.333 -46.333 188 -139 188c-94 0 -141 -62.667 -141 -188z" />
    <glyph glyph-name="P" unicode="P" horiz-adv-x="511" 
d="M481 439c0 -70.667 -22.832 -124.667 -68.499 -162s-108.834 -56 -189.501 -56h-30v-218h-154v641h196c164 0 246 -68.333 246 -205zM193.001 360h20c42 0 71 6 87 18s24 31 24 57c0 24.667 -6.83301 42.5 -20.5 53.5s-38.5 16.5 -74.5 16.5h-36v-145z" />
    <glyph glyph-name="Q" unicode="Q" horiz-adv-x="673" 
d="M626 324c0 -38 -4.33203 -73.501 -12.999 -106.501s-19.667 -62.167 -33 -87.5s-27.833 -46.5 -43.5 -63.5s-30.834 -28.5 -45.501 -34.5l155 -168h-209l-111 131c-98 0 -172.5 28.333 -223.5 85s-76.5 138.334 -76.5 245.001s25.667 188.167 77 244.5s126 84.5 224 84.5
s172.333 -28.5 223 -85.5s76 -138.5 76 -244.5zM187.001 323.999c0 -124.667 46.333 -187 139 -187c93.333 0 140 62.333 140 187c0 125.333 -46.333 188 -139 188c-93.333 0 -140 -62.667 -140 -188z" />
    <glyph glyph-name="R" unicode="R" horiz-adv-x="537" 
d="M191 374l36 0.000976562c36 0 60.833 5.5 74.5 16.5s20.5 27.833 20.5 50.5c0 23.333 -7.16699 39.666 -21.5 48.999s-39.833 14 -76.5 14h-33v-130zM191 235.001v-232.001h-153v641h192c84 0 146.5 -16 187.5 -48s61.5 -82.333 61.5 -151
c0 -87.333 -32.667 -143.666 -98 -168.999l173 -273h-178l-138 232h-47z" />
    <glyph glyph-name="S" unicode="S" horiz-adv-x="477" 
d="M451 192c0 -31.333 -5.67188 -59.1689 -17.0049 -83.502s-27.333 -44.833 -48 -61.5s-45.667 -29.5 -75 -38.5s-62 -13.5 -98 -13.5c-60 0 -123.333 13.667 -190 41v155c27.333 -12.667 50.666 -22.667 69.999 -30s36.333 -13 51 -17s27.834 -6.5 39.501 -7.5
s23.5 -1.5 35.5 -1.5c30.667 0 51.5 4.66699 62.5 14s16.5 21.333 16.5 36c0 4.66699 -0.833008 9.66699 -2.5 15s-6 11.333 -13 18s-17.667 13.834 -32 21.501s-33.833 16.5 -58.5 26.5c-58 22.667 -99.667 49.834 -125 81.501s-38 71.5 -38 119.5
c0 28.667 5.33301 54.5 16 77.5s25.834 42.5 45.501 58.5s43 28.333 70 37s56.5 13 88.5 13c65.333 0 132.666 -17.667 201.999 -53l-51 -131c-67.333 28 -118.666 42 -153.999 42c-23.333 0 -39.666 -4 -48.999 -12s-14 -18.333 -14 -31
c0.666992 -7.33301 1 -13.166 1 -17.499s2.5 -9 7.5 -14s14.333 -11 28 -18s34.834 -16.833 63.501 -29.5c32 -13.333 58.667 -26.833 80 -40.5s38.333 -28.334 51 -44.001s21.834 -32.667 27.501 -51s8.83398 -38.833 9.50098 -61.5z" />
    <glyph glyph-name="T" unicode="T" horiz-adv-x="549" 
d="M355 3h-154v500h-170v141h493v-141h-169v-500z" />
    <glyph glyph-name="U" unicode="U" horiz-adv-x="582" 
d="M555 644l-0.000976562 -405.001c0 -37.333 -6 -71 -18 -101s-29.167 -55.667 -51.5 -77s-49.666 -37.666 -81.999 -48.999s-68.5 -17 -108.5 -17c-83.333 0 -146.833 21.667 -190.5 65s-65.5 103.333 -65.5 180v404h155v-397c0 -40 7.83301 -68.333 23.5 -85
s42.5 -25 80.5 -25c68.667 0 103 36.667 103 110v397h154z" />
    <glyph glyph-name="V" unicode="V" horiz-adv-x="624" 
d="M311 251l132 393h161l-223 -641h-141l-222 641h161l106 -317z" />
    <glyph glyph-name="W" unicode="W" horiz-adv-x="855" 
d="M256 284l98 360h139l102 -362l87 362h157l-165 -641h-148l-102 358l-101 -358h-148l-166 641h159z" />
    <glyph glyph-name="X" unicode="X" horiz-adv-x="637" 
d="M609 3h-182l-127 210l-128 -210h-172l209 331l-198 310h176l117 -192l116 192h174l-199 -312z" />
    <glyph glyph-name="Y" unicode="Y" horiz-adv-x="630" 
d="M242 309l-215 335h176l117 -192l116 192h174l-215 -335v-306h-153v306z" />
    <glyph glyph-name="Z" unicode="Z" horiz-adv-x="531" 
d="M503 3h-473v105l266 395h-257v141h456v-106l-265 -393h273v-142z" />
    <glyph glyph-name="bracketleft" unicode="[" horiz-adv-x="339" 
d="M307 807v-126h-132v-740h132v-126h-258v992h258z" />
    <glyph glyph-name="backslash" unicode="\" horiz-adv-x="442" 
d="M27 628l143 76l265 -716l-143 -76z" />
    <glyph glyph-name="bracketright" unicode="]" horiz-adv-x="339" 
d="M32 807h258v-992h-258v126h132v740h-132v126z" />
    <glyph glyph-name="asciicircum" unicode="^" horiz-adv-x="403" 
d="M255 738l117 -203h-133l-38 70l-38 -70h-132l115 203h109z" />
    <glyph glyph-name="underscore" unicode="_" horiz-adv-x="481" 
d="M408 0h-366l27 94h367z" />
    <glyph glyph-name="grave" unicode="`" horiz-adv-x="286" 
d="M-87 750l172 124l158 -260l-107 -81z" />
    <glyph glyph-name="a" unicode="a" horiz-adv-x="490" 
d="M220 127c54.667 0 81.998 26 81.998 78v7l-24 -1c-19.333 -0.666992 -35.166 -2.33398 -47.499 -5.00098s-22.166 -6.16699 -29.499 -10.5s-12.333 -9.66602 -15 -15.999s-4 -13.5 -4 -21.5c0 -10.667 2.66699 -18.5 8 -23.5s15.333 -7.5 30 -7.5zM302.998 331
c-1.33301 17.333 -5.33398 29.668 -12.001 37.001s-19.334 11 -38.001 11c-10 0 -19.333 -0.666992 -28 -2s-18 -3.66602 -28 -6.99902s-21.5 -7.83301 -34.5 -13.5l-47.5 -21.5l-54 121c42 22 78.167 36.667 108.5 44s59.5 11 87.5 11
c62.667 0 111.334 -14.667 146.001 -44s52 -75.333 52 -138v-326h-119l-10 34c-17.333 -14.667 -36.666 -25.334 -57.999 -32.001s-47 -10 -77 -10c-52 0 -92.5 14.333 -121.5 43s-43.5 69 -43.5 121c0 54 19.167 95.667 57.5 125s95.833 44.666 172.5 45.999z" />
    <glyph glyph-name="b" unicode="b" horiz-adv-x="522" 
d="M267 374c-14 0 -26 -1.66797 -36 -5.00098s-18 -9.16602 -24 -17.499s-10.333 -20 -13 -35s-4 -33.833 -4 -56.5v-6c0 -47.333 6 -79.5 18 -96.5s32 -25.5 60 -25.5c46.667 0 70 40.667 70 122c0 80 -23.667 120 -71 120zM190 487.999
c27.333 15.333 60.998 23.001 100.998 23.001c64.667 0 114.334 -22.667 149.001 -68s52 -108.333 52 -189c0 -40 -4.5 -75.833 -13.5 -107.5s-22.167 -58.834 -39.5 -81.501s-38.666 -40 -63.999 -52s-54.333 -18 -87 -18c-50 0 -90 12 -120 36l-9 -28h-121v678h152v-193z
" />
    <glyph glyph-name="c" unicode="c" horiz-adv-x="458" 
d="M257 -5c-78.667 0 -136.999 22.5 -174.999 67.5s-57 107.833 -57 188.5c0 84.667 20.667 149.167 62 193.5s100.333 66.5 177 66.5c53.333 0 107.666 -14 162.999 -42l-49 -128c-64 21.333 -102.333 32 -115 32c-55.333 0 -83 -40.333 -83 -121
c0 -79.333 27 -119 81 -119c35.333 0 84.333 17.333 147 52v-150c-14.667 -8.66699 -28 -15.5 -40 -20.5s-23.833 -9 -35.5 -12s-23.5 -5 -35.5 -6s-25.333 -1.5 -40 -1.5z" />
    <glyph glyph-name="d" unicode="d" horiz-adv-x="524" 
d="M257 131c28.667 0 49.168 7.50098 61.501 22.501s18.5 43.5 18.5 85.5v13c0 24 -1.5 43.833 -4.5 59.5s-7.83301 28.167 -14.5 37.5s-15.167 15.833 -25.5 19.5s-22.5 5.5 -36.5 5.5c-22.667 0 -40.334 -9.83301 -53.001 -29.5s-19 -50.834 -19 -93.501
c0 -44 6.33301 -75 19 -93s30.667 -27 54 -27zM353.001 32.001c-28.667 -24.667 -68.999 -37.001 -120.999 -37.001c-66.667 0 -117.167 22.667 -151.5 68s-51.5 108.333 -51.5 189c0 40 4.5 75.833 13.5 107.5s22.333 58.834 40 81.501s39.167 40 64.5 52s54 18 86 18
c39.333 0 72.666 -7.66699 99.999 -23v193h152v-678h-124z" />
    <glyph glyph-name="e" unicode="e" horiz-adv-x="496" 
d="M252 380c-10 0 -19.167 -2 -27.5 -6s-15.5 -8.66699 -21.5 -14s-10.667 -10.833 -14 -16.5s-5.33301 -10.167 -6 -13.5h135c0 4 -1.5 8.83301 -4.5 14.5s-7.5 11.167 -13.5 16.5s-13 9.83301 -21 13.5s-17 5.5 -27 5.5zM269 -5c-38 0 -72.333 5.83301 -103 17.5
s-56.5 28.5 -77.5 50.5s-37.167 48.667 -48.5 80s-17 66.666 -17 105.999c0 40 5.33301 76.167 16 108.5s25.834 59.833 45.501 82.5s43.667 40.167 72 52.5s60.166 18.5 95.499 18.5c33.333 0 63.333 -5.33301 90 -16s49.334 -26 68.001 -46s33 -44.167 43 -72.5
s15 -59.833 15 -94.5v-81h-289c1.33301 -25.333 10.333 -43.666 27 -54.999s41.334 -17 74.001 -17c12 0 22.5 0.333008 31.5 1s19.167 2.5 30.5 5.5s25.166 7.66699 41.499 14s37.5 15.166 63.5 26.499v-140c-18 -9.33301 -34.333 -16.666 -49 -21.999
s-28.834 -9.5 -42.501 -12.5s-27.5 -4.83301 -41.5 -5.5s-29 -1 -45 -1z" />
    <glyph glyph-name="f" unicode="f" horiz-adv-x="303" 
d="M243 503h107.001v-131h-107v-369h-152v369h-72v93l72 29v9c0 122 58.667 183 176 183c29.333 0 74.666 -9 135.999 -27l-45 -128c-39.333 12 -67.333 18 -84 18c-11.333 0 -19.333 -2.83301 -24 -8.5s-7 -18.167 -7 -37.5z" />
    <glyph glyph-name="g" unicode="g" horiz-adv-x="535" 
d="M237 -192c-66.667 0 -118.838 12.8359 -156.505 38.5029s-56.5 63.5 -56.5 113.5c0 35.333 21.333 70.333 64 105c-6.66699 20.667 -10 42 -10 64c0 8.66699 1.5 17.167 4.5 25.5s6.16699 15.833 9.5 22.5s6.5 12.167 9.5 16.5s4.5 7.16602 4.5 8.49902
c-0.666992 0 -2.66699 2.16699 -6 6.5s-10 14.833 -20 31.5c-15.333 25.333 -23 55.333 -23 90c0 56.667 17.833 101 53.5 133s84.834 48 147.501 48c14.667 0 29.334 -1.16699 44.001 -3.5s24.334 -3.83301 29.001 -4.5h178v-107l-66 -13
c10.667 -16.667 16 -34.334 16 -53.001c0 -56.667 -18.667 -100 -56 -130s-87.333 -45 -150 -45c-19.333 0 -29.666 0.333008 -30.999 1c-4 -3.33301 -6 -7 -6 -11l1 1l5 -1c2.66699 0 8 -0.166992 16 -0.5s19 -0.5 33 -0.5h57c56.667 0 100.167 -13 130.5 -39
s45.5 -63 45.5 -111c0 -62.667 -23.167 -109.334 -69.5 -140.001s-112.166 -46 -197.499 -46zM238.996 -68.9971c80 0 120 17.332 120 51.999c0 2.66699 -0.333008 5.33398 -1 8.00098s-3.16699 5 -7.5 7s-11 3.66699 -20 5s-21.5 2 -37.5 2h-70
c-37.333 0 -56 -13.333 -56 -40c0 -22.667 24 -34 72 -34zM257.996 275.002c34 0 51 18.668 51 56.001c0 21.333 -4 36.666 -12 45.999s-21 14 -39 14c-34 0 -51 -20.333 -51 -61c0 -36.667 17 -55 51 -55z" />
    <glyph glyph-name="h" unicode="h" horiz-adv-x="522" 
d="M193 484c14 9.33301 29.667 16.167 47 20.5s35.666 6.5 54.999 6.5c125.333 0 188 -64 188 -192v-316h-153v300c0 26.667 -4 45.167 -12 55.5s-22 15.5 -42 15.5c-15.333 0 -28.166 -1.83301 -38.499 -5.5s-18.833 -10.167 -25.5 -19.5s-11.5 -21.833 -14.5 -37.5
s-4.5 -35.5 -4.5 -59.5v-249h-154v678h154v-197z" />
    <glyph glyph-name="i" unicode="i" horiz-adv-x="223" 
d="M191 3h-152v500h152v-500zM33 617c0 54.667 27.667 82 83 82c54 0 81 -27.333 81 -82s-27 -82 -81 -82c-55.333 0 -83 27.333 -83 82z" />
    <glyph glyph-name="j" unicode="j" horiz-adv-x="235" 
d="M25 -192c-28.667 0 -62 5.33301 -100 16v137c38 -10.667 66 -16 84 -16c20 0 30 12.333 30 37v521h153v-527c0 -54 -14.833 -95.5 -44.5 -124.5s-70.5 -43.5 -122.5 -43.5zM33 618c0 54.667 27.667 82 83 82c54.667 0 82 -27.333 82 -82s-27.333 -82 -82 -82
c-55.333 0 -83 27.333 -83 82z" />
    <glyph glyph-name="k" unicode="k" horiz-adv-x="542" 
d="M330 503h188l-205 -221l208 -279h-184l-130 179l-15 -13v-166h-153v678h153v-328z" />
    <glyph glyph-name="l" unicode="l" horiz-adv-x="224" 
d="M192 3h-153v678h153v-678z" />
    <glyph glyph-name="m" unicode="m" horiz-adv-x="789" 
d="M428 461c18 14.667 38.002 26.6689 60.002 36.002s47 14 75 14c62.667 0 108.334 -16.333 137.001 -49s43 -80.334 43 -143.001v-316h-153v302c0 46 -16.333 69 -49 69c-26 0 -44.667 -8 -56 -24s-17 -44 -17 -84v-263h-154v302c0 46 -16 69 -48 69
c-13.333 0 -24.5 -1.83301 -33.5 -5.5s-16.5 -10 -22.5 -19s-10.333 -21.5 -13 -37.5s-4 -36 -4 -60v-249h-154v500h127l7 -28c15.333 11.333 33.166 20.166 53.499 26.499s41.166 9.5 62.499 9.5c65.333 0 111.666 -16.667 138.999 -50z" />
    <glyph glyph-name="n" unicode="n" horiz-adv-x="535" 
d="M173 474c18.667 11.333 37.832 20.333 57.499 27s41.167 10 64.5 10c125.333 0 188 -64 188 -192v-316h-154v300c0 26.667 -4 45.167 -12 55.5s-22 15.5 -42 15.5c-15.333 0 -28.166 -1.83301 -38.499 -5.5s-18.833 -10.167 -25.5 -19.5s-11.5 -21.833 -14.5 -37.5
s-4.5 -35.5 -4.5 -59.5v-249h-153v500h127z" />
    <glyph glyph-name="o" unicode="o" horiz-adv-x="533" 
d="M505 254c0 -40 -5.33496 -76.001 -16.002 -108.001s-26.167 -59.167 -46.5 -81.5s-45.166 -39.5 -74.499 -51.5s-62.333 -18 -99 -18c-36 0 -68.5 6.16699 -97.5 18.5s-53.667 29.833 -74 52.5s-36.166 49.834 -47.499 81.501s-17 67.167 -17 106.5
c0 80.667 20.5 143.667 61.5 189s99.833 68 176.5 68c36 0 68.5 -6.16699 97.5 -18.5s53.5 -29.833 73.5 -52.5s35.5 -49.667 46.5 -81s16.5 -66.333 16.5 -105zM187.998 253.999c0 -81.333 27.333 -122 82 -122c53.333 0 80 40.667 80 122c0 80 -27 120 -81 120
c-28 0 -48.5 -9.5 -61.5 -28.5s-19.5 -49.5 -19.5 -91.5z" />
    <glyph glyph-name="p" unicode="p" horiz-adv-x="533" 
d="M268 374c-27.333 0 -47 -7.5 -59 -22.5s-18 -43.167 -18 -84.5v-13c0 -47.333 6 -79.5 18 -96.5s32 -25.5 60 -25.5c21.333 0 38.333 9.66699 51 29s19 50.333 19 93c0 80 -23.667 120 -71 120zM173 476c29.333 23.333 69 35.001 119 35.001
c66.667 0 117 -22.667 151 -68s51 -108.333 51 -189c0 -40 -4.5 -75.833 -13.5 -107.5s-22.333 -58.834 -40 -81.501s-39.167 -40 -64.5 -52s-54 -18 -86 -18c-39.333 0 -72.333 7.33301 -99 22v-209h-152v695h125z" />
    <glyph glyph-name="q" unicode="q" horiz-adv-x="527" 
d="M328 61c0 1.33301 0.166992 3 0.5 5s0.5 3.33301 0.5 4v2c-0.666992 -0.666992 -1.16699 -2.16699 -1.5 -4.5s-0.5 -4.5 -0.5 -6.5h1zM252 129c28.667 0 49 8.16699 61 24.5s18 43.833 18 82.5v16c0 46.667 -6.16699 78.667 -18.5 96s-32.833 26 -61.5 26
c-48 0 -72 -41 -72 -123c0 -81.333 24.333 -122 73 -122zM327 17c-26.667 -14.667 -60.6641 -22.001 -101.997 -22.001c-64.667 0 -114.334 22.667 -149.001 68s-52 108.333 -52 189c0 40 4.5 75.833 13.5 107.5s22.167 58.834 39.5 81.501s38.666 40 63.999 52
s54.333 18 87 18c23.333 0 43.666 -3 60.999 -9s35.333 -14.667 54 -26l5 27h132v-695h-153v209z" />
    <glyph glyph-name="r" unicode="r" horiz-adv-x="395" 
d="M173 464c17.333 14.667 35.667 26.167 55 34.5s40 12.5 62 12.5c25.333 0 51 -5.66699 77 -17l-14 -149c-32 13.333 -54.333 20 -67 20c-30 0 -53.167 -9 -69.5 -27s-24.5 -43 -24.5 -75v-260h-153v500h128z" />
    <glyph glyph-name="s" unicode="s" horiz-adv-x="438" 
d="M405 160c0 -54.667 -18.8291 -95.8359 -56.4961 -123.503s-88.834 -41.5 -153.501 -41.5c-64 0 -120.667 12.667 -170 38v143c78 -32.667 136 -49 174 -49c36.667 0 55 7.33301 55 22c0 2 -1 4.5 -3 7.5s-5.83301 6.5 -11.5 10.5s-13.834 8.66699 -24.501 14
s-25 11 -43 17c-26.667 10.667 -49.334 21.5 -68.001 32.5s-33.834 22.833 -45.501 35.5s-20.167 26.834 -25.5 42.501s-8 33.5 -8 53.5c0 48.667 17.833 85.667 53.5 111s83.834 38 144.501 38c55.333 0 116.666 -16 183.999 -48l-53 -123
c-64.667 25.333 -109.667 38 -135 38c-16.667 0 -28 -1.16699 -34 -3.5s-9 -5.83301 -9 -10.5c0 -2 0.5 -4 1.5 -6s4.16699 -4.66699 9.5 -8s13.5 -7.5 24.5 -12.5s26.5 -11.167 46.5 -18.5c28 -10 51.167 -20.333 69.5 -31s33 -22.167 44 -34.5s19 -26.166 24 -41.499
s8.16699 -32.666 9.5 -51.999z" />
    <glyph glyph-name="t" unicode="t" horiz-adv-x="395" 
d="M260 131c18 0 50.667 7 98 21v-131c-24 -10 -45.167 -16.833 -63.5 -20.5s-36.833 -5.5 -55.5 -5.5c-108 0 -162 56.667 -162 170v207h-60v88l69 38l35 102h108v-97h125v-131h-125v-205c0 -14 2.66699 -23.5 8 -28.5s13 -7.5 23 -7.5z" />
    <glyph glyph-name="u" unicode="u" horiz-adv-x="520" 
d="M350 33c-19.333 -12.667 -39 -22.167 -59 -28.5s-41.667 -9.5 -65 -9.5c-124.667 0 -187 63.667 -187 191v317h153v-302c0 -46.667 18.333 -70 55 -70c28.667 0 49.667 8.5 63 25.5s20 49.5 20 97.5v249h153v-500h-126z" />
    <glyph glyph-name="v" unicode="v" horiz-adv-x="557" 
d="M276 223c0.666992 0.666992 1 1.66699 1 3l96 277h163l-189 -500h-141l-188 500h161l96 -276c0.666992 -0.666992 1 -2 1 -4z" />
    <glyph glyph-name="w" unicode="w" horiz-adv-x="760" 
d="M523 258c0 2.66699 0.331055 4.33105 0.998047 4.99805l62 240h155l-139 -500h-150l-73 265c-1.33301 -7.33301 -2.66602 -14.166 -3.99902 -20.499s-2.66602 -12.166 -3.99902 -17.499l-64 -227h-148l-139 500h158l61 -240c0 -1.33301 0.333008 -2.33301 1 -3l68 243
h148z" />
    <glyph glyph-name="x" unicode="x" horiz-adv-x="574" 
d="M190 258l-167 245h180l83 -129l84 129h177l-166 -245l174 -255h-178l-91 140l-91 -140h-177z" />
    <glyph glyph-name="y" unicode="y" horiz-adv-x="558" 
d="M278 232l31.002 93.999l62 177h165l-202 -539c-41.333 -104 -107.333 -156 -198 -156c-6 0 -11.333 0.166992 -16 0.5s-10.334 0.833008 -17.001 1.5s-14.334 1.66699 -23.001 3l-34 5v143c32.667 -12 59.667 -18 81 -18c13.333 0 24.833 4.33301 34.5 13
s19.167 24.334 28.5 47.001l12 30l-187 470h167l95 -270z" />
    <glyph glyph-name="z" unicode="z" horiz-adv-x="427" 
d="M413 3h-390v97l192 271h-178v132h370v-105l-187 -264h193v-131z" />
    <glyph glyph-name="braceleft" unicode="{" horiz-adv-x="452" 
d="M48 336c28 8.66699 47 15.4922 57 20.4922s15.333 8.5 16 10.5h1c10.667 10.667 16 32 16 64v119c0 62.667 15.167 109.834 45.5 141.501s73.833 47.5 130.5 47.5h99c8.66699 0 15.167 -2.66699 19.5 -8s6.5 -11.666 6.5 -18.999c0 -5.33301 -1.5 -10.333 -4.5 -15
s-7.83301 -7.66699 -14.5 -9l-23 -6c-44.667 -21.333 -71.334 -39 -80.001 -53c-14 -13.333 -21 -34.333 -21 -63v-119c0 -36.667 -3.5 -65.167 -10.5 -85.5s-18.167 -38.166 -33.5 -53.499c15.333 -15.333 26.5 -33.666 33.5 -54.999s10.5 -52 10.5 -92v-108
c0 -30 7.33301 -51.333 22 -64c5.33301 -7.33301 13.333 -15.166 24 -23.499s31 -16.5 61 -24.5l23 -5c7.33301 -1.33301 12.833 -4.66602 16.5 -9.99902s5.5 -10.666 5.5 -15.999c0 -6 -2.33301 -12 -7 -18s-11.334 -9 -20.001 -9h-24c-0.666992 0 -4 -0.166992 -10 -0.5
s-12 -0.5 -18 -0.5c-28.667 0 -59.667 2.33301 -93 7s-60.166 14.167 -80.499 28.5s-35 34.5 -44 60.5s-13.5 60.333 -13.5 103v102c0 20 -1.16699 34.833 -3.5 44.5s-4.5 15.834 -6.5 18.501c0 1.33301 -5 4.83301 -15 10.5s-31.667 13.5 -65 23.5
c-7.33301 2 -12.666 5.83301 -15.999 11.5s-5 11.167 -5 16.5c0 12.667 7 22 21 28z" />
    <glyph glyph-name="bar" unicode="|" horiz-adv-x="246" 
d="M61 -60v764l126 -32v-765z" />
    <glyph glyph-name="braceright" unicode="}" horiz-adv-x="452" 
d="M405 336c14 -6 21 -15.3252 21 -27.9922c0 -5.33301 -1.66699 -10.833 -5 -16.5s-8.66602 -9.5 -15.999 -11.5c-33.333 -10 -55 -17.833 -65 -23.5s-15 -9.16699 -15 -10.5c-2 -2.66699 -4.16699 -8.83398 -6.5 -18.501s-3.5 -24.5 -3.5 -44.5v-102
c0 -42.667 -4.5 -77 -13.5 -103s-23.667 -46.167 -44 -60.5s-47.166 -23.833 -80.499 -28.5s-64.333 -7 -93 -7c-6 0 -12 0.166992 -18 0.5s-9.33301 0.5 -10 0.5h-24c-8.66699 0 -15.334 3 -20.001 9s-7 12 -7 18c0 5.33301 1.83301 10.666 5.5 15.999
s9.16699 8.66602 16.5 9.99902l23 5c30 8 50.333 16.167 61 24.5s18.667 16.166 24 23.499c14.667 12.667 22 34 22 64v108c0 40 3.5 70.667 10.5 92s18.167 39.666 33.5 54.999c-15.333 15.333 -26.5 33.166 -33.5 53.499s-10.5 48.833 -10.5 85.5v119
c0 28.667 -7 49.667 -21 63c-8.66699 14 -35.334 31.667 -80.001 53l-23 6c-6.66699 1.33301 -11.5 4.33301 -14.5 9s-4.5 9.66699 -4.5 15c0 7.33301 2.16699 13.666 6.5 18.999s10.833 8 19.5 8h99c56.667 0 100.167 -15.833 130.5 -47.5s45.5 -78.834 45.5 -141.501v-119
c0 -32 5.33301 -53.333 16 -64h1c0.666992 -2 6 -5.5 16 -10.5s29 -11.833 57 -20.5z" />
    <glyph glyph-name="asciitilde" unicode="~" horiz-adv-x="582" 
d="M542 281l-27 -31.001c-10.667 -12 -23 -23.333 -37 -34c-31.333 -23.333 -63 -35 -95 -35c-20.667 0 -40.667 5.33301 -60 16c-28.667 15.333 -56 33.333 -82 54c-23.333 18.667 -40.333 30.334 -51 35.001s-18.667 7 -24 7c-17.333 0 -59.333 -30.333 -126 -91v111
l15 25c12 21.333 33.667 44.333 65 69c28 22 59 33 93 33c22 0 44 -5.66699 66 -17c28.667 -14.667 54.5 -31.5 77.5 -50.5s39.833 -30.833 50.5 -35.5s19 -7 25 -7c16 0 52.667 24.667 110 74v-123z" />
    <glyph glyph-name="softhyphen" unicode="&#xad;" horiz-adv-x="389" 
d="M314 252h-272l32 126h273z" />
    <glyph glyph-name="softhyphen" unicode="&#x2010;" horiz-adv-x="389" 
d="M314 252h-272l32 126h273z" />
    <glyph glyph-name="periodcentered" unicode="&#xb7;" horiz-adv-x="229" 
d="M193 311c0 -21.333 -7.33301 -39.333 -22 -54s-32.334 -22 -53.001 -22c-21.333 0 -39.333 7.33301 -54 22s-22 32.667 -22 54c0 20.667 7.33301 38.334 22 53.001s32.667 22 54 22c20.667 0 38.334 -7.33301 53.001 -22s22 -32.334 22 -53.001z" />
    <glyph glyph-name="multiply" unicode="&#xd7;" horiz-adv-x="473" 
d="M246 226l-128 -121l-62 114l103 98l-121 128l114 64l99 -105l128 121l63 -113l-104 -99l121 -128l-115 -63z" />
    <glyph glyph-name="divide" unicode="&#xf7;" horiz-adv-x="475" 
d="M408 252h-366l32 126h367zM317 136c0 -21.333 -7.5 -39.333 -22.5 -54s-32.833 -22 -53.5 -22s-38.334 7.33301 -53.001 22s-22 32.667 -22 54c0 20.667 7.33301 38.334 22 53.001s32.334 22 53.001 22s38.5 -7.33301 53.5 -22s22.5 -32.334 22.5 -53.001zM317 492
c0 -21.333 -7.5 -39.333 -22.5 -54s-32.833 -22 -53.5 -22s-38.334 7.33301 -53.001 22s-22 32.667 -22 54c0 20.667 7.33301 38.334 22 53.001s32.334 22 53.001 22s38.5 -7.33301 53.5 -22s22.5 -32.334 22.5 -53.001z" />
    <glyph glyph-name="om_deva" unicode="&#x950;" horiz-adv-x="659" 
d="M579 304l12 -13.001c16.667 -18 28.834 -38 36.501 -60s11.5 -44 11.5 -66c0 -38.667 -11.833 -70.834 -35.5 -96.501s-63.834 -46.167 -120.501 -61.5c-12 -3.33301 -23.5 -5.33301 -34.5 -6s-22.5 -1 -34.5 -1c-55.333 0 -103.5 7.83301 -144.5 23.5
s-76 36.334 -105 62.001s-52.833 54.334 -71.5 86.001s-33.334 63.667 -44.001 96s-18 63 -22 92s-6 53.5 -6 73.5v15c0 8.66699 0.333008 13.667 1 15v5c0.666992 19.333 1.66699 30.666 3 33.999v2h131v-17c0 -80 9.83301 -144.167 29.5 -192.5
s43.834 -85.333 72.501 -111s58.5 -42.5 89.5 -50.5s58.167 -12 81.5 -12h11c6.66699 0 10.334 0.333008 11.001 1h2c4.66699 0.666992 8.66699 1 12 1s5.66602 0.333008 6.99902 1h3c8.66699 3.33301 16 8 22 14s10.833 12.5 14.5 19.5s6.33398 13.833 8.00098 20.5
s2.83398 12.667 3.50098 18v10c-4.66699 -9.33301 -14 -16.833 -28 -22.5s-30 -8.5 -48 -8.5c-11.333 0 -22.833 1.66699 -34.5 5s-22.334 8.66602 -32.001 15.999s-17.667 16.833 -24 28.5s-9.5 25.834 -9.5 42.501c0 18 7.33301 35.333 22 52s40.667 28.334 78 35.001l6 2
c14 6 26.333 16.833 37 32.5s16 37.834 16 66.501c0 8.66699 -1.83301 15.834 -5.5 21.501s-8 10.167 -13 13.5s-10 5.66602 -15 6.99902l-11.5 3h-6c16 -11.333 24 -27 24 -47c0 -10.667 -2.33301 -21.667 -7 -33s-11.834 -21.666 -21.501 -30.999s-22.167 -17 -37.5 -23
s-33.666 -9 -54.999 -9c-14 0 -28 2 -42 6s-26.5 10.333 -37.5 19s-20 20 -27 34s-10.5 31 -10.5 51c0 24.667 4.83301 46.5 14.5 65.5s23.167 35.167 40.5 48.5s37.833 23.5 61.5 30.5s49.5 10.5 77.5 10.5c25.333 0 50.166 -3.5 74.499 -10.5s46.166 -17.833 65.499 -32.5
s34.833 -33.334 46.5 -56.001s17.5 -49.334 17.5 -80.001c0 -30 -5.16699 -56.333 -15.5 -79s-23.166 -40.667 -38.499 -54zM386 800.999c-14.667 0 -26.667 4.83301 -36 14.5s-14 21.167 -14 34.5c0 14 4.66699 26 14 36s21.333 15 36 15c14 0 25.667 -5 35 -15
s14 -22 14 -36c0 -13.333 -4.66699 -24.833 -14 -34.5s-21 -14.5 -35 -14.5zM386 677.999c-23.333 0 -45 4.50098 -65 13.501s-37.5 21.167 -52.5 36.5s-26.833 33.166 -35.5 53.499s-13 42.166 -13 65.499v6h94c4.66699 -50.667 28.667 -76 72 -76
c17.333 0 33.333 6.33301 48 19s22 31.667 22 57h96v-6c0 -24 -4.33301 -46.167 -13 -66.5s-20.5 -38.166 -35.5 -53.499s-32.667 -27.333 -53 -36s-41.833 -13 -64.5 -13z" />
    <glyph glyph-name="devanagaridanda" unicode="&#x964;" horiz-adv-x="339" 
d="M117 33v528l126 -32v-529z" />
    <glyph glyph-name="devanagaridoubledanda" unicode="&#x965;" horiz-adv-x="512" 
d="M117 33v528l126 -32v-529zM283 33v528l126 -32v-529z" />
    <glyph glyph-name="signcandrabinducomb_beng" unicode="&#x981;" 
d="M-110 801c-14.667 0 -26.667 4.83301 -36 14.5s-14 21.167 -14 34.5c0 14 4.66699 26 14 36s21.333 15 36 15c14 0 25.667 -5 35 -15s14 -22 14 -36c0 -13.333 -4.66699 -24.833 -14 -34.5s-21 -14.5 -35 -14.5zM-110 678c-23.333 0 -45 4.50098 -65 13.501
s-37.5 21.167 -52.5 36.5s-26.833 33.166 -35.5 53.499s-13 42.166 -13 65.499v6h94c4.66699 -50.667 28.667 -76 72 -76c17.333 0 33.333 6.33301 48 19s22 31.667 22 57h96v-6c0 -24 -4.33301 -46.167 -13 -66.5s-20.5 -38.166 -35.5 -53.499s-32.667 -27.333 -53 -36
s-41.833 -13 -64.5 -13z" />
    <glyph glyph-name="signanusvara_beng" unicode="&#x982;" horiz-adv-x="389" 
d="M205 628c21.333 0 41.833 -4.33301 61.5 -13s37 -20.334 52 -35.001s26.833 -31.834 35.5 -51.501s13 -40.834 13 -63.501c0 -22 -4.33301 -42.833 -13 -62.5s-20.334 -36.834 -35.001 -51.501s-31.834 -26.334 -51.501 -35.001s-40.5 -13 -62.5 -13
c-23.333 0 -45 4.33301 -65 13s-37.167 20.334 -51.5 35.001s-25.666 31.834 -33.999 51.501s-12.5 40.5 -12.5 62.5c0 22.667 4.16699 43.834 12.5 63.501s19.833 36.834 34.5 51.501s31.834 26.334 51.501 35.001s41.167 13 64.5 13zM64 155l-62.999 102
c19.333 8 37.666 13.667 54.999 17s34 5 50 5c26 0 49.667 -3.83301 71 -11.5s40.5 -16.667 57.5 -27s31.5 -21.5 43.5 -33.5s21.667 -22.333 29 -31l15 -19l70 -114l-108 -67l-68 112l-9 10c-4 5.33301 -9.66699 11.5 -17 18.5s-16 13.5 -26 19.5
s-21.167 11.167 -33.5 15.5s-25.5 6.5 -39.5 6.5c-9.33301 0 -18.333 -1 -27 -3zM205.001 417c13.333 0 24.833 4.66699 34.5 14s14.5 20.666 14.5 33.999c0 14 -4.83301 25.667 -14.5 35s-21.167 14 -34.5 14c-14 0 -25.833 -4.66699 -35.5 -14s-14.5 -21 -14.5 -35
c0 -13.333 4.83301 -24.666 14.5 -33.999s21.5 -14 35.5 -14z" />
    <glyph glyph-name="signvisarga_beng" unicode="&#x983;" horiz-adv-x="399" 
d="M201 628c21.333 0 41.833 -4.33301 61.5 -13s37 -20.334 52 -35.001s26.833 -31.834 35.5 -51.501s13 -40.834 13 -63.501c0 -22 -4.33301 -42.833 -13 -62.5s-20.334 -36.834 -35.001 -51.501s-31.834 -26.334 -51.501 -35.001s-40.5 -13 -62.5 -13
c-23.333 0 -45 4.33301 -65 13s-37.167 20.334 -51.5 35.001s-25.666 31.834 -33.999 51.501s-12.5 40.5 -12.5 62.5c0 22.667 4.16699 43.834 12.5 63.501s19.833 36.834 34.5 51.501s31.834 26.334 51.501 35.001s41.167 13 64.5 13zM201 417
c13.333 0 24.833 4.66699 34.5 14s14.5 20.666 14.5 33.999c0 14 -4.83301 25.667 -14.5 35s-21.167 14 -34.5 14c-14 0 -25.833 -4.66699 -35.5 -14s-14.5 -21 -14.5 -35c0 -13.333 4.83301 -24.666 14.5 -33.999s21.5 -14 35.5 -14zM201 289
c21.333 0 41.833 -4.33301 61.5 -13s37 -20.334 52 -35.001s26.833 -31.834 35.5 -51.501s13 -40.834 13 -63.501c0 -22 -4.33301 -42.833 -13 -62.5s-20.334 -36.834 -35.001 -51.501s-31.834 -26.334 -51.501 -35.001s-40.5 -13 -62.5 -13c-23.333 0 -45 4.33301 -65 13
s-37.167 20.334 -51.5 35.001s-25.666 31.834 -33.999 51.501s-12.5 40.5 -12.5 62.5c0 22.667 4.16699 43.834 12.5 63.501s19.833 36.834 34.5 51.501s31.834 26.334 51.501 35.001s41.167 13 64.5 13zM201 78c13.333 0 24.833 4.66699 34.5 14s14.5 20.666 14.5 33.999
c0 14 -4.83301 25.667 -14.5 35s-21.167 14 -34.5 14c-14 0 -25.833 -4.66699 -35.5 -14s-14.5 -21 -14.5 -35c0 -13.333 4.83301 -24.666 14.5 -33.999s21.5 -14 35.5 -14z" />
    <glyph glyph-name="a_beng" unicode="&#x985;" horiz-adv-x="882" 
d="M588 96l-14.9961 -17c-21.333 -24 -50.333 -43.333 -87 -58s-80 -22 -130 -22c-62 0 -112.833 9.5 -152.5 28.5s-71 42 -94 69s-39.333 55 -49 84s-15.5 53.5 -17.5 73.5c-1.33301 7.33301 -2 13.5 -2 18.5s-0.333008 8.5 -1 10.5v190h140v-187
c2.66699 -8 5.66699 -20.667 9 -38s10.5 -35 21.5 -53s27.333 -33.833 49 -47.5s52.167 -20.5 91.5 -20.5c30 0 54 3 72 9s31.667 13.167 41 21.5s15.5 17 18.5 26s4.5 16.167 4.5 21.5l-1 14c-14.667 -18.667 -36.334 -28 -65.001 -28c-14.667 0 -29.834 2.5 -45.501 7.5
s-29.834 13 -42.501 24s-23.167 25.167 -31.5 42.5s-12.5 38 -12.5 62c0 18 3.16699 35.833 9.5 53.5s16.5 33.5 30.5 47.5s31.833 25.167 53.5 33.5s48.167 12.5 79.5 12.5c28 0 53 -5.66699 75 -17s40.667 -27 56 -47s27.166 -43.5 35.499 -70.5s12.5 -55.833 12.5 -86.5
c0 -3.33301 -0.166992 -7 -0.5 -11s-0.5 -8 -0.5 -12l62 -43v348h-712v87h902v-87h-50v-535h-140v17z" />
    <glyph glyph-name="aa_beng" unicode="&#x986;" horiz-adv-x="1102" 
d="M589 97l-15.001 -18.0029c-20 -24 -49.167 -43.333 -87.5 -58s-81.5 -22 -129.5 -22c-62 0 -112.833 9.5 -152.5 28.5s-71 42 -94 69s-39.333 55 -49 84s-15.5 53.5 -17.5 73.5l-4 29v191h141v-188c2.66699 -8 5.66699 -20.667 9 -38s10.5 -35 21.5 -53
s27.333 -33.833 49 -47.5s52.167 -20.5 91.5 -20.5c28 0 50.667 2.66699 68 8s31 11.833 41 19.5s16.833 15.667 20.5 24s5.83398 15.5 6.50098 21.5l1 13c0 2 -0.666992 3.66699 -2 5v2c-15.333 -19.333 -37 -29 -65 -29c-14 0 -28.833 2.5 -44.5 7.5s-30 13 -43 24
s-23.667 25.167 -32 42.5s-12.5 38 -12.5 62c0 18 3 35.833 9 53.5s15.833 33.5 29.5 47.5s31.167 25.333 52.5 34s47.333 13 78 13c28 0 53.333 -5.5 76 -16.5s42 -26.167 58 -45.5s28.167 -42.666 36.5 -69.999s12.5 -57 12.5 -89
c0 -3.33301 -0.166992 -7.16602 -0.5 -11.499s-0.5 -8.16602 -0.5 -11.499l63 -45v349h-714v87h1122v-87h-50v-535h-139v535h-80v-535h-139v16z" />
    <glyph glyph-name="i_beng" unicode="&#x987;" horiz-adv-x="563" 
d="M509 -45l-476.002 131.996l-33 127h1c2.66699 0 4.33398 -0.333008 5.00098 -1l16 -3c7.33301 -1.33301 16.333 -3.16602 27 -5.49902s22 -4.5 34 -6.5s24 -3.66699 36 -5s23 -2 33 -2c6.66699 0 12.167 0.166992 16.5 0.5s8.83301 0.833008 13.5 1.5h14
c4 0 6.66699 0.333008 8 1l1 1c14 0.666992 32.167 3.16699 54.5 7.5s43.833 11.5 64.5 21.5s38.5 23.667 53.5 41s22.5 39.333 22.5 66c-0.666992 11.333 -4.33398 20.5 -11.001 27.5s-14.667 12.5 -24 16.5s-19.666 6.66699 -30.999 8s-22 2 -32 2
c-4.66699 0 -9.16699 -0.166992 -13.5 -0.5s-8.16602 -0.5 -11.499 -0.5l-14 -1c17.333 -13.333 26 -29.333 26 -48c0 -10.667 -2.5 -22 -7.5 -34s-12.333 -23.167 -22 -33.5s-21.5 -18.833 -35.5 -25.5s-30.333 -10 -49 -10c-16 0 -32.167 2.66699 -48.5 8
s-31 13.5 -44 24.5s-23.5 24.667 -31.5 41s-12 35.5 -12 57.5c0 25.333 6.5 47.833 19.5 67.5s30.333 36.334 52 50.001s47 24 76 31s59.5 10.5 91.5 10.5c34 0 66.833 -4.16699 98.5 -12.5s59.834 -21.166 84.501 -38.499s44.5 -39.5 59.5 -66.5s22.5 -59.167 22.5 -96.5
c0 -27.333 -5 -51.666 -15 -72.999s-23.333 -40 -40 -56s-35.334 -29.5 -56.001 -40.5s-41.667 -19.5 -63 -25.5l-10 -3l198 -48zM566.998 632.996c0 -6.66699 -0.332031 -10.333 -0.999023 -11h7v-87h-583v87h442c0.666992 0.666992 1 3.66699 1 9v10
c0 18.667 -6.33301 34 -19 46s-30.667 18 -54 18c-13.333 0 -26.5 -1.66699 -39.5 -5s-27.167 -8 -42.5 -14c-60 -24 -114.333 -36 -163 -36c-24.667 0 -46.167 1.16699 -64.5 3.5s-33.5 5.16602 -45.5 8.49902l-24 134c25.333 -7.33301 49.166 -12.5 71.499 -15.5
s43.166 -4.5 62.499 -4.5c25.333 0 48.333 2 69 6s40.667 8.66699 60 14l38 8c21.333 4.66699 40 7.83398 56 9.50098s30 2.5 42 2.5c38.667 0 70.334 -5.66699 95.001 -17s43.667 -25.5 57 -42.5s22.5 -35.5 27.5 -55.5s7.5 -38.333 7.5 -55v-13z" />
    <glyph glyph-name="ii_beng" unicode="&#x988;" horiz-adv-x="648" 
d="M500 456l129 -72.999l-56 -167c-4.66699 -13.333 -7 -28.666 -7 -45.999c0 -23.333 6.33301 -46 19 -68s33.334 -39.667 62.001 -53l-35 -144c-37.333 10.667 -67.166 26 -89.499 46s-39.5 41.667 -51.5 65s-20 46.666 -24 69.999s-6 43.666 -6 60.999
c0 13.333 0.5 24 1.5 32s1.83301 12.333 2.5 13l7 36l-19 -18c-11.333 -35.333 -28.333 -63.333 -51 -84s-46.334 -36.5 -71.001 -47.5s-47.667 -18.167 -69 -21.5s-36.333 -5 -45 -5c-4.66699 0 -7 0.333008 -7 1h-109l-61 123v3h171c7.33301 0 18.333 1.16699 33 3.5
s29.167 8.16602 43.5 17.499s27 23.333 38 42s16.5 44.334 16.5 77.001c0 11.333 -2.66699 20.666 -8 27.999s-11.5 13 -18.5 17s-14.167 6.83301 -21.5 8.5s-13 2.83398 -17 3.50098h-8c17.333 -14 26 -34 26 -60c0 -12.667 -2.33301 -26 -7 -40s-12 -26.667 -22 -38
s-22.833 -20.833 -38.5 -28.5s-34.5 -11.5 -56.5 -11.5c-16 0 -31.833 2.83301 -47.5 8.5s-29.667 14.834 -42 27.501s-22.5 28.5 -30.5 47.5s-12 42.167 -12 69.5c0 24.667 5.16699 47.167 15.5 67.5s24.666 37.666 42.999 51.999s40.5 25.333 66.5 33s55 11.5 87 11.5
c21.333 0 42.333 -2.33301 63 -7s40 -12 58 -22s34 -22.667 48 -38s25 -33.333 33 -54zM590 633.001c0 -6.66699 -0.335938 -10.333 -1.00293 -11h69v-87h-668v87h465c0.666992 0.666992 1 3.66699 1 9v10c0 18.667 -6.16699 34 -18.5 46s-30.166 18 -53.499 18
c-11.333 0 -23.833 -1.66699 -37.5 -5s-28.5 -8 -44.5 -14c-30.667 -12 -59.667 -20.833 -87 -26.5s-52.666 -8.5 -75.999 -8.5c-45.333 0 -81.666 3.66699 -108.999 11l-24 134c25.333 -7.33301 48.833 -12.5 70.5 -15.5s42.167 -4.5 61.5 -4.5c25.333 0 48.5 2 69.5 6
s41.167 8.66699 60.5 14l38 8c21.333 4.66699 40 7.83398 56 9.50098s30 2.5 42 2.5c38.667 0 70 -5.66699 94 -17s42.833 -25.5 56.5 -42.5s23 -35.333 28 -55s7.5 -37.834 7.5 -54.501v-14z" />
    <glyph glyph-name="u_beng" unicode="&#x989;" horiz-adv-x="721" 
d="M416 535l-0.00292969 -155.002l31 4c20.667 2.66699 45.5 7.66699 74.5 15s58.5 19 88.5 35l90 -98c0.666992 -5.33301 1.16699 -10.5 1.5 -15.5s0.5 -10.167 0.5 -15.5c0 -35.333 -6.16699 -70.833 -18.5 -106.5s-30.666 -67.834 -54.999 -96.501
s-54.5 -51.834 -90.5 -69.501s-77.667 -26.5 -125 -26.5h-8c-112 6.66699 -194.333 32.334 -247 77.001c-27.333 22.667 -49.5 47.5 -66.5 74.5s-30.5 54.167 -40.5 81.5s-17.167 54 -21.5 80s-7.5 49.667 -9.5 71h146l-1 -30c0 -30.667 4.33301 -59 13 -85
s21.834 -49 39.501 -69s39.667 -36.333 66 -49s57.5 -21 93.5 -25l18 -1c24.667 0 46.667 3.83301 66 11.5s36.333 17.834 51 30.501s26.667 27.334 36 44.001s16.333 34.334 21 53.001l4 17c-5.33301 -3.33301 -13.333 -7.16602 -24 -11.499s-22.667 -8.5 -36 -12.5
s-27.666 -7.5 -42.999 -10.5s-30 -4.5 -44 -4.5l-23 1c-12.667 0.666992 -26.334 3 -41.001 7s-28.167 10.833 -40.5 20.5s-22.666 22.167 -30.999 37.5s-12.5 34.333 -12.5 57v164h-288v87h539c0.666992 0.666992 1 5.66699 1 15c0 46.667 -24.333 70 -73 70
c-21.333 0 -49.333 -6.66699 -84 -20c-57.333 -22.667 -111 -34 -161 -34c-56 0 -94.333 3.33301 -115 10l-24 136c48.667 -14 91.667 -21 129 -21c22 0 45.833 2.16699 71.5 6.5s50.834 9 75.501 14l69.5 14c21.667 4.33301 39.167 6.5 52.5 6.5
c23.333 0 42.666 -2 57.999 -6l6 -1c87.333 -21.333 131 -76.333 131 -165v-14c0 -6.66699 -0.333008 -10.334 -1 -11.001h66v-87h-315z" />
    <glyph glyph-name="uu_beng" unicode="&#x98a;" horiz-adv-x="856" 
d="M290 97c-7.33301 6.66699 -14.165 13.1699 -20.498 19.5029s-12.166 13.166 -17.499 20.499c-38 21.333 -77.5 56.5 -118.5 105.5s-78.5 115.5 -112.5 199.5l87 -3l10 -27c0.666992 -0.666992 1 -2 1 -4l6 -14c4.66699 -13.333 10.5 -28.333 17.5 -45
s15.833 -34.667 26.5 -54c-8.66699 28.667 -15.667 55.167 -21 79.5s-8.66602 46.833 -9.99902 67.5h117l4 -30c1.33301 -12 4.33301 -27.167 9 -45.5s11.334 -38 20.001 -59s19.667 -42 33 -63s29.666 -39.833 48.999 -56.5s41.833 -30.334 67.5 -41.001s55.5 -16 89.5 -16
c26.667 0 49.667 3.83301 69 11.5s35.666 17.167 48.999 28.5s24.166 23.5 32.499 36.5s14.666 25.333 18.999 37s7.33301 21.5 9 29.5s2.5 12.333 2.5 13c-4.66699 -2.66699 -11.834 -6.33398 -21.501 -11.001s-21 -9.16699 -34 -13.5s-27.333 -8.16602 -43 -11.499
s-31.834 -5 -48.501 -5c-14 0 -29.5 1.83301 -46.5 5.5s-33 10.167 -48 19.5s-27.667 22 -38 38s-15.5 36.667 -15.5 62v164h-423v87h661c0 2 0.166992 4.16699 0.5 6.5s0.5 4.5 0.5 6.5c0 20 -6 36.667 -18 50s-30.667 20 -56 20c-11.333 0 -24 -1.66699 -38 -5
s-29 -8 -45 -14c-32 -12.667 -61.5 -21.667 -88.5 -27s-52.5 -8 -76.5 -8c-46 0 -83 3.66699 -111 11l-24 136c26 -7.33301 50.333 -12.5 73 -15.5s43.667 -4.5 63 -4.5c25.333 0 48.5 2 69.5 6s41.167 8.33301 60.5 13l38 9c21.333 5.33301 40 8.66602 56 9.99902
s30.667 2 44 2c38.667 0 70.167 -5.83301 94.5 -17.5s43.5 -26.167 57.5 -43.5s23.667 -36 29 -56s8 -38.333 8 -55l-2 -24h80v-87h-314v-155h2c4 1.33301 13.333 2.33301 28 3l1 1c20 2 44.5 6.83301 73.5 14.5s58.5 19.5 88.5 35.5l90 -98
c0.666992 -5.33301 1.16699 -10.333 1.5 -15s0.5 -9.66699 0.5 -15c0 -32 -5.66699 -65.5 -17 -100.5s-28.666 -67.333 -51.999 -97s-52.666 -54.167 -87.999 -73.5s-77.333 -29 -126 -29c-58.667 0 -110.334 8.5 -155.001 25.5s-81 38.833 -109 65.5z" />
    <glyph glyph-name="vocalicr_beng" unicode="&#x98b;" horiz-adv-x="840" 
d="M661 622l189 -0.00292969v-87h-50v-483h-139v56l-80 56v-164h-139v32c-26.667 17.333 -54.834 32 -84.501 44s-59 22 -88 30s-56.833 14.167 -83.5 18.5s-50.334 7.66602 -71.001 9.99902s-37.667 3.66602 -51 3.99902s-21 0.5 -23 0.5l-1 209l317 112l-62 63l-3 -19
c-3.33301 -12 -10.5 -23.667 -21.5 -35s-23.5 -21.333 -37.5 -30s-28.833 -15.5 -44.5 -20.5s-30.167 -7.5 -43.5 -7.5c-19.333 0 -37.166 4.66699 -53.499 14s-30.666 21.333 -42.999 36s-22 31.334 -29 50.001s-10.5 37 -10.5 55c0 16.667 3.66699 31.334 11 44.001
s16.333 23.334 27 32.001s21.834 15 33.501 19s22.167 6 31.5 6c12.667 0 24 -2.66699 34 -8s18.667 -12 26 -20s13 -17 17 -27s6 -19.333 6 -28s-1.83301 -17 -5.5 -25s-8.5 -15.167 -14.5 -21.5s-12.667 -11.5 -20 -15.5s-15 -6 -23 -6c-1.33301 0 -3 0.166992 -5 0.5
s-4.66699 0.833008 -8 1.5c4 -7.33301 8.66699 -13.5 14 -18.5s12.666 -7.5 21.999 -7.5c7.33301 0 15.333 2.66699 24 8s16.667 12.333 24 21s13.333 18.334 18 29.001s7 21.334 7 32.001l-2 26h109l107 -99v113h139v-287l80 -56v343zM351 231.997
c18 -6 34.5 -12.168 49.5 -18.501s28.833 -12.833 41.5 -19.5v148l-252 -89c32 0 61 -1.66699 87 -5s50.667 -8.66602 74 -15.999z" />
    <glyph glyph-name="e_beng" unicode="&#x98f;" horiz-adv-x="721" 
d="M553 170l0.00390625 194.997l-2 20c-1.33301 9.33301 -3.83301 20.333 -7.5 33s-9.5 24.667 -17.5 36s-18.833 20.833 -32.5 28.5s-30.834 11.5 -51.501 11.5c-20 0 -36 -2.66699 -48 -8s-21 -11.5 -27 -18.5s-10 -14 -12 -21s-3 -12.167 -3 -15.5v-2
c15.333 19.333 38.666 29 69.999 29c8.66699 0 18 -1.66699 28 -5s19.167 -8.16602 27.5 -14.499s15.166 -14.666 20.499 -24.999s8 -22.5 8 -36.5c0 -12.667 -2.16699 -25.5 -6.5 -38.5s-11 -24.833 -20 -35.5s-20.167 -19.334 -33.5 -26.001s-29 -10 -47 -10
c-22.667 0 -44.167 4 -64.5 12s-38.166 19.5 -53.499 34.5s-27.5 33.5 -36.5 55.5s-13.5 47 -13.5 75c0 23.333 3.83301 45.666 11.5 66.999s19.667 40.333 36 57s37.333 29.834 63 39.501s56.5 14.5 92.5 14.5c38 0 70.333 -5.5 97 -16.5s49.167 -25 67.5 -42
s33 -35.5 44 -55.5s19.333 -39.333 25 -58s9.33398 -35 11.001 -49s2.5 -23.333 2.5 -28v-373h-128v17c-6 14 -16.5 26.167 -31.5 36.5s-33.333 19.166 -55 26.499s-46.334 12.833 -74.001 16.5s-57.167 5.5 -88.5 5.5c-13.333 0 -27.333 -0.5 -42 -1.5s-29 -1.5 -43 -1.5
c-30 0 -56.167 5.33301 -78.5 16s-41 24.334 -56 41.001s-26.167 35.334 -33.5 56.001s-11 41 -11 61v133h130v-109c0 -6.66699 0.333008 -15.167 1 -25.5s3.5 -20.166 8.5 -29.499s13.5 -17.5 25.5 -24.5s29.667 -10.5 53 -10.5c9.33301 0 19.666 0.5 30.999 1.5
s23 2.16699 35 3.5s23.667 2.5 35 3.5s22 1.5 32 1.5c21.333 0 40.166 -1.5 56.499 -4.5s31 -6.66699 44 -11s24.5 -9.33301 34.5 -15s19 -11.167 27 -16.5z" />
    <glyph glyph-name="ai_beng" unicode="&#x990;" horiz-adv-x="857" 
d="M555 15c-6 14 -16.502 26.3213 -31.502 36.9883s-33.5 19.667 -55.5 27s-46.833 12.833 -74.5 16.5s-57.5 5.5 -89.5 5.5c-13.333 0 -27.333 -0.5 -42 -1.5s-29 -1.5 -43 -1.5c-30 0 -56.167 5.33301 -78.5 16s-41 24.334 -56 41.001s-26.167 35.334 -33.5 56.001
s-11 41 -11 61v134h131v-109c0 -6.66699 0.166992 -15.167 0.5 -25.5s3.16602 -20.333 8.49902 -30s14.166 -18 26.499 -25s30.5 -10.5 54.5 -10.5c20 0 42.667 1.66699 68 5s47.333 5 66 5c41.333 0 74.5 -5.16699 99.5 -15.5s45.167 -21.166 60.5 -32.499v197
c-2.66699 2.66699 -4.5 10.834 -5.5 24.501s-4.5 28.167 -10.5 43.5s-16.167 29.333 -30.5 42s-35.833 19 -64.5 19c-18 0 -32.833 -2.33301 -44.5 -7s-20.834 -10.167 -27.501 -16.5s-11.334 -13 -14.001 -20s-4 -12.5 -4 -16.5v-6c16 20 39.333 30 70 30
c8.66699 0 18 -1.66699 28 -5s19.167 -8.33301 27.5 -15s15.166 -15 20.499 -25s8 -22 8 -36c0 -13.333 -2.33301 -26.666 -7 -39.999s-11.667 -25.166 -21 -35.499s-20.666 -18.833 -33.999 -25.5s-28.666 -10 -45.999 -10c-23.333 0 -45.166 4 -65.499 12
s-38.166 19.833 -53.499 35.5s-27.5 34.667 -36.5 57s-13.5 47.5 -13.5 75.5c0 23.333 4 45.666 12 66.999s20.167 40 36.5 56s37.333 28.833 63 38.5s56.5 14.5 92.5 14.5c30.667 0 57.834 -3.66699 81.501 -11s44.334 -17.166 62.001 -29.499s32.5 -26.166 44.5 -41.499
s22 -31 30 -47s14.167 -31.5 18.5 -46.5s7.5 -28.167 9.5 -39.5v-7c11.333 4.66699 20.833 12.334 28.5 23.001s11.5 23.667 11.5 39c0 24 -13.667 56.667 -41 98c-16 24 -29.333 47.833 -40 71.5s-19.167 46.5 -25.5 68.5s-10.833 42.5 -13.5 61.5s-4 35.833 -4 50.5
c0 2.66699 0.166992 5.16699 0.5 7.5s0.5 4.5 0.5 6.5l128 53c-0.666992 -1.33301 -1 -4.66602 -1 -9.99902v-28c0 -31.333 2.33301 -59.166 7 -83.499s10.667 -46.5 18 -66.5s15.333 -38.833 24 -56.5s17 -35.5 25 -53.5c16.667 -38.667 27.334 -69.167 32.001 -91.5
s7 -39.166 7 -50.499v-13c-0.666992 -30.667 -6 -56 -16 -76s-22.5 -36.167 -37.5 -48.5s-31.5 -21.666 -49.5 -27.999s-35 -10.833 -51 -13.5v-258h-129v13z" />
    <glyph glyph-name="o_beng" unicode="&#x993;" horiz-adv-x="659" 
d="M579 304l12 -13.001c16.667 -18 28.834 -38 36.501 -60s11.5 -44 11.5 -66c0 -38.667 -11.833 -70.834 -35.5 -96.501s-63.834 -46.167 -120.501 -61.5c-12 -3.33301 -23.5 -5.33301 -34.5 -6s-22.5 -1 -34.5 -1c-55.333 0 -103.5 7.83301 -144.5 23.5
s-76 36.334 -105 62.001s-52.833 54.334 -71.5 86.001s-33.334 63.667 -44.001 96s-18 63 -22 92s-6 53.5 -6 73.5v15c0 8.66699 0.333008 13.667 1 15v5c0.666992 19.333 1.66699 30.666 3 33.999v2h131v-17c0 -80 9.83301 -144.167 29.5 -192.5
s43.834 -85.333 72.501 -111s58.5 -42.5 89.5 -50.5s58.167 -12 81.5 -12h11c6.66699 0 10.334 0.333008 11.001 1h2c4.66699 0.666992 8.66699 1 12 1s5.66602 0.333008 6.99902 1h3c8.66699 3.33301 16 8 22 14s10.833 12.5 14.5 19.5s6.33398 13.833 8.00098 20.5
s2.83398 12.667 3.50098 18v10c-4.66699 -9.33301 -14 -16.833 -28 -22.5s-30 -8.5 -48 -8.5c-11.333 0 -22.833 1.66699 -34.5 5s-22.334 8.66602 -32.001 15.999s-17.667 16.833 -24 28.5s-9.5 25.834 -9.5 42.501c0 18 7.33301 35.333 22 52s40.667 28.334 78 35.001l6 2
c14 6 26.333 16.833 37 32.5s16 37.834 16 66.501c0 8.66699 -1.83301 15.834 -5.5 21.501s-8 10.167 -13 13.5s-10 5.66602 -15 6.99902l-11.5 3h-6c16 -11.333 24 -27 24 -47c0 -10.667 -2.33301 -21.667 -7 -33s-11.834 -21.666 -21.501 -30.999s-22.167 -17 -37.5 -23
s-33.666 -9 -54.999 -9c-14 0 -28 2 -42 6s-26.5 10.333 -37.5 19s-20 20 -27 34s-10.5 31 -10.5 51c0 24.667 4.83301 46.5 14.5 65.5s23.167 35.167 40.5 48.5s37.833 23.5 61.5 30.5s49.5 10.5 77.5 10.5c25.333 0 50.166 -3.5 74.499 -10.5s46.166 -17.833 65.499 -32.5
s34.833 -33.334 46.5 -56.001s17.5 -49.334 17.5 -80.001c0 -30 -5.16699 -56.333 -15.5 -79s-23.166 -40.667 -38.499 -54z" />
    <glyph glyph-name="au_beng" unicode="&#x994;" horiz-adv-x="804" 
d="M622 238c8.66699 -18 13.0039 -41.332 13.0039 -69.999c0 -20 -4 -39.667 -12 -59s-21 -36.833 -39 -52.5s-41.333 -28.334 -70 -38.001s-63.334 -14.5 -104.001 -14.5c-53.333 0 -100 7.66699 -140 23s-74.5 35.166 -103.5 59.499s-53 52 -72 83
s-34.167 62.167 -45.5 93.5s-19.166 61.333 -23.499 90s-6.5 53 -6.5 73c0 7.33301 0.166992 14.166 0.5 20.499s0.833008 12.5 1.5 18.5v5c0.666992 19.333 1.66699 30.666 3 33.999v2h131v-24c0 -52.667 4.66699 -98 14 -136s21.5 -70.333 36.5 -97s32.167 -48 51.5 -64
s39 -28.5 59 -37.5s39.667 -15 59 -18s36.333 -4.5 51 -4.5h11c6.66699 0 10.334 0.333008 11.001 1h1c1.33301 0.666992 3.66602 1 6.99902 1l16 1c8.66699 2.66699 16 7 22 13s10.833 12.5 14.5 19.5s6.16699 13.833 7.5 20.5s2 12.667 2 18l1 10
c-4 -8 -12.833 -15.333 -26.5 -22s-30.167 -10 -49.5 -10c-10.667 0 -21.667 1.66699 -33 5s-21.833 8.66602 -31.5 15.999s-17.667 16.833 -24 28.5s-9.5 25.834 -9.5 42.501c0 18.667 7.16699 36.167 21.5 52.5s40.166 27.833 77.499 34.5l6 2c14 6 26.333 16.5 37 31.5
s16 37.5 16 67.5c-0.666992 8.66699 -2.83398 16 -6.50098 22s-7.66699 10.5 -12 13.5s-9 5.16699 -14 6.5s-9.5 2 -13.5 2h-5c16 -10 24 -25.333 24 -46c0 -11.333 -2.5 -22.666 -7.5 -33.999s-12.5 -21.666 -22.5 -30.999s-22.667 -16.833 -38 -22.5s-33 -8.5 -53 -8.5
c-14 0 -28 2 -42 6s-26.5 10.333 -37.5 19s-20 20 -27 34s-10.5 31.333 -10.5 52c0 24 5 45.5 15 64.5s23.833 35 41.5 48s38.167 23 61.5 30s48.666 10.5 75.999 10.5c24.667 0 49.167 -3.5 73.5 -10.5s46.166 -17.667 65.499 -32s34.833 -32.666 46.5 -54.999
s17.5 -48.833 17.5 -79.5c0 -12.667 -1.33301 -25.334 -4 -38.001s-5.66699 -24 -9 -34l5 2c12.667 4.66699 22.834 11.834 30.501 21.501s11.5 22.167 11.5 37.5c0 13.333 -3.16699 28 -9.5 44s-16.166 34.333 -29.499 55c-16.667 25.333 -30.334 50.166 -41.001 74.499
s-19 47.5 -25 69.5s-10 42.167 -12 60.5s-3 34.5 -3 48.5v8l126 51c-0.666992 -1.33301 -1 -4.66602 -1 -9.99902v-28c0 -24.667 1.5 -47.167 4.5 -67.5s7.16699 -39.333 12.5 -57s11.333 -34.167 18 -49.5s13.667 -30 21 -44l16 -35c17.333 -38 28.166 -68.333 32.499 -91
s6.5 -40.667 6.5 -54c0 -33.333 -5.33301 -60.5 -16 -81.5s-24.167 -38 -40.5 -51s-34 -22.333 -53 -28s-36.833 -9.5 -53.5 -11.5z" />
    <glyph glyph-name="ka_beng" unicode="&#x995;" horiz-adv-x="876" 
d="M440 535l-449.999 -0.00390625v87h896v-87h-306v-21c1.33301 0.666992 4 1 8 1h25c38.667 0 73.167 -7.33301 103.5 -22s55.833 -33.834 76.5 -57.501s36.334 -50.167 47.001 -79.5s16 -58.666 16 -87.999c0 -21.333 -3.83301 -41.666 -11.5 -60.999
s-18.167 -36.666 -31.5 -51.999s-28.833 -27.5 -46.5 -36.5s-36.834 -13.5 -57.501 -13.5c-16 0 -31 3.16699 -45 9.5s-26.167 14.666 -36.5 24.999s-18.333 22.333 -24 36s-8.5 28.167 -8.5 43.5c0 31.333 9 54.333 27 69s38 22 60 22c10 0 19.333 -1 28 -3
s15.667 -4.33301 21 -7l-13 17c-5.33301 6.66699 -12.166 13.834 -20.499 21.501s-18.333 14.667 -30 21s-24.834 11.833 -39.501 16.5s-30.667 7 -48 7v-383h-140v30c-26 18 -53.5 33.833 -82.5 47.5s-57.833 25.834 -86.5 36.501s-56.334 19.334 -83.001 26.001
s-51 12 -73 16l-75 13v217l400 110v39zM440.001 203.996l-0.000976562 147l-231 -69c42.667 -2 82.334 -9 119.001 -21s67.667 -26.667 93 -44z" />
    <glyph glyph-name="kha_beng" unicode="&#x996;" horiz-adv-x="673" 
d="M633 0l-141.005 0.00195312v3c-27.333 20.667 -57.166 38.334 -89.499 53.001s-66 26.5 -101 35.5s-70.667 15.5 -107 19.5s-72.166 6 -107.499 6h-47v179h31c34.667 0 67.167 2.33301 97.5 7s56.666 11.5 78.999 20.5s40 20.333 53 34s19.5 29.5 19.5 47.5l-1 12
l-16 -15c-59.333 -47.333 -116 -71 -170 -71h-14c0.666992 0 -1.66602 -0.333008 -6.99902 -1s-12 -0.333984 -20 0.999023s-16.667 4.33301 -26 9s-18.166 12.167 -26.499 22.5s-15.166 24.166 -20.499 41.499s-8 39.333 -8 66c0 18 3.5 34.833 10.5 50.5
s16.667 29.334 29 41.001s26.833 20.834 43.5 27.501s35 10 55 10c10.667 0 21.334 -1.66699 32.001 -5s20.334 -8.33301 29.001 -15s15.5 -14.834 20.5 -24.501s7.5 -20.5 7.5 -32.5c0 -26.667 -13 -51.334 -39 -74.001l7 3c5.33301 2 11.5 5.33301 18.5 10
s13.667 10.667 20 18s11.666 16.5 15.999 27.5s6.5 23.833 6.5 38.5v7l41 52c36.667 -11.333 66 -34.333 88 -69s33 -74.667 33 -120v-27c0 -8.66699 -1.16699 -18.834 -3.5 -30.501s-6.5 -24.5 -12.5 -38.5s-14.5 -29 -25.5 -45s-25.167 -32.667 -42.5 -50
c69.333 -15.333 118.333 -33 147 -53v451h191v-87h-50v-535z" />
    <glyph glyph-name="ga_beng" unicode="&#x997;" horiz-adv-x="647" 
d="M607 535v-535.001h-139v384c-28.667 40.667 -57.667 68 -87 82s-58 21 -86 21c-18 0 -34.167 -2 -48.5 -6s-26.666 -8.5 -36.999 -13.5s-18.333 -10.167 -24 -15.5s-8.5 -9 -8.5 -11c32.667 8 66.667 12 102 12c13.333 0 27.5 -1.33301 42.5 -4s29 -7.66699 42 -15
s23.667 -18 32 -32s12.5 -32 12.5 -54c0 -17.333 -4.16699 -34.333 -12.5 -51s-19 -32.667 -32 -48s-27.5 -29.833 -43.5 -43.5s-31.333 -25.667 -46 -36s-27.834 -19 -39.501 -26s-20.167 -11.833 -25.5 -14.5v-1l-149 76c20 7.33301 41 16.833 63 28.5
s42.667 23.167 62 34.5s36 22 50 32s23.333 17.333 28 22l1 1c-33.333 -4 -66.333 -6 -99 -6s-58 2 -76 6l-69 139c16 30.667 33.667 56.334 53 77.001s39.5 37.167 60.5 49.5s42.5 21 64.5 26s44 7.5 66 7.5c19.333 0 38.333 -1.66699 57 -5s36.5 -7.5 53.5 -12.5
s32.5 -10.667 46.5 -17s26 -12.5 36 -18.5l11 -7v61h189v-87h-50z" />
    <glyph glyph-name="gha_beng" unicode="&#x998;" horiz-adv-x="629" 
d="M639 622l-0.000976562 -87h-50v-535h-139v21c-15.333 20 -33.333 36.333 -54 49s-42.334 22.5 -65.001 29.5s-45.834 11.833 -69.501 14.5s-45.834 4 -66.501 4c-32 0 -58.667 -1.5 -80 -4.5s-32.666 -4.5 -33.999 -4.5l-61 108l134 130
c-11.333 2.66699 -23.666 7.16699 -36.999 13.5s-25.666 15.5 -36.999 27.5s-20.666 27.167 -27.999 45.5s-11 40.5 -11 66.5c0 10 1 21.667 3 35h-54v87h649zM449.999 178l-0.000976562 357.004h-254c-0.666992 -0.666992 -1 -5.33398 -1 -14.001
c0 -20 4.5 -36.333 13.5 -49s23.167 -19 42.5 -19c18 0 32.167 5.33301 42.5 16s17.833 21 22.5 31l90 -89l-177 -175c-1.33301 0 5.83398 -0.333008 21.501 -1s35 -2.83398 58 -6.50098s47.333 -9.33398 73 -17.001s48.5 -18.834 68.5 -33.501z" />
    <glyph glyph-name="nga_beng" unicode="&#x999;" horiz-adv-x="689" 
d="M668 318c0.666992 -6.66699 1.17188 -13.3389 1.50488 -20.0059s0.5 -13.667 0.5 -21c0 -31.333 -4 -63.166 -12 -95.499s-21.5 -62 -40.5 -89s-44.333 -49 -76 -66s-70.834 -25.5 -117.501 -25.5c-60.667 0 -112.667 7 -156 21s-79.666 32.333 -108.999 55
s-52.833 48.334 -70.5 77.001s-31.334 57.334 -41.001 86.001s-16.334 56.167 -20.001 82.5s-6.16699 48.5 -7.5 66.5h147c-0.666992 -0.666992 -1 -2.66699 -1 -6v-18c0 -9.33301 0.833008 -21.833 2.5 -37.5s5.16699 -32.167 10.5 -49.5s13.166 -35 23.499 -53
s24 -34.333 41 -49s38 -26.5 63 -35.5s55.167 -13.5 90.5 -13.5c32.667 0 58.5 5.16699 77.5 15.5s33.167 22.5 42.5 36.5s15.333 28.333 18 43s4 26.334 4 35.001v12l-21 -13c-8 -4.66699 -16.667 -10.167 -26 -16.5s-19.5 -12.166 -30.5 -17.499s-22.833 -10 -35.5 -14
s-25.667 -6 -39 -6c-10 0 -21.5 1.83301 -34.5 5.5s-25.167 9.83398 -36.5 18.501s-21 20.5 -29 35.5s-12 33.5 -12 55.5v86c-44.667 12 -86.834 35.667 -126.501 71s-71.834 85.666 -96.501 150.999l-1 4h127c8.66699 -21.333 17.5 -38.666 26.5 -51.999
s17.667 -24.166 26 -32.499s16.333 -14.666 24 -18.999l20.5 -11.5v108h195c10.667 0 21.167 -2 31.5 -6s19.5 -9.83301 27.5 -17.5s14.5 -17.334 19.5 -29.001s7.5 -24.834 7.5 -39.501c0 -36 -10.5 -65.167 -31.5 -87.5s-57.5 -38.5 -109.5 -48.5v-68
c0.666992 0 5.5 2.5 14.5 7.5l36 20.5l51 29.5l59.5 34.5zM415.005 520.995v-35c20 6 30 14.667 30 26c0 2.66699 -1 5.66699 -3 9h-27z" />
    <glyph glyph-name="ca_beng" unicode="&#x99a;" horiz-adv-x="623" 
d="M633 535l-429.001 0.00390625v-28c0 -0.666992 0.333008 -1.33398 1 -2.00098l4 -6c3.33301 -5.33301 8.5 -11 15.5 -17s14.667 -11.333 23 -16s17 -8.5 26 -11.5s17.167 -4.5 24.5 -4.5c48.667 -12 91.667 -20.833 129 -26.5s69.333 -8.5 96 -8.5l81 -108l-6 -24
c-7.33301 -28 -19 -55.333 -35 -82s-37.667 -51.834 -65 -75.501s-60.833 -45.5 -100.5 -65.5s-86.5 -37 -140.5 -51c-13.333 -3.33301 -25.166 -5.5 -35.499 -6.5s-20.5 -1.5 -30.5 -1.5c-20.667 0 -38.334 2.16699 -53.001 6.5s-27.167 9.66602 -37.5 15.999
s-18.666 13.166 -24.999 20.499s-11.5 14.333 -15.5 21v470h-70v87h643v-87zM204.999 345.004v-194l16 5l53 21.5c22.667 9 45.5 19.5 68.5 31.5s43.333 25 61 39s28.167 28.667 31.5 44l-213 49z" />
    <glyph glyph-name="cha_beng" unicode="&#x99b;" horiz-adv-x="662" 
d="M179 304l9.99805 -1.00098c0.666992 -0.666992 5.33398 -1 14.001 -1c7.33301 0 15.5 0.666992 24.5 2s17.5 3.83301 25.5 7.5s15 8.83398 21 15.501s10 15 12 25c-21.333 4 -38.666 8.16699 -51.999 12.5s-23.833 8.5 -31.5 12.5s-13.167 7.5 -16.5 10.5
s-5.33301 5.16699 -6 6.5l-1 1v-91zM583.998 -112.001l-459.001 131.001l1 114c4 0.666992 16.333 3 37 7s45.334 9.33301 74.001 16s59 15 91 25s61.667 21.167 89 33.5s50 26.166 68 41.499s27 31.666 27 48.999c0 11.333 -7.16699 21 -21.5 29s-32.166 14 -53.499 18
l-16 3l-3 -11c-2.66699 -12.667 -7 -25.667 -13 -39s-15.667 -26.666 -29 -39.999s-31.5 -26.666 -54.5 -39.999s-52.833 -26.333 -89.5 -39c-9.33301 -3.33301 -18.333 -5.5 -27 -6.5s-16.667 -1.5 -24 -1.5c-18.667 0 -35.5 3.16699 -50.5 9.5s-27.667 13.833 -38 22.5
s-18.333 17.167 -24 25.5s-8.5 14.5 -8.5 18.5v281h-70v87h682v-87h-493v-6c0 -0.666992 0.333008 -1.33398 1 -2.00098l12 -16c9.33301 -7.33301 19.5 -13.166 30.5 -17.499s22.167 -8.16602 33.5 -11.499l57 -15c11.333 2 25.5 3.83301 42.5 5.5s35.5 2.5 55.5 2.5
c23.333 0 48.666 -2.16699 75.999 -6.5s52.5 -12.333 75.5 -24s42.167 -28 57.5 -49s23 -48.167 23 -81.5c0 -29.333 -8.5 -56 -25.5 -80s-37.5 -45.333 -61.5 -64s-49 -34.334 -75 -47.001s-47.667 -22.334 -65 -29.001l-3 -1c-0.666992 -0.666992 -1.66699 -1 -3 -1
l-27 -10l261 -71z" />
    <glyph glyph-name="ja_beng" unicode="&#x99c;" horiz-adv-x="818" 
d="M277 535l-287 0.00292969v87h838v-87h-418v-21h213c21.333 0 41.5 -4.33301 60.5 -13s35.5 -20.167 49.5 -34.5s25 -31.166 33 -50.499s12 -39.333 12 -60v-356h-130v305c0 6 -1.66699 15.667 -5 29l-2 4c-6 12.667 -14.833 23.167 -26.5 31.5s-24.167 12.833 -37.5 13.5
h-167v-55l4 -2c2.66699 -2.66699 9.33398 -4 20.001 -4c9.33301 0 21.333 2.16699 36 6.5s33 12.5 55 24.5l91 -98c1.33301 -12.667 2.5 -25 3.5 -37s1.5 -23.667 1.5 -35c0 -24 -2.66699 -46.833 -8 -68.5s-15.166 -40.667 -29.499 -57s-34.333 -29.166 -60 -38.499
s-58.5 -14 -98.5 -14c-60.667 0 -112.667 6.83301 -156 20.5s-79.666 31.667 -108.999 54s-53 47.5 -71 75.5s-31.833 56.167 -41.5 84.5s-16.334 55.666 -20.001 81.999s-6.16699 48.833 -7.5 67.5h145l-1 -24c0 -11.333 0.833008 -25 2.5 -41s5.33398 -32.667 11.001 -50
s14 -34.5 25 -51.5s25.667 -32.333 44 -46s41 -24.834 68 -33.501s59.167 -13 96.5 -13c18 0 32.667 1.33301 44 4s20.166 6.16699 26.499 10.5s10.666 9.16602 12.999 14.499s3.5 10.666 3.5 15.999s-0.666992 10.333 -2 15s-2.66602 8.66699 -3.99902 12l-3 4
c-8.66699 -4 -20.834 -8.66699 -36.501 -14s-32.834 -8 -51.501 -8c-11.333 0 -24.166 2 -38.499 6s-27.833 11 -40.5 21s-23.334 23.667 -32.001 41s-13 39.666 -13 66.999v216z" />
    <glyph glyph-name="jha_beng" unicode="&#x99d;" horiz-adv-x="840" 
d="M660 622h189.999v-87h-50v-484h-140v57l-80 56v-164h-139v33c-24.667 18 -51.5 34 -80.5 48s-58 26 -87 36s-57.167 18.333 -84.5 25s-51.666 11.667 -72.999 15l-76 12v210l401 112v44h-451v87h590v-288l80 -56v344zM440.999 206l0.000976562 141l-227 -64
c40.667 -1.33301 79.167 -8 115.5 -20s67.166 -26.667 92.499 -44z" />
    <glyph glyph-name="nya_beng" unicode="&#x99e;" horiz-adv-x="893" 
d="M589 568c38 36 81.3389 54 130.006 54c20.667 0 40.5 -3.83301 59.5 -11.5s35.5 -18 49.5 -31s25.167 -28.333 33.5 -46s12.5 -36.167 12.5 -55.5c0 -37.333 -11 -67 -33 -89c22 -23.333 33 -53 33 -89c0 -20 -4.16699 -38.667 -12.5 -56s-19.5 -32.5 -33.5 -45.5
s-30.5 -23.333 -49.5 -31s-38.833 -11.5 -59.5 -11.5c-6.66699 0 -13.334 0.333008 -20.001 1s-13.334 1.66699 -20.001 3v-160h-128v18c-6 14 -16.5 26.167 -31.5 36.5s-33.333 19.166 -55 26.499s-46.334 12.833 -74.001 16.5s-57.167 5.5 -88.5 5.5
c-13.333 0 -27.333 -0.5 -42 -1.5s-29 -1.5 -43 -1.5c-30 0 -56 5.33301 -78 16s-40.333 24.167 -55 40.5s-25.667 34.833 -33 55.5s-11 41 -11 61v133h129v-108c0 -6.66699 0.166992 -15.167 0.5 -25.5s3.16602 -20.333 8.49902 -30s14 -18 26 -25s29.667 -10.5 53 -10.5
c9.33301 0 19.666 0.5 30.999 1.5s22.833 2.16699 34.5 3.5s23.167 2.5 34.5 3.5s22 1.5 32 1.5c41.333 0 74.666 -5 99.999 -15s46 -20.667 62 -32v195c-0.666992 0.666992 -1.5 7.66699 -2.5 21s-4.83301 28 -11.5 44s-17.334 30.5 -32.001 43.5s-36 19.5 -64 19.5
c-20 0 -36 -2.66699 -48 -8s-21 -11.5 -27 -18.5s-10 -14 -12 -21s-3 -12.167 -3 -15.5v-2c16 20 39.333 30 70 30c8.66699 0 17.834 -1.5 27.501 -4.5s18.667 -7.83301 27 -14.5s15.166 -15.167 20.499 -25.5s8 -22.5 8 -36.5c0 -12.667 -2.16699 -25.5 -6.5 -38.5
s-11.166 -24.667 -20.499 -35s-21 -18.833 -35 -25.5s-30.333 -10 -49 -10c-22.667 0 -43.834 4.16699 -63.501 12.5s-37 20.333 -52 36s-26.833 34.334 -35.5 56.001s-13 46.167 -13 73.5c0 22.667 3.83301 44.667 11.5 66s19.834 40 36.501 56s37.834 28.833 63.501 38.5
s56.167 14.5 91.5 14.5c34.667 0 65.167 -5 91.5 -15s48.166 -22.667 65.499 -38zM680.006 276c16.667 -8 29.667 -12 39 -12c10.667 0 19.834 3.5 27.501 10.5s11.5 15.5 11.5 25.5c0 9.33301 -3.5 17.333 -10.5 24s-19.5 10 -37.5 10v111l19 -2
c7.33301 1.33301 14 5 20 11s9 14 9 24c0 9.33301 -3.83301 17.5 -11.5 24.5s-16.834 10.5 -27.501 10.5c-12 0 -24.167 -3.66699 -36.5 -11s-18.5 -15.666 -18.5 -24.999c0 -3.33301 0.333008 -5.33301 1 -6v-19c6 -19.333 9.83301 -36.333 11.5 -51
s2.5 -24.334 2.5 -29.001l1 -91v-5z" />
    <glyph glyph-name="tta_beng" unicode="&#x99f;" horiz-adv-x="637" 
d="M375 229l11 9.99512c-24 24.667 -36 55 -36 91c0 18 3.5 35.167 10.5 51.5s16.5 30.666 28.5 42.999s26 22 42 29s33.333 10.5 52 10.5c18 0 35.167 -3.16699 51.5 -9.5s30.833 -16.166 43.5 -29.499c14.667 -16 24 -31.167 28 -45.5s8 -31.833 12 -52.5
c0 -36 -7.66699 -70.667 -23 -104s-38 -64.166 -68 -92.499s-67.5 -53.166 -112.5 -74.499s-97.167 -37.666 -156.5 -48.999c-10 -2 -19.5 -3.33301 -28.5 -4s-17.833 -1 -26.5 -1c-21.333 0 -39.833 2.16699 -55.5 6.5s-29 9.5 -40 15.5s-19.833 12.333 -26.5 19
s-11.667 12.667 -15 18l-4 6c-0.666992 0.666992 -1 1.33398 -1 2.00098l-1 466h-70v87h486c0 2 0.166992 4 0.5 6s0.5 4 0.5 6c0 19.333 -6 35.5 -18 48.5s-30.667 19.5 -56 19.5c-11.333 0 -24 -1.66699 -38 -5s-29 -8 -45 -14c-32 -12.667 -61.5 -21.667 -88.5 -27
s-52.5 -8 -76.5 -8c-46 0 -83 3.66699 -111 11l-24 136c46 -14.667 89.667 -22 131 -22c24.667 0 48.334 2.33301 71.001 7s43.667 9.33398 63 14.001l39 9c22.667 4 42.5 6.83301 59.5 8.5s31.5 2.5 43.5 2.5c38 0 69.167 -5.83301 93.5 -17.5s43.166 -26.167 56.499 -43.5
s22.5 -35.833 27.5 -55.5s7.5 -37.834 7.5 -54.501v-11c0 -6 -0.333008 -9.33301 -1 -10h36v-87h-447v-373l30 5c20 3.33301 43.5 9.83301 70.5 19.5s51.833 23.834 74.5 42.501z" />
    <glyph glyph-name="ttha_beng" unicode="&#x9a0;" horiz-adv-x="575" 
d="M270 1c-34.667 0 -65.168 5.66406 -91.501 16.9971s-49.5 25.333 -69.5 42s-36.833 34.834 -50.5 54.501s-24.834 37.834 -33.501 54.501s-16.667 35.334 -24 56.001c18.667 -2.66699 35.667 -4 51 -4c48.667 0 88.334 9 119.001 27c44 25.333 66 67.666 66 126.999
c0 42 -12.667 95.333 -38 160h-209v87h176c-10.667 24 -16 50 -16 78c0 20 2.33301 38 7 54c6 22.667 10 36.334 12 41.001h150c-19.333 -30 -29 -63 -29 -99c0 -26.667 5 -51.334 15 -74.001h280v-87h-205c42.667 -29.333 80.334 -65.666 113.001 -108.999
c42 -57.333 63 -115 63 -173c0 -72.667 -23.667 -131.334 -71 -176.001c-52 -49.333 -123.667 -74.666 -215 -75.999zM306.999 149.997c27.333 0 51.334 7.33301 72.001 22c23.333 16.667 36.333 40.667 39 72v10c0 31.333 -9 60.333 -27 87c-12 16 -29.333 32.667 -52 50
c8.66699 -25.333 13 -51 13 -77c0 -28 -5.16699 -51.333 -15.5 -70s-21.5 -33.5 -33.5 -44.5s-23.167 -19 -33.5 -24s-15.5 -8.5 -15.5 -10.5c0 -4 7.33301 -7.66699 22 -11c11.333 -2.66699 21.666 -4 30.999 -4z" />
    <glyph glyph-name="dda_beng" unicode="&#x9a1;" horiz-adv-x="720" 
d="M277 535l-286.994 -0.00390625v87h740v-87h-314v-155h2c4 1.33301 13.333 2.33301 28 3l1 1c20 2 44.5 7 73.5 15s58.5 19.667 88.5 35l91 -98c0.666992 -1.33301 1 -5.66602 1 -12.999v-13c0 -32 -5.5 -65.833 -16.5 -101.5s-28 -68.5 -51 -98.5
s-52.333 -54.833 -88 -74.5s-77.834 -29.5 -126.501 -29.5c-58 0 -108 6.66699 -150 20s-77.333 30.833 -106 52.5s-52 46.334 -70 74.001s-32 55.667 -42 84s-17.167 56 -21.5 83s-7.5 50.5 -9.5 70.5h146v-2c0 -2 -0.166992 -6 -0.5 -12s-0.5 -12.667 -0.5 -20
c0 -17.333 2.5 -37.833 7.5 -61.5s15 -46.834 30 -69.501s36.5 -42.667 64.5 -60s64.667 -28.333 110 -33c2.66699 0 5.16699 -0.166992 7.5 -0.5s4.83301 -0.5 7.5 -0.5c26 0 48.667 3.83301 68 11.5s35.666 17.167 48.999 28.5s24.166 23.666 32.499 36.999
s14.666 25.833 18.999 37.5s7.33301 21.334 9 29.001s2.5 11.834 2.5 12.501c-4.66699 -2.66699 -11.834 -6.16699 -21.501 -10.5s-21.167 -8.66602 -34.5 -12.999s-27.833 -8.16602 -43.5 -11.499s-31.834 -5 -48.501 -5c-13.333 0 -28.5 1.83301 -45.5 5.5s-33 10 -48 19
s-27.667 21.5 -38 37.5s-15.5 36.667 -15.5 62v164z" />
    <glyph glyph-name="ddha_beng" unicode="&#x9a2;" horiz-adv-x="637" 
d="M60 535l-70.001 -0.00488281v87h657v-87h-444v-373l31 5c19.333 3.33301 42.166 9.83301 68.499 19.5s50.5 23.5 72.5 41.5l11 10c-24.667 24.667 -37 55.334 -37 92.001c0 18.667 3.5 36.167 10.5 52.5s16.5 30.5 28.5 42.5s26.167 21.5 42.5 28.5
s33.833 10.5 52.5 10.5c19.333 0 36.833 -3.66699 52.5 -11s29.334 -17.166 41.001 -29.499s21 -26.833 28 -43.5s11.5 -34.334 13.5 -53.001c0 -36 -7.66699 -70.667 -23 -104s-38.166 -64.166 -68.499 -92.499s-68 -53.166 -113 -74.499s-97.167 -37.666 -156.5 -48.999
c-10 -2 -19.667 -3.33301 -29 -4s-18.333 -1 -27 -1c-20.667 0 -38.667 2.16699 -54 6.5s-28.5 9.5 -39.5 15.5s-19.833 12.333 -26.5 19s-11.667 12.667 -15 18l-4 6c-0.666992 0.666992 -1 1.33398 -1 2.00098l-1 1v465z" />
    <glyph glyph-name="nna_beng" unicode="&#x9a3;" horiz-adv-x="642" 
d="M602 535l-0.00976562 -535h-139v319l-2 10c-7.33301 24 -15.166 44.5 -23.499 61.5s-17.833 29.167 -28.5 36.5l-14 10c-21.333 15.333 -41.166 26 -59.499 32s-35.166 9 -50.499 9c-13.333 0 -25.333 -2 -36 -6s-20.667 -9.33301 -30 -16c54.667 -26 82 -69 82 -129
c0 -18 -3.66699 -34.833 -11 -50.5s-17.166 -29.334 -29.499 -41.001s-26.666 -20.667 -42.999 -27s-33.166 -9.5 -50.499 -9.5s-33.166 3 -47.499 9s-27.166 14 -38.499 24l-3 3c-18.667 16.667 -33 35.834 -43 57.501s-15 45.834 -15 72.501c0 30 5.33301 60.167 16 90.5
s26.334 57.666 47.001 81.999s46.334 44.333 77.001 60s65.667 23.5 105 23.5c28 0 60 -4.83301 96 -14.5s70 -26.167 102 -49.5v65h189v-87h-50z" />
    <glyph glyph-name="ta_beng" unicode="&#x9a4;" horiz-adv-x="653" 
d="M-10 622h673v-87h-673v87zM500 289c-12.667 -20 -29.001 -35.1689 -49.001 -45.502s-41 -15.5 -63 -15.5c-18.667 0 -36 3.5 -52 10.5s-29.833 16.5 -41.5 28.5s-21 26.167 -28 42.5s-10.833 33.833 -11.5 52.5c0 40.667 13.667 73.167 41 97.5s63 36.5 107 36.5
c10 0 19.5 -0.333008 28.5 -1s16.5 -1.66699 22.5 -3l17 -3c24.667 -6 47 -16.833 67 -32.5s37 -34.334 51 -56.001s24.833 -45.834 32.5 -72.501s11.5 -54 11.5 -82c0 -30.667 -5 -60.834 -15 -90.501s-26.167 -56 -48.5 -79s-51.5 -41.667 -87.5 -56
s-79.667 -21.5 -131 -21.5c-40.667 0 -76.334 4.5 -107.001 13.5s-57.167 20.833 -79.5 35.5s-40.833 31.334 -55.5 50.001s-26.667 37.334 -36 56.001s-16.166 36.834 -20.499 54.501s-7.16602 32.834 -8.49902 45.501h-1c-0.666992 14.667 -1.66699 24 -3 28v190h140v-186
c1.33301 -4 2.83301 -10.833 4.5 -20.5s4.5 -20.667 8.5 -33s10 -25.333 18 -39s18.667 -26.167 32 -37.5s30 -20.666 50 -27.999s44.667 -11 74 -11c28.667 0 52 4 70 12s32.167 18 42.5 30s17.333 25.333 21 40s5.5 29 5.5 43c0 17.333 -1.33301 30 -4 38z" />
    <glyph glyph-name="tha_beng" unicode="&#x9a5;" horiz-adv-x="620" 
d="M266 369c7.33301 11.333 12.668 22.666 16.001 33.999l-9 -9c-26 -26 -57.333 -39 -94 -39c-18.667 0 -36 3.33301 -52 10s-30 16 -42 28s-21.5 26 -28.5 42s-10.833 33.667 -11.5 53c0.666992 38 13.167 69.167 37.5 93.5s56.5 37.5 96.5 39.5l19 1
c24.667 0 49.834 -3.83301 75.501 -11.5s49 -19.334 70 -35.001s38.167 -35.5 51.5 -59.5s20 -52 20 -84c0 -24 -3.33301 -46.167 -10 -66.5s-15.334 -38.666 -26.001 -54.999s-22.334 -30.833 -35.001 -43.5s-25 -23.334 -37 -32.001c30 -8 56.167 -16.667 78.5 -26
s40.833 -18.333 55.5 -27v440h189v-87h-50v-535h-139v10c-27.333 20.667 -56 38.334 -86 53.001s-59.5 26.834 -88.5 36.501s-57 17 -84 22s-51.5 8.16699 -73.5 9.5l-69 4v115l28 8c13.333 2.66699 29.333 7.5 48 14.5s37.667 15.5 57 25.5s37.333 21 54 33
s29.667 24.667 39 38z" />
    <glyph glyph-name="da_beng" unicode="&#x9a6;" horiz-adv-x="607" 
d="M543 -85c-52 34 -89.333 72.3311 -112 114.998s-34 90.334 -34 143.001c0 11.333 0.833008 23.333 2.5 36s3.5 23.334 5.5 32.001l3 13l-206 -135l-142 47v369h-70v87h627v-87h-415v-252l247 161l139 -28l-38 -185l-1 -31c0 -9.33301 0.5 -20.833 1.5 -34.5
s4 -28.167 9 -43.5s12.167 -30.5 21.5 -45.5s22.333 -28.167 39 -39.5z" />
    <glyph glyph-name="dha_beng" unicode="&#x9a7;" horiz-adv-x="621" 
d="M631 622l0.00390625 -86.999h-50v-535h-140v33c-26 17.333 -53.667 32 -83 44s-58.5 21.833 -87.5 29.5s-57 13.834 -84 18.501s-51 8 -72 10s-38 3.16699 -51 3.5s-20.5 0.5 -22.5 0.5l-1 209l80 28c-43.333 38 -65 83.667 -65 137c0 23.333 5.83301 44.166 17.5 62.499
s26.334 33.666 44.001 45.999s37 21.833 58 28.5s41.167 10 60.5 10c17.333 0 33.666 -2.16699 48.999 -6.5s28.666 -10.333 39.999 -18s20.333 -17 27 -28s10 -22.833 10 -35.5c0 -8.66699 -2 -18.5 -6 -29.5s-9.83301 -21.5 -17.5 -31.5s-17.334 -18.5 -29.001 -25.5
s-25.167 -10.5 -40.5 -10.5c-14 0 -27 2 -39 6s-21 7.66699 -27 11c-1.33301 -1.33301 -2 -3 -2 -5c0 -3.33301 1.5 -7.83301 4.5 -13.5s8 -11 15 -16s16.167 -9.33301 27.5 -13s25 -5.5 41 -5.5c1.33301 0 3.16602 0.166992 5.49902 0.5s5.16602 0.833008 8.49902 1.5
l139 49v132h190zM351.004 232.001c16.667 -5.33301 32.5 -11.1689 47.5 -17.502s29.167 -13.166 42.5 -20.499v148l-251 -89c32 0 61 -1.66699 87 -5s50.667 -8.66602 74 -15.999z" />
    <glyph glyph-name="na_beng" unicode="&#x9a8;" horiz-adv-x="643" 
d="M163 64c-28.667 0 -52.335 6.83594 -71.002 20.5029s-33.5 29.167 -44.5 46.5s-18.667 34.166 -23 50.499s-6.5 27.166 -6.5 32.499c0 30 3.66699 58.5 11 85.5s20 54.5 38 82.5c15.333 23.333 32.333 42 51 56s37.167 24.5 55.5 31.5s35.333 11.5 51 13.5
s28.167 3 37.5 3c44.667 0 98.334 -13.667 161.001 -41l40 -24v114h-473v87h663v-87h-50v-535h-140v191c-5.33301 22 -13 42.333 -23 61s-20.333 31.667 -31 39l-14 10c-23.333 16.667 -42.5 27.667 -57.5 33s-27.167 8 -36.5 8h-13c-24 0 -46.667 -6.66699 -68 -20
c25.333 -10.667 45.333 -27.834 60 -51.501s22 -48.5 22 -74.5c0 -18.667 -3.66699 -36 -11 -52s-17.166 -30 -29.499 -42s-26.5 -21.333 -42.5 -28s-32.667 -10 -50 -10h-6z" />
    <glyph glyph-name="pa_beng" unicode="&#x9aa;" horiz-adv-x="706" 
d="M667 535l-0.000976562 -534.998h-140v328l-342 -184l-83 109l97 47c-13.333 30 -28 54.167 -44 72.5s-30.333 31.166 -43 38.499l-22 13l-90 112c108.667 56.667 203.334 85 284.001 85c58.667 0 108.167 -8.33301 148.5 -25s71.833 -36.334 94.5 -59.001v85h189v-87h-49
zM319.999 360.002l151 73.998c-23.333 18 -49.333 31 -78 39s-56 12 -82 12c-24 0 -47 -2 -69 -6c16.667 -13.333 31.5 -31.166 44.5 -53.499s24.167 -44.166 33.5 -65.499z" />
    <glyph glyph-name="pha_beng" unicode="&#x9ab;" horiz-adv-x="773" 
d="M783 622l-0.00195312 -87.0029h-527c13.333 -12 25.333 -24.833 36 -38.5s17.667 -24.167 21 -31.5l5 -7c3.33301 -9.33301 6 -18.166 8 -26.499s3 -16.5 3 -24.5c0 -13.333 -2.66699 -26 -8 -38s-13 -23.667 -23 -35l-63 -64l11 -3
c11.333 -3.33301 28.333 -10.333 51 -21s46 -28 70 -52v202c14 76 61 114 141 114c28.667 0 57.334 -5.33301 86.001 -16s54.667 -26 78 -46s42.5 -44.833 57.5 -74.5s23.167 -63.5 24.5 -101.5c-2.66699 -58.667 -16.334 -104.167 -41.001 -136.5s-55 -48.5 -91 -48.5
c-28.667 0 -52.667 9.83301 -72 29.5s-29.666 43.834 -30.999 72.501c0.666992 28.667 10.334 52.667 29.001 72s43.334 29.333 74.001 30h5c0 4.66699 -1 12 -3 22s-6.33301 19.833 -13 29.5s-16.334 18.167 -29.001 25.5s-29.334 11 -50.001 11
c-8 0 -15.5 -1.83301 -22.5 -5.5s-10.5 -10.5 -10.5 -20.5v-353h-132v10c-22.667 33.333 -47.5 59.5 -74.5 78.5s-53 33.167 -78 42.5s-47.167 15.166 -66.5 17.499s-32.666 3.5 -39.999 3.5h-6l-82 93l143 125c5.33301 4 9 9.16699 11 15.5s3 12.5 3 18.5
c0 22 -7.16699 40.833 -21.5 56.5s-30.5 28.834 -48.5 39.501s-35.5 18.834 -52.5 24.501s-27.833 9.16699 -32.5 10.5h-32v87h793z" />
    <glyph glyph-name="ba_beng" unicode="&#x9ac;" horiz-adv-x="620" 
d="M440 535h-450v87h640v-87h-50v-535h-140v33c-26 18 -53.5 34 -82.5 48s-58 26 -87 36s-56.833 18.333 -83.5 25s-50.667 11.667 -72 15l-75 12v210l400 112v44zM440 207v140l-225 -64c44 -2.66699 83 -10 117 -22s63.667 -25.667 89 -41z" />
    <glyph glyph-name="bha_beng" unicode="&#x9ad;" horiz-adv-x="757" 
d="M-10 622h777v-87h-777v87zM723 390c3.33301 -10.667 6.5 -23.498 9.5 -38.498s4.5 -30.833 4.5 -47.5c0 -15.333 -1.5 -33.166 -4.5 -53.499s-8.33301 -41.333 -16 -63s-17.834 -43.167 -30.501 -64.5s-28.667 -41 -48 -59c-45.333 -41.333 -114.333 -62.333 -207 -63
c-56 2.66699 -104.833 11.334 -146.5 26.001s-77.667 33.5 -108 56.5s-55.5 49.167 -75.5 78.5s-36 59.833 -48 91.5s-20.5 63.667 -25.5 96s-7.83301 63.166 -8.5 92.499h173c0 -0.666992 -0.333008 -4.5 -1 -11.5s-1 -16.167 -1 -27.5c0 -20 2.5 -44.833 7.5 -74.5
s16 -58.334 33 -86.001s42.167 -51.334 75.5 -71.001s78 -29.5 134 -29.5c28.667 0 51.834 3.66699 69.501 11s31.167 15.666 40.5 24.999s15.5 18.833 18.5 28.5s4.5 16.5 4.5 20.5c0 2 -0.333008 3 -1 3h-1c-46.667 -28.667 -91.334 -43 -134.001 -43
c-28 0 -53.833 5.33301 -77.5 16s-44.167 24.667 -61.5 42s-30.833 36.666 -40.5 57.999s-14.5 43 -14.5 65c0 10 1 20.667 3 32s5.83301 22.833 11.5 34.5s13.834 22.834 24.501 33.501s24.667 20 42 28c9.33301 4 18.5 7.33301 27.5 10s19.167 4 30.5 4
c14.667 0 29 -2.83301 43 -8.5s26.667 -13.5 38 -23.5s20.5 -22.167 27.5 -36.5s10.5 -29.833 10.5 -46.5c0 -28 -11.667 -53.667 -35 -77c8 -2 15.333 -3 22 -3c14 0 27.5 5.5 40.5 16.5s28.167 30.5 45.5 58.5c-0.666992 0 2 4.5 8 13.5s10 22.167 12 39.5z" />
    <glyph glyph-name="ma_beng" unicode="&#x9ae;" horiz-adv-x="620" 
d="M440 312l-0.000976562 223h-157c11.333 -16.667 22.666 -37.5 33.999 -62.5s17 -53.833 17 -86.5v-20c18.667 -4.66699 37.334 -11.5 56.001 -20.5s35.334 -20.167 50.001 -33.5zM579.999 535l0.00195312 -535.001h-140v62c-6 27.333 -13.833 50.833 -23.5 70.5
s-20.167 36.167 -31.5 49.5s-23.333 23.833 -36 31.5s-25.334 13.5 -38.001 17.5c8 -17.333 12 -34.333 12 -51c0 -18.667 -4 -36.167 -12 -52.5s-18.833 -30.666 -32.5 -42.999s-29.834 -22 -48.501 -29s-38.667 -10.5 -60 -10.5c-22.667 0 -43.167 4 -61.5 12
s-34 18.833 -47 32.5s-23.167 29.5 -30.5 47.5s-11 37.333 -11 58c0 20 4.16699 39 12.5 57s20 34.167 35 48.5s32.5 27 52.5 38s41.667 19.5 65 25.5c-0.666992 14.667 -3 30 -7 46s-10.667 31.5 -20 46.5s-22.5 29.333 -39.5 43s-38.833 25.5 -65.5 35.5h-63v87h640v-87
h-50z" />
    <glyph glyph-name="ya_beng" unicode="&#x9af;" horiz-adv-x="615" 
d="M40 535l-49.998 -0.000976562v87h635v-87h-50v-535h-131v9c-20 28.667 -44.167 52.334 -72.5 71.001s-57.333 33.667 -87 45s-58.334 19.333 -86.001 24s-51.167 7.66699 -70.5 9l-40 2l-68 139c38.667 3.33301 69.5 8.83301 92.5 16.5s40.5 16.167 52.5 25.5
s19.833 18.5 23.5 27.5s5.5 16.167 5.5 21.5v9c-3.33301 18 -10.333 34 -21 48s-22.834 26.5 -36.501 37.5s-27.667 20.167 -42 27.5s-26.833 13 -37.5 17zM444.002 534.999l-174.999 0.000976562c15.333 -13.333 28.666 -28 39.999 -44s20 -30.667 26 -44l2 -7
c0 -0.666992 0.333008 -1.33398 1 -2.00098l3 -7l4.5 -18.5c1.66699 -7 2.5 -14.833 2.5 -23.5c0 -18 -5.5 -37.5 -16.5 -58.5s-33.5 -40.5 -67.5 -58.5l36 -8c8.66699 -2 19.167 -5 31.5 -9s25 -9.16699 38 -15.5s26 -13.5 39 -21.5s24.833 -17 35.5 -27v344z" />
    <glyph glyph-name="ra_beng" unicode="&#x9b0;" horiz-adv-x="625" 
d="M585 0l-141.001 0.000976562v28c-27.333 18.667 -56.166 35.167 -86.499 49.5s-60.5 26.666 -90.5 36.999s-58.667 18.833 -86 25.5s-52 11.667 -74 15l-67 10v212l404 113v45h-454v87h645v-87h-50v-535zM443.999 203.001v141l-228 -64
c88.667 -6 164.667 -31.667 228 -77zM271.999 -123.999c-13.333 0 -25.833 2.5 -37.5 7.5s-22 11.833 -31 20.5s-16 18.834 -21 30.501s-7.5 24.167 -7.5 37.5c0 14 2.5 26.833 7.5 38.5s12 21.834 21 30.501s19.333 15.5 31 20.5s24.167 7.5 37.5 7.5
s25.833 -2.5 37.5 -7.5s22 -11.833 31 -20.5s16 -18.834 21 -30.501s7.5 -24.5 7.5 -38.5c0 -13.333 -2.5 -25.833 -7.5 -37.5s-12 -21.834 -21 -30.501s-19.333 -15.5 -31 -20.5s-24.167 -7.5 -37.5 -7.5z" />
    <glyph glyph-name="la_beng" unicode="&#x9b2;" horiz-adv-x="701" 
d="M522 535h-531.997v87h721v-87h-50v-535h-139l-1 303c-0.666992 2.66699 -2.33398 6.66699 -5.00098 12s-6.33398 10.5 -11.001 15.5s-10.667 9.33301 -18 13s-16 5.5 -26 5.5s-18.333 -2.33301 -25 -7l-10 -6l13 -20l-91 -63l-18 31
c-5.33301 11.333 -11.666 22.833 -18.999 34.5s-16.166 22.167 -26.499 31.5s-22.333 16.833 -36 22.5s-29.834 8.5 -48.501 8.5c-15.333 0 -27.5 -3 -36.5 -9s-15.833 -13 -20.5 -21s-7.5 -16.167 -8.5 -24.5s-1.5 -14.833 -1.5 -19.5v-6
c8.66699 10.667 19.167 18.667 31.5 24s25.166 8 38.499 8c15.333 0 28.666 -3.16699 39.999 -9.5s20.833 -14.166 28.5 -23.499s13.334 -19.333 17.001 -30s5.5 -20.334 5.5 -29.001c0 -14 -3.16699 -27.333 -9.5 -40s-15 -23.834 -26 -33.501s-24.333 -17.334 -40 -23.001
s-32.5 -8.5 -50.5 -8.5c-20 0 -38.833 4.33301 -56.5 13s-33.334 20.834 -47.001 36.501s-24.5 34.5 -32.5 56.5s-12 46.333 -12 73c0 25.333 4 49 12 71s20.5 41.167 37.5 57.5s38.833 29.333 65.5 39s58.667 14.834 96 15.501c25.333 -2.66699 48.333 -10 69 -22
s39.334 -26.667 56.001 -44c11.333 15.333 25.666 27.833 42.999 37.5s35.333 14.5 54 14.5c21.333 0 44.333 -7.33301 69 -22v73z" />
    <glyph glyph-name="sha_beng" unicode="&#x9b6;" horiz-adv-x="723" 
d="M683 535l0.000976562 -535.001h-140v418c-10.667 26 -23.5 46.5 -38.5 61.5s-36.5 22.5 -64.5 22.5c-17.333 0 -31.333 -2.83301 -42 -8.5s-18.834 -12.667 -24.501 -21s-9.5 -17.333 -11.5 -27s-3 -18.5 -3 -26.5c0 -16.667 1 -25 3 -25c6.66699 8 14.5 13.667 23.5 17
s18.5 5 28.5 5c28.667 0 53.5 -9.5 74.5 -28.5s31.5 -46.833 31.5 -83.5c0 -14 -2.5 -28 -7.5 -42s-12.833 -26.5 -23.5 -37.5s-24.667 -20 -42 -27s-38 -10.5 -62 -10.5c-25.333 0 -47.5 4.83301 -66.5 14.5s-35.167 26.167 -48.5 49.5
c-14 -23.333 -30.333 -39.833 -49 -49.5s-40.667 -14.5 -66 -14.5c-24 0 -44.667 3.33301 -62 10s-31.5 15.5 -42.5 26.5s-19 23.5 -24 37.5s-7.5 28.333 -7.5 43c0 38 10.667 66.167 32 84.5s47.333 27.5 78 27.5c20 0 36.333 -7.33301 49 -22l3 14
c0.666992 4 1.33398 8.83301 2.00098 14.5s1 11.834 1 18.501c0 10 -1.16699 20.5 -3.5 31.5s-6.5 21 -12.5 30s-14.5 16.5 -25.5 22.5s-25.167 9.33301 -42.5 10h-110v87l110 1c84.667 -0.666992 142.667 -28 174 -82l13 17c16 21.333 37 36.833 63 46.5s58 15.167 96 16.5
c39.333 -2 71.666 -12.667 96.999 -32v33h190v-87h-50z" />
    <glyph glyph-name="ssa_beng" unicode="&#x9b7;" horiz-adv-x="616" 
d="M444 535l-174.001 -0.00195312c12.667 -11.333 23.334 -23.166 32.001 -35.499s16 -23.166 22 -32.499l2 -5h3c25.333 -5.33301 46.333 -12.333 63 -21l52 -28v122zM329.999 325.998l-9 -11.001c-7.33301 -9.33301 -15.833 -17.166 -25.5 -23.499
s-20.167 -12.833 -31.5 -19.5l36 -8c8.66699 -2 19.167 -5 31.5 -9s25 -9.16699 38 -15.5s26 -13.5 39 -21.5s24.833 -17 35.5 -27v89l-13 9c-16.667 11.333 -33.667 19.833 -51 25.5s-34 9.5 -50 11.5zM39.999 534.997h-50v87h636v-87h-50v-535h-132v10
c-19.333 28 -43.166 51.333 -71.499 70s-57.333 33.5 -87 44.5s-58.5 19 -86.5 24s-51.333 8.16699 -70 9.5h-8c-8.66699 0.666992 -15.667 1.16699 -21 1.5s-9 0.5 -11 0.5l-69 139c38.667 3.33301 69.5 8.83301 92.5 16.5s40.5 16.167 52.5 25.5s19.833 18.5 23.5 27.5
s5.5 16.167 5.5 21.5v9c-3.33301 18 -10.333 34 -21 48s-22.834 26.5 -36.501 37.5s-27.667 20.167 -42 27.5s-26.833 13 -37.5 17h-2z" />
    <glyph glyph-name="sa_beng" unicode="&#x9b8;" horiz-adv-x="608" 
d="M428 98l-125.001 87.998c-11.333 -20.667 -24 -39.167 -38 -55.5s-28 -30.666 -42 -42.999s-27.667 -22.666 -41 -30.999s-24.666 -14.833 -33.999 -19.5l-25 -12l-123 102l5 3c29.333 17.333 56 34.333 80 51s44.333 34.667 61 54s29.5 40.833 38.5 64.5
s13.5 51.5 13.5 83.5c0 30.667 -6.5 57 -19.5 79s-31.167 46.333 -54.5 73h-134v87h628v-87h-50v-535h-140v98zM339.999 425.998c1.33301 -11.333 2.33301 -22.668 3 -34.001s1 -22.333 1 -33v-16c0 -8.66699 -0.333008 -13.667 -1 -15l85 -59v266h-130l3 -3
c20 -31.333 33 -66.666 39 -105.999z" />
    <glyph glyph-name="ha_beng" unicode="&#x9b9;" horiz-adv-x="561" 
d="M-10 622h581v-87h-581v87zM508 -46l-476.002 121l-33 140h1c2.66699 0 4.33398 -0.333008 5.00098 -1l16 -3c8.66699 -2 19.167 -4.16699 31.5 -6.5s25.166 -4.5 38.499 -6.5s26.5 -3.5 39.5 -4.5s24.5 -1.5 34.5 -1.5c9.33301 0 14.333 0.333008 15 1h3
c1.33301 0.666992 3.66602 1 6.99902 1s7.33301 0.333008 12 1h1c14.667 1.33301 33 4.16602 55 8.49902s43.333 11.5 64 21.5s38.5 23.5 53.5 40.5s22.833 38.833 23.5 65.5c-0.666992 11.333 -4.33398 20.666 -11.001 27.999s-14.667 13 -24 17s-19.666 6.66699 -30.999 8
s-22 2 -32 2c-4.66699 0 -9.16699 -0.166992 -13.5 -0.5s-8.16602 -0.5 -11.499 -0.5l-14 -2c16.667 -12.667 25 -28.334 25 -47.001c0 -10 -2.33301 -21 -7 -33s-11.667 -23.167 -21 -33.5s-21.166 -19 -35.499 -26s-30.833 -10.5 -49.5 -10.5c-16.667 0 -33 2.66699 -49 8
s-30.5 13.5 -43.5 24.5s-23.5 24.667 -31.5 41s-12 35.5 -12 57.5c0 25.333 6.5 47.833 19.5 67.5s30.333 36.334 52 50.001s46.834 24 75.501 31s59 10.5 91 10.5c34 0 66.833 -4.16699 98.5 -12.5s60 -21.166 85 -38.499s45 -39.5 60 -66.5s22.5 -59.5 22.5 -97.5
c0 -25.333 -4.66699 -48.166 -14 -68.499s-21.5 -38.333 -36.5 -54s-32.167 -29 -51.5 -40s-39 -19.833 -59 -26.5l178 -43z" />
    <glyph glyph-name="signnuktacomb_beng" unicode="&#x9bc;" 
d="M-57 -175c-13.333 0 -25.833 2.5 -37.5 7.5s-22 11.833 -31 20.5s-16 18.834 -21 30.501s-7.5 24.5 -7.5 38.5c0 13.333 2.5 25.833 7.5 37.5s12 21.834 21 30.501s19.333 15.5 31 20.5s24.167 7.5 37.5 7.5s25.833 -2.5 37.5 -7.5s22 -11.833 31 -20.5
s16 -18.834 21 -30.501s7.5 -24.167 7.5 -37.5c0 -14 -2.5 -26.833 -7.5 -38.5s-12 -21.834 -21 -30.501s-19.333 -15.5 -31 -20.5s-24.167 -7.5 -37.5 -7.5z" />
    <glyph glyph-name="vowelsignaa_beng" unicode="&#x9be;" horiz-adv-x="220" 
d="M180 535v-535h-140v535h-50v87h240v-87h-50z" />
    <glyph glyph-name="vowelsigni_beng" unicode="&#x9bf;" horiz-adv-x="220" 
d="M180 1h-140.001v534h-50v87h30l-30 53l8 16c12 25.333 28 51 48 77c68 86.667 151.333 130 250 130c14.667 0 30 -0.666992 46 -2c19.333 -2.66699 53.666 -11.667 102.999 -27c116 -38.667 213.333 -78.667 292 -120l-122 -94l-49.5 27
c-16.333 8.66699 -35.166 17.5 -56.499 26.5s-43.833 17.167 -67.5 24.5s-48 13.833 -73 19.5s-48.833 9.5 -71.5 11.5c-17.333 0 -33.666 -3 -48.999 -9c-30 -11.333 -55.667 -27.666 -77 -48.999c-10.667 -10.667 -22.667 -24.334 -36 -41.001l24 -43h71v-87h-50v-534z
" />
    <glyph glyph-name="vowelsignii_beng" unicode="&#x9c0;" horiz-adv-x="221" 
d="M181 0h-141v535h-50v87h60l1 20c0 17.333 -3.16699 34.333 -9.5 51s-15.833 31.5 -28.5 44.5s-28.334 23.333 -47.001 31s-40.334 11.5 -65.001 11.5c-14 0 -28 -1 -42 -3c18 -11.333 33.333 -24 46 -38s22.834 -28.333 30.501 -43s13.334 -29 17.001 -43
s6.16699 -26 7.5 -36l2 -20h-141c0 32.667 -5.83301 61.5 -17.5 86.5s-24.834 46 -39.501 63s-28.5 30.333 -41.5 40l-23.5 17.5h-1c28.667 32.667 63.334 57.5 104.001 74.5s83 25.5 127 25.5h13c42 -3.33301 78.667 -12.333 110 -27s57.5 -33 78.5 -55
s36.833 -46.667 47.5 -74s16 -55.333 16 -84c0 -13.333 -1 -27.333 -3 -42h40v-87h-50v-535z" />
    <glyph glyph-name="vowelsignucomb_beng" unicode="&#x9c1;" 
d="M-256 -279c-28.667 0 -58.999 7.33203 -90.999 21.999c-34 14.667 -53.333 53.334 -58 116.001c0.666992 28 7.16699 53 19.5 75s28.5 40.667 48.5 56s43.167 27 69.5 35s54.166 12 83.499 12l25 -1l-3 36h117l3 -19c1.33301 -7.33301 2 -15.666 2 -24.999v-28
c66 -34.667 117.333 -98.334 154 -191.001l-73 -63l-12 21c-8 14 -19.333 30.833 -34 50.5s-32 39.167 -52 58.5c-6 -21.333 -14 -41.333 -24 -60s-23 -35 -39 -49s-35.167 -25.167 -57.5 -33.5s-48.5 -12.5 -78.5 -12.5zM-252.999 -172.001c4 0 9.5 0.666992 16.5 2
s14.5 5.5 22.5 12.5s16.167 17.667 24.5 32s15.833 34.5 22.5 60.5l-18 1c-12.667 -2 -25 -5.16699 -37 -9.5s-22.833 -9.5 -32.5 -15.5s-17.5 -12.667 -23.5 -20s-9 -15 -9 -23c0 -9.33301 3.16699 -18.333 9.5 -27s14.5 -13 24.5 -13z" />
    <glyph glyph-name="vowelsignuucomb_beng" unicode="&#x9c2;" 
d="M39 -165c-21.333 -18 -42.167 -30.666 -62.5 -37.999s-41.166 -11 -62.499 -11c-26 0 -49.833 4.5 -71.5 13.5s-40.334 20.667 -56.001 35s-27.834 31 -36.501 50s-13 38.5 -13 58.5c0 17.333 3.83301 34.333 11.5 51s17.167 32 28.5 46s23.5 26 36.5 36
s24.833 17 35.5 21c30.667 12 67.667 19 111 21v-117c-2.66699 0.666992 -5.16699 1.16699 -7.5 1.5s-5.16602 0.5 -8.49902 0.5c-22.667 0 -40.667 -6.83301 -54 -20.5s-20 -27.834 -20 -42.501s5.5 -26.167 16.5 -34.5s24.167 -12.5 39.5 -12.5
c19.333 0 35.333 4.83301 48 14.5s21 20.5 25 32.5h116l130 -156l-84 -87z" />
    <glyph glyph-name="vowelsignvocalicrcomb_beng" unicode="&#x9c3;" 
d="M-12 -235l-84 -86l-252 182l182 182l126 -43l-113 -132z" />
    <glyph glyph-name="vowelsigne_beng" unicode="&#x9c7;" horiz-adv-x="267" 
d="M277 622l0.00292969 -87h-16c-56 -73.333 -84 -154.666 -84 -243.999c0 -31.333 3.5 -62.666 10.5 -93.999s19.167 -61 36.5 -89s40.833 -53.5 70.5 -76.5s67.5 -41.833 113.5 -56.5l-56 -141l-25 10c-0.666992 0.666992 -1.33398 1 -2.00098 1l-6 3
c-14 5.33301 -30.833 13.833 -50.5 25.5s-40.334 26.667 -62.001 45s-43.167 40.166 -64.5 65.499s-40.5 54.166 -57.5 86.499s-30.833 68.5 -41.5 108.5s-16 83.667 -16 131c0 36 4.16699 70.833 12.5 104.5s20.166 68.5 35.499 104.5l7 16h-92v87h287z" />
    <glyph glyph-name="vowelsignai_beng" unicode="&#x9c8;" horiz-adv-x="267" 
d="M120 622l14.002 29.998c7.33301 16.667 11 36.667 11 60c0 17.333 -2.83301 35.666 -8.5 54.999s-15.5 38.666 -29.5 57.999l172 -1c0.666992 0 1 -0.666992 1 -2l10 -16c5.33301 -11.333 10.666 -25.166 15.999 -41.499s8 -34.166 8 -53.499
c0 -15.333 -2.33301 -30.833 -7 -46.5s-14.667 -31.167 -30 -46.5v-83h-16c-56 -73.333 -84 -154.666 -84 -243.999c0 -31.333 3.5 -62.666 10.5 -93.999s19.167 -61 36.5 -89s40.833 -53.5 70.5 -76.5s67.5 -41.833 113.5 -56.5l-56 -141l-25 10
c-0.666992 0.666992 -1.33398 1 -2.00098 1l-6 3c-13.333 5.33301 -29.833 13.833 -49.5 25.5s-40.334 26.5 -62.001 44.5s-43.167 39.5 -64.5 64.5s-40.666 53.5 -57.999 85.5s-31.333 67.667 -42 107s-16 82.333 -16 129c0 72 16 143.667 48 215l7 16h-92v87h130z" />
    <glyph glyph-name="vowelsigno_beng" unicode="&#x9cb;" horiz-adv-x="1122" 
d="M277 622l0.00292969 -87h-16c-56 -73.333 -84 -154.666 -84 -243.999c0 -31.333 3.5 -62.666 10.5 -93.999s19.167 -61 36.5 -89s40.833 -53.5 70.5 -76.5s67.5 -41.833 113.5 -56.5l-56 -141l-25 10c-0.666992 0.666992 -1.33398 1 -2.00098 1l-6 3
c-14 5.33301 -30.833 13.833 -50.5 25.5s-40.334 26.667 -62.001 45s-43.167 40.166 -64.5 65.499s-40.5 54.166 -57.5 86.499s-30.833 68.5 -41.5 108.5s-16 83.667 -16 131c0 36 4.16699 70.833 12.5 104.5s20.166 68.5 35.499 104.5l7 16h-92v87h287zM347.003 266
c-11.333 0 -21.166 4 -29.499 12s-12.5 18 -12.5 30c0 12.667 4.16699 22.834 12.5 30.501s18.166 11.5 29.499 11.5c12 0 22 -3.83301 30 -11.5s12 -17.834 12 -30.501c0 -12 -4 -22 -12 -30s-18 -12 -30 -12zM807.003 266c-11.333 0 -21.166 4 -29.499 12
s-12.5 18 -12.5 30c0 12.667 4.16699 22.834 12.5 30.501s18.166 11.5 29.499 11.5s21.166 -3.83301 29.499 -11.5s12.5 -17.834 12.5 -30.501c0 -12 -4.16699 -22 -12.5 -30s-18.166 -12 -29.499 -12zM534.003 538c0 12 4.33301 22.167 13 30.5s18.667 12.5 30 12.5
s21 -4.16699 29 -12.5s12 -18.5 12 -30.5s-4 -22 -12 -30s-17.667 -12 -29 -12s-21.333 4 -30 12s-13 18 -13 30zM534.003 78c0 12 4.33301 22.167 13 30.5s18.667 12.5 30 12.5s21 -4.16699 29 -12.5s12 -18.5 12 -30.5c0 -11.333 -4 -21 -12 -29s-17.667 -12 -29 -12
s-21.333 4 -30 12s-13 17.667 -13 29zM656.003 529c3.33301 6.66699 8.5 11.832 15.5 15.499s14.167 5.5 21.5 5.5c13.333 0 23.333 -4.5 30 -13.5s10 -19.167 10 -30.5c0 -12.667 -4.33301 -22.5 -13 -29.5s-18 -10.5 -28 -10.5c-11.333 0 -21.333 3.83301 -30 11.5
s-13 17.834 -13 30.501c0 7.33301 2.33301 14.333 7 21zM425.003 130.998c4 6 9.5 11 16.5 15s13.833 6 20.5 6c12 0 22 -4.66699 30 -14s12 -19.333 12 -30c0 -12.667 -4.5 -22.667 -13.5 -30s-18.833 -11 -29.5 -11c-13.333 0 -23.5 4.33301 -30.5 13
s-10.5 18.334 -10.5 29.001c0 3.33301 1.66699 10.666 5 21.999zM755.003 458.998c6.66699 4.66699 13.332 7.00098 19.999 7.00098c12 0 22 -3.83301 30 -11.5s12 -17.834 12 -30.501c0 -12 -3.66699 -22 -11 -30s-17.666 -12 -30.999 -12c-10 0 -19.5 3.66699 -28.5 11
s-13.5 18 -13.5 32s7.33301 25.333 22 34zM356.001 229.999c10 3.33301 16.998 4.99902 20.998 4.99902c11.333 0 21.333 -4 30 -12s13 -17.667 13 -29s-4.16699 -21.166 -12.5 -29.499s-18.166 -12.5 -29.499 -12.5s-21.166 4 -29.499 12s-12.5 17.667 -12.5 29
c0 14.667 6.66699 27 20 37zM796.999 229.998c13.333 -9.33301 20.001 -21.3311 20.001 -35.998c0 -12.667 -4 -22.834 -12 -30.501s-18 -11.5 -30 -11.5c-12.667 0 -22.834 4.16699 -30.501 12.5s-11.5 17.833 -11.5 28.5c0 13.333 4.5 23.666 13.5 30.999s18.5 11 28.5 11
c2.66699 0 10 -1.66699 22 -5zM398 459c14.667 -6.66699 22 -18.332 22 -34.999c0 -12.667 -4.33301 -22.834 -13 -30.501s-18.667 -11.5 -30 -11.5s-21 4 -29 12s-12 18.333 -12 31c0 10.667 4.16699 20.167 12.5 28.5s18.166 12.5 29.499 12.5
c8.66699 0 15.334 -2.33301 20.001 -7zM729 131.002c2.66699 -4.66699 4 -11.667 4 -21c0 -10.667 -3.33301 -20.5 -10 -29.5s-16.667 -13.5 -30 -13.5c-10.667 0 -20.667 3.83301 -30 11.5s-14 17.834 -14 30.501c0 10.667 4.16699 20.5 12.5 29.5s18.5 13.5 30.5 13.5
c6.66699 0 13.5 -1.83301 20.5 -5.5s12.5 -8.83398 16.5 -15.501zM499 529.002c3.33301 -11.333 5.00098 -18.002 5.00098 -20.002c0 -11.333 -4 -21.333 -12 -30s-18 -13 -30 -13c-10.667 0 -20.334 3.83301 -29.001 11.5s-13 17.834 -13 30.501
c0 10.667 3.5 20.334 10.5 29.001s17.167 13 30.5 13c16 0 28.667 -7 38 -21zM1082 535v-535h-140v535h-50v87h240v-87h-50z" />
    <glyph glyph-name="vowelsignau_beng" unicode="&#x9cc;" horiz-adv-x="1122" 
d="M277 622l0.00292969 -87h-16c-56 -73.333 -84 -154.666 -84 -243.999c0 -31.333 3.5 -62.666 10.5 -93.999s19.167 -61 36.5 -89s40.833 -53.5 70.5 -76.5s67.5 -41.833 113.5 -56.5l-56 -141l-25 10c-0.666992 0.666992 -1.33398 1 -2.00098 1l-6 3
c-14 5.33301 -30.833 13.833 -50.5 25.5s-40.334 26.667 -62.001 45s-43.167 40.166 -64.5 65.499s-40.5 54.166 -57.5 86.499s-30.833 68.5 -41.5 108.5s-16 83.667 -16 131c0 36 4.16699 70.833 12.5 104.5s20.166 68.5 35.499 104.5l7 16h-92v87h287zM347.003 266
c-11.333 0 -21.166 4 -29.499 12s-12.5 18 -12.5 30c0 12.667 4.16699 22.834 12.5 30.501s18.166 11.5 29.499 11.5c12 0 22 -3.83301 30 -11.5s12 -17.834 12 -30.501c0 -12 -4 -22 -12 -30s-18 -12 -30 -12zM807.003 266c-11.333 0 -21.166 4 -29.499 12
s-12.5 18 -12.5 30c0 12.667 4.16699 22.834 12.5 30.501s18.166 11.5 29.499 11.5s21.166 -3.83301 29.499 -11.5s12.5 -17.834 12.5 -30.501c0 -12 -4.16699 -22 -12.5 -30s-18.166 -12 -29.499 -12zM534.003 538c0 12 4.33301 22.167 13 30.5s18.667 12.5 30 12.5
s21 -4.16699 29 -12.5s12 -18.5 12 -30.5s-4 -22 -12 -30s-17.667 -12 -29 -12s-21.333 4 -30 12s-13 18 -13 30zM534.003 78c0 12 4.33301 22.167 13 30.5s18.667 12.5 30 12.5s21 -4.16699 29 -12.5s12 -18.5 12 -30.5c0 -11.333 -4 -21 -12 -29s-17.667 -12 -29 -12
s-21.333 4 -30 12s-13 17.667 -13 29zM656.003 529c3.33301 6.66699 8.5 11.832 15.5 15.499s14.167 5.5 21.5 5.5c13.333 0 23.333 -4.5 30 -13.5s10 -19.167 10 -30.5c0 -12.667 -4.33301 -22.5 -13 -29.5s-18 -10.5 -28 -10.5c-11.333 0 -21.333 3.83301 -30 11.5
s-13 17.834 -13 30.501c0 7.33301 2.33301 14.333 7 21zM425.003 130.998c4 6 9.5 11 16.5 15s13.833 6 20.5 6c12 0 22 -4.66699 30 -14s12 -19.333 12 -30c0 -12.667 -4.5 -22.667 -13.5 -30s-18.833 -11 -29.5 -11c-13.333 0 -23.5 4.33301 -30.5 13
s-10.5 18.334 -10.5 29.001c0 3.33301 1.66699 10.666 5 21.999zM755.003 458.998c6.66699 4.66699 13.332 7.00098 19.999 7.00098c12 0 22 -3.83301 30 -11.5s12 -17.834 12 -30.501c0 -12 -3.66699 -22 -11 -30s-17.666 -12 -30.999 -12c-10 0 -19.5 3.66699 -28.5 11
s-13.5 18 -13.5 32s7.33301 25.333 22 34zM356.001 229.999c10 3.33301 16.998 4.99902 20.998 4.99902c11.333 0 21.333 -4 30 -12s13 -17.667 13 -29s-4.16699 -21.166 -12.5 -29.499s-18.166 -12.5 -29.499 -12.5s-21.166 4 -29.499 12s-12.5 17.667 -12.5 29
c0 14.667 6.66699 27 20 37zM796.999 229.998c13.333 -9.33301 20.001 -21.3311 20.001 -35.998c0 -12.667 -4 -22.834 -12 -30.501s-18 -11.5 -30 -11.5c-12.667 0 -22.834 4.16699 -30.501 12.5s-11.5 17.833 -11.5 28.5c0 13.333 4.5 23.666 13.5 30.999s18.5 11 28.5 11
c2.66699 0 10 -1.66699 22 -5zM398 459c14.667 -6.66699 22 -18.332 22 -34.999c0 -12.667 -4.33301 -22.834 -13 -30.501s-18.667 -11.5 -30 -11.5s-21 4 -29 12s-12 18.333 -12 31c0 10.667 4.16699 20.167 12.5 28.5s18.166 12.5 29.499 12.5
c8.66699 0 15.334 -2.33301 20.001 -7zM729 131.002c2.66699 -4.66699 4 -11.667 4 -21c0 -10.667 -3.33301 -20.5 -10 -29.5s-16.667 -13.5 -30 -13.5c-10.667 0 -20.667 3.83301 -30 11.5s-14 17.834 -14 30.501c0 10.667 4.16699 20.5 12.5 29.5s18.5 13.5 30.5 13.5
c6.66699 0 13.5 -1.83301 20.5 -5.5s12.5 -8.83398 16.5 -15.501zM499 529.002c3.33301 -11.333 5.00098 -18.002 5.00098 -20.002c0 -11.333 -4 -21.333 -12 -30s-18 -13 -30 -13c-10.667 0 -20.334 3.83301 -29.001 11.5s-13 17.834 -13 30.501
c0 10.667 3.5 20.334 10.5 29.001s17.167 13 30.5 13c16 0 28.667 -7 38 -21zM1082 535l-0.000976562 -534.998h-140v535h-50v87h45c2 4.66699 3 10 3 16c0 32.667 -35.667 72.667 -107 120c-27.333 18 -48 35.833 -62 53.5s-24.5 35.167 -31.5 52.5s-12 34.666 -15 51.999
s-7.5 34.666 -13.5 51.999l94 101c9.33301 -46.667 20.5 -85.167 33.5 -115.5s49.667 -67.833 110 -112.5s99.833 -90 118.5 -136c6.66699 -16 11.334 -30.5 14.001 -43.5s4 -26.167 4 -39.5h47v-87h-50z" />
    <glyph glyph-name="signviramacomb_beng" unicode="&#x9cd;" 
d="M80 -287l-307 115l61 128l277 -159z" />
    <glyph glyph-name="khandata_beng" unicode="&#x9ce;" horiz-adv-x="475" 
d="M336 318c-16 0 -30.999 3.16797 -44.999 9.50098s-26.333 14.666 -37 24.999s-19 22.666 -25 36.999s-9 29.5 -9 45.5c0 26.667 7.33301 49.334 22 68.001l-16 -3c-14 -4.66699 -25.5 -13 -34.5 -25s-13.5 -28.667 -13.5 -50c0.666992 -18 5 -33 13 -45
s18.5 -23.167 31.5 -33.5s28.167 -21.333 45.5 -33s35.666 -25.834 54.999 -42.501c31.333 -27.333 54.333 -57.833 69 -91.5s22 -69.5 22 -107.5c0 -24.667 -4.33301 -46.667 -13 -66h-175l5 16c8 26.667 12 55.334 12 86.001c0 56 -27.667 100 -83 132l-6 3
c-18.667 12 -35 23.333 -49 34s-25.833 22.334 -35.5 35.001s-17 27.167 -22 43.5s-7.5 36.166 -7.5 59.499c0 6.66699 0.666992 16.5 2 29.5s4.16602 27.167 8.49902 42.5s10.833 31 19.5 47s20.5 30.5 35.5 43.5s33.5 23.667 55.5 32s48.667 12.5 80 12.5
c14.667 0 32.334 -1.5 53.001 -4.5s41.167 -9.66699 61.5 -20s38.833 -26 55.5 -47s28.667 -49.5 36 -85.5c2.66699 -6 4 -16 4 -30c0 -16 -3 -31 -9 -45s-14.167 -26.333 -24.5 -37s-22.5 -19.167 -36.5 -25.5s-29 -9.5 -45 -9.5z" />
    <glyph glyph-name="aulength_beng" unicode="&#x9d7;" horiz-adv-x="220" 
d="M180 535l-0.000976562 -534.998h-140v535h-50v87h45c2 4.66699 3 10 3 16c0 32.667 -35.667 72.667 -107 120c-27.333 18 -48 35.833 -62 53.5s-24.5 35.167 -31.5 52.5s-12 34.666 -15 51.999s-7.5 34.666 -13.5 51.999l94 101
c9.33301 -46.667 20.5 -85.167 33.5 -115.5s49.667 -67.833 110 -112.5s99.833 -90 118.5 -136c6.66699 -16 11.334 -30.5 14.001 -43.5s4 -26.167 4 -39.5h47v-87h-50z" />
    <glyph glyph-name="rra_beng" unicode="&#x9dc;" horiz-adv-x="726" 
d="M412 1l-3.99609 -0.000976562c-56.667 3.33301 -105.5 12 -146.5 26s-75.667 31.5 -104 52.5s-51 44.833 -68 71.5s-29.833 54.334 -38.5 83.001s-15.667 55.667 -21 81s-8.66602 49.666 -9.99902 72.999h146v-30c0 -25.333 3.33301 -50.833 10 -76.5
s18.167 -49.167 34.5 -70.5s38.166 -39.333 65.499 -54s61.666 -24 102.999 -28l31 -1c24.667 0 46.667 5.16699 66 15.5s36 22.666 50 36.999s24.833 29.5 32.5 45.5s12.167 29.667 13.5 41l4 17c-6 -3.33301 -14.667 -7.33301 -26 -12s-24.5 -9 -39.5 -13
s-31.333 -7.5 -49 -10.5s-35.834 -4.5 -54.501 -4.5c-3.33301 0 -12 1.16699 -26 3.5s-28.5 7.83301 -43.5 16.5s-28.5 21.334 -40.5 38.001s-18 39 -18 67v166h-289v87h746v-87h-317v-157l31 4c20 2.66699 44.667 7.83398 74 15.501s59 19.5 89 35.5l92 -99l1 -28
c0 -26 -4.66699 -56.5 -14 -91.5s-25.333 -68.333 -48 -100s-52.834 -58.5 -90.501 -80.5s-84.834 -33 -141.501 -33zM347.004 -229.001c-13.333 0 -25.833 2.5 -37.5 7.5s-22 11.833 -31 20.5s-16 18.834 -21 30.501s-7.5 24.5 -7.5 38.5c0 13.333 2.5 25.833 7.5 37.5
s12 21.834 21 30.501s19.333 15.5 31 20.5s24.167 7.5 37.5 7.5s25.833 -2.5 37.5 -7.5s22 -11.833 31 -20.5s16 -18.834 21 -30.501s7.5 -24.167 7.5 -37.5c0 -14 -2.5 -26.833 -7.5 -38.5s-12 -21.834 -21 -30.501s-19.333 -15.5 -31 -20.5s-24.167 -7.5 -37.5 -7.5z" />
    <glyph glyph-name="rha_beng" unicode="&#x9dd;" horiz-adv-x="622" 
d="M179 -4c-6 0 -16.332 0.666992 -30.999 2s-29.667 5.66602 -45 12.999c-16 7.33301 -28.5 15.333 -37.5 24s-15.5 16 -19.5 22l-6 9v469h-50v87h642v-87h-447v-377l34 6c22 4 47.167 11.5 75.5 22.5s53.5 27.167 75.5 48.5c-25.333 27.333 -38 58.333 -38 93
c0 18.667 3.66699 36.334 11 53.001s17.166 31 29.499 43s26.666 21.5 42.999 28.5s33.5 10.5 51.5 10.5c17.333 0 34.333 -3.33301 51 -10s31.334 -16 44.001 -28s22.834 -26.167 30.501 -42.5s11.5 -33.833 11.5 -52.5c0 -36.667 -7.5 -72.167 -22.5 -106.5
s-37.667 -66 -68 -95s-68.333 -54.5 -114 -76.5s-98.834 -38.667 -159.501 -50c-22 -4 -42.333 -6 -61 -6zM300.001 -202c-13.333 0 -25.833 2.5 -37.5 7.5s-22 12 -31 21s-16 19.333 -21 31s-7.5 24.167 -7.5 37.5s2.5 25.833 7.5 37.5s12 22 21 31s19.333 16 31 21
s24.167 7.5 37.5 7.5s25.833 -2.5 37.5 -7.5s22 -12 31 -21s16 -19.333 21 -31s7.5 -24.167 7.5 -37.5s-2.5 -25.833 -7.5 -37.5s-12 -22 -21 -31s-19.333 -16 -31 -21s-24.167 -7.5 -37.5 -7.5z" />
    <glyph glyph-name="yya_beng" unicode="&#x9df;" horiz-adv-x="623" 
d="M583 0h-133.001v2c-18 24 -40.333 45.5 -67 64.5s-55.667 35 -87 48s-64.666 22.833 -99.999 29.5s-71 10 -107 10l-69 141c60.667 4 105.334 15 134.001 33s43 39.667 43 65l-1 3c-3.33301 22 -12.333 41.333 -27 58s-30.834 30.667 -48.501 42s-34.5 20.333 -50.5 27
s-26.667 10.667 -32 12h-48v87h643v-87h-50v-535zM449.999 186v348.999h-178c10.667 -10 21.167 -21 31.5 -33s19.5 -26 27.5 -42l15 -31c3.33301 -6.66699 5.33301 -13.667 6 -21s1 -15 1 -23c0 -6 -0.666992 -13.667 -2 -23s-5 -19.333 -11 -30s-14.667 -21.667 -26 -33
s-27 -22 -47 -32l31 -6c20 -4 44 -12.167 72 -24.5s54.667 -29.166 80 -50.499zM265.999 -118.001c-13.333 0 -25.833 2.5 -37.5 7.5s-22 12 -31 21s-16 19.333 -21 31s-7.5 24.167 -7.5 37.5s2.5 25.833 7.5 37.5s12 22 21 31s19.333 16 31 21s24.167 7.5 37.5 7.5
c14 0 26.833 -2.5 38.5 -7.5s22 -12 31 -21s16 -19.333 21 -31s7.5 -24.167 7.5 -37.5s-2.5 -25.833 -7.5 -37.5s-12 -22 -21 -31s-19.333 -16 -31 -21s-24.5 -7.5 -38.5 -7.5z" />
    <glyph glyph-name="zero_beng" unicode="&#x9e6;" horiz-adv-x="603" 
d="M302 59c-36 0 -69.999 6.16504 -101.999 18.498s-59.833 29 -83.5 50s-42.334 45.833 -56.001 74.5s-20.5 59 -20.5 91c0 32.667 7 63.167 21 91.5s32.833 53 56.5 74s51.334 37.667 83.001 50s65.5 18.5 101.5 18.5c34.667 0 67.834 -6.16699 99.501 -18.5
s59.5 -29 83.5 -50s43 -45.833 57 -74.5s21 -59 21 -91s-6.83301 -62.167 -20.5 -90.5s-32.334 -53.166 -56.001 -74.499s-51.334 -38.166 -83.001 -50.499s-65.5 -18.5 -101.5 -18.5zM302.001 183.998c16.667 0 32.334 2.83398 47.001 8.50098s27.5 13.5 38.5 23.5
s19.667 21.5 26 34.5s9.5 27.167 9.5 42.5c0 14.667 -3.16699 28.5 -9.5 41.5s-15 24.5 -26 34.5s-23.833 17.833 -38.5 23.5s-30.334 8.5 -47.001 8.5c-16 0 -31.333 -2.83301 -46 -8.5s-27.5 -13.334 -38.5 -23.001s-19.833 -21.167 -26.5 -34.5s-10 -27.333 -10 -42
c0 -15.333 3.33301 -29.666 10 -42.999s15.5 -24.833 26.5 -34.5s23.833 -17.334 38.5 -23.001s30 -8.5 46 -8.5z" />
    <glyph glyph-name="one_beng" unicode="&#x9e7;" horiz-adv-x="483" 
d="M245 -11c-14.667 0 -31.4971 2.33105 -50.4971 6.99805s-37.167 12.334 -54.5 23.001s-32 24.5 -44 41.5s-18 37.833 -18 62.5c0 9.33301 2.16699 20.666 6.5 33.999s12.333 26 24 38s27.334 22.333 47.001 31s44.5 13 74.5 13c37.333 0 71.666 -9.66699 102.999 -29
c0.666992 5.33301 1.16699 10.333 1.5 15s0.5 9.33398 0.5 14.001c0 24.667 -4.83301 48.334 -14.5 71.001s-22.834 43.834 -39.501 63.501s-36.334 37.667 -59.001 54s-46.667 30.166 -72 41.499c-14.667 2 -29.667 6 -45 12s-29.166 13.667 -41.499 23
s-22.5 20.666 -30.5 33.999s-12 28 -12 44s2.16699 31.333 6.5 46s9.16602 26.667 14.499 36l7 13l153 -18c-11.333 -11.333 -18.5 -21.5 -21.5 -30.5s-4.5 -16.5 -4.5 -22.5c0 -2.66699 0.833008 -6.16699 2.5 -10.5s4 -8.66602 7 -12.999s6.16699 -8.33301 9.5 -12
s6.66602 -6.16699 9.99902 -7.5l55 -31c60.667 -34.667 108.667 -78 144 -130s53 -108.333 53 -169c0 -38 -7 -72.167 -21 -102.5s-31.5 -56 -52.5 -77s-44 -37 -69 -48s-48.167 -16.5 -69.5 -16.5z" />
    <glyph glyph-name="two_beng" unicode="&#x9e8;" horiz-adv-x="555" 
d="M547 -46l-450 200l-28 144l18 -4c8.66699 -2 18.667 -4 30 -6s22.666 -3.83301 33.999 -5.5s22.166 -3 32.499 -4s18.5 -1.5 24.5 -1.5c14 0 30 1.33301 48 4s34.833 6.83398 50.5 12.501s28.834 12.5 39.501 20.5s16 17 16 27c0 11.333 -5.16699 21.666 -15.5 30.999
s-23.5 17.833 -39.5 25.5s-34 14.5 -54 20.5s-40 11.667 -60 17s-38.5 10.5 -55.5 15.5s-30.833 10.167 -41.5 15.5c-19.333 9.33301 -33.833 22.5 -43.5 39.5s-14.5 36.833 -14.5 59.5c0 6.66699 0.833008 15.834 2.5 27.501s4.83398 23.167 9.50098 34.5l6 16h158
c-14 -20 -21 -36.667 -21 -50c0 -2 0.833008 -5.33301 2.5 -10s4 -9.5 7 -14.5s6.66699 -9.66699 11 -14s9.16602 -6.83301 14.499 -7.5c24.667 -4.66699 51.834 -11.667 81.501 -21s58.167 -22.333 85.5 -39s51.833 -37.5 73.5 -62.5s36.5 -55.5 44.5 -91.5
c0.666992 -3.33301 1.16699 -6.83301 1.5 -10.5s0.5 -7.16699 0.5 -10.5c0 -16.667 -4.16699 -32.834 -12.5 -48.501s-19.166 -30 -32.499 -43s-28.833 -24.5 -46.5 -34.5s-35.834 -18 -54.501 -24l222 -92z" />
    <glyph glyph-name="three_beng" unicode="&#x9e9;" horiz-adv-x="642" 
d="M463 493c25.333 -6.66699 48.0078 -17.834 68.0078 -33.501s36.833 -34.167 50.5 -55.5s24 -45.333 31 -72s10.5 -54.334 10.5 -83.001c-0.666992 -28 -6.33398 -55.5 -17.001 -82.5s-27.167 -51.333 -49.5 -73s-50.833 -39 -85.5 -52s-76.334 -19.5 -125.001 -19.5
c-50 0 -92.167 6.5 -126.5 19.5s-62.833 29.5 -85.5 49.5s-40.334 41.667 -53.001 65s-22 45 -28 65s-9.66699 37.167 -11 51.5s-2 22.166 -2 23.499v284h137v-280c0.666992 0 1.5 -4 2.5 -12s3.16699 -18.167 6.5 -30.5s8.66602 -25.5 15.999 -39.5
s17.666 -27.167 30.999 -39.5s30.166 -22.5 50.499 -30.5s45.5 -12 75.5 -12c30.667 0 55.167 3.83301 73.5 11.5s32.166 17.5 41.499 29.5s15.333 25.167 18 39.5s4 28.166 4 41.499c0 20.667 -1.33301 35 -4 43c-26.667 -38.667 -63.334 -58 -110.001 -58
c-18 0 -35.5 3.16699 -52.5 9.5s-32 15.333 -45 27s-23.667 25.334 -32 41.001s-12.833 32.834 -13.5 51.501c0.666992 20 5.5 38 14.5 54s20.667 29.333 35 40s31 18.834 50 24.501s38.5 8.5 58.5 8.5c17.333 0 32.5 -1.16699 45.5 -3.5s19.833 -3.16602 20.5 -2.49902z
" />
    <glyph glyph-name="four_beng" unicode="&#x9ea;" horiz-adv-x="620" 
d="M392 389c34 12 51 30 51 54v2c0 23.333 -17 41.666 -51 54.999l-73 23l-74 -23c-33.333 -13.333 -50 -31.666 -50 -54.999v-2c0 -24.667 16.667 -42.667 50 -54l74 -25zM392 123c34 12.667 51 30.667 51 54v2c0 24 -17 42.667 -51 56l-73 23l-74 -23
c-33.333 -13.333 -50 -32 -50 -56v-2c0 -22.667 16.667 -40.667 50 -54l74 -24zM170 311l-26 8c-71.333 28 -107 67 -107 117v15c0 50 35.667 89 107 117l175 55l174 -55c72 -28 108 -67 108 -117v-15c0 -50 -36 -89 -108 -117l-26 -8l26 -8c72 -28 108 -67 108 -117v-15
c0 -50 -36 -89 -108 -117l-174 -55l-175 55c-71.333 28 -107 67 -107 117v15c0 50 35.667 89 107 117z" />
    <glyph glyph-name="five_beng" unicode="&#x9eb;" horiz-adv-x="680" 
d="M395 4c-63.333 0 -117.498 8.83301 -162.498 26.5s-81.833 42.334 -110.5 74.001s-49.5 69.334 -62.5 113.001s-19.5 91.834 -19.5 144.501c0 66.667 9 140 27 220h163c-0.666992 -4 -3.33398 -13.167 -8.00098 -27.5s-10.334 -33.5 -17.001 -57.5h6
c58 0 109.333 15.333 154 46l10 37h155l-68 -246c0 -1.33301 0.5 -2.5 1.5 -3.5s4.16699 -1.5 9.5 -1.5s11.5 0.666992 18.5 2s15.167 4 24.5 8l40 16l102 -86c0.666992 -4.66699 1.16699 -9.33398 1.5 -14.001s0.5 -9.66699 0.5 -15c0 -31.333 -5.5 -61.333 -16.5 -90
s-27.5 -53.834 -49.5 -75.501s-49.667 -38.834 -83 -51.501s-72 -19 -116 -19zM412.002 135c36 0 62.1641 8.00098 78.4971 24.001s24.5 37.333 24.5 64l-1 3l-12 -6c-5.33301 -2 -11.5 -4.5 -18.5 -7.5s-14.167 -4.83301 -21.5 -5.5l-14 -1
c-1.33301 0 -2.66602 -0.166992 -3.99902 -0.5s-2.66602 -0.5 -3.99902 -0.5s-9 1.83301 -23 5.5s-29.167 10 -45.5 19s-31.333 21.333 -45 37s-20.5 35.5 -20.5 59.5l20 74c-22 -8 -46.333 -12 -73 -12c-23.333 0 -45.666 2.33301 -66.999 7
c-0.666992 -6.66699 -1.16699 -13.334 -1.5 -20.001s-0.5 -13.334 -0.5 -20.001c0 -18 1.66699 -39.167 5 -63.5s12.166 -47.666 26.499 -69.999s36.333 -41.833 66 -58.5s70.834 -26 123.501 -28h7z" />
    <glyph glyph-name="six_beng" unicode="&#x9ec;" horiz-adv-x="775" 
d="M476 6h-5.00098c-62.667 2.66699 -116.5 11.834 -161.5 27.501s-83.167 36.167 -114.5 61.5s-56.666 54.666 -75.999 87.999s-34.5 69.166 -45.5 107.499s-18.833 78.333 -23.5 120s-8 83.5 -10 125.5h163l-1 -52c0 -52 5 -100.5 15 -145.5s25.833 -83.833 47.5 -116.5
s49 -58.334 82 -77.001s72.5 -28 118.5 -28c42 0 73.833 8.5 95.5 25.5s32.5 41.5 32.5 73.5c0 10.667 -0.666992 19.5 -2 26.5s-2.33301 10.833 -3 11.5l-15 -7c-12 -5.33301 -25.5 -11 -40.5 -17s-32.5 -9.66699 -52.5 -11l-15 -1h-6c-10.667 0 -23.5 2 -38.5 6
s-29.333 10.5 -43 19.5s-25.334 20.5 -35.001 34.5s-14.5 30.667 -14.5 50v284h156v-276l37 9c12.667 3.33301 28 8 46 14s39 14 63 24l102 -86c2 -15.333 3 -30.666 3 -45.999c0 -11.333 -0.666992 -25.166 -2 -41.499s-4.66602 -33.5 -9.99902 -51.5s-13.333 -36 -24 -54
s-25.667 -34.333 -45 -49s-43.5 -26.5 -72.5 -35.5s-64.167 -13.5 -105.5 -13.5z" />
    <glyph glyph-name="seven_beng" unicode="&#x9ed;" horiz-adv-x="604" 
d="M611 -47h-22.999c-14.667 0 -30.5 2 -47.5 6s-32.833 11.167 -47.5 21.5s-27.334 24.166 -38.001 41.499s-17 39.333 -19 66v158c-42 -19.333 -86.667 -29 -134 -29c-36 0 -70 5.33301 -102 16s-59.833 25.334 -83.5 44.001s-42.334 40.5 -56.001 65.5
s-20.5 51.833 -20.5 80.5s7 55.5 21 80.5s32.833 46.833 56.5 65.5s51.334 33.334 83.001 44.001s65.5 16 101.5 16c35.333 0 69 -5.33301 101 -16s60 -25.334 84 -44.001s43 -40.5 57 -65.5s21 -51.833 21 -80.5v-10c0 -4 -0.333008 -7 -1 -9v-320
c0 -17.333 15.667 -26 47 -26v-105zM302.001 328c16.667 0 32.499 2.50195 47.499 7.50195s28 11.833 39 20.5s19.667 18.667 26 30s9.5 23.666 9.5 36.999s-3.16699 25.833 -9.5 37.5s-15 21.667 -26 30s-24 15 -39 20s-30.833 7.5 -47.5 7.5
c-16 0 -31.167 -2.33301 -45.5 -7s-27.166 -11.334 -38.499 -20.001s-20.333 -18.667 -27 -30s-10 -24 -10 -38c0 -13.333 3.33301 -25.833 10 -37.5s15.5 -21.667 26.5 -30s23.833 -15 38.5 -20s30 -7.5 46 -7.5z" />
    <glyph glyph-name="eight_beng" unicode="&#x9ee;" horiz-adv-x="684" 
d="M301 0c-36 0 -69.835 5.33398 -101.502 16.001s-59.5 25.167 -83.5 43.5s-42.833 40 -56.5 65s-20.5 51.833 -20.5 80.5l1 290c-1.33301 5.33301 -5.16602 10 -11.499 14s-18.166 6.66699 -35.499 8v104l17 1c48 0 85.167 -11.667 111.5 -35s41.833 -57 46.5 -101v-104
c42 19.333 86.333 29 133 29c12 0 24 -0.666992 36 -2s24.333 -3.33301 37 -6l237 131l53 -84l-177 -99c51.333 -40 77 -88.667 77 -146c0 -28 -7 -54.5 -21 -79.5s-32.833 -46.833 -56.5 -65.5s-51.5 -33.334 -83.5 -44.001s-66 -16 -102 -16zM300.998 110.001
c16.667 0 32.5 2.5 47.5 7.5s28 11.833 39 20.5s19.667 18.667 26 30s9.5 23.666 9.5 36.999s-3.16699 25.833 -9.5 37.5s-15 21.834 -26 30.501s-24 15.5 -39 20.5s-30.833 7.5 -47.5 7.5c-16 0 -31.333 -2.5 -46 -7.5s-27.5 -11.667 -38.5 -20s-19.833 -18.333 -26.5 -30
s-10 -24.5 -10 -38.5c0 -13.333 3.33301 -25.833 10 -37.5s15.5 -21.667 26.5 -30s23.833 -15 38.5 -20s30 -7.5 46 -7.5z" />
    <glyph glyph-name="nine_beng" unicode="&#x9ef;" horiz-adv-x="677" 
d="M482 -14l-137 44.9961c10 9.33301 17 18.333 21 27s6 18.334 6 29.001c0 4.66699 -0.833008 12 -2.5 22s-6.5 21 -14.5 33c-36 -38.667 -83.333 -58 -142 -58c-24 0 -46.5 3.5 -67.5 10.5s-39.333 16.667 -55 29s-28 26.666 -37 42.999s-13.5 33.833 -13.5 52.5
s4.66699 36.334 14 53.001s21.833 31.167 37.5 43.5s34 22 55 29s43.167 10.5 66.5 10.5c45.333 0 84.166 -5.83301 116.499 -17.5s59.333 -26.5 81 -44.5s38.334 -38.167 50.001 -60.5s19.5 -44.166 23.5 -65.499c23.333 35.333 35 67.333 35 96c0 14 -5 30.333 -15 49
s-26.333 37.667 -49 57s-52.667 38.333 -90 57s-83.333 35.334 -138 50.001c-44 4.66699 -77.5 16.334 -100.5 35.001s-35.167 40 -36.5 64l-1 21c-0.666992 9.33301 0.333008 20 3 32s5.66699 23 9 33l5 14h158c-13.333 -19.333 -20 -35.333 -20 -48
c0 -13.333 4.33301 -23.833 13 -31.5s20.167 -14.167 34.5 -19.5s31 -10.333 50 -15s39.167 -10.667 60.5 -18c88 -32 152.667 -73.833 194 -125.5s62 -113.5 62 -185.5c0 -15.333 -2.5 -36 -7.5 -62s-16.5 -52 -34.5 -78c-18.667 -26 -38.167 -46.5 -58.5 -61.5
s-37.833 -26.167 -52.5 -33.5z" />
    <glyph glyph-name="ramiddlediagonal_beng" unicode="&#x9f0;" horiz-adv-x="620" 
d="M440 237c-24.667 15.333 -51.333 28.167 -80 38.5s-60 17.833 -94 22.5l-51 -15c44 -2.66699 83 -10 117 -22s63.667 -25.667 89 -41l19 -13v30zM351.001 322.001c14.667 -2 29.333 -4.66699 44 -8s29.667 -7.33301 45 -12v45zM440 535.001h-450v87h640v-87h-50v-535
h-140v33c-26 18 -53.5 34 -82.5 48s-58 26 -87 36s-56.833 18.333 -83.5 25s-50.667 11.667 -72 15l-75 12v210l400 112v44z" />
    <glyph glyph-name="ralowerdiagonal_beng" unicode="&#x9f1;" horiz-adv-x="620" 
d="M440 535h-450v87h640v-87h-50v-535h-140v33c-26 18 -53.5 34 -82.5 48s-58 26 -87 36s-56.833 18.333 -83.5 25s-50.667 11.667 -72 15l-75 12v210l400 112v44zM440 207v140l-225 -64c44 -2.66699 83 -10 117 -22s63.667 -25.667 89 -41zM411 -91
c-94 73.333 -213.668 122 -359.001 146v63c152.667 -12 272.334 -51.333 359.001 -118v-91z" />
    <glyph glyph-name="rupeesign_beng" unicode="&#x9f3;" horiz-adv-x="630" 
d="M402 230l-2.00098 2c-23.333 23.333 -35 51.666 -35 84.999c0 16.667 3.16699 32.334 9.5 47.001s15 27.5 26 38.5s23.833 19.667 38.5 26s30 9.5 46 9.5c16.667 0 32.5 -3.16699 47.5 -9.5s28 -15 39 -26s19.667 -24 26 -39s9.5 -31.167 9.5 -48.5
c0 -12 -2 -26.833 -6 -44.5s-9.83301 -36 -17.5 -55s-16.667 -38 -27 -57s-21.833 -35.833 -34.5 -50.5c-8.66699 -10 -20.5 -20 -35.5 -30s-32.333 -19.333 -52 -28s-41.167 -15.667 -64.5 -21s-47.666 -8 -72.999 -8c-19.333 0 -36.166 1.83301 -50.499 5.5
s-26.5 8.33398 -36.5 14.001s-18.167 11.5 -24.5 17.5s-10.833 11.333 -13.5 16l-4 5c-1.33301 1.33301 -2 2.33301 -2 3v293h-36v78h36v9h4v4c0 5.33301 -0.666992 11.5 -2 18.5s-3.83301 13.833 -7.5 20.5s-9 12.167 -16 16.5s-16.5 6.5 -28.5 6.5
c-17.333 0 -39 -4 -65 -12l-35 97c25.333 7.33301 48 11.666 68 12.999s36 2 48 2c34.667 0 62.834 -5.33301 84.501 -16s38.667 -23.667 51 -39s20.666 -32 24.999 -50s6.5 -34.333 6.5 -49v-11c0 -6 -0.333008 -9.33301 -1 -10h39v-78h-40v-210l17 5
c11.333 3.33301 24.666 9 39.999 17s30 20.667 44 38z" />
    <glyph glyph-name="zwnj" unicode="&#x200c;" 
 />
    <glyph glyph-name="zwj" unicode="&#x200d;" 
 />
    <glyph glyph-name="endash" unicode="&#x2013;" horiz-adv-x="502" 
d="M427 252h-385l32 126h386z" />
    <glyph glyph-name="emdash" unicode="&#x2014;" horiz-adv-x="589" 
d="M514 252h-472l32 126h473z" />
    <glyph glyph-name="quoteleft" unicode="&#x2018;" horiz-adv-x="270" 
d="M172 727l76.998 -58.001c-21.333 -14 -38 -25.5 -50 -34.5s-21.333 -16.5 -28 -22.5s-11 -11.333 -13 -16s-3.66699 -10 -5 -16c16.667 -5.33301 31.834 -17.333 45.501 -36s20.5 -40.334 20.5 -65.001c0 -22 -7 -41.667 -21 -59s-33 -26 -57 -26
c-30 0 -54.333 12.167 -73 36.5s-28 54.833 -28 91.5c0 13.333 1.83301 27.833 5.5 43.5s10.334 32.334 20.001 50.001s23 35.834 40 54.501s39.167 37.667 66.5 57z" />
    <glyph glyph-name="quoteright" unicode="&#x2019;" horiz-adv-x="268" 
d="M149 406l-87.999 37.002c17.333 19.333 30.833 34.833 40.5 46.5s16.667 21.167 21 28.5s7 13.5 8 18.5s1.5 10.5 1.5 16.5c-10.667 0.666992 -21.334 4 -32.001 10s-20.5 13.667 -29.5 23s-16.333 20.166 -22 32.499s-8.5 25.5 -8.5 39.5c0 20 6.83301 38.333 20.5 55
s33.167 25 58.5 25c18 0 34 -4.66699 48 -14s25.833 -21 35.5 -35s17 -29.333 22 -46s7.5 -32.334 7.5 -47.001c0 -26 -5.33301 -54.167 -16 -84.5s-33 -65.5 -67 -105.5z" />
    <glyph glyph-name="quotedblleft" unicode="&#x201c;" horiz-adv-x="481" 
d="M172 727l76.998 -58.001c-21.333 -14 -38 -25.5 -50 -34.5s-21.333 -16.5 -28 -22.5s-11 -11.333 -13 -16s-3.66699 -10 -5 -16c16.667 -5.33301 31.834 -17.333 45.501 -36s20.5 -40.334 20.5 -65.001c0 -22 -7 -41.667 -21 -59s-33 -26 -57 -26
c-30 0 -54.333 12.167 -73 36.5s-28 54.833 -28 91.5c0 13.333 1.83301 27.833 5.5 43.5s10.334 32.334 20.001 50.001s23 35.834 40 54.501s39.167 37.667 66.5 57zM381.998 726.999l76.998 -58.001c-21.333 -14 -38 -25.5 -50 -34.5s-21.333 -16.5 -28 -22.5
s-11 -11.333 -13 -16s-3.66699 -10 -5 -16c16.667 -5.33301 31.834 -17.333 45.501 -36s20.5 -40.334 20.5 -65.001c0 -22 -7 -41.667 -21 -59s-33 -26 -57 -26c-30 0 -54.333 12.167 -73 36.5s-28 54.833 -28 91.5c0 13.333 1.83301 27.833 5.5 43.5
s10.334 32.334 20.001 50.001s23 35.834 40 54.501s39.167 37.667 66.5 57z" />
    <glyph glyph-name="quotedblright" unicode="&#x201d;" horiz-adv-x="487" 
d="M149 406l-87.999 37.002c17.333 19.333 30.833 34.833 40.5 46.5s16.667 21.167 21 28.5s7 13.5 8 18.5s1.5 10.5 1.5 16.5c-10.667 0.666992 -21.334 4 -32.001 10s-20.5 13.667 -29.5 23s-16.333 20.166 -22 32.499s-8.5 25.5 -8.5 39.5c0 20 6.83301 38.333 20.5 55
s33.167 25 58.5 25c18 0 34 -4.66699 48 -14s25.833 -21 35.5 -35s17 -29.333 22 -46s7.5 -32.334 7.5 -47.001c0 -26 -5.33301 -54.167 -16 -84.5s-33 -65.5 -67 -105.5zM364.001 406.002l-87.999 37.002c17.333 19.333 30.833 34.833 40.5 46.5s16.667 21.167 21 28.5
s7 13.5 8 18.5s1.5 10.5 1.5 16.5c-10.667 0.666992 -21.334 4 -32.001 10s-20.5 13.667 -29.5 23s-16.333 20.166 -22 32.499s-8.5 25.5 -8.5 39.5c0 20 6.83301 38.333 20.5 55s33.167 25 58.5 25c18 0 34 -4.66699 48 -14s25.833 -21 35.5 -35s17 -29.333 22 -46
s7.5 -32.334 7.5 -47.001c0 -26 -5.33301 -54.167 -16 -84.5s-33 -65.5 -67 -105.5z" />
    <glyph glyph-name="indianrupeesign" unicode="&#x20b9;" horiz-adv-x="695" 
d="M402 530l-27.999 4.99902h-327v87h612v-87h-77c6.66699 -22 10.667 -46.667 12 -74h65v-87h-75c-12 -40 -32 -72.833 -60 -98.5s-58.333 -45.167 -91 -58.5l239 -69l-53 -146l-535 162l-33 168h1c1.33301 0 3.66602 -0.166992 6.99902 -0.5s7.66602 -1.83301 12.999 -4.5
h1c8.66699 -2 19.5 -4.33301 32.5 -7s26.167 -5.16699 39.5 -7.5s26.5 -4.33301 39.5 -6s24.5 -2.5 34.5 -2.5c8 0 12.333 0.333008 13 1h3c3.33301 1.33301 9.66602 2.33301 18.999 3h1c8.66699 0.666992 19.834 2.33398 33.501 5.00098s27.834 6.5 42.501 11.5
s29.167 11.5 43.5 19.5s27.166 18 38.499 30h-366v87h404v9c-0.666992 18 -5.66699 31.5 -15 40.5s-20.666 15.5 -33.999 19.5z" />
    <glyph glyph-name="dottedcircle" unicode="&#x25cc;" horiz-adv-x="635" 
d="M80 266c-11.333 0 -21.166 4 -29.499 12s-12.5 18 -12.5 30c0 12.667 4.16699 22.834 12.5 30.501s18.166 11.5 29.499 11.5c12 0 22 -3.83301 30 -11.5s12 -17.834 12 -30.501c0 -12 -4 -22 -12 -30s-18 -12 -30 -12zM540 266c-11.333 0 -21.166 4 -29.499 12
s-12.5 18 -12.5 30c0 12.667 4.16699 22.834 12.5 30.501s18.166 11.5 29.499 11.5s21.166 -3.83301 29.499 -11.5s12.5 -17.834 12.5 -30.501c0 -12 -4.16699 -22 -12.5 -30s-18.166 -12 -29.499 -12zM267 538c0 12 4.33301 22.167 13 30.5s18.667 12.5 30 12.5
s21 -4.16699 29 -12.5s12 -18.5 12 -30.5s-4 -22 -12 -30s-17.667 -12 -29 -12s-21.333 4 -30 12s-13 18 -13 30zM267 78c0 12 4.33301 22.167 13 30.5s18.667 12.5 30 12.5s21 -4.16699 29 -12.5s12 -18.5 12 -30.5c0 -11.333 -4 -21 -12 -29s-17.667 -12 -29 -12
s-21.333 4 -30 12s-13 17.667 -13 29zM389 529c3.33301 6.66699 8.5 11.832 15.5 15.499s14.167 5.5 21.5 5.5c13.333 0 23.333 -4.5 30 -13.5s10 -19.167 10 -30.5c0 -12.667 -4.33301 -22.5 -13 -29.5s-18 -10.5 -28 -10.5c-11.333 0 -21.333 3.83301 -30 11.5
s-13 17.834 -13 30.501c0 7.33301 2.33301 14.333 7 21zM158 130.998c4 6 9.5 11 16.5 15s13.833 6 20.5 6c12 0 22 -4.66699 30 -14s12 -19.333 12 -30c0 -12.667 -4.5 -22.667 -13.5 -30s-18.833 -11 -29.5 -11c-13.333 0 -23.5 4.33301 -30.5 13
s-10.5 18.334 -10.5 29.001c0 3.33301 1.66699 10.666 5 21.999zM488 458.998c6.66699 4.66699 13.332 7.00098 19.999 7.00098c12 0 22 -3.83301 30 -11.5s12 -17.834 12 -30.501c0 -12 -3.66699 -22 -11 -30s-17.666 -12 -30.999 -12c-10 0 -19.5 3.66699 -28.5 11
s-13.5 18 -13.5 32s7.33301 25.333 22 34zM88.998 229.999c10 3.33301 16.998 4.99902 20.998 4.99902c11.333 0 21.333 -4 30 -12s13 -17.667 13 -29s-4.16699 -21.166 -12.5 -29.499s-18.166 -12.5 -29.499 -12.5s-21.166 4 -29.499 12s-12.5 17.667 -12.5 29
c0 14.667 6.66699 27 20 37zM529.996 229.998c13.333 -9.33301 20.001 -21.3311 20.001 -35.998c0 -12.667 -4 -22.834 -12 -30.501s-18 -11.5 -30 -11.5c-12.667 0 -22.834 4.16699 -30.501 12.5s-11.5 17.833 -11.5 28.5c0 13.333 4.5 23.666 13.5 30.999s18.5 11 28.5 11
c2.66699 0 10 -1.66699 22 -5zM130.997 459c14.667 -6.66699 22 -18.332 22 -34.999c0 -12.667 -4.33301 -22.834 -13 -30.501s-18.667 -11.5 -30 -11.5s-21 4 -29 12s-12 18.333 -12 31c0 10.667 4.16699 20.167 12.5 28.5s18.166 12.5 29.499 12.5
c8.66699 0 15.334 -2.33301 20.001 -7zM461.997 131.002c2.66699 -4.66699 4 -11.667 4 -21c0 -10.667 -3.33301 -20.5 -10 -29.5s-16.667 -13.5 -30 -13.5c-10.667 0 -20.667 3.83301 -30 11.5s-14 17.834 -14 30.501c0 10.667 4.16699 20.5 12.5 29.5s18.5 13.5 30.5 13.5
c6.66699 0 13.5 -1.83301 20.5 -5.5s12.5 -8.83398 16.5 -15.501zM231.997 529.002c3.33301 -11.333 5.00098 -18.002 5.00098 -20.002c0 -11.333 -4 -21.333 -12 -30s-18 -13 -30 -13c-10.667 0 -20.334 3.83301 -29.001 11.5s-13 17.834 -13 30.501
c0 10.667 3.5 20.334 10.5 29.001s17.167 13 30.5 13c16 0 28.667 -7 38 -21z" />
    <glyph glyph-name="nonmarkingreturn" 
 />
    <glyph glyph-name="ekar_initial_bn" horiz-adv-x="267" 
d="M97 569l21.0029 53h159v-87h-16c-56 -73.333 -84 -154.666 -84 -243.999c0 -31.333 3.5 -62.666 10.5 -93.999s19.167 -61 36.5 -89s40.833 -53.5 70.5 -76.5s67.5 -41.833 113.5 -56.5l-56 -141l-25 10c-0.666992 0.666992 -1.33398 1 -2.00098 1l-6 3
c-14 5.33301 -30.833 13.833 -50.5 25.5s-40.334 26.667 -62.001 45s-43.167 40.166 -64.5 65.499s-40.5 54.166 -57.5 86.499s-30.833 68.5 -41.5 108.5s-16 83.667 -16 131c0 34.667 4.16699 69.167 12.5 103.5s20.166 69.5 35.499 105.5z" />
    <glyph glyph-name="oikar_initial_bn" horiz-adv-x="267" 
d="M261 535c-56 -73.333 -83.9971 -154.664 -83.9971 -243.997c0 -31.333 3.5 -62.666 10.5 -93.999s19.167 -61 36.5 -89s40.833 -53.5 70.5 -76.5s67.5 -41.833 113.5 -56.5l-56 -141l-25 10c-0.666992 0.666992 -1.33398 1 -2.00098 1l-6 3
c-14 5.33301 -30.833 13.833 -50.5 25.5s-40.334 26.667 -62.001 45s-43.167 40.166 -64.5 65.499s-40.5 54.166 -57.5 86.499s-30.833 68.5 -41.5 108.5s-16 83.667 -16 131c0 36 4 70.833 12 104.5s20 68.5 36 104.5l59 133c7.33301 16.667 11 36.667 11 60
c0 17.333 -2.83301 35.666 -8.5 54.999s-15.5 38.666 -29.5 57.999l172 -1c0.666992 0 1 -0.666992 1 -2l10 -16c5.33301 -12 10.666 -26.5 15.999 -43.5s8 -35.833 8 -56.5c0 -28.667 -9.66699 -56.667 -29 -84h-8v-87h-16z" />
    <glyph glyph-name="k_ko_bn" horiz-adv-x="873" 
d="M582 237l10.9971 -0.00488281c28.667 0 54.167 -4.83301 76.5 -14.5s41.166 -22.334 56.499 -38.001s27.166 -33.167 35.499 -52.5s12.5 -38.666 12.5 -57.999c0 -14 -2.66699 -27.167 -8 -39.5s-12.666 -23.166 -21.999 -32.499s-20.333 -16.666 -33 -21.999
s-26.334 -8 -41.001 -8c-19.333 0 -35.333 6.83301 -48 20.5s-19 28.834 -19 45.501c0 17.333 4.66699 32.5 14 45.5s21.666 19.5 36.999 19.5c11.333 0 19.333 -2.33301 24 -7c0 2.66699 -1.66699 6.33398 -5 11.001s-8.16602 9.5 -14.499 14.5s-14.166 9.5 -23.499 13.5
s-20 6.66699 -32 8h-11c-6 0 -9.33301 -0.333008 -10 -1v-252h-140v14c-18 12.667 -37.667 23.834 -59 33.501s-42.666 18 -63.999 25s-42.166 12.833 -62.499 17.5s-38.5 8.33398 -54.5 11.001l-54 8v146l148 37c-25.333 10.667 -52.5 19.167 -81.5 25.5s-56 11.333 -81 15
s-46.167 6.16699 -63.5 7.5s-27 2.33301 -29 3l-1 175l402 88v39h-452v87h893v-87h-301v-20c1.33301 0.666992 4.33301 1 9 1h28c36.667 0 69.667 -5.16699 99 -15.5s54 -23.833 74 -40.5s35.333 -35.5 46 -56.5s16 -42.167 16 -63.5c0 -16 -3.83301 -31.5 -11.5 -46.5
s-17.834 -28.5 -30.501 -40.5s-27.334 -21.5 -44.001 -28.5s-33.667 -10.5 -51 -10.5c-15.333 0 -29.166 2.66699 -41.499 8s-23.166 12.5 -32.499 21.5s-16.5 19 -21.5 30s-7.5 22.5 -7.5 34.5c0 9.33301 1.83301 18.333 5.5 27s8.33398 16.167 14.001 22.5
s12.167 11.5 19.5 15.5s15 6 23 6c11.333 0 22.333 -1.83301 33 -5.5s18.667 -7.83398 24 -12.501c0 0.666992 -0.666992 1.66699 -2 3l-3 4c-5.33301 7.33301 -16.666 15.5 -33.999 24.5s-43.333 14.167 -78 15.5c-5.33301 0 -10.833 -0.166992 -16.5 -0.5
s-11.5 -0.833008 -17.5 -1.5v-169zM209.997 324.995c110.667 -20.667 188 -45.667 232 -75v126zM401.997 50.9951l21.5 -9.5c7 -3 13.167 -6.16699 18.5 -9.5v87l-170 -41c54.667 -4.66699 98 -13.667 130 -27z" />
    <glyph glyph-name="k_tto_bn" horiz-adv-x="847" 
d="M338 167c-19.333 12 -39.6631 22.833 -60.9961 32.5s-42.5 18 -63.5 25s-41.333 13 -61 18s-37.167 8.83301 -52.5 11.5l-9 1c-0.666992 0.666992 -1.33398 1 -2.00098 1l-48 8v170l297 73v28h-348v87h651c2 10 3 19.333 3 28c0 19.333 -6 35.333 -18 48
s-30.333 19 -55 19c-27.333 0 -56 -6.33301 -86 -19c-30.667 -12.667 -59.834 -21.834 -87.501 -27.501s-53.834 -8.5 -78.501 -8.5c-46.667 0 -84 3.66699 -112 11l-23 137c25.333 -7.33301 49.333 -12.5 72 -15.5s44 -4.5 64 -4.5c25.333 0 48.666 2 69.999 6
s41.666 8.66699 60.999 14l39 9c22.667 4 42.5 6.83301 59.5 8.5s31.5 2.5 43.5 2.5c38 0 69.167 -5.83301 93.5 -17.5s43.5 -26.167 57.5 -43.5s23.667 -36.166 29 -56.499s8 -38.833 8 -55.5c0 -6.66699 -0.166992 -12.834 -0.5 -18.501s-0.833008 -11.167 -1.5 -16.5h78
v-87h-396v-11c5.33301 0.666992 10.666 1.16699 15.999 1.5s10.666 0.5 15.999 0.5c28.667 0 54.334 -5 77.001 -15s41.667 -23 57 -39s27 -33.667 35 -53s12 -38.333 12 -57c0 -14 -2.66699 -27.167 -8 -39.5s-12.666 -23.166 -21.999 -32.499s-20.5 -16.833 -33.5 -22.5
s-26.833 -8.5 -41.5 -8.5c-19.333 0 -35.5 6.66699 -48.5 20s-19.5 28.666 -19.5 45.999c0 19.333 5.16699 35.166 15.5 47.499s22.166 18.5 35.499 18.5c10.667 0 18.667 -2 24 -6l-3 6c-4 6 -12.167 13.333 -24.5 22s-30.166 13 -53.499 13c-4 0 -8.83301 -0.5 -14.5 -1.5
l-19.5 -3.5v-357h26c8.66699 0 18.5 0.666992 29.5 2s22.5 3.83301 34.5 7.5s23.667 8.5 35 14.5s21.666 13.667 30.999 23c-6.66699 6 -13 13.333 -19 22s-9 20.667 -9 36c0 16 3.16699 31.167 9.5 45.5s14.833 26.833 25.5 37.5s23.167 19 37.5 25s29.5 9 45.5 9
c16.667 0 32.334 -3.33301 47.001 -10s27.5 -15.667 38.5 -27s19.667 -24.666 26 -39.999s9.5 -32 9.5 -50c0 -33.333 -9 -63.166 -27 -89.499s-42.167 -49.5 -72.5 -69.5s-65 -36.333 -104 -49s-79.5 -21.667 -121.5 -27c-6 -0.666992 -11.667 -1.16699 -17 -1.5
s-10.666 -0.5 -15.999 -0.5c-26 0 -47.5 2.83301 -64.5 8.5s-30.5 12.167 -40.5 19.5s-17 14.333 -21 21s-6 10.667 -6 12v184zM338.003 395l-164 -41c25.333 -3.33301 49.333 -7.33301 72 -12s42.667 -12 60 -22l32 -18v93z" />
    <glyph glyph-name="k_tt_ro_bn" horiz-adv-x="847" 
d="M338 167c-19.333 12 -39.6602 22.8311 -60.9932 32.498s-42.5 18 -63.5 25s-41.333 13 -61 18s-37.167 8.83301 -52.5 11.5l-9 1c-0.666992 0.666992 -1.33398 1 -2.00098 1l-48 8v170l297 73v28h-348v87h651c2 10 3 19.333 3 28c0 19.333 -6 35.333 -18 48
s-30.333 19 -55 19c-27.333 0 -56 -6.33301 -86 -19c-30.667 -12.667 -59.834 -21.834 -87.501 -27.501s-53.834 -8.5 -78.501 -8.5c-46.667 0 -84 3.66699 -112 11l-23 137c25.333 -7.33301 49.333 -12.5 72 -15.5s44 -4.5 64 -4.5c25.333 0 48.666 2 69.999 6
s41.666 8.66699 60.999 14l39 9c22.667 4 42.5 6.83301 59.5 8.5s31.5 2.5 43.5 2.5c38 0 69.167 -5.83301 93.5 -17.5s43.5 -26.167 57.5 -43.5s23.667 -36.166 29 -56.499s8 -38.833 8 -55.5c0 -6.66699 -0.166992 -12.834 -0.5 -18.501s-0.833008 -11.167 -1.5 -16.5h78
v-87h-396v-11c5.33301 0.666992 10.666 1.16699 15.999 1.5s10.666 0.5 15.999 0.5c28.667 0 54.334 -5 77.001 -15s41.667 -23 57 -39s27 -33.667 35 -53s12 -38.333 12 -57c0 -14 -2.66699 -27.167 -8 -39.5s-12.666 -23.166 -21.999 -32.499s-20.5 -16.833 -33.5 -22.5
s-26.833 -8.5 -41.5 -8.5c-19.333 0 -35.5 6.66699 -48.5 20s-19.5 28.666 -19.5 45.999c0 19.333 5.16699 35.166 15.5 47.499s22.166 18.5 35.499 18.5c10.667 0 18.667 -2 24 -6l-3 6c-4 6 -12.167 13.333 -24.5 22s-30.166 13 -53.499 13c-4 0 -8.83301 -0.5 -14.5 -1.5
l-19.5 -3.5v-357h26c8.66699 0 18.5 0.666992 29.5 2s22.5 3.83301 34.5 7.5s23.667 8.5 35 14.5s21.666 13.667 30.999 23c-6.66699 6 -13 13.333 -19 22s-9 20.667 -9 36c0 16 3.16699 31.167 9.5 45.5s14.833 26.833 25.5 37.5s23.167 19 37.5 25s29.5 9 45.5 9
c16.667 0 32.334 -3.33301 47.001 -10s27.5 -15.667 38.5 -27s19.667 -24.666 26 -39.999s9.5 -32 9.5 -50c0 -11.333 -2.16699 -23.666 -6.5 -36.999s-10.166 -26.666 -17.499 -39.999s-16.333 -26.166 -27 -38.499s-22.334 -23.5 -35.001 -33.5v-315h-143v34
c-12 6 -25.333 10.833 -40 14.5s-30.667 5.5 -48 5.5c-20 0 -41.333 -2.83301 -64 -8.5s-48 -14.834 -76 -27.501c-26.667 -11.333 -51.334 -17 -74.001 -17c-18 0 -35 4.16699 -51 12.5s-30.167 19.833 -42.5 34.5s-23 31.5 -32 50.5s-15.5 39.5 -19.5 61.5l108 47
c3.33301 -24 9.5 -42.667 18.5 -56s22.167 -20 39.5 -20c8 0 16.5 1.5 25.5 4.5s19.833 7.5 32.5 13.5c25.333 12 49.5 20.5 72.5 25.5s44.167 7.5 63.5 7.5c17.333 0 33.166 -1.66699 47.499 -5s27.5 -7.66602 39.5 -12.999v84c-19.333 -6 -40.333 -11 -63 -15
s-44.667 -6 -66 -6c-26 0 -47.5 2.83301 -64.5 8.5s-30.5 12.167 -40.5 19.5s-17 14.333 -21 21s-6 10.667 -6 12v184zM338.006 394.998l-164 -41c25.333 -3.33301 49.333 -7.33301 72 -12s42.667 -12 60 -22l32 -18v93z" />
    <glyph glyph-name="k_to_bn" horiz-adv-x="827" 
d="M309 535l-318.999 -0.00390625v87h847v-87h-357c32 -11.333 56 -27.166 72 -47.499s25.667 -47.5 29 -81.5c4 0.666992 8 1.16699 12 1.5s7.66699 0.5 11 0.5c28 0 54.333 -5.33301 79 -16s46.167 -24.5 64.5 -41.5s32.833 -36 43.5 -57s16 -41.5 16 -61.5
s-3.5 -37.5 -10.5 -52.5s-15.833 -27.333 -26.5 -37s-22.167 -16.834 -34.5 -21.501s-23.833 -7 -34.5 -7c-12.667 0 -24.667 2.33301 -36 7s-21.5 11 -30.5 19s-16.167 17.667 -21.5 29s-8 24 -8 38c0.666992 10.667 3.83398 20 9.50098 28s12.334 14.667 20.001 20
s15.834 9.5 24.501 12.5s16.667 5.16699 24 6.5l-15 7c-18 7.33301 -37.667 11 -59 11c-12.667 0 -25.834 -2 -39.501 -6s-27.167 -10.667 -40.5 -20l10 -10c30 -34 45 -71 45 -111c0 -17.333 -3.83301 -34.666 -11.5 -51.999s-19.834 -33 -36.501 -47
s-38.334 -25.5 -65.001 -34.5s-59 -13.5 -97 -13.5c-49.333 0 -92.333 7 -129 21s-68 32 -94 54s-47.5 47.167 -64.5 75.5s-30.5 56.5 -40.5 84.5s-16.833 55 -20.5 81s-5.5 48 -5.5 66v15c0 8 0.333008 12.667 1 14l1 11c0.666992 6 1 11 1 15s0.333008 6.66699 1 8v2h119
v-16c0 -66 8 -119.167 24 -159.5s35.667 -71.666 59 -93.999s48.333 -37.333 75 -45s51 -11.5 73 -11.5c15.333 0 28 1 38 3l21 3c18 5.33301 29.5 13 34.5 23s8.16699 19 9.5 27v6c-3.33301 -6.66699 -12.5 -13.5 -27.5 -20.5s-31.833 -10.5 -50.5 -10.5
c-9.33301 0 -18.833 1.33301 -28.5 4s-18.5 7 -26.5 13s-14.5 14 -19.5 24s-7.5 22.667 -7.5 38c0 17.333 6.66699 34.166 20 50.499s37 27.5 71 33.5l5 2c12.667 5.33301 23.834 14.833 33.501 28.5s14.5 33.167 14.5 58.5c0 8 -1.5 14.5 -4.5 19.5s-6.83301 9 -11.5 12
s-9.33398 5.16699 -14.001 6.5s-8.33398 2 -11.001 2h-4c14 -10 21 -23.667 21 -41c0 -9.33301 -2 -19.166 -6 -29.499s-10.5 -19.666 -19.5 -27.999s-20.5 -15.166 -34.5 -20.499s-30.667 -8 -50 -8c-12.667 0 -25.334 1.83301 -38.001 5.5s-24.167 9.5 -34.5 17.5
s-18.666 18.167 -24.999 30.5s-9.5 27.5 -9.5 45.5c0 30 7.83301 55 23.5 75s37.5 35.333 65.5 46z" />
    <glyph glyph-name="k_t_bo_bn" horiz-adv-x="827" 
d="M309 535l-318.997 -0.00292969v87h847v-87h-357c32 -11.333 56 -27.166 72 -47.499s25.667 -47.5 29 -81.5c4 0.666992 8 1.16699 12 1.5s7.66699 0.5 11 0.5c28 0 54.333 -5.33301 79 -16s46.167 -24.5 64.5 -41.5s32.833 -36 43.5 -57s16 -41.5 16 -61.5
s-3.5 -37.5 -10.5 -52.5s-15.833 -27.333 -26.5 -37s-22.167 -16.834 -34.5 -21.501s-23.833 -7 -34.5 -7c-12.667 0 -24.667 2.33301 -36 7s-21.5 11 -30.5 19s-16.167 17.667 -21.5 29s-8 24 -8 38c0.666992 10.667 3.83398 20 9.50098 28s12.334 14.667 20.001 20
s15.834 9.5 24.501 12.5s16.667 5.16699 24 6.5l-15 7c-18 7.33301 -37.667 11 -59 11c-12.667 0 -25.834 -2 -39.501 -6s-27.167 -10.667 -40.5 -20l10 -10c30 -34 45 -71 45 -111c0 -20.667 -3.83301 -39.167 -11.5 -55.5s-20.834 -31.166 -39.501 -44.499v-256h-141v30
c-14.667 10 -30.334 18.833 -47.001 26.5s-33.5 14.5 -50.5 20.5s-33.333 10.833 -49 14.5s-29.834 6.5 -42.501 8.5h-3c-10.667 1.33301 -19 2.33301 -25 3s-9.66699 1.33398 -11 2.00098l-1 116l63 18c-44.667 18 -80.5 42.5 -107.5 73.5s-47.833 63.667 -62.5 98
s-24.334 67.666 -29.001 99.999s-7 59.166 -7 80.499v15c0 8 0.333008 12.667 1 14l1 11c0.666992 6 1 11 1 15s0.333008 6.66699 1 8v2h119v-16c0 -66 8 -119.167 24 -159.5s35.667 -71.666 59 -93.999s48.333 -37.333 75 -45s51 -11.5 73 -11.5c15.333 0 28 1 38 3l21 3
c18 5.33301 29.5 13 34.5 23s8.16699 19 9.5 27v6c-3.33301 -6.66699 -12.5 -13.5 -27.5 -20.5s-31.833 -10.5 -50.5 -10.5c-9.33301 0 -18.833 1.33301 -28.5 4s-18.5 7 -26.5 13s-14.5 14 -19.5 24s-7.5 22.667 -7.5 38c0 17.333 6.66699 34.166 20 50.499
s37 27.5 71 33.5l5 2c12.667 5.33301 23.834 14.833 33.501 28.5s14.5 33.167 14.5 58.5c0 8 -1.5 14.5 -4.5 19.5s-6.83301 9 -11.5 12s-9.33398 5.16699 -14.001 6.5s-8.33398 2 -11.001 2h-4c14 -10 21 -23.667 21 -41c0 -9.33301 -2 -19.166 -6 -29.499
s-10.5 -19.666 -19.5 -27.999s-20.5 -15.166 -34.5 -20.499s-30.667 -8 -50 -8c-12.667 0 -25.334 1.83301 -38.001 5.5s-24.167 9.5 -34.5 17.5s-18.666 18.167 -24.999 30.5s-9.5 27.5 -9.5 45.5c0 30 7.83301 55 23.5 75s37.5 35.333 65.5 46zM392.003 -7.00293l-128 -31
c32 -2.66699 58 -7.16699 78 -13.5s35.667 -12.833 47 -19.5l3 -2v66z" />
    <glyph glyph-name="k_t_ro_bn" horiz-adv-x="827" 
d="M309 535l-319.003 -0.00390625v87h847v-87h-357c32 -11.333 56 -27.166 72 -47.499s25.667 -47.5 29 -81.5c4 0.666992 8 1.16699 12 1.5s7.66699 0.5 11 0.5c28 0 54.333 -5.33301 79 -16s46.167 -24.5 64.5 -41.5s32.833 -36 43.5 -57s16 -41.5 16 -61.5
s-3.5 -37.5 -10.5 -52.5s-15.833 -27.333 -26.5 -37s-22.167 -16.834 -34.5 -21.501s-23.833 -7 -34.5 -7c-12.667 0 -24.667 2.33301 -36 7s-21.5 11 -30.5 19s-16.167 17.667 -21.5 29s-8 24 -8 38c0.666992 10.667 3.83398 20 9.50098 28s12.334 14.667 20.001 20
s15.834 9.5 24.501 12.5s16.667 5.16699 24 6.5l-15 7c-18 7.33301 -37.667 11 -59 11c-12.667 0 -25.834 -2 -39.501 -6s-27.167 -10.667 -40.5 -20l10 -10c30 -34 45 -71 45 -111c0 -8 -0.666992 -16.333 -2 -25s-3.66602 -17 -6.99902 -25v-288h-143v37
c-11.333 5.33301 -24.333 9.66602 -39 12.999s-30 5 -46 5c-19.333 0 -48.666 -9 -87.999 -27s-70.333 -27 -93 -27c-18 0 -34.833 4.16699 -50.5 12.5s-29.667 19.833 -42 34.5s-22.833 31.834 -31.5 51.501s-15 40.834 -19 63.501l116 34
c0.666992 -0.666992 1 -1.66699 1 -3c1.33301 -6 3.5 -12.667 6.5 -20s6.66699 -14 11 -20s9.5 -11 15.5 -15s13 -6 21 -6c11.333 0 30.333 8.33301 57 25s61 25 103 25c26 0 52 -4.66699 78 -14v27c-9.33301 -1.33301 -18.5 -2.5 -27.5 -3.5s-18.167 -1.5 -27.5 -1.5
c-50 0 -93.5 6.83301 -130.5 20.5s-68.667 31.667 -95 54s-48 47.5 -65 75.5s-30.5 56.167 -40.5 84.5s-16.833 55.5 -20.5 81.5s-5.5 48 -5.5 66v15c0 8 0.333008 12.667 1 14l1 11c0.666992 6 1 11 1 15s0.333008 6.66699 1 8v2h119v-16c0 -66 8 -119.167 24 -159.5
s35.667 -71.666 59 -93.999s48.333 -37.333 75 -45s51 -11.5 73 -11.5c15.333 0 28 1 38 3l21 3c18 5.33301 29.5 13 34.5 23s8.16699 19 9.5 27v6c-3.33301 -6.66699 -12.5 -13.5 -27.5 -20.5s-31.833 -10.5 -50.5 -10.5c-9.33301 0 -18.833 1.33301 -28.5 4
s-18.5 7 -26.5 13s-14.5 14 -19.5 24s-7.5 22.667 -7.5 38c0 17.333 6.66699 34.166 20 50.499s37 27.5 71 33.5l5 2c12.667 5.33301 23.834 14.833 33.501 28.5s14.5 33.167 14.5 58.5c0 8 -1.5 14.5 -4.5 19.5s-6.83301 9 -11.5 12s-9.33398 5.16699 -14.001 6.5
s-8.33398 2 -11.001 2h-4c14 -10 21 -23.667 21 -41c0 -9.33301 -2 -19.166 -6 -29.499s-10.5 -19.666 -19.5 -27.999s-20.5 -15.166 -34.5 -20.499s-30.667 -8 -50 -8c-12.667 0 -25.334 1.83301 -38.001 5.5s-24.167 9.5 -34.5 17.5s-18.666 18.167 -24.999 30.5
s-9.5 27.5 -9.5 45.5c0 30 7.83301 55 23.5 75s37.5 35.333 65.5 46z" />
    <glyph glyph-name="k_no_bn" horiz-adv-x="874" 
d="M583 516c1.33301 0.666992 4 0.998047 8 0.998047h25c38 0 71.833 -5.16699 101.5 -15.5s54.667 -23.833 75 -40.5s35.833 -35.5 46.5 -56.5s16 -42.5 16 -64.5c0 -16 -3.66699 -31.5 -11 -46.5s-17.333 -28.333 -30 -40s-27.167 -21.167 -43.5 -28.5
s-33.5 -11 -51.5 -11c-15.333 0 -29.333 2.66699 -42 8s-23.667 12.5 -33 21.5s-16.5 19 -21.5 30s-7.5 22.5 -7.5 34.5c0 9.33301 1.83301 18.333 5.5 27s8.33398 16.167 14.001 22.5s12.167 11.5 19.5 15.5s15 6 23 6c11.333 0 22.333 -1.83301 33 -5.5
s19 -7.83398 25 -12.501c0 0.666992 -0.666992 1.66699 -2 3l-3 4c-6 7.33301 -17.667 15.5 -35 24.5s-43 14.167 -77 15.5c-5.33301 0 -10.833 -0.166992 -16.5 -0.5s-11.834 -0.833008 -18.501 -1.5v-598h-140v130l-15 25l-8 8c-18 16.667 -34.833 28.5 -50.5 35.5
s-30.167 10.5 -43.5 10.5c-14.667 0 -27.334 -3.33301 -38.001 -10c32 -21.333 48 -49.666 48 -84.999c0 -16 -3 -30.667 -9 -44s-13.833 -24.5 -23.5 -33.5s-20.667 -16 -33 -21s-24.833 -7.5 -37.5 -7.5c-16 0 -30.833 3.5 -44.5 10.5s-25.167 16.167 -34.5 27.5l-3 3
c-19.333 25.333 -29 53.333 -29 84c0 20.667 4.5 42.334 13.5 65.001s21.833 43.167 38.5 61.5s36.334 33.5 59.001 45.5s48 18 76 18c40 0 84.667 -14.667 134 -44v20c-32 18.667 -64 35 -96 49s-62.667 25.833 -92 35.5s-57 17.334 -83 23.001s-49 9.5 -69 11.5l-63 7v175
l403 89v38h-453v87h894v-87h-301v-19zM210 324.998c40.667 -6.66699 80.167 -16 118.5 -28s76.5 -27.333 114.5 -46v125z" />
    <glyph glyph-name="k_bo_bn" horiz-adv-x="874" 
d="M443 535l-452.998 -0.000976562v87h894v-87h-301v-19c1.33301 0.666992 4 1 8 1h25c38.667 0 72.834 -5.16699 102.501 -15.5s54.667 -24 75 -41s35.666 -36 45.999 -57s15.5 -41.833 15.5 -62.5c0 -16 -3.83301 -31.667 -11.5 -47s-17.834 -28.833 -30.501 -40.5
s-27.167 -21.167 -43.5 -28.5s-33.5 -11 -51.5 -11c-15.333 0 -29.166 2.66699 -41.499 8s-23.166 12.5 -32.499 21.5s-16.5 19 -21.5 30s-7.5 22.5 -7.5 34.5c0 19.333 6.5 36 19.5 50s27.5 21 43.5 21c9.33301 0 19.666 -1.66699 30.999 -5
s19.666 -7.66602 24.999 -12.999v1c0 0.666992 -0.333008 1.33398 -1 2.00098l-3 4c-2.66699 3.33301 -6.83398 7.16602 -12.501 11.499s-13 8.5 -22 12.5s-20 7.66699 -33 11s-28.167 5.33301 -45.5 6c-5.33301 0 -10.666 -0.166992 -15.999 -0.5
s-11.333 -0.833008 -18 -1.5v-517h-140v14c-18.667 12.667 -38.667 23.834 -60 33.501s-42.833 18.167 -64.5 25.5s-42.5 13.333 -62.5 18s-38 8 -54 10h-3c-0.666992 0.666992 -1.33398 1 -2.00098 1l-47 7v147l147 36c-34 13.333 -69 23.666 -105 30.999
s-67 12.333 -93 15l-58 5v176l402 88v38zM443.002 250.999v125.001l-233 -51c111.333 -20.667 189 -45.334 233 -74.001zM443.002 32v87l-169 -41c42 -4 75.833 -10.167 101.5 -18.5s48.167 -17.5 67.5 -27.5z" />
    <glyph glyph-name="k_mo_bn" horiz-adv-x="1010" 
d="M970 535v-693.999h-129v42c-6 28 -20 52 -42 72s-47.833 36.5 -77.5 49.5s-61 22.5 -94 28.5s-63.167 9 -90.5 9h-16c-8 0 -12.667 -0.333008 -14 -1c6.66699 -12.667 10 -28 10 -46c0 -13.333 -3.66699 -27 -11 -41s-17.166 -26.5 -29.499 -37.5s-27 -20 -44 -27
s-35.5 -10.5 -55.5 -10.5c-15.333 0 -30.666 2.66699 -45.999 8s-29.333 12.666 -42 21.999s-23.334 20.833 -32.001 34.5s-14 29.167 -16 46.5v2c0 32.667 6.83301 61 20.5 85s35.834 47 66.501 69c-19.333 12.667 -39.5 23.5 -60.5 32.5s-41.833 16.833 -62.5 23.5
s-40.334 12 -59.001 16s-35.334 7 -50.001 9h-3c-0.666992 0.666992 -3 1 -7 1l-45 6v175l373 87v39h-424v87h1030v-87h-50zM554 190.001c40.667 -2.66699 84.501 -10.3311 131.501 -22.998s98.833 -30.334 155.5 -53.001v421h-287v-19c1.33301 0.666992 6.33301 1 15 1h15
c35.333 0 66.5 -5.33301 93.5 -16s49.667 -24.5 68 -41.5s32.166 -36.167 41.499 -57.5s14 -42.333 14 -63c0 -15.333 -3.5 -30.5 -10.5 -45.5s-16.167 -28.333 -27.5 -40s-24.5 -21 -39.5 -28s-30.833 -10.5 -47.5 -10.5c-14 0 -26.833 2.66699 -38.5 8
s-21.834 12.5 -30.501 21.5s-15.334 19 -20.001 30s-7 22.5 -7 34.5c0 19.333 5.83301 35.833 17.5 49.5s24.834 20.5 39.501 20.5c23.333 0 41 -6 53 -18c0 0.666992 -0.666992 1.66699 -2 3l-3 5c-4.66699 6.66699 -15 14.667 -31 24s-40 14.666 -72 15.999
c-4.66699 0 -9.16699 -0.166992 -13.5 -0.5s-9.16602 -0.833008 -14.499 -1.5v-217zM414.001 245.004v130l-214 -49c92 -15.333 163.333 -42.333 214 -81z" />
    <glyph glyph-name="k_ro_bn" horiz-adv-x="961" 
d="M309 535l-319.004 -0.00683594v87h981v-87h-440l16 -8c20.667 -12 37.667 -25.167 51 -39.5s24.666 -30.166 33.999 -47.499c34.667 13.333 65.667 20 93 20c30 0 58.333 -5.5 85 -16.5s49.667 -25.333 69 -43s34.666 -37.167 45.999 -58.5s17 -42 17 -62
c0 -21.333 -4 -39.833 -12 -55.5s-17.833 -28.5 -29.5 -38.5s-24.334 -17.5 -38.001 -22.5s-25.834 -7.5 -36.501 -7.5c-13.333 0 -26.166 2.33301 -38.499 7s-23.333 11.167 -33 19.5s-17.334 18.5 -23.001 30.5s-8.5 25 -8.5 39c0.666992 11.333 4.33398 21.333 11.001 30
s14.334 16 23.001 22s17.667 10.5 27 13.5s17 4.5 23 4.5l-16 7c-8 3.33301 -17.333 6.16602 -28 8.49902s-22.334 3.5 -35.001 3.5c-10 0 -20.5 -1 -31.5 -3s-22.167 -5.66699 -33.5 -11v-327h-125v6c-6 12.667 -16.333 23.834 -31 33.501s-32.667 17.834 -54 24.501
s-45.666 11.667 -72.999 15s-56.333 5 -87 5c-12.667 0 -26 -0.5 -40 -1.5s-27.667 -1.5 -41 -1.5c-29.333 0 -54.666 4.66699 -75.999 14s-39.166 21.5 -53.499 36.5s-25 31.833 -32 50.5s-10.5 37.667 -10.5 57v120h126v-98c0 -7.33301 0.333008 -15.666 1 -24.999
s3.66699 -18.333 9 -27s14 -15.834 26 -21.501s29.667 -8.5 53 -8.5c19.333 0 40.833 1.33301 64.5 4s44.834 4 63.501 4c39.333 0 70.833 -4.5 94.5 -13.5s43.834 -18.5 60.501 -28.5v178l-2 18c-1.33301 8 -3.66602 17.667 -6.99902 29s-9 22 -17 32
s-18.333 18.667 -31 26s-29 11 -49 11c-19.333 0 -34.833 -2.33301 -46.5 -7s-20.667 -10.167 -27 -16.5s-10.5 -12.666 -12.5 -18.999s-3 -10.833 -3 -13.5v-2c14 17.333 37 26 69 26c8 0 16.667 -1.33301 26 -4s18 -7 26 -13s14.667 -13.5 20 -22.5s8 -19.833 8 -32.5
c0 -11.333 -2.16699 -23 -6.5 -35s-10.833 -22.833 -19.5 -32.5s-19.5 -17.667 -32.5 -24s-28.167 -9.5 -45.5 -9.5c-21.333 0 -41.666 3.5 -60.999 10.5s-36.5 17.333 -51.5 31s-27 30.334 -36 50.001s-13.5 42.5 -13.5 68.5c0 12.667 1.66699 25.834 5 39.501
s8.33301 26.834 15 39.501s15.167 24.334 25.5 35.001s22.833 19.667 37.5 27z" />
    <glyph glyph-name="k_lo_bn" horiz-adv-x="874" 
d="M442 496l-0.000976562 38.9941h-452v87h894v-87h-301v-19c1.33301 0.666992 4 1 8 1h25c38.667 0 72.834 -5.33301 102.501 -16s54.667 -24.334 75 -41.001s35.666 -35.667 45.999 -57s15.5 -42.333 15.5 -63c0 -16 -3.83301 -31.667 -11.5 -47
s-17.667 -28.833 -30 -40.5s-26.666 -21.167 -42.999 -28.5s-33.5 -11 -51.5 -11c-15.333 0 -29.333 2.66699 -42 8s-23.667 12.5 -33 21.5s-16.5 19.333 -21.5 31s-7.5 23.5 -7.5 35.5c0 9.33301 1.83301 18.333 5.5 27s8.33398 16.167 14.001 22.5s12.167 11.333 19.5 15
s15 5.5 23 5.5c9.33301 0 19.666 -1.66699 30.999 -5s20 -7.66602 26 -12.999c0 0.666992 -0.333008 1.33398 -1 2.00098l-3 5c-6 7.33301 -17.667 15.5 -35 24.5s-43 14.167 -77 15.5c-5.33301 0 -10.833 -0.166992 -16.5 -0.5s-11.834 -0.833008 -18.501 -1.5v-580h-141
v135l-3 3c-2.66699 2.66699 -7.33398 5.5 -14.001 8.5s-13.667 4.5 -21 4.5c-9.33301 0 -18 -3 -26 -9l9 -14l-66 -46c-6.66699 8.66699 -12.667 18.334 -18 29.001s-11.833 20.667 -19.5 30s-16.834 17.333 -27.501 24s-25 10 -43 10c-10.667 0 -19.167 -2 -25.5 -6
s-11.333 -8.83301 -15 -14.5s-6 -11.334 -7 -17.001s-1.5 -10.5 -1.5 -14.5v-5c0 -0.666992 0.333008 -1.33398 1 -2.00098c6 7.33301 13.833 13.166 23.5 17.499s19.167 6.5 28.5 6.5c10.667 0 20.167 -2.33301 28.5 -7s15.333 -10.667 21 -18
s9.83398 -15.166 12.501 -23.499s4 -16.166 4 -23.499c0 -19.333 -7 -36.666 -21 -51.999s-35 -23 -63 -23c-18 0 -34.5 3.33301 -49.5 10s-28 16.334 -39 29.001s-19.667 27.834 -26 45.501s-9.5 37.5 -9.5 59.5c0 20.667 3 39.667 9 57s15.5 32.5 28.5 45.5
s29.667 23.333 50 31s44.5 11.834 72.5 12.501c38 -4 68.667 -19.667 92 -47c8 11.333 18.333 20.333 31 27s26.334 10 41.001 10c14 0 28.333 -4.33301 43 -13v21c-32 18.667 -64 34.834 -96 48.501s-62.667 25.167 -92 34.5s-57 16.833 -83 22.5s-49 9.83398 -69 12.501
h-4c-0.666992 0.666992 -3 1 -7 1l-10 1c-0.666992 0.666992 -1.66699 1 -3 1h-3c-9.33301 1.33301 -16.666 2.16602 -21.999 2.49902s-9 0.833008 -11 1.5h-2v176zM441.999 375.994l-232 -51.001c40.667 -6.66699 80 -16.167 118 -28.5s76 -27.166 114 -44.499v124z" />
    <glyph glyph-name="k_sso_bn" horiz-adv-x="880" 
d="M890 535l-274.002 0.000976562v-115c18 0 34 -2.16699 48 -6.5s22.333 -6.5 25 -6.5h1c60.667 -23.333 104 -51.5 130 -84.5s39 -70.5 39 -112.5c0 -20.667 -3.5 -39.667 -10.5 -57s-16.5 -32.333 -28.5 -45s-26 -22.667 -42 -30s-33 -11 -51 -11
c-19.333 0 -35.333 3 -48 9s-22.834 13.5 -30.501 22.5s-13.167 19 -16.5 30s-5 21.5 -5 31.5c0 11.333 2.33301 21.833 7 31.5s11 18 19 25s17 12.5 27 16.5s20.667 6 32 6c16 0 29.333 -4.33301 40 -13c-1.33301 8.66699 -4.5 17.667 -9.5 27s-12.667 18.166 -23 26.499
s-24 15.833 -41 22.5s-37.833 11.667 -62.5 15v-317h-140v80c-5.33301 15.333 -12.333 27 -21 35l-11 12c-41.333 31.333 -74.666 47 -99.999 47h-4c20.667 -20.667 31 -44 31 -70c0 -14 -2.83301 -26.833 -8.5 -38.5s-13.167 -21.667 -22.5 -30s-20 -14.833 -32 -19.5
s-24.333 -7 -37 -7c-15.333 0 -29.166 2.83301 -41.499 8.5s-22.833 13.167 -31.5 22.5l-4 2c-22.667 24.667 -34 52.334 -34 83.001c0 34 10 62.833 30 86.5s47 41.834 81 54.501c-0.666992 0.666992 -1 1.66699 -1 3l-1 1c-27.333 40 -53 63 -77 69
c7.33301 -16.667 11 -31.667 11 -45c0 -14 -2.66699 -26.5 -8 -37.5s-12.166 -20.333 -20.499 -28s-17.833 -13.667 -28.5 -18s-21.334 -6.5 -32.001 -6.5c-12.667 0 -24.667 2.5 -36 7.5s-21.166 12.167 -29.499 21.5s-15 20.166 -20 32.499s-7.5 26.166 -7.5 41.499
c0 17.333 3.5 33.833 10.5 49.5s16.5 29.834 28.5 42.501s26 23.167 42 31.5s33 14.166 51 17.499c-8 19.333 -19.333 36.5 -34 51.5s-29.667 26.833 -45 35.5h-84v87h900v-87zM474.998 228.001l1.00195 94c-35.333 5.33301 -64.333 15.333 -87 30
s-40.334 31.167 -53.001 49.5s-21.334 37.666 -26.001 57.999s-7 38.5 -7 54.5v11c0 6 0.333008 9.33301 1 10h-82c11.333 -15.333 21.333 -33 30 -53s16.334 -41.667 23.001 -65c8.66699 -5.33301 17.167 -12 25.5 -20s16.833 -16.667 25.5 -26l7 -10
c3.33301 -4 7.16602 -9.5 11.499 -16.5s8.66602 -14.667 12.999 -23s8.66602 -17.166 12.999 -26.499s7.83301 -18.333 10.5 -27c14.667 -3.33301 29.834 -8.33301 45.501 -15s31.834 -15 48.501 -25zM476 430.001l0.000976562 105h-52
c-0.666992 -3.33301 -1.16699 -6.33301 -1.5 -9s-0.5 -5.66699 -0.5 -9c0 -16.667 3.16699 -33 9.5 -49s21.166 -28.667 44.499 -38z" />
    <glyph glyph-name="k_ss_nno_bn" horiz-adv-x="885" 
d="M480 -6l-0.000976562 116.001c-4.66699 11.333 -9.33398 20.333 -14.001 27s-8.66699 11.667 -12 15l-6 5c-43.333 32 -78.666 48 -105.999 48c20 -20 30 -42.667 30 -68c0 -30 -9.83301 -53.833 -29.5 -71.5s-42.834 -26.5 -69.501 -26.5
c-14.667 0 -28.5 2.66699 -41.5 8s-23.833 13 -32.5 23l-3 2c-22.667 24.667 -34 52.334 -34 83.001c0 34 10 63.333 30 88s47 43 81 55l-2 3c-27.333 41.333 -53 64.333 -77 69c7.33301 -18 11 -32.333 11 -43c0 -14 -2.5 -26.5 -7.5 -37.5s-11.833 -20.5 -20.5 -28.5
s-18.334 -14.167 -29.001 -18.5s-21.667 -6.5 -33 -6.5c-18 0 -34 4.5 -48 13.5s-24.667 20.5 -32 34.5l-2 4c-8 16.667 -12 34 -12 52c0 17.333 3.5 33.833 10.5 49.5s16.5 29.667 28.5 42s26.167 22.833 42.5 31.5s33.833 14.667 52.5 18c-8 17.333 -18.667 29.5 -32 36.5
s-26.666 12.167 -39.999 15.5l-8 2h-85v87h905v-87h-274v-83c12.667 0 24.5 -1 35.5 -3s20.167 -4 27.5 -6l7 -2c0.666992 0 1.33398 -0.333008 2.00098 -1h2c60.667 -23.333 104.334 -51.5 131.001 -84.5s40 -70.5 40 -112.5c0 -22 -4 -42 -12 -60s-18.5 -33.5 -31.5 -46.5
s-28.333 -23 -46 -30s-35.834 -10.5 -54.501 -10.5c-32 5.33301 -55 15.666 -69 30.999s-21 35 -21 59c0 25.333 8.16699 45.666 24.5 60.999s35.833 23 58.5 23c15.333 0 29.333 -4.33301 42 -13c-1.33301 8 -4.16602 16.5 -8.49902 25.5s-11.333 17.667 -21 26
s-22.167 16 -37.5 23s-34.666 12.5 -57.999 16.5l-11 1v-635h-141v145l-8 8c-17.333 17.333 -34 29.666 -50 36.999s-30.667 11 -44 11c-15.333 0 -28.333 -3.33301 -39 -10c32 -22 48 -51 48 -87c0 -32 -10 -57.5 -30 -76.5s-44 -28.5 -72 -28.5
c-34 0 -60.667 12.667 -80 38h-1c0 0.666992 -0.333008 1.33398 -1 2.00098c-20 26 -30 54.333 -30 85c0 23.333 5 46.5 15 69.5s23.667 43.5 41 61.5s37.333 32.5 60 43.5s47 16.5 73 16.5c35.333 0 74.666 -11.667 117.999 -35zM478.999 260.001l1.00098 -1v95
c-36.667 6.66699 -66.334 15.834 -89.001 27.501s-40.5 24.834 -53.5 39.501s-21.833 30.167 -26.5 46.5s-7 32.166 -7 47.499c0 3.33301 0.166992 6.66602 0.5 9.99902s0.833008 6.66602 1.5 9.99902h-66l7 -11c3.33301 -3.33301 8.16602 -12.166 14.499 -26.499
s11.833 -30.166 16.5 -47.499c7.33301 -5.33301 15.333 -11.833 24 -19.5s17.667 -16.834 27 -27.501l11 -16c7.33301 -11.333 14.833 -24.833 22.5 -40.5s14.834 -31.5 21.501 -47.5c30 -6.66699 61.667 -19.667 95 -39zM480 462.001v72.999h-53
c-0.666992 -4.66699 -1.16699 -8.33398 -1.5 -11.001s-0.5 -4.66699 -0.5 -6c0 -11.333 3.83301 -21.166 11.5 -29.499s22.167 -17.166 43.5 -26.499z" />
    <glyph glyph-name="k_ss_bo_bn" horiz-adv-x="885" 
d="M480 -181c-14.667 9.33301 -30.334 18.001 -47.001 26.001s-33.5 15 -50.5 21s-33.333 11 -49 15s-29.834 6.66699 -42.501 8l-40 5v116l229 65v35c-4.66699 11.333 -9.33398 20.333 -14.001 27s-9 11.667 -13 15l-6 5c-42 32 -77 48 -105 48c20 -20 30 -43 30 -69
c0 -14.667 -2.66699 -28 -8 -40s-12.666 -22.167 -21.999 -30.5s-20 -14.833 -32 -19.5s-24.333 -7 -37 -7c-14.667 0 -28.5 2.66699 -41.5 8s-23.833 13 -32.5 23l-3 2c-23.333 25.333 -35 53.333 -35 84c0 34 10.167 63.167 30.5 87.5s47.5 42.5 81.5 54.5l-2 3
c-28 40.667 -53.667 63.667 -77 69c7.33301 -18 11 -32.333 11 -43c0 -14 -2.66699 -26.5 -8 -37.5s-12.166 -20.5 -20.499 -28.5s-18 -14.167 -29 -18.5s-22.167 -6.5 -33.5 -6.5c-18 0 -33.833 4.66699 -47.5 14s-24.167 20.666 -31.5 33.999l-2 4
c-8 16.667 -12 34 -12 52c0 17.333 3.5 33.833 10.5 49.5s16.667 29.834 29 42.501s26.5 23.167 42.5 31.5s33 14.166 51 17.499c-7.33301 17.333 -17.5 29.5 -30.5 36.5s-26.5 12.167 -40.5 15.5l-8 2h-85v87h905v-87h-274v-83c18 0 34.333 -1.66699 49 -5
s22 -5.66602 22 -6.99902h2c61.333 -23.333 105.166 -51.666 131.499 -84.999s39.5 -71 39.5 -113c0 -22 -3.83301 -41.833 -11.5 -59.5s-18 -33 -31 -46s-28.167 -23 -45.5 -30s-36 -10.5 -56 -10.5c-32 5.33301 -54.833 15.666 -68.5 30.999s-20.5 35 -20.5 59
c0 25.333 8 45.666 24 60.999s35.667 23 59 23c17.333 0 31.333 -4.33301 42 -13c-1.33301 8 -4.16602 16.5 -8.49902 25.5s-11.333 17.667 -21 26s-22.167 16 -37.5 23s-34.666 12.5 -57.999 16.5l-11 1v-560h-141v30zM479 260.001l0.999023 -1.00098v95
c-37.333 6.66699 -67.333 16.167 -90 28.5s-40.5 26 -53.5 41s-21.667 30.667 -26 47s-6.5 31.833 -6.5 46.5v9c0 5.33301 0.333008 8.33301 1 9h-66l8 -11c2 -3.33301 3.5 -5.16602 4.5 -5.49902s2.5 -3.83301 4.5 -10.5l4 -6c3.33301 -7.33301 6.33301 -15.5 9 -24.5
l8 -27.5l27.5 -21.5c9 -7 17.167 -15.5 24.5 -25.5l11 -15c7.33301 -10.667 15.333 -24.167 24 -40.5s15.334 -32.5 20.001 -48.5c29.333 -7.33301 61 -20.333 95 -39zM479.999 -7l-128 -31c32 -2.66699 58 -7.16699 78 -13.5s35.667 -12.833 47 -19.5l3 -2v66zM479.999 462
v72.999h-53c-0.666992 -3.33301 -1.16699 -6.33301 -1.5 -9s-0.5 -5.33398 -0.5 -8.00098c0 -11.333 3.83301 -21.166 11.5 -29.499s22.167 -17.166 43.5 -26.499z" />
    <glyph glyph-name="k_ss_mo_bn" horiz-adv-x="1068" 
d="M477 56l-0.00292969 23.9961c-4.66699 10 -9.33398 18.5 -14.001 25.5s-8.66699 12.167 -12 15.5l-6 5c-43.333 32 -78.333 48 -105 48c20 -20 30 -43 30 -69c0 -14 -2.66699 -27 -8 -39s-12.666 -22.167 -21.999 -30.5s-20 -14.833 -32 -19.5s-24.333 -7 -37 -7
c-15.333 0 -29.166 2.83301 -41.499 8.5s-22.833 13.167 -31.5 22.5l-3 2c-23.333 27.333 -35 55 -35 83c0 34 10 62.833 30 86.5s47 41.834 81 54.501l-2 4c-27.333 40 -53 63 -77 69c7.33301 -18.667 11 -33.334 11 -44.001c0 -13.333 -2.5 -25.5 -7.5 -36.5
s-11.667 -20.5 -20 -28.5s-17.833 -14.333 -28.5 -19s-21.667 -7 -33 -7c-16 0 -31.333 4.33301 -46 13s-25.667 20.667 -33 36l-3 2c-8 16.667 -12 34 -12 52c0 17.333 3.66699 33.833 11 49.5s17 29.834 29 42.501s26 23.334 42 32.001s33 14.667 51 18
c-8.66699 19.333 -20.167 36.333 -34.5 51s-28.833 26.334 -43.5 35.001h-85v87h1088v-87h-50v-821h-129v42c-5.33301 28 -18.666 52 -39.999 72s-46.5 36.5 -75.5 49.5s-59.667 22.667 -92 29s-62.166 9.5 -89.499 9.5c-6.66699 0 -13.167 -0.166992 -19.5 -0.5
s-12.166 -0.833008 -17.499 -1.5c6.66699 -12.667 10 -28 10 -46c0 -14 -3.66699 -27.833 -11 -41.5s-17.333 -26 -30 -37s-27.5 -19.833 -44.5 -26.5s-35.167 -10 -54.5 -10c-15.333 0 -30.833 2.5 -46.5 7.5s-29.834 12.333 -42.501 22s-23.334 21.334 -32.001 35.001
s-14 29.167 -16 46.5v1c0 22 3.66699 43.167 11 63.5s18.333 39 33 56s33.334 31.667 56.001 44s49 21.5 79 27.5zM898.997 534.996l-282.002 0.00195312v-115c19.333 0 36 -1.83301 50 -5.5s21 -5.83398 21 -6.50098h2c60.667 -24 104.167 -52.333 130.5 -85
s39.5 -70 39.5 -112c0 -20.667 -3.66699 -39.834 -11 -57.501s-17.166 -33 -29.499 -46s-26.666 -23.167 -42.999 -30.5s-33.833 -11 -52.5 -11c-18 0 -33 2.83301 -45 8.5s-21.833 13 -29.5 22s-13.167 18.667 -16.5 29s-5 20.166 -5 29.499
c0 24.667 8.33301 44.834 25 60.501s36.667 23.5 60 23.5c14 0 27.333 -4.33301 40 -13c-1.33301 8 -4.33301 16.5 -9 25.5s-11.834 17.5 -21.501 25.5s-22.167 15.5 -37.5 22.5s-34.333 12.5 -57 16.5l-11 1v-254c40.667 -3.33301 84.334 -11.5 131.001 -24.5
s97 -30.167 151 -51.5v548zM475.995 226.998l1.00195 94.999c-36.667 5.33301 -66.334 15.333 -89.001 30s-40.334 31.334 -53.001 50.001s-21.167 38 -25.5 58s-6.5 38 -6.5 54v11c0 6 0.333008 9.33301 1 10h-82c6.66699 -9.33301 12.667 -19.333 18 -30l16 -33l2 -3
c6.66699 -15.333 12.667 -32.333 18 -51c7.33301 -5.33301 15.333 -11.833 24 -19.5s17.667 -16.834 27 -27.501l11 -16c7.33301 -11.333 14.833 -24.666 22.5 -39.999s14.5 -31.333 20.5 -48c30 -6.66699 61.667 -20 95 -40zM476.997 429.997v105h-52
c-2 -8 -3 -15.667 -3 -23c0 -15.333 3.83301 -30.5 11.5 -45.5s22.167 -27.167 43.5 -36.5z" />
    <glyph glyph-name="k_so_bn" horiz-adv-x="1027" 
d="M390 535h-399.998v87h1047v-87h-50v-718h-140v39c-20 8.66699 -46.167 16.167 -78.5 22.5s-68.5 9.5 -108.5 9.5c-62 0 -139.667 -11.667 -233 -35c-22.667 -6 -44.334 -10.333 -65.001 -13s-40.667 -4 -60 -4c-40 0 -76.167 6.33301 -108.5 19
s-59.666 29.5 -81.999 50.5s-39.5 45.5 -51.5 73.5s-18 57.667 -18 89v10l180 -20v-9c0 -7.33301 1.33301 -15.833 4 -25.5s8.16699 -18.667 16.5 -27s20.333 -15.5 36 -21.5s36.167 -9 61.5 -9c7.33301 0 15.166 0.5 23.499 1.5s17.166 2.16699 26.499 3.5v56
c-26 18.667 -53 35.167 -81 49.5s-55.167 26.833 -81.5 37.5s-51.166 19.5 -74.499 26.5s-43 12.167 -59 15.5h-5c-0.666992 0.666992 -1.33398 1 -2.00098 1l-46 9v219l349 110v40zM847.002 535h-316.999v-19c7.33301 0.666992 14.166 1.16699 20.499 1.5
s12.833 0.5 19.5 0.5c38.667 0 72.834 -5.66699 102.501 -17s54.5 -26 74.5 -44s35.167 -38.667 45.5 -62s15.5 -47 15.5 -71c0 -19.333 -4 -38 -12 -56s-18.833 -34 -32.5 -48s-29.334 -25.333 -47.001 -34s-36.5 -13 -56.5 -13c-16.667 0 -32 3 -46 9s-26 14.333 -36 25
s-17.833 22.667 -23.5 36s-8.5 27.666 -8.5 42.999c0 28 7.33301 49.667 22 65s33.667 23 57 23c11.333 0 21.833 -1.16699 31.5 -3.5s17.167 -5.16602 22.5 -8.49902l-5 4c-6.66699 4 -17.834 8.66699 -33.501 14s-35.5 8 -59.5 8c-8 0 -16.167 -0.333008 -24.5 -1
s-17.166 -1.66699 -26.499 -3v-381c23.333 3.33301 45.666 6 66.999 8s42 3 62 3c38.667 0 73.834 -2.5 105.501 -7.5s59.167 -11.5 82.5 -19.5v548zM210.003 281c25.333 -7.33301 45.999 -13.667 61.999 -19s29.833 -10.5 41.5 -15.5s21.834 -10.167 30.501 -15.5l29 -18
l17 -11v148z" />
    <glyph glyph-name="kh_bo_bn" horiz-adv-x="672" 
d="M632 -136l-139.999 0.00683594v14c-30 20.667 -62.5 36.5 -97.5 47.5s-65.5 18.5 -91.5 22.5l-40 6v111l113 28c-44.667 13.333 -90.667 23.833 -138 31.5s-96 12.167 -146 13.5l-52 1v171h30c34 0 66.167 2 96.5 6s56.833 10.333 79.5 19s40.667 19.667 54 33
s20 29 20 47l-1 10l-17 -14c-59.333 -45.333 -116.666 -68 -171.999 -68h-12c-3.33301 0 -7.83301 0.166992 -13.5 0.5s-12.167 0.5 -19.5 0.5c-6 0 -13.333 2.83301 -22 8.5s-16.834 14 -24.501 25s-14.334 24.667 -20.001 41s-8.5 35.5 -8.5 57.5c0 16 3.5 31.5 10.5 46.5
s16.5 28.167 28.5 39.5s26.5 20.333 43.5 27s35.5 10 55.5 10c12 0 23.333 -1.83301 34 -5.5s20.334 -8.83398 29.001 -15.501s15.5 -14.834 20.5 -24.501s7.5 -20.5 7.5 -32.5c0 -4 -1.16699 -9 -3.5 -15s-5.33301 -12.333 -9 -19s-8 -12.834 -13 -18.501
s-10.167 -10.167 -15.5 -13.5l8 3c4.66699 2 10.5 5.16699 17.5 9.5s13.667 10.166 20 17.499s11.833 16.166 16.5 26.499s7 22.5 7 36.5v6l40 50c36.667 -10.667 66 -32.334 88 -65.001s33 -71 33 -115v-26c0 -16.667 -5.33301 -38.5 -16 -65.5
s-33.334 -57.5 -68.001 -91.5c70.667 -14.667 120 -31.334 148 -50.001v431h190v-87h-50v-671zM492.001 -13.9932v54l-114 -26c28.667 -3.33301 52.5 -7.5 71.5 -12.5s33.167 -10.167 42.5 -15.5z" />
    <glyph glyph-name="kh_ro_bn" horiz-adv-x="672" 
d="M632 -130l-140 0.00683594v30l-6 2c-27.333 14 -59.666 23.667 -96.999 29l-16 1h-8c-12 0 -25.667 -3 -41 -9l-47.5 -19.5c-16.333 -7 -32.666 -13.5 -48.999 -19.5s-31.5 -9 -45.5 -9c-7.33301 0 -21 2.83301 -41 8.5s-40.333 16.667 -61 33s-39 39.333 -55 69
s-24 68.834 -24 117.501v8c36 -6 62.667 -10.167 80 -12.5s29.333 -4.33301 36 -6s10 -3.33398 10 -5.00098s0.666992 -4.5 2 -8.5c6 -20.667 14.667 -38 26 -52s27 -21 47 -21c15.333 0 33.666 5.66699 54.999 17c45.333 23.333 84.333 35 117 35c4.66699 0 17 -1 37 -3
s44.333 -9.33301 73 -22l8 -3v1c-48 34 -106.333 60.5 -175 79.5s-142 28.5 -220 28.5h-57v171h30c34 0 66.167 2 96.5 6s56.833 10.333 79.5 19s40.667 19.667 54 33s20 29 20 47l-1 10l-17 -14c-59.333 -45.333 -116.666 -68 -171.999 -68h-12
c-3.33301 0 -7.83301 0.166992 -13.5 0.5s-12.167 0.5 -19.5 0.5c-6 0 -13.333 2.83301 -22 8.5s-16.834 14.167 -24.501 25.5s-14.334 25.333 -20.001 42s-8.5 36 -8.5 58c0 16 3.5 31.333 10.5 46s16.667 27.5 29 38.5s27 19.833 44 26.5s35.167 10 54.5 10
c12 0 23.333 -1.83301 34 -5.5s20.334 -8.83398 29.001 -15.501s15.5 -14.834 20.5 -24.501s7.5 -20.5 7.5 -32.5c0 -4 -1.16699 -9 -3.5 -15s-5.33301 -12.333 -9 -19s-8 -12.834 -13 -18.501s-10.167 -10.167 -15.5 -13.5l8 3c4.66699 2 10.5 5.16699 17.5 9.5
s13.833 10.166 20.5 17.499s12.167 16.166 16.5 26.499s6.5 22.5 6.5 36.5v6l40 50c36.667 -10.667 66 -32.334 88 -65.001s33 -71 33 -115v-26c0 -16.667 -5.33301 -38.5 -16 -65.5s-33.334 -57.5 -68.001 -91.5c70.667 -14.667 120 -31.334 148 -50.001v431h190v-87h-50
v-665z" />
    <glyph glyph-name="g_ukar_bn" horiz-adv-x="776" 
d="M502 -53c-99.333 0 -201.335 25.3301 -306.002 75.9971c-83.333 40 -148.666 83.667 -195.999 131l39 118l74 -55c74 -49.333 150.333 -88.666 229 -117.999c69.333 -26 132.333 -39 189 -39c41.333 0 71 10.333 89 31c13.333 14.667 20 34.334 20 59.001
c0 18.667 -1.33301 30.667 -4 36c-25.333 -33.333 -59.333 -50 -102 -50c-33.333 0 -61.833 10.5 -85.5 31.5s-36.167 46.833 -37.5 77.5c0.666992 36 14 63.5 40 82.5s59 28.5 99 28.5c5.33301 0 10 -0.166992 14 -0.5s10.5 -1.5 19.5 -3.5s13.833 -3.33301 14.5 -4
l28.5 29c9.66699 10 14.5 23 14.5 39c0 12 -3.66699 28 -11 48l-81 -86h-70c-28 56 -59.333 97.333 -94 124c-29.333 22 -59.333 33 -90 33c-28 0 -53.667 -7.33301 -77 -22c-21.333 -13.333 -32 -23.666 -32 -30.999c30.667 8 61.334 12 92.001 12
c32.667 0 58.5 -6 77.5 -18s32.833 -35.333 41.5 -70c0.666992 -0.666992 1 -5.33398 1 -14.001c0 -19.333 -5.33301 -37.666 -16 -54.999c-20 -30.667 -50.333 -58.667 -91 -84c-16 -10 -41.333 -24 -76 -42l-147 73c42 13.333 101 38.333 177 75l15 7
c-26.667 -3.33301 -54.667 -5 -84 -5c-26.667 0 -49.334 2 -68.001 6l-68 134h1c54.667 102.667 134.334 154 239.001 154c24 0 46.833 -2.5 68.5 -7.5s41 -10.833 58 -17.5s31.333 -13.167 43 -19.5s21.334 -12 29.001 -17s12.667 -8.66699 15 -11
s5.16602 -4.83301 8.49902 -7.5l32 -30l142 109c12.667 -12.667 27 -34 43 -64c26 -50 39 -99 39 -147c0 -55.333 -16.667 -106.333 -50 -153c33.333 -40 50 -86.667 50 -140c0 -56 -19.667 -102.333 -59 -139c-45.333 -42.667 -111 -64 -197 -64z" />
    <glyph glyph-name="g_go_bn" horiz-adv-x="680" 
d="M640 535v-637.995h-143v217c-23.333 36.667 -49.666 62.334 -78.999 77.001s-59 22 -89 22c-8.66699 0 -20 -0.833008 -34 -2.5s-27.667 -4.33398 -41 -8.00098s-25 -8.66699 -35 -15s-15.333 -13.833 -16 -22.5c0.666992 0.666992 2.33398 1 5.00098 1
c18.667 3.33301 36.167 6 52.5 8s32.166 3 47.499 3c32 0 57.5 -5.16699 76.5 -15.5s32.833 -31.5 41.5 -63.5c0.666992 -0.666992 1 -3 1 -7v-6c0 -18.667 -6 -36.834 -18 -54.501s-26.5 -34.334 -43.5 -50.001s-35.167 -29.667 -54.5 -42s-36.333 -22.5 -51 -30.5
c-0.666992 0 -1.66699 -0.666992 -3 -2l-30 -16l-150 66c16.667 4.66699 33.334 10.5 50.001 17.5s32.667 14.333 48 22s29.833 15.5 43.5 23.5l36.5 22c1.33301 1.33301 2.33301 2 3 2l29 18c-32 -4 -63.667 -6 -95 -6c-17.333 0 -33.333 0.666992 -48 2s-26.667 3 -36 5
l-72 124c7.33301 11.333 15 22.166 23 32.499s16.667 20.166 26 29.499l4 4c23.333 22 48.166 38.833 74.499 50.5s53.5 19.167 81.5 22.5l46 29c-32 -4 -63.667 -6 -95 -6c-17.333 0 -33.333 0.666992 -48 2s-26.667 3 -36 5l-72 124
c17.333 27.333 36.333 50.166 57 68.499s42.167 33 64.5 44s45.166 18.833 68.499 23.5s46.666 7 69.999 7c20.667 0 40.834 -1.5 60.501 -4.5s38.167 -6.83301 55.5 -11.5s32.833 -9.5 46.5 -14.5s25.167 -9.83301 34.5 -14.5v45h193v-87h-50zM497 282.005
l0.00195312 130.999c-22 34.667 -48.5 59 -79.5 73s-60.833 21 -89.5 21c-16 0 -31.333 -1.66699 -46 -5s-27.5 -7.33301 -38.5 -12s-19.667 -10 -26 -16s-9.5 -11.333 -9.5 -16c0.666992 0.666992 2 1 4 1c17.333 3.33301 34.166 6 50.499 8s33.166 3 50.499 3
c14.667 0 29.167 -1.33301 43.5 -4s27 -7.33398 38 -14.001s19.833 -16.167 26.5 -28.5s10 -27.833 10 -46.5c0 -20 -7.66699 -40.667 -23 -62l-1 -1c18.667 -5.33301 36 -10.666 52 -15.999s28.667 -10.666 38 -15.999z" />
    <glyph glyph-name="g_do_bn" horiz-adv-x="1028" 
d="M962 -13c-97.333 64 -146 141 -146 231c0 19.333 3 40.333 9 63c2 5.33301 3.66699 12 5 20l-211 -110l-143 47v148c-20 35.333 -45.667 62.333 -77 81c-27.333 15.333 -55.666 23 -84.999 23c-33.333 0 -62.333 -5.83301 -87 -17.5s-37.667 -24.167 -39 -37.5l54 11
c13.333 2 27.666 3 42.999 3l41 -1c43.333 -4 71 -33.667 83 -89l1 -18c0 -29.333 -15 -62.5 -45 -99.5s-70 -69.833 -120 -98.5l-33 -21l-150 76c28 10 57.167 22.833 87.5 38.5s70.833 42.5 121.5 80.5c-29.333 -4 -58.333 -6 -87 -6c-46 0 -77 2.33301 -93 7l-70 141
c36 63.333 79.333 108.333 130 135c36.667 18.667 80 28 130 28c12 0 24 -0.666992 36 -2c66 -9.33301 119 -25.333 159 -48v50h562v-87h-419v-186l249 130l141 -29l-38 -178c-1.33301 -4 -2 -13.667 -2 -29c0 -59.333 24 -104 72 -134z" />
    <glyph glyph-name="g_dho_bn" horiz-adv-x="914" 
d="M494 373c-12 24.667 -25.498 45.334 -40.498 62.001s-30.5 29.667 -46.5 39s-32.5 16 -49.5 20s-33.833 6 -50.5 6c-16 0 -31.167 -1.66699 -45.5 -5s-26.833 -7.5 -37.5 -12.5s-19.167 -10.5 -25.5 -16.5s-9.5 -11.667 -9.5 -17c0.666992 0.666992 2 1 4 1
c34 8 68 12 102 12c12 0 24.833 -1.16699 38.5 -3.5s26.334 -7 38.001 -14s21.334 -17 29.001 -30s11.5 -29.833 11.5 -50.5c0 -20 -5.83301 -39.333 -17.5 -58s-26 -36.167 -43 -52.5s-35.167 -31 -54.5 -44s-36.333 -23.833 -51 -32.5l-32 -19l-152 70
c34 9.33301 66.667 22.833 98 40.5s58 34.167 80 49.5l32 22c-16.667 -2 -33.334 -3.66699 -50.001 -5s-32.667 -2 -48 -2c-16.667 0 -32 0.666992 -46 2s-25.667 3 -35 5l-72 132c1.33301 1.33301 4.16602 5.5 8.49902 12.5l17.5 29.5l4 6
c8 13.333 20.167 26.166 36.5 38.499s35.166 23.166 56.499 32.499s43.833 16.833 67.5 22.5s47.167 8.5 70.5 8.5c24.667 0 48.834 -2.33301 72.501 -7s45 -10 64 -16s35.167 -12.167 48.5 -18.5s22.333 -11.166 27 -14.499v56h430v-87h-287v-312l136 28l122 -38l-74 -143
c-0.666992 0 -1 -0.666992 -1 -2l-3 -9c-3.33301 -13.333 -5 -24.333 -5 -33c0 -13.333 3.16699 -28.166 9.5 -44.499s18.166 -33.166 35.499 -50.499l-77 -96c-20 18.667 -36.333 36.667 -49 54s-22.667 34.166 -30 50.499s-12.333 31.833 -15 46.5s-4 28.667 -4 42
c0 16.667 2.16699 31.167 6.5 43.5s8.5 22.166 12.5 29.499l17 32l-81 -17v-260h-143v35c-18.667 10.667 -38.334 20.5 -59.001 29.5s-41.167 16.667 -61.5 23s-40 11.833 -59 16.5s-36.167 8 -51.5 10l-55 8v148l286 70v177zM494.002 18v68l-159 -28
c28 -3.33301 53 -7 75 -11s41 -9.66699 57 -17z" />
    <glyph glyph-name="g_dh_ro_bn" horiz-adv-x="914" 
d="M494 73l0.00195312 53.999l-130 -21c3.33301 -0.666992 9.16602 -1.66699 17.499 -3l27.5 -4.5c10 -1.66699 20.167 -3.66699 30.5 -6s19.166 -5.16602 26.499 -8.49902zM494.002 -50.001c-18 9.33301 -37.3311 17.999 -57.998 25.999s-41.167 15.167 -61.5 21.5
s-40.166 11.5 -59.499 15.5s-36.666 6.66699 -51.999 8l-55 8v142l286 64v155c-12 22 -25.333 40.333 -40 55s-30 26.167 -46 34.5s-32.667 14.333 -50 18s-34.333 5.5 -51 5.5s-32.167 -1.66699 -46.5 -5s-26.833 -7.16602 -37.5 -11.499s-19 -8.66602 -25 -12.999
s-9 -7.5 -9 -9.5c1.33301 1.33301 2.66602 2 3.99902 2c36.667 7.33301 70.667 11 102 11c11.333 0 23.833 -1.16699 37.5 -3.5s26.334 -6.66602 38.001 -12.999s21.5 -15.666 29.5 -27.999s12 -28.5 12 -48.5s-6 -38.833 -18 -56.5s-26.667 -33.834 -44 -48.501
s-35.666 -28 -54.999 -40l-50 -30l-31 -16l-162 68c42 12 78.667 25.667 110 41s58 30 80 44l16 10c-7.33301 -0.666992 -19.333 -1.66699 -36 -3s-32.667 -2 -48 -2c-16.667 0 -31.834 0.666992 -45.501 2s-25.167 3 -34.5 5l-75 125c3.33301 3.33301 7.16602 8 11.499 14
s10.166 15 17.499 27l4 5c8 12.667 20.167 24.5 36.5 35.5s35 20.833 56 29.5s43.5 15.5 67.5 20.5s47.333 7.5 70 7.5c24.667 0 48.667 -2 72 -6s44.5 -8.83301 63.5 -14.5s35.167 -11.334 48.5 -17.001s22.666 -10.5 27.999 -14.5v52h430v-87h-287v-276l136 26l125 -36
l-78 -137v1l-3 -9c-3.33301 -11.333 -5 -20.666 -5 -27.999c0 -10.667 3 -23.167 9 -37.5s19 -30.5 39 -48.5l-80 -90c-39.333 32.667 -65.5 64.167 -78.5 94.5s-19.5 57.833 -19.5 82.5c0.666992 15.333 3 29.166 7 41.499s8.33301 22.166 13 29.499l13 21l-78 -15v-383
h-143l-1 29c-25.333 13.333 -58.333 20 -99 20c-42 0 -90.333 -11 -145 -33c-26 -10.667 -51.667 -16 -77 -16c-38 0 -71.5 13.833 -100.5 41.5s-48.167 65.5 -57.5 113.5l126 31c3.33301 -3.33301 6 -8.16602 8 -14.499s5 -12.833 9 -19.5s9.33301 -12.334 16 -17.001
s16 -7 28 -7c11.333 0 29.666 5 54.999 15c52 20 100.333 30 145 30c34 0 65 -5 93 -15v21z" />
    <glyph glyph-name="g_no_bn" horiz-adv-x="665" 
d="M446 590l19.998 -8.99609c6 -2.66699 11.333 -5.33398 16 -8.00098v49h193v-87h-50v-668h-143v127l-12 15c-18.667 17.333 -36.167 29.5 -52.5 36.5s-31.166 10.5 -44.499 10.5c-15.333 0 -28.333 -3 -39 -9c32.667 -22.667 49 -52 49 -88c0 -16 -3 -30.333 -9 -43
s-13.833 -23.667 -23.5 -33s-20.834 -16.5 -33.501 -21.5s-25.334 -7.5 -38.001 -7.5c-16 0 -31.167 3.33301 -45.5 10s-26.5 15.667 -36.5 27l-2 3c-20 26 -30 54.333 -30 85c0 20 4.5 41.167 13.5 63.5s21.833 43.166 38.5 62.499s36.834 35.333 60.501 48
s50.167 19 79.5 19c36 0 77.667 -12.667 125 -38v260c-24 40.667 -51.167 68.5 -81.5 83.5s-61.5 22.5 -93.5 22.5c-16 0 -31.167 -1.66699 -45.5 -5s-26.833 -7.5 -37.5 -12.5s-19.167 -10.5 -25.5 -16.5s-9.5 -11.667 -9.5 -17c0.666992 0.666992 2 1 4 1
c34 8 67.667 12 101 12c11.333 0 23.833 -1.16699 37.5 -3.5s26.5 -7 38.5 -14s22 -16.833 30 -29.5s12 -29.334 12 -50.001c0 -20 -6 -39.333 -18 -58s-26.667 -36.334 -44 -53.001s-35.5 -31.5 -54.5 -44.5s-35.833 -23.833 -50.5 -32.5l-32 -19l-151 70
c22 6.66699 43.667 15.5 65 26.5s41.166 22 59.499 33s34.833 21.333 49.5 31s26.334 16.5 35.001 20.5l1 1c-16.667 -2.66699 -33.334 -4.5 -50.001 -5.5s-33.667 -1.5 -51 -1.5s-32.5 0.666992 -45.5 2s-23.833 3 -32.5 5l-72 131
c16.667 29.333 35.334 53.666 56.001 72.999s42.334 34.833 65.001 46.5s45.834 19.834 69.501 24.501s47.167 7 70.5 7c32 0 62.333 -3.5 91 -10.5s53 -14.167 73 -21.5z" />
    <glyph glyph-name="g_bo_bn" horiz-adv-x="665" 
d="M482 -110c-18.667 11.333 -38.332 21.499 -58.999 30.499s-41.334 16.833 -62.001 23.5s-40.667 12.167 -60 16.5s-36.666 7.5 -51.999 9.5l-55 8v148l288 70v197c-12 20.667 -25 37.834 -39 51.501s-28.5 24.667 -43.5 33s-30.5 14.166 -46.5 17.499s-31.667 5 -47 5
c-16 0 -31.167 -1.66699 -45.5 -5s-26.833 -7.5 -37.5 -12.5s-19 -10.5 -25 -16.5s-9 -11.667 -9 -17c0.666992 0.666992 1.66699 1 3 1c34 8 67.667 12 101 12c12 0 24.833 -1.16699 38.5 -3.5s26.334 -7 38.001 -14s21.5 -17 29.5 -30s12 -30.167 12 -51.5
c0 -20 -6 -39.333 -18 -58s-26.667 -36 -44 -52s-35.5 -30.5 -54.5 -43.5s-35.833 -23.833 -50.5 -32.5l-32 -19l-151 70c34 10.667 66.833 24.5 98.5 41.5s58.5 33.167 80.5 48.5c18 13.333 28.333 20.333 31 21l1 1c-16.667 -2.66699 -33.5 -4.5 -50.5 -5.5
s-34.167 -1.5 -51.5 -1.5s-32.5 0.666992 -45.5 2s-23.833 3 -32.5 5l-71 131c17.333 28.667 36.333 52.834 57 72.501s42.167 35.167 64.5 46.5s45.166 19.5 68.499 24.5s46.666 7.5 69.999 7.5c20 0 40 -1.5 60 -4.5s38.667 -6.83301 56 -11.5s33.333 -10 48 -16
s27 -12 37 -18v50h193v-87h-50v-679h-143v34zM482.002 17.999v68.999l-161 -29c28.667 -5.33301 54 -9.66602 76 -12.999s41 -8.33301 57 -15z" />
    <glyph glyph-name="g_mo_bn" horiz-adv-x="944" 
d="M904 535l-0.00195312 -662.001h-144v102l-2 10c-7.33301 25.333 -15.833 46.5 -25.5 63.5s-19.167 29.167 -28.5 36.5l-13 10c-22.667 15.333 -43.5 26.333 -62.5 33s-36.167 10 -51.5 10c-26 0 -48.667 -7.66699 -68 -23c56.667 -26 85 -69.667 85 -131
c0 -19.333 -4 -37 -12 -53s-18.5 -29.667 -31.5 -41s-27.833 -20.166 -44.5 -26.499s-33.334 -9.5 -50.001 -9.5c-17.333 0 -33.333 3.16699 -48 9.5s-28 14.166 -40 23.499l-4 3c-19.333 17.333 -34 36.666 -44 57.999s-15 46 -15 74c0 25.333 3.83301 50.833 11.5 76.5
s19 49.834 34 72.501s33.667 42.834 56 60.501s48.5 31.167 78.5 40.5v125c-11.333 21.333 -24.166 39 -38.499 53s-29.333 25.333 -45 34s-31.5 14.667 -47.5 18s-31.333 5 -46 5c-16 0 -31.167 -1.66699 -45.5 -5s-26.833 -7.5 -37.5 -12.5s-19.167 -10.5 -25.5 -16.5
s-9.83301 -11.333 -10.5 -16c2 0 3.33301 0.333008 4 1c32 8 64.333 12 97 12c12 0 25.167 -1.16699 39.5 -3.5s27.666 -7 39.999 -14s22.5 -17 30.5 -30s12 -29.833 12 -50.5c0 -20 -5.83301 -39.333 -17.5 -58s-26 -36.167 -43 -52.5s-35.167 -31 -54.5 -44
s-36.333 -23.833 -51 -32.5l-33 -19l-151 70c34 10.667 66.667 24.5 98 41.5s58 32.833 80 47.5l32 21c-15.333 -1.33301 -31 -2.5 -47 -3.5s-31.667 -1.5 -47 -1.5c-17.333 0 -33.5 0.5 -48.5 1.5s-27.167 2.5 -36.5 4.5l-72 131c16.667 29.333 35.167 53.666 55.5 72.999
s41.833 34.833 64.5 46.5s45.834 19.834 69.501 24.501s47.167 7 70.5 7c22.667 0 44.5 -1.83301 65.5 -5.5s40.333 -8 58 -13s33.334 -10.5 47.001 -16.5s24.834 -11.333 33.501 -16v44h469v-87h-50zM733.998 234.999l26.001 -16.001v316h-132v-261
c15.333 -3.33301 30.666 -7.66602 45.999 -12.999s30.666 -11.333 45.999 -18c0.666992 -0.666992 1.33398 -1 2.00098 -1l2 -1z" />
    <glyph glyph-name="g_ro_bn" horiz-adv-x="664" 
d="M481 -26c-12 5.33301 -25.834 9.6709 -41.501 13.0039s-32.167 5 -49.5 5c-41.333 0 -90.333 -12 -147 -36c-14 -6 -27.833 -10.333 -41.5 -13s-26.167 -4 -37.5 -4c-25.333 0 -48.166 6.33301 -68.499 19s-37.5 29.667 -51.5 51s-24.833 46.166 -32.5 74.499
s-11.5 58.166 -11.5 89.499v11l114 -20v-10c0 -6.66699 0.833008 -14.667 2.5 -24s5 -18.5 10 -27.5s12 -16.667 21 -23s21.167 -9.5 36.5 -9.5c18.667 0 40 5.33301 64 16c50.667 22 98 33 142 33c17.333 0 33.666 -1.33301 48.999 -4s29.333 -6.33398 42 -11.001v287
c-28.667 38 -58.334 64 -89.001 78s-60 21 -88 21c-18 0 -34.5 -2 -49.5 -6s-27.833 -8.5 -38.5 -13.5s-19 -9.83301 -25 -14.5s-9 -8 -9 -10c32 8 65.667 12 101 12c14 0 28.833 -1.16699 44.5 -3.5s30.334 -7.16602 44.001 -14.499s25 -17.833 34 -31.5
s13.5 -31.834 13.5 -54.501c0 -16.667 -4.33301 -33.167 -13 -49.5s-19.834 -32 -33.501 -47s-28.667 -29.167 -45 -42.5s-32 -25.333 -47 -36s-28.5 -19.334 -40.5 -26.001s-20.333 -11 -25 -13v-1l-153 76c22 6.66699 43.667 15.5 65 26.5s41.333 22.167 60 33.5
s35.334 22 50.001 32s26 17 34 21l1 1c-33.333 -4 -67 -6 -101 -6c-17.333 0 -32.5 0.666992 -45.5 2s-24.167 3 -33.5 5l-71 135c16.667 30 35 55 55 75s40.833 36 62.5 48s43.834 20.5 66.501 25.5s45 7.5 67 7.5c20.667 0 42 -2 64 -6s42.667 -9 62 -15
s36.5 -12.5 51.5 -19.5s25.5 -13.5 31.5 -19.5v61h193v-87h-50v-592h-143v31z" />
    <glyph glyph-name="g_lo_bn" horiz-adv-x="665" 
d="M482 -23l-3.99902 6.00488c-2.66699 2 -7.33398 4.66699 -14.001 8s-13.667 5 -21 5c-9.33301 0 -18.333 -3 -27 -9l9 -15l-67 -46c-6 8 -11.833 17.5 -17.5 28.5s-12.5 21.167 -20.5 30.5s-17.667 17.333 -29 24s-25.666 10 -42.999 10
c-10.667 0 -19.334 -1.83301 -26.001 -5.5s-11.667 -8.33398 -15 -14.001s-5.66602 -11.334 -6.99902 -17.001s-2 -10.5 -2 -14.5v-7c6.66699 7.33301 14.667 13 24 17s18.666 6 27.999 6c10.667 0 20.334 -2.33301 29.001 -7s15.834 -10.667 21.501 -18s10 -15.333 13 -24
s4.5 -16.667 4.5 -24c0 -19.333 -7.5 -36.666 -22.5 -51.999s-36.5 -23 -64.5 -23c-17.333 0 -33.5 3.5 -48.5 10.5s-28.167 16.833 -39.5 29.5s-20.333 28 -27 46s-10 38.333 -10 61c0 41.333 13 75.666 39 102.999s67.667 41.666 125 42.999
c38 -5.33301 69 -21.333 93 -48c8.66699 11.333 19.334 20.5 32.001 27.5s26 10.5 40 10.5s29.667 -4.66699 47 -14v285c-29.333 39.333 -59.5 66 -90.5 80s-60.833 21 -89.5 21c-18 0 -34.333 -1.83301 -49 -5.5s-27.334 -8 -38.001 -13s-18.834 -10 -24.501 -15
s-8.5 -8.5 -8.5 -10.5c32 8 65.667 12 101 12c14 0 29 -1.16699 45 -3.5s30.667 -7 44 -14s24.5 -17.333 33.5 -31s13.5 -31.5 13.5 -53.5c0 -20 -6.16699 -39.667 -18.5 -59s-27.166 -37.666 -44.499 -54.999s-36 -33 -56 -47s-37.333 -25.333 -52 -34l-33 -19l-154 74
c34 9.33301 66.667 23.166 98 41.499s58 35.166 80 50.499l32 22c-16.667 -1.33301 -33.334 -2.5 -50.001 -3.5s-33.667 -1.5 -51 -1.5s-32.333 0.5 -45 1.5s-23.667 2.16699 -33 3.5l-71 135c17.333 29.333 35.666 54 54.999 74s39.5 36 60.5 48s42.833 20.5 65.5 25.5
s46 7.5 70 7.5c21.333 0 42.333 -1.83301 63 -5.5s40 -8.33398 58 -14.001s34.667 -12 50 -19s28.333 -13.833 39 -20.5v60h193v-87h-50v-663h-143v105z" />
    <glyph glyph-name="gh_no_bn" horiz-adv-x="646" 
d="M462 171l-0.00195312 363.999h-260c-0.666992 -0.666992 -1 -6 -1 -16c0 -20.667 4.66699 -37.334 14 -50.001s24 -19 44 -19c10 0 19 2.16699 27 6.5s15 9.33301 21 15s10.5 11.167 13.5 16.5s4.5 9 4.5 11l93 -90l-183 -180l40 -2
c26.667 -1.33301 57.334 -6.16602 92.001 -14.499s66.334 -22.166 95.001 -41.499zM461.998 -3.00098l0.00585938 13.999c-15.333 20 -33.5 36.5 -54.5 49.5s-43.167 23.167 -66.5 30.5s-47 12.333 -71 15s-46.667 4 -68 4c-14.667 0 -28.334 -0.333008 -41.001 -1
s-24 -1.66699 -34 -3h-3c-0.666992 -0.666992 -1.33398 -1 -2.00098 -1l-38 -5l-63 110l138 133h-2c-0.666992 0.666992 -1.33398 1 -2.00098 1l-9 3c-8 2.66699 -17.833 7 -29.5 13s-22.834 14.667 -33.501 26s-19.834 26 -27.501 44s-11.5 40 -11.5 66c0 12 1 25 3 39h-57
v87h666v-87h-50v-794h-144v106c-4 7.33301 -7.33301 13.166 -10 17.499s-4.66699 7.5 -6 9.5l-8 8c-18 16.667 -34.833 28.5 -50.5 35.5s-30.167 10.5 -43.5 10.5c-14.667 0 -27.334 -3.33301 -38.001 -10c32 -21.333 48 -49.666 48 -84.999c0 -16 -3 -30.667 -9 -44
s-13.833 -24.5 -23.5 -33.5s-20.667 -16 -33 -21s-24.833 -7.5 -37.5 -7.5c-16 0 -30.833 3.5 -44.5 10.5s-25.167 16.167 -34.5 27.5l-3 3c-19.333 25.333 -29 53.333 -29 84c0 24 5 47.333 15 70s23.5 42.834 40.5 60.501s37 32 60 43s47.167 16.5 72.5 16.5
c40 0 84.667 -15 134 -45z" />
    <glyph glyph-name="gh_bo_bn" horiz-adv-x="646" 
d="M462 171l-0.00195312 363.999h-260c-0.666992 -0.666992 -1 -6 -1 -16c0 -20.667 4.66699 -37.334 14 -50.001s24 -19 44 -19c10 0 19 2.16699 27 6.5s15 9.33301 21 15s10.5 11.167 13.5 16.5s4.5 9 4.5 11l93 -90l-183 -180l40 -2
c26.667 -1.33301 57.334 -6.16602 92.001 -14.499s66.334 -22.166 95.001 -41.499zM410.998 57.999c-15.333 10.667 -31.9961 19.501 -49.9961 26.501s-36.333 12.5 -55 16.5s-37.167 6.66699 -55.5 8s-35.5 2 -51.5 2c-13.333 0 -26.166 -0.5 -38.499 -1.5
s-23.5 -2.16699 -33.5 -3.5h-3c-0.666992 -0.666992 -1.33398 -1 -2.00098 -1l-38 -5l-63 110l138 133h-2c-0.666992 0.666992 -1.33398 1 -2.00098 1l-9 3c-8 2.66699 -17.833 7 -29.5 13s-22.834 14.667 -33.501 26s-19.834 26 -27.501 44s-11.5 40 -11.5 66
c0 12 1 25 3 39h-57v87h666v-87h-50v-729h-144v17c-30 21.333 -62.833 37.666 -98.5 48.999s-67.5 19.333 -95.5 24h-2c-2.66699 0 -4.33398 0.333008 -5.00098 1l-34 5v111zM462.002 -71l0.000976562 59l-131 -27c32 -2.66699 58.167 -6.66699 78.5 -12
s36.166 -11 47.499 -17z" />
    <glyph glyph-name="gh_ro_bn" horiz-adv-x="645" 
d="M462 171v364h-260c-0.666992 -3.33301 -1.16699 -6.5 -1.5 -9.5s-0.5 -6.16699 -0.5 -9.5c0 -20 5 -36 15 -48s24.667 -18 44 -18c16 0 29.333 5.16699 40 15.5s18 19.166 22 26.499l2 4c1.33301 1.33301 2 2.33301 2 3l92 -90l-181 -180l39 -2
c12.667 -0.666992 27 -2.16699 43 -4.5s32.333 -5.66602 49 -9.99902s33.167 -9.83301 49.5 -16.5s31.5 -15 45.5 -25zM461 -132c-12 6.66699 -25.9971 11.8311 -41.9971 15.498s-33.333 5.5 -52 5.5c-20 0 -41.333 -3.16699 -64 -9.5s-47 -15.166 -73 -26.499
c-26.667 -11.333 -51.334 -17 -74.001 -17c-25.333 0 -47.666 6.66699 -66.999 20s-35.666 31.333 -48.999 54s-23.333 48.834 -30 78.501s-10 60.834 -10 93.501l118 -20v-10c0 -7.33301 1 -15.833 3 -25.5s5.5 -18.834 10.5 -27.501s11.5 -16.167 19.5 -22.5
s17.667 -9.5 29 -9.5c5.33301 0 12.833 1.33301 22.5 4s20.5 7 32.5 13c23.333 11.333 45.833 19.833 67.5 25.5s42.5 8.5 62.5 8.5c36.667 0 68.667 -6 96 -18l1 11c-15.333 20 -33.5 36.5 -54.5 49.5s-43.167 23.167 -66.5 30.5s-47 12.333 -71 15s-46.667 4 -68 4
c-14.667 0 -28.334 -0.333008 -41.001 -1s-24 -1.66699 -34 -3h-3c-0.666992 -0.666992 -1.33398 -1 -2.00098 -1l-38 -5l-63 110l138 133h-2c0 0.666992 -0.666992 1 -2 1l-10 3c-8 2 -17.833 6.16699 -29.5 12.5s-22.834 15.333 -33.501 27s-19.834 26.5 -27.501 44.5
s-11.5 40 -11.5 66c0 11.333 1 24 3 38h-56v87h665v-87h-50v-700h-143v33h-1z" />
    <glyph glyph-name="ng_ko_bn" horiz-adv-x="779" 
d="M534 535l-355.998 -0.00292969c3.33301 -2 6.66602 -4.16699 9.99902 -6.5s6.66602 -4.83301 9.99902 -7.5l10 -8c47.333 8.66699 91 13 131 13c22 0 42.667 -1.83301 62 -5.5s36.666 -10 51.999 -19s28.5 -21.333 39.5 -37s19.167 -35.5 24.5 -59.5
c1.33301 0.666992 6.33301 1 15 1h14c34.667 0 65.334 -6.33301 92.001 -19s49 -29.167 67 -49.5s31.667 -42.833 41 -67.5s14 -49 14 -73c0 -18 -3.33301 -35.333 -10 -52s-15.834 -31.5 -27.501 -44.5s-25.5 -23.333 -41.5 -31s-33 -11.5 -51 -11.5
c-14 0 -27 2.66699 -39 8s-22.333 12.333 -31 21s-15.5 18.834 -20.5 30.501s-7.5 23.834 -7.5 36.501c0 14 2.33301 25.833 7 35.5s10.5 17.667 17.5 24s15 11 24 14s18.167 4.5 27.5 4.5c8.66699 0 16.834 -0.833008 24.501 -2.5s13.5 -3.5 17.5 -5.5l-11 14
c-4 4.66699 -9.5 10 -16.5 16s-15.167 11.833 -24.5 17.5s-20 10.5 -32 14.5s-24.333 6 -37 6h-9v-319h-128v27c-23.333 14.667 -48 27.667 -74 39s-51.667 21.333 -77 30s-49.666 15.834 -72.999 21.501s-44.333 10.167 -63 13.5l-18 2c-0.666992 0.666992 -1.66699 1 -3 1
h-3c-0.666992 0.666992 -1.33398 1 -2.00098 1l-39 6v180l352 91c0 15.333 -7.33301 25.5 -22 30.5s-31 7.5 -49 7.5c-50.667 0 -118 -14 -202 -42l-35 106l52 12l-12 11l-34 25h-100v87h827v-87h-10c-1.33301 -20 -5.83301 -38.5 -13.5 -55.5s-17.5 -31.833 -29.5 -44.5
s-25.833 -22.667 -41.5 -30s-32.5 -11 -50.5 -11c-18.667 0 -36.167 3.66699 -52.5 11s-30.666 17.5 -42.999 30.5s-22.333 28 -30 45s-11.834 35.167 -12.501 54.5zM392.002 263.997l-200 -56c34 -3.33301 65 -7.83301 93 -13.5s52.667 -14.167 74 -25.5l33 -17v112z
M626.002 534.997c1.33301 -12 6.5 -21.833 15.5 -29.5s19.167 -11.5 30.5 -11.5c9.33301 0 18.5 3.83301 27.5 11.5s14.167 17.5 15.5 29.5h-89z" />
    </font>
</defs>
</svg>
